<svg id="コンポーネント_146_52" data-name="コンポーネント 146 – 52" xmlns="http://www.w3.org/2000/svg" width="14" height="14" viewBox="0 0 14 14">
  <rect id="長方形_7048" data-name="長方形 7048" width="14" height="14" fill="none"/>
  <path id="パス_825" data-name="パス 825" d="M1119.2,696.8a.6.6,0,0,1-.6-.6v-3h-3a.6.6,0,0,1,0-1.2h4.2v4.2A.6.6,0,0,1,1119.2,696.8Z" transform="translate(-1106.8 -691)" fill="#092987"/>
  <path id="パス_826" data-name="パス 826" d="M1112.645,699.1a.645.645,0,0,1-.456-1.1l5.808-5.808a.645.645,0,0,1,.913.913l-5.808,5.808A.643.643,0,0,1,1112.645,699.1Z" transform="translate(-1106.098 -691)" fill="#092987"/>
  <path id="パス_827" data-name="パス 827" d="M1113.881,704h-9.762a1.119,1.119,0,0,1-1.119-1.119v-9.762a1.119,1.119,0,0,1,1.119-1.119h4.295a.274.274,0,0,1,.274.275v.65a.274.274,0,0,1-.274.275H1104.2v9.6h9.6v-4.214a.274.274,0,0,1,.275-.274h.65a.274.274,0,0,1,.275.274v4.295A1.119,1.119,0,0,1,1113.881,704Z" transform="translate(-1102 -691)" fill="#092987"/>
</svg>
