<svg id="コンポーネント_101_3" data-name="コンポーネント 101 – 3" xmlns="http://www.w3.org/2000/svg" width="24" height="24" viewBox="0 0 16.002 16">
  <rect id="長方形_8506" data-name="長方形 8506" width="16" height="16" transform="translate(0.001)" fill="none"/>
  <path id="パス_1218" data-name="パス 1218" d="M445.641,631.813h0m-.483,1.135,1.408,3.3.294.69.747.065,3.568.309-2.7,2.332-.571.493.171.735.806,3.469L445.8,642.5l-.641-.383-.64.383-3.084,1.841.806-3.469.171-.735-.571-.493-2.7-2.331,3.568-.31.747-.065.294-.69,1.407-3.3m0-2.02a.735.735,0,0,0-.684.45l-1.867,4.375-4.763.414a.758.758,0,0,0-.678.8.775.775,0,0,0,.253.5l3.608,3.118-1.076,4.632a.756.756,0,0,0,.566.89.468.468,0,0,0,.135.018,1.02,1.02,0,0,0,.411-.108l4.1-2.448,4.1,2.448a.89.89,0,0,0,.415.11.7.7,0,0,0,.608-.363.768.768,0,0,0,.089-.547l-1.076-4.632,3.608-3.118a.74.74,0,0,0,.075-1.046.776.776,0,0,0-.5-.254l-4.762-.414-1.868-4.375a.754.754,0,0,0-.691-.45Z" transform="translate(-437.161 -630.527)" fill="#fff"/>
</svg>
