<svg xmlns="http://www.w3.org/2000/svg" width="24" height="24" viewBox="0 0 20 20">
  <g id="コンポーネント_251" data-name="コンポーネント 251" transform="translate(0 0)">
    <rect id="長方形_8125" data-name="長方形 8125" width="20" height="20" transform="translate(0 0)" fill="none"/>
    <g id="グループ_7617" data-name="グループ 7617" transform="translate(-408.48 -219)">
      <path id="パス_1244" data-name="パス 1244" d="M526.135,786.736h-8.717a3.4,3.4,0,0,1-3.392-3.391V770.128a3.4,3.4,0,0,1,3.392-3.392h8.717a3.4,3.4,0,0,1,3.391,3.392v1a1,1,0,0,1-2,0v-1a1.393,1.393,0,0,0-1.391-1.392h-8.717a1.393,1.393,0,0,0-1.392,1.392v13.217a1.393,1.393,0,0,0,1.392,1.391h8.717a1.393,1.393,0,0,0,1.391-1.391v-1a1,1,0,0,1,2,0v1A3.4,3.4,0,0,1,526.135,786.736Z" transform="translate(-104.545 -547.736)" fill="#fff"/>
      <path id="パス_1245" data-name="パス 1245" d="M532.009,775.725h-8.08l1.937-1.94a1,1,0,0,0-.05-1.415,1.009,1.009,0,0,0-1.369.007l-3.638,3.64a.986.986,0,0,0-.294.713.481.481,0,0,0,.018.122.906.906,0,0,0,.054.248.988.988,0,0,0,.222.338l3.639,3.639a.993.993,0,0,0,.707.293h0a1,1,0,0,0,.705-1.707l-1.931-1.934h8.079a1,1,0,0,0,0-2Z" transform="translate(-104.545 -547.736)" fill="#fff"/>
    </g>
  </g>
</svg>
