<?xml version="1.0" encoding="UTF-8"?><svg id="_イヤー_2" xmlns="http://www.w3.org/2000/svg" viewBox="0 0 161.12 91"><defs><style>.cls-1{fill:#0a3e86;}.cls-2{fill:#595959;}</style></defs><g id="_イヤー_1-2"><g><g><path class="cls-2" d="M0,81.41l2.97-.16c.04,1,.2,1.67,.49,2.02,.46,.57,1.3,.85,2.53,.85,1.02,0,1.76-.19,2.22-.58,.46-.39,.68-.85,.68-1.39,0-.47-.19-.87-.56-1.2-.26-.24-.98-.63-2.16-1.17-1.18-.54-2.04-.99-2.58-1.35-.54-.36-.97-.83-1.28-1.4s-.47-1.25-.47-2.02c0-1.34,.46-2.46,1.39-3.35,.92-.89,2.26-1.33,4.02-1.33s3.16,.44,4.14,1.32,1.51,2.05,1.61,3.51l-2.99,.14c-.08-.76-.34-1.35-.79-1.75-.45-.41-1.11-.61-1.99-.61s-1.48,.16-1.85,.48c-.37,.32-.55,.72-.55,1.21,0,.46,.17,.84,.51,1.13,.34,.31,1.09,.72,2.25,1.25,1.75,.79,2.86,1.43,3.33,1.93,.71,.73,1.07,1.66,1.07,2.8,0,1.41-.53,2.61-1.59,3.61-1.06,1-2.53,1.5-4.43,1.5-1.3,0-2.43-.23-3.39-.69s-1.63-1.1-2.02-1.92S-.02,82.48,0,81.41Z"/><path class="cls-2" d="M13.05,86.59l3.18-15.98h5.19c1.13,0,1.91,.04,2.36,.11,.75,.11,1.38,.33,1.89,.65,.52,.33,.91,.76,1.18,1.31,.27,.54,.4,1.15,.4,1.81,0,.89-.23,1.65-.7,2.3-.47,.65-1.19,1.14-2.17,1.48,.78,.23,1.39,.63,1.83,1.2,.44,.58,.66,1.23,.66,1.96,0,.96-.26,1.87-.78,2.73-.52,.86-1.23,1.48-2.14,1.86-.91,.38-2.16,.57-3.74,.57h-7.15Zm3.63-2.57h3.01c1.26,0,2.11-.09,2.54-.26,.43-.17,.78-.45,1.03-.85,.26-.39,.39-.81,.39-1.24,0-.53-.19-.97-.56-1.31-.37-.35-.99-.52-1.86-.52h-3.73l-.83,4.17Zm1.38-6.95h2.38c1.07,0,1.84-.08,2.31-.24,.47-.16,.82-.42,1.06-.78,.23-.36,.35-.75,.35-1.17s-.11-.74-.33-1c-.22-.26-.53-.44-.94-.52-.23-.04-.78-.07-1.65-.07h-2.42l-.76,3.78Z"/><path class="cls-2" d="M28.11,86.59l3.18-15.98h3.12l-3.17,15.98h-3.13Z"/><path class="cls-2" d="M37.53,81.41l2.97-.16c.04,1,.2,1.67,.49,2.02,.46,.57,1.3,.85,2.53,.85,1.02,0,1.76-.19,2.22-.58,.46-.39,.68-.85,.68-1.39,0-.47-.19-.87-.56-1.2-.26-.24-.98-.63-2.16-1.17-1.18-.54-2.04-.99-2.58-1.35-.54-.36-.97-.83-1.28-1.4s-.47-1.25-.47-2.02c0-1.34,.46-2.46,1.39-3.35,.92-.89,2.26-1.33,4.02-1.33s3.16,.44,4.14,1.32,1.51,2.05,1.61,3.51l-2.99,.14c-.08-.76-.34-1.35-.79-1.75-.45-.41-1.11-.61-1.99-.61s-1.48,.16-1.85,.48c-.37,.32-.55,.72-.55,1.21,0,.46,.17,.84,.51,1.13,.34,.31,1.09,.72,2.25,1.25,1.75,.79,2.86,1.43,3.33,1.93,.71,.73,1.07,1.66,1.07,2.8,0,1.41-.53,2.61-1.59,3.61-1.06,1-2.53,1.5-4.43,1.5-1.3,0-2.43-.23-3.39-.69s-1.63-1.1-2.02-1.92-.58-1.77-.55-2.83Z"/><path class="cls-2" d="M52.6,75.02h2.97l-1.36,6.85c-.17,.82-.25,1.33-.25,1.54,0,.33,.12,.62,.35,.86s.54,.36,.9,.36c.26,0,.52-.05,.78-.16,.26-.1,.52-.26,.79-.48,.27-.21,.51-.46,.72-.74s.41-.64,.6-1.09c.13-.33,.27-.88,.42-1.63l1.1-5.51h2.97l-2.3,11.57h-2.77l.31-1.57c-1.21,1.23-2.54,1.84-3.97,1.84-.9,0-1.62-.27-2.13-.82-.52-.54-.78-1.28-.78-2.19,0-.4,.12-1.19,.35-2.39l1.28-6.45Z"/><path class="cls-2" d="M64.74,75.02h2.82l-.24,1.19c.6-.52,1.16-.9,1.69-1.12s1.09-.34,1.69-.34c1.15,0,2.08,.42,2.78,1.25,.7,.84,1.05,2.08,1.05,3.74,0,2.09-.6,3.85-1.81,5.29-1.04,1.23-2.26,1.84-3.68,1.84s-2.56-.62-3.3-1.86l-1.19,6h-2.97l3.17-15.99Zm1.79,6.64c0,.9,.21,1.6,.63,2.1,.42,.5,.91,.75,1.48,.75,.49,0,.96-.19,1.42-.56,.46-.37,.83-1,1.13-1.86,.3-.87,.45-1.67,.45-2.41,0-.86-.2-1.53-.59-1.99-.39-.46-.89-.69-1.5-.69-.57,0-1.08,.21-1.55,.64-.47,.42-.83,1.05-1.08,1.87-.26,.82-.38,1.55-.38,2.16Z"/><path class="cls-2" d="M85.77,81.77h-7.45c0,.12-.01,.22-.01,.28,0,.77,.21,1.39,.63,1.86,.42,.47,.93,.71,1.53,.71,.99,0,1.76-.54,2.31-1.61l2.66,.47c-.52,1.13-1.21,1.97-2.08,2.53-.87,.56-1.84,.84-2.91,.84-1.48,0-2.68-.49-3.6-1.48-.93-.98-1.39-2.29-1.39-3.91s.42-2.99,1.25-4.23c1.14-1.67,2.76-2.51,4.88-2.51,1.35,0,2.42,.44,3.21,1.31,.79,.88,1.19,2.1,1.19,3.68,0,.76-.07,1.44-.21,2.04Zm-2.51-1.91c0-.14,.01-.24,.01-.32,0-.86-.18-1.5-.55-1.93s-.86-.64-1.47-.64-1.16,.24-1.65,.73c-.49,.49-.82,1.21-.99,2.16h4.65Z"/><path class="cls-2" d="M88.82,75.02h2.77l-.45,2.24c1.04-1.68,2.16-2.52,3.36-2.52,.43,0,.89,.11,1.38,.34l-1.14,2.56c-.27-.1-.56-.15-.86-.15-.51,0-1.03,.2-1.56,.61s-.94,.95-1.24,1.63c-.3,.68-.59,1.76-.88,3.23l-.72,3.63h-2.97l2.3-11.57Z"/><path class="cls-2" d="M98.36,81.41l2.97-.16c.04,1,.2,1.67,.49,2.02,.46,.57,1.3,.85,2.53,.85,1.02,0,1.76-.19,2.22-.58,.46-.39,.68-.85,.68-1.39,0-.47-.19-.87-.56-1.2-.26-.24-.98-.63-2.16-1.17-1.18-.54-2.04-.99-2.58-1.35-.54-.36-.97-.83-1.28-1.4s-.47-1.25-.47-2.02c0-1.34,.46-2.46,1.39-3.35,.92-.89,2.26-1.33,4.02-1.33s3.16,.44,4.14,1.32,1.51,2.05,1.61,3.51l-2.99,.14c-.08-.76-.34-1.35-.79-1.75-.45-.41-1.11-.61-1.99-.61s-1.48,.16-1.85,.48c-.37,.32-.55,.72-.55,1.21,0,.46,.17,.84,.51,1.13,.34,.31,1.09,.72,2.25,1.25,1.75,.79,2.86,1.43,3.33,1.93,.71,.73,1.07,1.66,1.07,2.8,0,1.41-.53,2.61-1.59,3.61-1.06,1-2.53,1.5-4.43,1.5-1.3,0-2.43-.23-3.39-.69s-1.63-1.1-2.02-1.92-.58-1.77-.55-2.83Z"/><path class="cls-2" d="M111.59,81.78c0-2.14,.57-3.85,1.72-5.13,1.15-1.28,2.66-1.91,4.53-1.91,1.62,0,2.89,.47,3.8,1.41,.91,.94,1.37,2.21,1.37,3.8,0,1.87-.57,3.49-1.71,4.86s-2.66,2.05-4.58,2.05c-1.04,0-1.95-.22-2.75-.65s-1.4-1.05-1.79-1.85c-.39-.8-.59-1.66-.59-2.57Zm8.47-2.23c0-.74-.21-1.34-.62-1.78-.41-.45-.94-.67-1.59-.67s-1.21,.21-1.71,.63c-.5,.42-.88,1.02-1.16,1.82-.28,.8-.41,1.53-.41,2.2,0,.83,.21,1.49,.64,1.97s.97,.73,1.62,.73c.81,0,1.5-.37,2.05-1.1,.79-1.04,1.18-2.3,1.18-3.79Z"/><path class="cls-2" d="M123.45,86.59l3.18-15.98h2.96l-3.17,15.98h-2.97Z"/><path class="cls-2" d="M134.63,86.59h-2.56l-2.21-11.57h2.92l.78,5.05c.21,1.37,.34,2.27,.38,2.72,.06-.12,.3-.59,.72-1.41,.42-.82,.68-1.31,.78-1.48l2.73-4.88h3.21l-6.76,11.57Z"/><path class="cls-2" d="M150.99,81.77h-7.45c0,.12-.01,.22-.01,.28,0,.77,.21,1.39,.63,1.86,.42,.47,.93,.71,1.53,.71,.99,0,1.76-.54,2.31-1.61l2.66,.47c-.52,1.13-1.21,1.97-2.08,2.53-.87,.56-1.84,.84-2.91,.84-1.48,0-2.68-.49-3.6-1.48-.93-.98-1.39-2.29-1.39-3.91s.42-2.99,1.25-4.23c1.14-1.67,2.76-2.51,4.88-2.51,1.35,0,2.42,.44,3.21,1.31,.79,.88,1.19,2.1,1.19,3.68,0,.76-.07,1.44-.21,2.04Zm-2.51-1.91c0-.14,.01-.24,.01-.32,0-.86-.18-1.5-.55-1.93s-.86-.64-1.47-.64-1.16,.24-1.65,.73c-.49,.49-.82,1.21-.99,2.16h4.65Z"/><path class="cls-2" d="M154.04,75.02h2.77l-.45,2.24c1.04-1.68,2.16-2.52,3.36-2.52,.43,0,.89,.11,1.38,.34l-1.14,2.56c-.27-.1-.56-.15-.86-.15-.51,0-1.03,.2-1.56,.61s-.94,.95-1.24,1.63c-.3,.68-.59,1.76-.88,3.23l-.72,3.63h-2.97l2.3-11.57Z"/></g><g><path class="cls-1" d="M15.89,40.24c-1.26,6.92,2.27,9.14,8.42,9.14,4.35,0,9.23-1.65,10.22-6.01,1.17-5.18-6.53-6.17-13.99-8.56-7.38-2.38-14.84-6.17-12.39-16.95C11.06,5.03,24.39,0,34.8,0c9.37,0,17.87,4.09,18.43,13.44v.05l-14.95,5.44c1.45-5.35-2.9-7.08-7.33-7.08-3.11,0-7.26,1.15-8.13,5.02-1.03,4.53,6.79,5.35,14.33,7.74,7.47,2.38,14.65,6.33,12.25,16.94-3.38,14.89-16.43,19.67-28.63,19.67-11.01,0-19.92-4.42-19.99-15.33,0-.05,0-.14,0-.14l15.11-5.51Z"/><path class="cls-1" d="M69.84,40.24c-1.26,6.92,2.27,9.14,8.42,9.14,4.35,0,9.23-1.65,10.22-6.01,1.17-5.18-6.53-6.17-13.99-8.56-7.38-2.38-14.84-6.17-12.39-16.95C65,5.03,78.33,0,88.74,0c9.37,0,17.87,4.09,18.43,13.44v.05l-14.95,5.44c1.45-5.35-2.9-7.08-7.33-7.08-3.11,0-7.26,1.15-8.13,5.02-1.03,4.53,6.79,5.35,14.33,7.74,7.47,2.38,14.65,6.33,12.25,16.94-3.38,14.89-16.43,19.67-28.63,19.67-11.01,0-19.92-4.42-19.99-15.33,0-.05,0-.14,0-.14l15.11-5.51Z"/><path class="cls-1" d="M123.78,40.24c-1.26,6.92,2.27,9.14,8.42,9.14,4.35,0,9.23-1.65,10.22-6.01,1.17-5.18-6.53-6.17-13.99-8.56-7.38-2.38-14.84-6.17-12.39-16.95C118.94,5.03,132.27,0,142.69,0c9.37,0,17.87,4.09,18.43,13.44v.05l-14.95,5.44c1.45-5.35-2.9-7.08-7.33-7.08-3.11,0-7.26,1.15-8.13,5.02-1.03,4.53,6.79,5.35,14.33,7.74,7.47,2.38,14.65,6.33,12.25,16.94-3.38,14.89-16.43,19.67-28.63,19.67-11.01,0-19.92-4.42-19.99-15.33,0-.05,0-.14,0-.14l15.11-5.51Z"/></g><g><path class="cls-2" d="M0,81.41l2.97-.16c.04,1,.2,1.67,.49,2.02,.46,.57,1.3,.85,2.53,.85,1.02,0,1.76-.19,2.22-.58,.46-.39,.68-.85,.68-1.39,0-.47-.19-.87-.56-1.2-.26-.24-.98-.63-2.16-1.17-1.18-.54-2.04-.99-2.58-1.35-.54-.36-.97-.83-1.28-1.4s-.47-1.25-.47-2.02c0-1.34,.46-2.46,1.39-3.35,.92-.89,2.26-1.33,4.02-1.33s3.16,.44,4.14,1.32,1.51,2.05,1.61,3.51l-2.99,.14c-.08-.76-.34-1.35-.79-1.75-.45-.41-1.11-.61-1.99-.61s-1.48,.16-1.85,.48c-.37,.32-.55,.72-.55,1.21,0,.46,.17,.84,.51,1.13,.34,.31,1.09,.72,2.25,1.25,1.75,.79,2.86,1.43,3.33,1.93,.71,.73,1.07,1.66,1.07,2.8,0,1.41-.53,2.61-1.59,3.61-1.06,1-2.53,1.5-4.43,1.5-1.3,0-2.43-.23-3.39-.69s-1.63-1.1-2.02-1.92S-.02,82.48,0,81.41Z"/><path class="cls-2" d="M13.05,86.59l3.18-15.98h5.19c1.13,0,1.91,.04,2.36,.11,.75,.11,1.38,.33,1.89,.65,.52,.33,.91,.76,1.18,1.31,.27,.54,.4,1.15,.4,1.81,0,.89-.23,1.65-.7,2.3-.47,.65-1.19,1.14-2.17,1.48,.78,.23,1.39,.63,1.83,1.2,.44,.58,.66,1.23,.66,1.96,0,.96-.26,1.87-.78,2.73-.52,.86-1.23,1.48-2.14,1.86-.91,.38-2.16,.57-3.74,.57h-7.15Zm3.63-2.57h3.01c1.26,0,2.11-.09,2.54-.26,.43-.17,.78-.45,1.03-.85,.26-.39,.39-.81,.39-1.24,0-.53-.19-.97-.56-1.31-.37-.35-.99-.52-1.86-.52h-3.73l-.83,4.17Zm1.38-6.95h2.38c1.07,0,1.84-.08,2.31-.24,.47-.16,.82-.42,1.06-.78,.23-.36,.35-.75,.35-1.17s-.11-.74-.33-1c-.22-.26-.53-.44-.94-.52-.23-.04-.78-.07-1.65-.07h-2.42l-.76,3.78Z"/><path class="cls-2" d="M28.11,86.59l3.18-15.98h3.12l-3.17,15.98h-3.13Z"/><path class="cls-2" d="M37.53,81.41l2.97-.16c.04,1,.2,1.67,.49,2.02,.46,.57,1.3,.85,2.53,.85,1.02,0,1.76-.19,2.22-.58,.46-.39,.68-.85,.68-1.39,0-.47-.19-.87-.56-1.2-.26-.24-.98-.63-2.16-1.17-1.18-.54-2.04-.99-2.58-1.35-.54-.36-.97-.83-1.28-1.4s-.47-1.25-.47-2.02c0-1.34,.46-2.46,1.39-3.35,.92-.89,2.26-1.33,4.02-1.33s3.16,.44,4.14,1.32,1.51,2.05,1.61,3.51l-2.99,.14c-.08-.76-.34-1.35-.79-1.75-.45-.41-1.11-.61-1.99-.61s-1.48,.16-1.85,.48c-.37,.32-.55,.72-.55,1.21,0,.46,.17,.84,.51,1.13,.34,.31,1.09,.72,2.25,1.25,1.75,.79,2.86,1.43,3.33,1.93,.71,.73,1.07,1.66,1.07,2.8,0,1.41-.53,2.61-1.59,3.61-1.06,1-2.53,1.5-4.43,1.5-1.3,0-2.43-.23-3.39-.69s-1.63-1.1-2.02-1.92-.58-1.77-.55-2.83Z"/><path class="cls-2" d="M52.6,75.02h2.97l-1.36,6.85c-.17,.82-.25,1.33-.25,1.54,0,.33,.12,.62,.35,.86s.54,.36,.9,.36c.26,0,.52-.05,.78-.16,.26-.1,.52-.26,.79-.48,.27-.21,.51-.46,.72-.74s.41-.64,.6-1.09c.13-.33,.27-.88,.42-1.63l1.1-5.51h2.97l-2.3,11.57h-2.77l.31-1.57c-1.21,1.23-2.54,1.84-3.97,1.84-.9,0-1.62-.27-2.13-.82-.52-.54-.78-1.28-.78-2.19,0-.4,.12-1.19,.35-2.39l1.28-6.45Z"/><path class="cls-2" d="M64.74,75.02h2.82l-.24,1.19c.6-.52,1.16-.9,1.69-1.12s1.09-.34,1.69-.34c1.15,0,2.08,.42,2.78,1.25,.7,.84,1.05,2.08,1.05,3.74,0,2.09-.6,3.85-1.81,5.29-1.04,1.23-2.26,1.84-3.68,1.84s-2.56-.62-3.3-1.86l-1.19,6h-2.97l3.17-15.99Zm1.79,6.64c0,.9,.21,1.6,.63,2.1,.42,.5,.91,.75,1.48,.75,.49,0,.96-.19,1.42-.56,.46-.37,.83-1,1.13-1.86,.3-.87,.45-1.67,.45-2.41,0-.86-.2-1.53-.59-1.99-.39-.46-.89-.69-1.5-.69-.57,0-1.08,.21-1.55,.64-.47,.42-.83,1.05-1.08,1.87-.26,.82-.38,1.55-.38,2.16Z"/><path class="cls-2" d="M85.77,81.77h-7.45c0,.12-.01,.22-.01,.28,0,.77,.21,1.39,.63,1.86,.42,.47,.93,.71,1.53,.71,.99,0,1.76-.54,2.31-1.61l2.66,.47c-.52,1.13-1.21,1.97-2.08,2.53-.87,.56-1.84,.84-2.91,.84-1.48,0-2.68-.49-3.6-1.48-.93-.98-1.39-2.29-1.39-3.91s.42-2.99,1.25-4.23c1.14-1.67,2.76-2.51,4.88-2.51,1.35,0,2.42,.44,3.21,1.31,.79,.88,1.19,2.1,1.19,3.68,0,.76-.07,1.44-.21,2.04Zm-2.51-1.91c0-.14,.01-.24,.01-.32,0-.86-.18-1.5-.55-1.93s-.86-.64-1.47-.64-1.16,.24-1.65,.73c-.49,.49-.82,1.21-.99,2.16h4.65Z"/><path class="cls-2" d="M88.82,75.02h2.77l-.45,2.24c1.04-1.68,2.16-2.52,3.36-2.52,.43,0,.89,.11,1.38,.34l-1.14,2.56c-.27-.1-.56-.15-.86-.15-.51,0-1.03,.2-1.56,.61s-.94,.95-1.24,1.63c-.3,.68-.59,1.76-.88,3.23l-.72,3.63h-2.97l2.3-11.57Z"/><path class="cls-2" d="M98.36,81.41l2.97-.16c.04,1,.2,1.67,.49,2.02,.46,.57,1.3,.85,2.53,.85,1.02,0,1.76-.19,2.22-.58,.46-.39,.68-.85,.68-1.39,0-.47-.19-.87-.56-1.2-.26-.24-.98-.63-2.16-1.17-1.18-.54-2.04-.99-2.58-1.35-.54-.36-.97-.83-1.28-1.4s-.47-1.25-.47-2.02c0-1.34,.46-2.46,1.39-3.35,.92-.89,2.26-1.33,4.02-1.33s3.16,.44,4.14,1.32,1.51,2.05,1.61,3.51l-2.99,.14c-.08-.76-.34-1.35-.79-1.75-.45-.41-1.11-.61-1.99-.61s-1.48,.16-1.85,.48c-.37,.32-.55,.72-.55,1.21,0,.46,.17,.84,.51,1.13,.34,.31,1.09,.72,2.25,1.25,1.75,.79,2.86,1.43,3.33,1.93,.71,.73,1.07,1.66,1.07,2.8,0,1.41-.53,2.61-1.59,3.61-1.06,1-2.53,1.5-4.43,1.5-1.3,0-2.43-.23-3.39-.69s-1.63-1.1-2.02-1.92-.58-1.77-.55-2.83Z"/><path class="cls-2" d="M111.59,81.78c0-2.14,.57-3.85,1.72-5.13,1.15-1.28,2.66-1.91,4.53-1.91,1.62,0,2.89,.47,3.8,1.41,.91,.94,1.37,2.21,1.37,3.8,0,1.87-.57,3.49-1.71,4.86s-2.66,2.05-4.58,2.05c-1.04,0-1.95-.22-2.75-.65s-1.4-1.05-1.79-1.85c-.39-.8-.59-1.66-.59-2.57Zm8.47-2.23c0-.74-.21-1.34-.62-1.78-.41-.45-.94-.67-1.59-.67s-1.21,.21-1.71,.63c-.5,.42-.88,1.02-1.16,1.82-.28,.8-.41,1.53-.41,2.2,0,.83,.21,1.49,.64,1.97s.97,.73,1.62,.73c.81,0,1.5-.37,2.05-1.1,.79-1.04,1.18-2.3,1.18-3.79Z"/><path class="cls-2" d="M123.45,86.59l3.18-15.98h2.96l-3.17,15.98h-2.97Z"/><path class="cls-2" d="M134.63,86.59h-2.56l-2.21-11.57h2.92l.78,5.05c.21,1.37,.34,2.27,.38,2.72,.06-.12,.3-.59,.72-1.41,.42-.82,.68-1.31,.78-1.48l2.73-4.88h3.21l-6.76,11.57Z"/><path class="cls-2" d="M150.99,81.77h-7.45c0,.12-.01,.22-.01,.28,0,.77,.21,1.39,.63,1.86,.42,.47,.93,.71,1.53,.71,.99,0,1.76-.54,2.31-1.61l2.66,.47c-.52,1.13-1.21,1.97-2.08,2.53-.87,.56-1.84,.84-2.91,.84-1.48,0-2.68-.49-3.6-1.48-.93-.98-1.39-2.29-1.39-3.91s.42-2.99,1.25-4.23c1.14-1.67,2.76-2.51,4.88-2.51,1.35,0,2.42,.44,3.21,1.31,.79,.88,1.19,2.1,1.19,3.68,0,.76-.07,1.44-.21,2.04Zm-2.51-1.91c0-.14,.01-.24,.01-.32,0-.86-.18-1.5-.55-1.93s-.86-.64-1.47-.64-1.16,.24-1.65,.73c-.49,.49-.82,1.21-.99,2.16h4.65Z"/><path class="cls-2" d="M154.04,75.02h2.77l-.45,2.24c1.04-1.68,2.16-2.52,3.36-2.52,.43,0,.89,.11,1.38,.34l-1.14,2.56c-.27-.1-.56-.15-.86-.15-.51,0-1.03,.2-1.56,.61s-.94,.95-1.24,1.63c-.3,.68-.59,1.76-.88,3.23l-.72,3.63h-2.97l2.3-11.57Z"/></g><g><path class="cls-1" d="M15.89,40.24c-1.26,6.92,2.27,9.14,8.42,9.14,4.35,0,9.23-1.65,10.22-6.01,1.17-5.18-6.53-6.17-13.99-8.56-7.38-2.38-14.84-6.17-12.39-16.95C11.06,5.03,24.39,0,34.8,0c9.37,0,17.87,4.09,18.43,13.44v.05l-14.95,5.44c1.45-5.35-2.9-7.08-7.33-7.08-3.11,0-7.26,1.15-8.13,5.02-1.03,4.53,6.79,5.35,14.33,7.74,7.47,2.38,14.65,6.33,12.25,16.94-3.38,14.89-16.43,19.67-28.63,19.67-11.01,0-19.92-4.42-19.99-15.33,0-.05,0-.14,0-.14l15.11-5.51Z"/><path class="cls-1" d="M69.84,40.24c-1.26,6.92,2.27,9.14,8.42,9.14,4.35,0,9.23-1.65,10.22-6.01,1.17-5.18-6.53-6.17-13.99-8.56-7.38-2.38-14.84-6.17-12.39-16.95C65,5.03,78.33,0,88.74,0c9.37,0,17.87,4.09,18.43,13.44v.05l-14.95,5.44c1.45-5.35-2.9-7.08-7.33-7.08-3.11,0-7.26,1.15-8.13,5.02-1.03,4.53,6.79,5.35,14.33,7.74,7.47,2.38,14.65,6.33,12.25,16.94-3.38,14.89-16.43,19.67-28.63,19.67-11.01,0-19.92-4.42-19.99-15.33,0-.05,0-.14,0-.14l15.11-5.51Z"/><path class="cls-1" d="M123.78,40.24c-1.26,6.92,2.27,9.14,8.42,9.14,4.35,0,9.23-1.65,10.22-6.01,1.17-5.18-6.53-6.17-13.99-8.56-7.38-2.38-14.84-6.17-12.39-16.95C118.94,5.03,132.27,0,142.69,0c9.37,0,17.87,4.09,18.43,13.44v.05l-14.95,5.44c1.45-5.35-2.9-7.08-7.33-7.08-3.11,0-7.26,1.15-8.13,5.02-1.03,4.53,6.79,5.35,14.33,7.74,7.47,2.38,14.65,6.33,12.25,16.94-3.38,14.89-16.43,19.67-28.63,19.67-11.01,0-19.92-4.42-19.99-15.33,0-.05,0-.14,0-.14l15.11-5.51Z"/></g></g></g></svg>