<svg width="32" height="32" viewBox="0 0 32 32" fill="none" xmlns="http://www.w3.org/2000/svg">
<path d="M16.0008 19.1846L5.41482 8.59863C5.23032 8.40761 5.00963 8.25525 4.76562 8.15043C4.52162 8.04561 4.25918 7.99044 3.99362 7.98813C3.72806 7.98582 3.4647 8.03643 3.21891 8.13699C2.97312 8.23755 2.74981 8.38606 2.56203 8.57384C2.37424 8.76163 2.22573 8.98493 2.12517 9.23072C2.02461 9.47652 1.97401 9.73988 1.97631 10.0054C1.97862 10.271 2.03379 10.5334 2.13861 10.7774C2.24343 11.0214 2.3958 11.2421 2.58682 11.4266L14.5868 23.4266C14.9619 23.8016 15.4705 24.0122 16.0008 24.0122C16.5311 24.0122 17.0398 23.8016 17.4148 23.4266L29.4148 11.4266C29.6058 11.2421 29.7582 11.0215 29.863 10.7774C29.9678 10.5334 30.023 10.271 30.0253 10.0054C30.0276 9.73988 29.977 9.47652 29.8765 9.23073C29.7759 8.98493 29.6274 8.76163 29.4396 8.57384C29.2518 8.38606 29.0285 8.23755 28.7827 8.13699C28.5369 8.03643 28.2736 7.98582 28.008 7.98813C27.7425 7.99044 27.48 8.04561 27.236 8.15043C26.992 8.25525 26.7713 8.40761 26.5868 8.59863L16.0008 19.1846Z" fill="#092987"/>
</svg>
