<svg width="32" height="32" viewBox="0 0 32 32" fill="none" xmlns="http://www.w3.org/2000/svg">
<path d="M15.9992 12.8154L5.41319 23.4014C5.22869 23.5924 5.008 23.7448 4.76399 23.8496C4.51999 23.9544 4.25755 24.0096 3.99199 24.0119C3.72643 24.0142 3.46307 23.9636 3.21728 23.863C2.97148 23.7624 2.74818 23.6139 2.5604 23.4262C2.37261 23.2384 2.2241 23.0151 2.12354 22.7693C2.02298 22.5235 1.97238 22.2601 1.97468 21.9946C1.97699 21.729 2.03216 21.4666 2.13698 21.2226C2.2418 20.9785 2.39417 20.7579 2.58519 20.5734L14.5852 8.57337C14.9602 8.19842 15.4689 7.98779 15.9992 7.98779C16.5295 7.98779 17.0381 8.19842 17.4132 8.57337L29.4132 20.5734C29.6042 20.7579 29.7566 20.9785 29.8614 21.2226C29.9662 21.4666 30.0214 21.729 30.0237 21.9946C30.026 22.2601 29.9754 22.5235 29.8748 22.7693C29.7743 23.0151 29.6258 23.2384 29.438 23.4262C29.2502 23.6139 29.0269 23.7624 28.7811 23.863C28.5353 23.9636 28.2719 24.0142 28.0064 24.0119C27.7408 24.0096 27.4784 23.9544 27.2344 23.8496C26.9904 23.7448 26.7697 23.5924 26.5852 23.4014L15.9992 12.8154Z" fill="#092987"/>
</svg>
