<svg width="32" height="32" viewBox="0 0 32 32" fill="none" xmlns="http://www.w3.org/2000/svg">
<path d="M12.8151 15.9998L23.4011 26.5858C23.5922 26.7703 23.7445 26.991 23.8493 27.235C23.9542 27.479 24.0093 27.7415 24.0116 28.007C24.014 28.2726 23.9633 28.536 23.8628 28.7817C23.7622 29.0275 23.6137 29.2508 23.4259 29.4386C23.2381 29.6264 23.0148 29.7749 22.7691 29.8755C22.5233 29.976 22.2599 30.0266 21.9943 30.0243C21.7288 30.022 21.4663 29.9669 21.2223 29.862C20.9783 29.7572 20.7576 29.6049 20.5731 29.4138L8.57314 17.4138C8.1982 17.0388 7.98757 16.5302 7.98757 15.9998C7.98757 15.4695 8.1982 14.9609 8.57314 14.5858L20.5731 2.58584C20.7576 2.39482 20.9783 2.24245 21.2223 2.13763C21.4663 2.03282 21.7288 1.97764 21.9943 1.97534C22.2599 1.97303 22.5233 2.02363 22.7691 2.12419C23.0148 2.22476 23.2381 2.37326 23.4259 2.56105C23.6137 2.74883 23.7622 2.97214 23.8628 3.21793C23.9634 3.46372 24.014 3.72708 24.0116 3.99264C24.0093 4.2582 23.9542 4.52064 23.8493 4.76465C23.7445 5.00865 23.5922 5.22934 23.4011 5.41384L12.8151 15.9998Z" fill="#092987"/>
</svg>
