<svg width="32" height="32" viewBox="0 0 32 32" fill="none" xmlns="http://www.w3.org/2000/svg">
<path d="M19.1849 16.0002L8.59886 5.41416C8.40784 5.22967 8.25547 5.00898 8.15065 4.76497C8.04584 4.52096 7.99066 4.25852 7.98836 3.99296C7.98605 3.72741 8.03665 3.46405 8.13721 3.21825C8.23778 2.97246 8.38628 2.74916 8.57407 2.56137C8.76185 2.37359 8.98516 2.22508 9.23095 2.12452C9.47674 2.02396 9.7401 1.97335 10.0057 1.97566C10.2712 1.97797 10.5337 2.03314 10.7777 2.13796C11.0217 2.24278 11.2424 2.39514 11.4269 2.58616L23.4269 14.5862C23.8018 14.9612 24.0124 15.4698 24.0124 16.0002C24.0124 16.5305 23.8018 17.0391 23.4269 17.4142L11.4269 29.4142C11.2424 29.6052 11.0217 29.7575 10.7777 29.8624C10.5337 29.9672 10.2712 30.0224 10.0057 30.0247C9.7401 30.027 9.47674 29.9764 9.23095 29.8758C8.98516 29.7752 8.76185 29.6267 8.57407 29.439C8.38628 29.2512 8.23778 29.0279 8.13721 28.7821C8.03665 28.5363 7.98605 28.2729 7.98836 28.0074C7.99066 27.7418 8.04584 27.4794 8.15065 27.2354C8.25547 26.9913 8.40784 26.7707 8.59886 26.5862L19.1849 16.0002Z" fill="#092987"/>
</svg>
