<svg width="32" height="33" viewBox="0 0 32 33" fill="none" xmlns="http://www.w3.org/2000/svg">
<path d="M30.666 17.5175C30.5926 17.6269 30.5089 17.7291 30.416 17.8225L20.416 27.8225C20.2315 28.0135 20.0108 28.1659 19.7668 28.2707C19.5228 28.3755 19.2603 28.4307 18.9948 28.433C18.7292 28.4353 18.4658 28.3847 18.22 28.2841C17.9743 28.1835 17.7509 28.035 17.5632 27.8473C17.3754 27.6595 17.2269 27.4362 17.1263 27.1904C17.0257 26.9446 16.9751 26.6812 16.9775 26.4157C16.9798 26.1501 17.0349 25.8877 17.1397 25.6437C17.2446 25.3997 17.3969 25.179 17.588 24.9945L24.174 18.4085H3.00195C2.47152 18.4085 1.96281 18.1978 1.58774 17.8227C1.21267 17.4476 1.00195 16.9389 1.00195 16.4085C1.00195 15.878 1.21267 15.3693 1.58774 14.9943C1.96281 14.6192 2.47152 14.4085 3.00195 14.4085H24.174L17.587 7.80847C17.3901 7.6254 17.2321 7.40451 17.1225 7.159C17.0129 6.9135 16.9539 6.64841 16.9491 6.3796C16.9443 6.11079 16.9937 5.84376 17.0944 5.59448C17.1952 5.34521 17.3451 5.1188 17.5353 4.92879C17.7255 4.73878 17.9521 4.58907 18.2015 4.48861C18.4509 4.38815 18.718 4.33901 18.9868 4.34411C19.2556 4.34922 19.5206 4.40846 19.766 4.51832C20.0114 4.62817 20.2321 4.78637 20.415 4.98347L30.415 14.9835C30.5083 15.0772 30.5923 15.1796 30.666 15.2895C30.697 15.3385 30.719 15.3885 30.746 15.4385C30.7834 15.503 30.8168 15.5698 30.846 15.6385C30.87 15.704 30.8907 15.7708 30.908 15.8385C30.925 15.8965 30.948 15.9515 30.96 16.0115C31.0109 16.2703 31.0109 16.5366 30.96 16.7955C30.948 16.8555 30.928 16.9015 30.908 16.9685C30.8906 17.0361 30.8699 17.1029 30.846 17.1685C30.8168 17.2371 30.7834 17.3039 30.746 17.3685C30.719 17.4175 30.697 17.4695 30.666 17.5175Z" fill="#092987"/>
</svg>
