<svg width="32" height="32" viewBox="0 0 32 32" fill="none" xmlns="http://www.w3.org/2000/svg">
<path d="M24.7318 5.47852H20.6785C19.9881 5.47852 19.4285 4.91887 19.4285 4.22852C19.4285 3.53816 19.9881 2.97852 20.6785 2.97852H27.6785C28.0309 2.97852 28.3493 3.12439 28.5766 3.35907C28.5838 3.36595 28.5909 3.37294 28.598 3.38003L28.6131 3.39535C28.8515 3.62297 29 3.94392 29 4.29956V11.2996C29 11.9899 28.4404 12.5496 27.75 12.5496C27.0596 12.5496 26.5 11.9899 26.5 11.2996V7.24582L20.8198 12.926C20.3317 13.4141 19.5402 13.4141 19.0521 12.926C18.5639 12.4378 18.5639 11.6464 19.0521 11.1582L24.7318 5.47852Z" fill="#092987"/>
<path d="M7.24625 5.49976L12.9262 11.1797C13.4144 11.6679 13.4144 12.4593 12.9262 12.9475C12.4381 13.4356 11.6466 13.4356 11.1585 12.9475L5.47852 7.26756V11.3209C5.47852 12.0112 4.91887 12.5709 4.22852 12.5709C3.53816 12.5709 2.97852 12.0112 2.97852 11.3209V4.32086C2.97852 3.9653 3.12697 3.6444 3.36529 3.41679L3.38028 3.40155C3.38716 3.39466 3.39411 3.38788 3.40111 3.38118C3.6284 3.146 3.94715 2.99976 4.30005 2.99976H11.3C11.9904 2.99976 12.55 3.5594 12.55 4.24976C12.55 4.94011 11.9904 5.49976 11.3 5.49976H7.24625Z" fill="#092987"/>
<path d="M28.6196 28.5979L28.6012 28.616C28.3737 28.8524 28.0541 28.9995 27.7002 28.9995H20.7002C20.0098 28.9995 19.4502 28.4399 19.4502 27.7495C19.4502 27.0592 20.0098 26.4995 20.7002 26.4995H24.7535L19.0737 20.8197C18.5856 20.3315 18.5856 19.5401 19.0737 19.0519C19.5619 18.5638 20.3533 18.5638 20.8415 19.0519L26.5214 24.7318L26.5214 20.6784C26.5214 19.9881 27.081 19.4284 27.7714 19.4284C28.4617 19.4284 29.0214 19.9881 29.0214 20.6784L29.0214 27.6784C29.0214 28.0328 28.8739 28.3527 28.637 28.5802L28.6196 28.5979Z" fill="#092987"/>
<path d="M3.43179 28.619L3.41633 28.6033C3.17815 28.3757 3.02979 28.0549 3.02979 27.6995L3.02979 20.6995C3.02979 20.0091 3.58943 19.4495 4.27979 19.4495C4.97014 19.4495 5.52979 20.0091 5.52979 20.6995L5.52979 24.7533L11.21 19.0731C11.6981 18.585 12.4896 18.585 12.9777 19.0731C13.4659 19.5613 13.4659 20.3527 12.9777 20.8409L7.29804 26.5206H11.3513C12.0417 26.5206 12.6013 27.0802 12.6013 27.7706C12.6013 28.4609 12.0417 29.0206 11.3513 29.0206H4.35132C3.99866 29.0206 3.68012 28.8745 3.45286 28.6396C3.44578 28.6329 3.43875 28.626 3.43179 28.619Z" fill="#092987"/>
</svg>
