<svg width="32" height="33" viewBox="0 0 32 33" fill="none" xmlns="http://www.w3.org/2000/svg">
<path d="M27.6081 4.20598L29.0509 11.802C29.1241 12.1879 28.7444 12.5037 28.3784 12.3613L26.3414 11.5691L22.4755 22.2005C22.3396 22.5741 21.9359 22.7768 21.5551 22.6625L12.79 20.033C12.426 19.9238 12.0379 20.1041 11.8865 20.4527L8.19498 28.9565C8.07602 29.2305 7.80576 29.4078 7.50701 29.4078H3.78967C3.42248 29.4078 3.18054 29.0253 3.33793 28.6935L9.5706 15.5559C9.72941 15.2212 10.1088 15.0525 10.4637 15.159L19.0868 17.7459C19.4675 17.8601 19.8713 17.6574 20.0071 17.2838L22.6125 10.119L20.74 9.39072C20.374 9.24837 20.3074 8.75899 20.6221 8.52406L26.8178 3.89861C27.1139 3.67757 27.5392 3.84297 27.6081 4.20598Z" fill="#092987"/>
</svg>
