<svg width="32" height="33" viewBox="0 0 32 33" fill="none" xmlns="http://www.w3.org/2000/svg">
<path d="M1.33405 15.2589C1.40741 15.1495 1.49113 15.0473 1.58405 14.9539L11.584 4.9539C11.7685 4.76288 11.9892 4.61051 12.2332 4.50569C12.4772 4.40088 12.7397 4.3457 13.0052 4.3434C13.2708 4.34109 13.5342 4.39169 13.78 4.49225C14.0257 4.59282 14.2491 4.74132 14.4368 4.92911C14.6246 5.11689 14.7731 5.3402 14.8737 5.58599C14.9743 5.83178 15.0249 6.09514 15.0226 6.3607C15.0202 6.62626 14.9651 6.8887 14.8603 7.13271C14.7554 7.37671 14.6031 7.5974 14.412 7.7819L7.82605 14.3679L28.998 14.3679C29.5285 14.3679 30.0372 14.5786 30.4123 14.9537C30.7873 15.3288 30.998 15.8375 30.998 16.3679C30.998 16.8983 30.7873 17.407 30.4123 17.7821C30.0372 18.1572 29.5285 18.3679 28.998 18.3679L7.82605 18.3679L14.413 24.9679C14.6099 25.151 14.7679 25.3719 14.8775 25.6174C14.9871 25.8629 15.0461 26.128 15.0509 26.3968C15.0557 26.6656 15.0063 26.9326 14.9056 27.1819C14.8048 27.4312 14.6549 27.6576 14.4647 27.8476C14.2745 28.0376 14.0479 28.1873 13.7985 28.2878C13.5491 28.3882 13.282 28.4374 13.0132 28.4323C12.7444 28.4272 12.4794 28.3679 12.234 28.258C11.9886 28.1482 11.7679 27.99 11.585 27.7929L1.58505 17.7929C1.49173 17.6992 1.40768 17.5967 1.33405 17.4869C1.30305 17.4379 1.28105 17.3879 1.25405 17.3379C1.21664 17.2733 1.18324 17.2066 1.15405 17.1379C1.12996 17.0723 1.10927 17.0056 1.09205 16.9379C1.07505 16.8799 1.05205 16.8249 1.04005 16.7649C0.989053 16.5061 0.989053 16.2397 1.04005 15.9809C1.05205 15.9209 1.07205 15.8749 1.09205 15.8079C1.10937 15.7402 1.13006 15.6735 1.15405 15.6079C1.18324 15.5392 1.21664 15.4724 1.25405 15.4079C1.28105 15.3589 1.30305 15.3069 1.33405 15.2589Z" fill="#092987"/>
</svg>
