<svg width="32" height="33" viewBox="0 0 32 33" fill="none" xmlns="http://www.w3.org/2000/svg">
<path d="M17.1288 1.72272C17.2382 1.79608 17.3404 1.8798 17.4338 1.97272L27.4338 11.9727C27.6248 12.1572 27.7772 12.3779 27.882 12.6219C27.9868 12.8659 28.042 13.1284 28.0443 13.3939C28.0466 13.6595 27.996 13.9228 27.8954 14.1686C27.7949 14.4144 27.6464 14.6377 27.4586 14.8255C27.2708 15.0133 27.0475 15.1618 26.8017 15.2624C26.5559 15.3629 26.2926 15.4135 26.027 15.4112C25.7614 15.4089 25.499 15.3537 25.255 15.2489C25.011 15.1441 24.7903 14.9917 24.6058 14.8007L18.0198 8.21472L18.0198 29.3867C18.0198 29.9172 17.8091 30.4259 17.434 30.8009C17.0589 31.176 16.5502 31.3867 16.0198 31.3867C15.4894 31.3867 14.9807 31.176 14.6056 30.8009C14.2305 30.4259 14.0198 29.9172 14.0198 29.3867L14.0198 8.21472L7.4198 14.8017C7.23673 14.9986 7.01584 15.1566 6.77033 15.2662C6.52482 15.3758 6.25974 15.4347 5.99093 15.4396C5.72211 15.4444 5.45509 15.395 5.20581 15.2942C4.95653 15.1935 4.73012 15.0436 4.54011 14.8533C4.3501 14.6631 4.2004 14.4366 4.09994 14.1872C3.99948 13.9378 3.95033 13.6707 3.95544 13.4019C3.96054 13.1331 4.01979 12.8681 4.12965 12.6227C4.2395 12.3773 4.3977 12.1566 4.5948 11.9737L14.5948 1.97372C14.6885 1.8804 14.791 1.79635 14.9008 1.72272C14.9498 1.69172 14.9998 1.66972 15.0498 1.64272C15.1143 1.60531 15.1811 1.57191 15.2498 1.54272C15.3154 1.51863 15.3821 1.49794 15.4498 1.48072C15.5078 1.46372 15.5628 1.44072 15.6228 1.42872C15.8816 1.37772 16.1479 1.37772 16.4068 1.42872C16.4668 1.44072 16.5128 1.46072 16.5798 1.48072C16.6475 1.49804 16.7142 1.51873 16.7798 1.54272C16.8485 1.57191 16.9152 1.60531 16.9798 1.64272C17.0288 1.66972 17.0808 1.69172 17.1288 1.72272Z" fill="#092987"/>
</svg>
