<svg width="32" height="33" viewBox="0 0 32 33" fill="none" xmlns="http://www.w3.org/2000/svg">
<path d="M14.8712 31.0546C14.7618 30.9813 14.6596 30.8975 14.5662 30.8046L4.5662 20.8046C4.37518 20.6201 4.22282 20.3994 4.118 20.1554C4.01318 19.9114 3.95801 19.649 3.9557 19.3834C3.95339 19.1179 4.004 18.8545 4.10456 18.6087C4.20512 18.3629 4.35363 18.1396 4.54141 17.9518C4.7292 17.764 4.9525 17.6155 5.19829 17.515C5.44409 17.4144 5.70745 17.3638 5.973 17.3661C6.23856 17.3684 6.501 17.4236 6.74501 17.5284C6.98902 17.6332 7.20971 17.7856 7.3942 17.9766L13.9802 24.5626L13.9802 3.39062C13.9802 2.86019 14.1909 2.35148 14.566 1.97641C14.9411 1.60134 15.4498 1.39062 15.9802 1.39062C16.5106 1.39062 17.0193 1.60134 17.3944 1.97641C17.7695 2.35148 17.9802 2.86019 17.9802 3.39062L17.9802 24.5626L24.5802 17.9756C24.7633 17.7787 24.9842 17.6208 25.2297 17.5112C25.4752 17.4016 25.7403 17.3426 26.0091 17.3378C26.2779 17.333 26.5449 17.3824 26.7942 17.4831C27.0435 17.5838 27.2699 17.7338 27.4599 17.924C27.6499 18.1142 27.7996 18.3408 27.9001 18.5902C28.0005 18.8395 28.0497 19.1066 28.0446 19.3754C28.0395 19.6442 27.9802 19.9093 27.8704 20.1547C27.7605 20.4 27.6023 20.6208 27.4052 20.8036L17.4052 30.8036C17.3115 30.8969 17.209 30.981 17.0992 31.0546C17.0502 31.0856 17.0002 31.1076 16.9502 31.1346C16.8857 31.172 16.8189 31.2054 16.7502 31.2346C16.6846 31.2587 16.6179 31.2794 16.5502 31.2966C16.4922 31.3136 16.4372 31.3366 16.3772 31.3486C16.1184 31.3996 15.852 31.3996 15.5932 31.3486C15.5332 31.3366 15.4872 31.3166 15.4202 31.2966C15.3525 31.2793 15.2858 31.2586 15.2202 31.2346C15.1515 31.2054 15.0848 31.172 15.0202 31.1346C14.9712 31.1076 14.9192 31.0856 14.8712 31.0546Z" fill="#092987"/>
</svg>
