<svg width="32" height="33" viewBox="0 0 32 33" fill="none" xmlns="http://www.w3.org/2000/svg">
<path d="M16.1189 7.07275C19.8468 7.07275 22.8689 10.0948 22.8689 13.8228C22.8689 17.5507 19.8468 20.5728 16.1189 20.5728C12.391 20.5728 9.36893 17.5507 9.36893 13.8228C9.36893 10.0948 12.391 7.07275 16.1189 7.07275ZM10.8689 13.8228C10.8689 16.7222 13.2194 19.0728 16.1189 19.0728C19.0184 19.0728 21.3689 16.7222 21.3689 13.8228C21.3689 10.9233 19.0184 8.57275 16.1189 8.57275C13.2194 8.57275 10.8689 10.9233 10.8689 13.8228Z" fill="#092987"/>
<path d="M17.9586 3.09499L18.5017 3.56617C18.689 3.72863 18.9405 3.79603 19.1839 3.74896L19.8898 3.61245C21.2617 3.34715 22.6199 4.13129 23.0761 5.45206L23.3108 6.13165C23.3918 6.36597 23.5759 6.55011 23.8102 6.63105L24.4898 6.86578C25.8106 7.32198 26.5947 8.68015 26.3294 10.0521L26.1929 10.758C26.1459 11.0014 26.2133 11.2529 26.3757 11.4402L26.8469 11.9833C27.7626 13.0387 27.7626 14.607 26.8469 15.6625L26.3757 16.2055C26.2133 16.3928 26.1459 16.6443 26.1929 16.8877L26.3294 17.5936C26.5947 18.9656 25.8106 20.3237 24.4898 20.7799L23.8102 21.0147C23.7792 21.0254 23.7491 21.0379 23.72 21.0521L27.4916 26.5607C27.6537 26.7974 27.6665 27.106 27.5245 27.3553C27.3826 27.6047 27.1108 27.7513 26.8244 27.7328L23.7253 27.5329L22.3489 30.3168C22.2217 30.574 21.9589 30.7361 21.6719 30.7344C21.385 30.7326 21.1242 30.5672 21.0002 30.3084L18.1584 24.3774L17.9586 24.5507C16.9032 25.4664 15.3349 25.4664 14.2794 24.5507L13.9058 24.2266L10.9917 30.3085C10.8677 30.5672 10.6069 30.7326 10.3199 30.7344C10.033 30.7361 9.77017 30.574 9.64299 30.3168L8.26652 27.533L5.16741 27.7328C4.88105 27.7513 4.60925 27.6047 4.46732 27.3554C4.32538 27.106 4.33818 26.7974 4.5003 26.5607L8.32245 20.9783L7.74823 20.7799C6.42746 20.3237 5.64332 18.9656 5.90862 17.5936L6.04513 16.8877C6.0922 16.6443 6.0248 16.3928 5.86234 16.2055L5.39117 15.6625C4.47545 14.607 4.47545 13.0387 5.39117 11.9833L5.86234 11.4402C6.0248 11.2529 6.0922 11.0014 6.04513 10.758L5.90862 10.0521C5.64332 8.68015 6.42746 7.32198 7.74823 6.86578L8.42782 6.63105C8.66215 6.55011 8.84628 6.36597 8.92722 6.13165L9.16195 5.45206C9.61816 4.13129 10.9763 3.34715 12.3482 3.61245L13.0542 3.74896C13.2976 3.79603 13.5491 3.72863 13.7363 3.56617L14.2794 3.09499C15.3349 2.17927 16.9032 2.17927 17.9586 3.09499ZM22.9261 22.5478C22.3672 23.6512 21.1342 24.2739 19.8898 24.0333L19.633 23.9836L21.6872 28.2708L22.6023 26.4199C22.7365 26.1485 23.0208 25.9844 23.3229 26.0039L25.3834 26.1368L22.9261 22.5478ZM12.3338 24.036C11.0153 24.2839 9.71239 23.5641 9.21368 22.3317L6.60843 26.1368L8.66895 26.0039C8.9711 25.9844 9.25533 26.1485 9.38952 26.4199L10.3047 28.2708L12.3338 24.036ZM15.5901 4.60568L15.047 5.07685C14.3957 5.64188 13.521 5.87628 12.6744 5.71258L11.9685 5.57607C11.5741 5.49979 11.1835 5.72525 11.0524 6.10502L10.8176 6.7846C10.5361 7.59957 9.89574 8.23996 9.08078 8.52145L8.40119 8.75619C8.02143 8.88736 7.79596 9.27788 7.87225 9.67235L8.00875 10.3783C8.17245 11.2248 7.93805 12.0996 7.37302 12.7508L6.90185 13.2939C6.63855 13.5974 6.63855 14.0483 6.90185 14.3518L7.37302 14.8949C7.93805 15.5461 8.17245 16.4209 8.00875 17.2675L7.87225 17.9734C7.79596 18.3678 8.02143 18.7584 8.40119 18.8895L9.08078 19.1243C9.89574 19.4058 10.5361 20.0462 10.8176 20.8611L11.0524 21.5407C11.1835 21.9205 11.5741 22.1459 11.9685 22.0696L12.6744 21.9331C13.521 21.7694 14.3957 22.0038 15.047 22.5689L15.5901 23.04C15.8936 23.3033 16.3445 23.3033 16.648 23.04L17.1911 22.5689C17.8423 22.0038 18.7171 21.7694 19.5636 21.9331L20.2695 22.0696C20.664 22.1459 21.0545 21.9205 21.1857 21.5407L21.4204 20.8611C21.7019 20.0462 22.3423 19.4058 23.1573 19.1243L23.8369 18.8895C24.2166 18.7584 24.4421 18.3678 24.3658 17.9734L24.2293 17.2675C24.0656 16.4209 24.3 15.5461 24.865 14.8949L25.3362 14.3518C25.5995 14.0483 25.5995 13.5974 25.3362 13.2939L24.865 12.7508C24.3 12.0996 24.0656 11.2248 24.2293 10.3783L24.3658 9.67235C24.4421 9.27788 24.2166 8.88736 23.8369 8.75619L23.1573 8.52145C22.3423 8.23996 21.7019 7.59957 21.4204 6.7846L21.1857 6.10502C21.0545 5.72526 20.664 5.49979 20.2695 5.57607L19.5636 5.71258C18.7171 5.87628 17.8423 5.64188 17.1911 5.07685L16.648 4.60568C16.3445 4.34238 15.8936 4.34238 15.5901 4.60568Z" fill="#092987"/>
</svg>
