<svg width="32" height="32" viewBox="0 0 32 32" fill="none" xmlns="http://www.w3.org/2000/svg">
<path d="M17.5 8V15C17.5 15.8284 16.8284 16.5 16 16.5C15.1716 16.5 14.5 15.8284 14.5 15V8C14.5 7.17157 15.1716 6.5 16 6.5C16.8284 6.5 17.5 7.17157 17.5 8Z" fill="#092987"/>
<path d="M16 21.5C15.0335 21.5 14.25 20.7165 14.25 19.75C14.25 18.7835 15.0335 18 16 18C16.9665 18 17.75 18.7835 17.75 19.75C17.75 20.7165 16.9665 21.5 16 21.5Z" fill="#092987"/>
<path d="M5 1.75H27C28.7949 1.75 30.25 3.20507 30.25 5V23C30.25 24.7949 28.7949 26.25 27 26.25H12.8251L8.65367 30.6743C7.8154 31.5634 6.32143 30.9701 6.32143 29.7482V26.25H5C3.20508 26.25 1.75 24.7949 1.75 23V5C1.75 3.20507 3.20508 1.75 5 1.75ZM4.25 5V23C4.25 23.4142 4.58579 23.75 5 23.75H7.32143C8.14986 23.75 8.82143 24.4216 8.82143 25.25V26.8521L11.3022 24.221C11.5856 23.9204 11.9805 23.75 12.3936 23.75H27C27.4142 23.75 27.75 23.4142 27.75 23V5C27.75 4.58579 27.4142 4.25 27 4.25H5C4.58579 4.25 4.25 4.58579 4.25 5Z" fill="#092987"/>
</svg>
