<svg width="32" height="33" viewBox="0 0 32 33" fill="none" xmlns="http://www.w3.org/2000/svg">
<path d="M26.75 8.9082H5.25C4.91848 8.9082 4.60054 8.77651 4.36612 8.54209C4.1317 8.30767 4 7.98972 4 7.6582C4 7.32668 4.1317 7.00874 4.36612 6.77432C4.60054 6.5399 4.91848 6.4082 5.25 6.4082H26.75C27.0815 6.4082 27.3995 6.5399 27.6339 6.77432C27.8683 7.00874 28 7.32668 28 7.6582C28 7.98972 27.8683 8.30767 27.6339 8.54209C27.3995 8.77651 27.0815 8.9082 26.75 8.9082ZM28 16.4082C28 16.7397 27.8683 17.0577 27.6339 17.2921C27.3995 17.5265 27.0815 17.6582 26.75 17.6582H5.25C4.91848 17.6582 4.60054 17.5265 4.36612 17.2921C4.1317 17.0577 4 16.7397 4 16.4082C4 16.0767 4.1317 15.7587 4.36612 15.5243C4.60054 15.2899 4.91848 15.1582 5.25 15.1582H26.75C27.0815 15.1582 27.3995 15.2899 27.6339 15.5243C27.8683 15.7587 28 16.0767 28 16.4082ZM28 25.1582C28 25.4897 27.8683 25.8077 27.6339 26.0421C27.3995 26.2765 27.0815 26.4082 26.75 26.4082H5.25C4.91848 26.4082 4.60054 26.2765 4.36612 26.0421C4.1317 25.8077 4 25.4897 4 25.1582C4 24.8267 4.1317 24.5087 4.36612 24.2743C4.60054 24.0399 4.91848 23.9082 5.25 23.9082H26.75C27.0815 23.9082 27.3995 24.0399 27.6339 24.2743C27.8683 24.5087 28 24.8267 28 25.1582Z" fill="#092987"/>
</svg>
