<svg width="32" height="32" viewBox="0 0 32 32" fill="none" xmlns="http://www.w3.org/2000/svg">
<path d="M16 1.5C15.1716 1.5 14.5 2.17157 14.5 3V3.84863C8.98083 4.5748 4.25 9.22684 4.25 15V20.3154C4.25 21.182 4.00646 22.0312 3.54714 22.7661C3.18959 23.3382 3 23.9992 3 24.6739V25.0024C3 26.6579 4.34207 28 5.99759 28H13C13 29 14.282 30.5 16 30.5C17.718 30.5 19 29 19 28H26.0024C27.6579 28 29 26.6579 29 25.0024V24.6739C29 23.9992 28.8104 23.3382 28.4529 22.7661C27.9935 22.0312 27.75 21.182 27.75 20.3154V15C27.75 9.22684 23.0192 4.5748 17.5 3.84863V3C17.5 2.17157 16.8284 1.5 16 1.5ZM16 6.25C20.9124 6.25 25.25 10.2448 25.25 15V20.3154C25.25 21.6505 25.6252 22.9588 26.3329 24.0911C26.4421 24.2658 26.5 24.4678 26.5 24.6739V25.0024C26.5 25.2772 26.2772 25.5 26.0024 25.5H5.99759C5.72278 25.5 5.5 25.2772 5.5 25.0024V24.6739C5.5 24.4678 5.55792 24.2658 5.66714 24.0911C6.37478 22.9588 6.75 21.6505 6.75 20.3154V15C6.75 10.2448 11.0876 6.25 16 6.25Z" fill="#092987"/>
</svg>
