<svg width="32" height="32" viewBox="0 0 32 32" fill="none" xmlns="http://www.w3.org/2000/svg">
<path d="M9.25 12C8.83579 12 8.5 12.3358 8.5 12.75V14.25C8.5 14.6642 8.83579 15 9.25 15H10.75C11.1642 15 11.5 14.6642 11.5 14.25V12.75C11.5 12.3358 11.1642 12 10.75 12H9.25Z" fill="#092987"/>
<path d="M15.25 12C14.8358 12 14.5 12.3358 14.5 12.75V14.25C14.5 14.6642 14.8358 15 15.25 15H16.75C17.1642 15 17.5 14.6642 17.5 14.25V12.75C17.5 12.3358 17.1642 12 16.75 12H15.25Z" fill="#092987"/>
<path d="M20.5 12.75C20.5 12.3358 20.8358 12 21.25 12H22.75C23.1642 12 23.5 12.3358 23.5 12.75V14.25C23.5 14.6642 23.1642 15 22.75 15H21.25C20.8358 15 20.5 14.6642 20.5 14.25V12.75Z" fill="#092987"/>
<path d="M11.5 3.5V4H20.5V3.5C20.5 2.67157 21.1716 2 22 2C22.8284 2 23.5 2.67157 23.5 3.5V4H28C29.1046 4 30 4.89498 30 5.99955V27C30 28.1046 29.1046 29 28 29H4C2.89543 29 2 28.1046 2 27V6C2 4.89543 2.89543 4 4 4H8.5V3.5C8.5 2.67157 9.17157 2 10 2C10.8284 2 11.5 2.67157 11.5 3.5ZM8.5 6.5H4.5V26.5H27.5V6.5H23.5V7C23.5 7.82843 22.8284 8.5 22 8.5C21.1716 8.5 20.5 7.82843 20.5 7V6.5H11.5V7C11.5 7.82843 10.8284 8.5 10 8.5C9.17157 8.5 8.5 7.82843 8.5 7V6.5Z" fill="#092987"/>
</svg>
