<svg width="32" height="33" viewBox="0 0 32 33" fill="none" xmlns="http://www.w3.org/2000/svg">
<path d="M10 2.1582C10.6904 2.1582 11.25 2.71785 11.25 3.4082H20.75C20.75 2.71785 21.3096 2.1582 22 2.1582C22.6904 2.1582 23.25 2.71785 23.25 3.4082H27C28.1046 3.4082 29 4.30363 29 5.4082V9.6582C29 10.3486 28.4404 10.9082 27.75 10.9082C27.0596 10.9082 26.5 10.3486 26.5 9.6582V5.9082H23.25C23.25 6.59856 22.6904 7.1582 22 7.1582C21.3096 7.1582 20.75 6.59856 20.75 5.9082H11.25C11.25 6.59856 10.6904 7.1582 10 7.1582C9.30964 7.1582 8.75 6.59856 8.75 5.9082H5.5V26.9083H26.5V23.1582C26.5 22.4678 27.0596 21.9082 27.75 21.9082C28.4404 21.9082 29 22.4678 29 23.1582V27.4083C29 28.5128 28.1046 29.4083 27 29.4083H5C3.89543 29.4083 3 28.5128 3 27.4083V5.4082C3 4.30364 3.89543 3.4082 5 3.4082H8.75C8.75 2.71785 9.30964 2.1582 10 2.1582Z" fill="#092987"/>
<path d="M13.1509 24.4082C12.8748 24.4082 12.6509 24.1843 12.6509 23.9082V22.7416C12.3499 22.709 12.0499 22.6532 11.7508 22.5743C11.2405 22.4341 10.7778 22.2098 10.3628 21.9014C9.94778 21.5929 9.6169 21.1835 9.37014 20.6732C9.1801 20.2758 9.06324 19.8086 9.01956 19.2716C8.99717 18.9964 9.22386 18.772 9.5 18.772H10.9227C11.1989 18.772 11.4169 18.997 11.4533 19.2707C11.4795 19.4679 11.5226 19.6437 11.5826 19.7983C11.6891 20.0675 11.8293 20.2834 12.0032 20.4461C12.1826 20.6031 12.3845 20.7152 12.6088 20.7825C12.8332 20.8498 13.0603 20.8835 13.2902 20.8835C13.6492 20.8835 13.9436 20.819 14.1735 20.69C14.4091 20.561 14.5857 20.3844 14.7035 20.16C14.8269 19.9301 14.8886 19.6721 14.8886 19.3861C14.8886 19.0665 14.8297 18.7945 14.7119 18.5701C14.5997 18.3458 14.4147 18.1467 14.1567 17.9729C13.9043 17.799 13.5622 17.6308 13.1304 17.4681C12.4013 17.1877 11.7592 16.8905 11.204 16.5764C10.6544 16.2568 10.2254 15.8614 9.91693 15.3903C9.60848 14.9136 9.45426 14.3108 9.45426 13.5817C9.45426 12.8863 9.6197 12.2834 9.95058 11.7731C10.2815 11.2627 10.7385 10.8702 11.3218 10.5954C11.7643 10.3847 12.2606 10.2531 12.8107 10.2008V8.9082C12.8107 8.63206 13.0346 8.4082 13.3107 8.4082H13.623C13.8992 8.4082 14.123 8.63206 14.123 8.9082V10.2264C14.4296 10.2706 14.7184 10.3431 14.9895 10.444C15.4718 10.6178 15.8868 10.8758 16.2345 11.2179C16.5822 11.5544 16.8486 11.9666 17.0337 12.4545C17.1681 12.809 17.2538 13.2005 17.2905 13.629C17.3141 13.9042 17.0874 14.1285 16.8113 14.1285H15.397C15.1208 14.1285 14.9023 13.9036 14.8667 13.6298C14.8485 13.49 14.8221 13.359 14.7876 13.2368C14.7147 12.9788 14.6082 12.7629 14.4679 12.5891C14.3334 12.4152 14.1707 12.2862 13.98 12.2021C13.7894 12.1124 13.5791 12.0675 13.3491 12.0675C13.007 12.0675 12.7266 12.1348 12.5079 12.2694C12.2892 12.404 12.1293 12.5863 12.0284 12.8162C11.9331 13.0405 11.8854 13.2985 11.8854 13.5901C11.8854 13.8761 11.9359 14.1257 12.0368 14.3388C12.1434 14.5519 12.3256 14.7482 12.5836 14.9277C12.8416 15.1015 13.1949 15.281 13.6435 15.466C14.3726 15.7464 15.0119 16.0493 15.5615 16.3746C16.1111 16.6998 16.5402 17.098 16.8486 17.5691C17.1571 18.0402 17.3113 18.6402 17.3113 19.3693C17.3113 20.0927 17.143 20.7096 16.8065 21.22C16.4701 21.7247 15.999 22.1117 15.3933 22.3809C14.9644 22.5675 14.4877 22.6881 13.9632 22.7426V23.9082C13.9632 24.1843 13.7394 24.4082 13.4632 24.4082H13.1509Z" fill="#092987"/>
<path d="M25.0106 13.0121V14.9082H30.25C30.6642 14.9082 31 15.244 31 15.6582V17.1582C31 17.5724 30.6642 17.9082 30.25 17.9082H19.5007C19.0394 17.9082 18.8242 17.3367 19.171 17.0324L24.1808 12.6363C24.504 12.3528 25.0106 12.5822 25.0106 13.0121Z" fill="#092987"/>
</svg>
