<svg width="32" height="33" viewBox="0 0 32 33" fill="none" xmlns="http://www.w3.org/2000/svg">
<path d="M15.3333 10.0897C16.8906 9.92478 18.4537 10.3426 19.7209 11.2626C19.827 11.3396 19.9304 11.4197 20.031 11.5027L20.485 11.0471C20.7623 10.7689 21.2372 10.9042 21.3262 11.2868L22.0262 14.2964C22.1099 14.6563 21.7877 14.9796 21.4276 14.8971L18.4155 14.2074C18.0327 14.1198 17.8957 13.6452 18.1729 13.3671L18.6101 12.9285C18.5889 12.9125 18.5675 12.8967 18.546 12.8811C17.6789 12.2516 16.6094 11.9657 15.5439 12.0786C14.4785 12.1914 13.4926 12.695 12.7766 13.4921C12.2981 14.0248 11.9628 14.6634 11.7935 15.3483C11.661 15.8845 11.1189 16.2117 10.5828 16.0792C10.0466 15.9467 9.71941 15.4047 9.8519 14.8685C10.0993 13.8676 10.5893 12.9342 11.2887 12.1556C12.3351 10.9906 13.7761 10.2546 15.3333 10.0897Z" fill="#092987"/>
<path d="M12.2791 21.7761C13.5463 22.6961 15.1094 23.1139 16.6667 22.949C18.2239 22.7841 19.6649 22.0481 20.7113 20.8831C21.4107 20.1045 21.9007 19.1711 22.1481 18.1702C22.2806 17.634 21.9534 17.092 21.4172 16.9595C20.8811 16.827 20.339 17.1542 20.2065 17.6904C20.0372 18.3753 19.7019 19.0139 19.2234 19.5466C18.5074 20.3437 17.5215 20.8473 16.4561 20.9601C15.3906 21.0729 14.3211 20.787 13.454 20.1576C13.4325 20.142 13.4111 20.1262 13.3899 20.1102L13.827 19.6716C14.1043 19.3934 13.9673 18.9189 13.5845 18.8312L10.5724 18.1416C10.2122 18.0591 9.89012 18.3823 9.97382 18.7422L10.6738 21.7519C10.7627 22.1344 11.2377 22.2698 11.5149 21.9916L11.969 21.536C12.0696 21.619 12.173 21.6991 12.2791 21.7761Z" fill="#092987"/>
<path d="M11.5 3.9082V4.4082H20.5V3.9082C20.5 3.07978 21.1716 2.4082 22 2.4082C22.8284 2.4082 23.5 3.07978 23.5 3.9082V4.4082H28C29.1046 4.4082 30 5.30319 30 6.40776V27.4082C30 28.5128 29.1046 29.4082 28 29.4082H4C2.89543 29.4082 2 28.5128 2 27.4082V6.4082C2 5.30363 2.89543 4.4082 4 4.4082H8.5V3.9082C8.5 3.07978 9.17157 2.4082 10 2.4082C10.8284 2.4082 11.5 3.07978 11.5 3.9082ZM8.5 6.9082H4.5V26.9082H27.5V6.9082H23.5C23.5 7.73663 22.8284 8.4082 22 8.4082C21.1716 8.4082 20.5 7.73663 20.5 6.9082H11.5C11.5 7.73663 10.8284 8.4082 10 8.4082C9.17157 8.4082 8.5 7.73663 8.5 6.9082Z" fill="#092987"/>
</svg>
