<svg width="32" height="33" viewBox="0 0 32 33" fill="none" xmlns="http://www.w3.org/2000/svg">
<path d="M8.75 3.4082C8.75 2.71785 9.30964 2.1582 10 2.1582C10.6904 2.1582 11.25 2.71785 11.25 3.4082H20.75C20.75 2.71785 21.3096 2.1582 22 2.1582C22.6904 2.1582 23.25 2.71785 23.25 3.4082H27C28.1046 3.4082 29 4.30363 29 5.4082V9.6582C29 10.3486 28.4404 10.9082 27.75 10.9082C27.0596 10.9082 26.5 10.3486 26.5 9.6582V5.9082H23.25C23.25 6.59856 22.6904 7.1582 22 7.1582C21.3096 7.1582 20.75 6.59856 20.75 5.9082H11.25C11.25 6.59856 10.6904 7.1582 10 7.1582C9.30964 7.1582 8.75 6.59856 8.75 5.9082H5.5V26.9083H26.5V23.1582C26.5 22.4678 27.0596 21.9082 27.75 21.9082C28.4404 21.9082 29 22.4678 29 23.1582V27.4083C29 28.5128 28.1046 29.4083 27 29.4083H5C3.89543 29.4083 3 28.5128 3 27.4083V5.4082C3 4.30364 3.89543 3.4082 5 3.4082H8.75Z" fill="#092987"/>
<path d="M17.3699 11.1143C17.5197 10.7834 17.2777 10.4082 16.9144 10.4082H15.2966C15.0911 10.4082 14.9066 10.5339 14.8313 10.7251L12.9779 15.4343L11.1086 10.7238C11.033 10.5333 10.8488 10.4082 10.6439 10.4082H9.02586C8.66238 10.4082 8.42036 10.7837 8.57052 11.1148L11.1047 16.7012H9.41797C9.14183 16.7012 8.91797 16.925 8.91797 17.2012V17.6865C8.91797 17.9627 9.14183 18.1865 9.41797 18.1865H11.625V19.25H9.41797C9.14183 19.25 8.91797 19.4739 8.91797 19.75V20.2266C8.91797 20.5027 9.14183 20.7266 9.41797 20.7266H11.625V22.7051C11.625 22.9812 11.8489 23.2051 12.125 23.2051H13.7529C14.0291 23.2051 14.2529 22.9812 14.2529 22.7051V20.7266H16.293C16.5691 20.7266 16.793 20.5027 16.793 20.2266V19.75C16.793 19.4739 16.5691 19.25 16.293 19.25H14.2529V18.1865H16.293C16.5691 18.1865 16.793 17.9627 16.793 17.6865V17.2012C16.793 16.925 16.5691 16.7012 16.293 16.7012H14.8418L17.3699 11.1143Z" fill="#092987"/>
<path d="M25.0106 13.0121V14.9082H30.25C30.6642 14.9082 31 15.244 31 15.6582V17.1582C31 17.5724 30.6642 17.9082 30.25 17.9082H19.5007C19.0394 17.9082 18.8242 17.3367 19.171 17.0324L24.1808 12.6363C24.504 12.3528 25.0106 12.5822 25.0106 13.0121Z" fill="#092987"/>
</svg>
