<svg width="32" height="33" viewBox="0 0 32 33" fill="none" xmlns="http://www.w3.org/2000/svg">
<path d="M4 6.4082H28C29.1046 6.4082 30 7.30363 30 8.4082V18.936C31.2275 20.0346 32 21.6312 32 23.4082C32 26.7219 29.3137 29.4082 26 29.4082C23.7792 29.4082 21.8401 28.2016 20.8027 26.4082H6.25C3.90279 26.4082 2 24.5054 2 22.1582V8.4082C2 7.30364 2.89543 6.4082 4 6.4082ZM27.5 17.5972V14.9082H4.5V22.1582C4.5 23.1247 5.2835 23.9082 6.25 23.9082H20.0205C20.0069 23.7433 20 23.5766 20 23.4082C20 20.0945 22.6863 17.4082 26 17.4082C26.518 17.4082 27.0206 17.4738 27.5 17.5972ZM4.5 11.4082H27.5V8.9082H4.5V11.4082ZM27 20.4082C27 19.8559 26.5523 19.4082 26 19.4082C25.4477 19.4082 25 19.8559 25 20.4082V22.4082H23C22.4477 22.4082 22 22.8559 22 23.4082C22 23.9605 22.4477 24.4082 23 24.4082H25V26.4082C25 26.9605 25.4477 27.4082 26 27.4082C26.5523 27.4082 27 26.9605 27 26.4082V24.4082H29C29.5523 24.4082 30 23.9605 30 23.4082C30 22.8559 29.5523 22.4082 29 22.4082H27V20.4082Z" fill="#092987"/>
</svg>
