<svg width="32" height="32" viewBox="0 0 32 32" fill="none" xmlns="http://www.w3.org/2000/svg">
<path d="M16 1C19.9783 1 23.7936 2.58035 26.6066 5.3934C29.4197 8.20644 31 12.0218 31 16C31 18.9667 30.1203 21.8668 28.4721 24.3336C26.8238 26.8003 24.4812 28.7229 21.7403 29.8582C18.9994 30.9935 15.9834 31.2906 13.0737 30.7118C10.1639 30.133 7.49119 28.7044 5.39341 26.6066C3.29562 24.5088 1.86701 21.8361 1.28823 18.9264C0.709449 16.0166 1.0065 13.0006 2.14181 10.2597C3.27713 7.51886 5.19972 5.17618 7.66645 3.52796C10.1332 1.87973 13.0333 1 16 1ZM16 3.5C12.6848 3.5 9.50538 4.81696 7.16117 7.16117C4.81697 9.50537 3.50001 12.6848 3.50001 16C3.50001 18.4723 4.23312 20.889 5.60664 22.9446C6.98015 25.0002 8.93239 26.6024 11.2165 27.5485C13.5005 28.4946 16.0139 28.7421 18.4386 28.2598C20.8634 27.7775 23.0907 26.587 24.8388 24.8388C26.587 23.0907 27.7775 20.8634 28.2598 18.4386C28.7421 16.0139 28.4946 13.5005 27.5485 11.2165C26.6024 8.93238 25.0002 6.98015 22.9446 5.60663C20.889 4.23311 18.4723 3.5 16 3.5Z" fill="#092987"/>
<path d="M16 7.75C16.8284 7.75 17.5 8.42157 17.5 9.25V17.25C17.5 18.0784 16.8284 18.75 16 18.75C15.1716 18.75 14.5 18.0784 14.5 17.25V9.25C14.5 8.42157 15.1716 7.75 16 7.75Z" fill="#092987"/>
<path d="M17.75 22.5C17.75 23.4665 16.9665 24.25 16 24.25C15.0335 24.25 14.25 23.4665 14.25 22.5C14.25 21.5335 15.0335 20.75 16 20.75C16.9665 20.75 17.75 21.5335 17.75 22.5Z" fill="#092987"/>
</svg>
