<svg width="32" height="32" viewBox="0 0 32 32" fill="none" xmlns="http://www.w3.org/2000/svg">
<path d="M10.254 29.8672C8.43223 29.1128 6.77728 28.0035 5.38678 26.6055C3.9912 25.2153 2.88586 23.5625 2.13287 21.7422C1.37988 19.922 0.994449 17.9699 1.00006 16C0.994668 14.0302 1.37843 12.0774 2.13287 10.2578C2.88732 8.43825 3.99696 6.78653 5.39459 5.39847C6.78373 4.00054 8.43757 2.89199 10.2579 2.13675C12.0782 1.38151 14.0293 0.996121 16.0001 1.00003C19.9773 1.00321 23.7893 2.58611 26.6016 5.39847C29.414 8.21082 30.9969 12.0228 31.0001 16C31.0057 17.9718 30.6217 19.9244 29.8672 21.7461C29.1128 23.5679 28.0035 25.2228 26.6055 26.6133C25.2162 28.0101 23.5627 29.118 21.7422 29.8711C19.9218 30.6242 17.9701 31.0071 16.0001 31C14.0283 31.0056 12.0757 30.6216 10.254 29.8672ZM17.5 9.25C17.5 8.42157 16.8284 7.75 16 7.75C15.1716 7.75 14.5 8.42157 14.5 9.25V17.25C14.5 18.0784 15.1716 18.75 16 18.75C16.8284 18.75 17.5 18.0784 17.5 17.25V9.25ZM16 24.25C16.9665 24.25 17.75 23.4665 17.75 22.5C17.75 21.5335 16.9665 20.75 16 20.75C15.0335 20.75 14.25 21.5335 14.25 22.5C14.25 23.4665 15.0335 24.25 16 24.25Z" fill="#092987"/>
</svg>
