<svg width="32" height="33" viewBox="0 0 32 33" fill="none" xmlns="http://www.w3.org/2000/svg">
<path d="M8 3.4082C8 2.85592 8.44772 2.4082 9 2.4082C9.55228 2.4082 10 2.85592 10 3.4082V5.4082H12C12.5523 5.4082 13 5.85592 13 6.4082V12.4082C13 12.9605 12.5523 13.4082 12 13.4082H10V17.4082C10 17.9605 9.55228 18.4082 9 18.4082C8.44772 18.4082 8 17.9605 8 17.4082V13.4082H6C5.44772 13.4082 5 12.9605 5 12.4082V6.4082C5 5.85592 5.44772 5.4082 6 5.4082H8V3.4082ZM11 11.4082V7.4082H7V11.4082H11Z" fill="#092987"/>
<path d="M22 9.4082C22 8.85592 22.4477 8.4082 23 8.4082C23.5523 8.4082 24 8.85592 24 9.4082V11.4082H26C26.5523 11.4082 27 11.8559 27 12.4082V25.4082C27 25.9605 26.5523 26.4082 26 26.4082H24V29.4082C24 29.9605 23.5523 30.4082 23 30.4082C22.4477 30.4082 22 29.9605 22 29.4082V26.4082H20C19.4477 26.4082 19 25.9605 19 25.4082V12.4082C19 11.8559 19.4477 11.4082 20 11.4082H22V9.4082ZM25 24.4082V13.4082H21V24.4082H25Z" fill="#092987"/>
</svg>
