<svg width="32" height="33" viewBox="0 0 32 33" fill="none" xmlns="http://www.w3.org/2000/svg">
<path d="M27 3.4082C27 2.85596 26.5523 2.4082 26 2.4082C25.4477 2.4082 25 2.85596 25 3.4082V5.4082H22.75C22.3358 5.4082 22 5.7439 22 6.1582V22.6582C22 23.0725 22.3358 23.4082 22.75 23.4082H25V26.4082C25 26.9604 25.4477 27.4082 26 27.4082C26.5523 27.4082 27 26.9604 27 26.4082V23.4082H29.25C29.6642 23.4082 30 23.0725 30 22.6582V6.1582C30 5.7439 29.6642 5.4082 29.25 5.4082H27V3.4082Z" fill="#092987"/>
<path d="M6 5.4082C5.44771 5.4082 5 5.85596 5 6.4082V8.4082H2.75C2.33578 8.4082 2 8.7439 2 9.1582V18.6582C2 19.0725 2.33578 19.4082 2.75 19.4082H5V22.4082C5 22.9604 5.44771 23.4082 6 23.4082C6.55229 23.4082 7 22.9604 7 22.4082V19.4082H9.25C9.66422 19.4082 10 19.0725 10 18.6582V9.1582C10 8.7439 9.66422 8.4082 9.25 8.4082H7V6.4082C7 5.85596 6.55229 5.4082 6 5.4082Z" fill="#092987"/>
<path d="M15 10.4082C15 9.85596 15.4477 9.4082 16 9.4082C16.5523 9.4082 17 9.85596 17 10.4082V12.4082H19.25C19.6642 12.4082 20 12.7439 20 13.1582V26.6582C20 27.0725 19.6642 27.4082 19.25 27.4082H17V29.4082C17 29.9604 16.5523 30.4082 16 30.4082C15.4477 30.4082 15 29.9604 15 29.4082V27.4082H12.75C12.3358 27.4082 12 27.0725 12 26.6582V13.1582C12 12.7439 12.3358 12.4082 12.75 12.4082H15V10.4082Z" fill="#092987"/>
</svg>
