<svg width="32" height="33" viewBox="0 0 32 33" fill="none" xmlns="http://www.w3.org/2000/svg">
<path d="M9 2.4082C8.44772 2.4082 8 2.85592 8 3.4082V5.4082H5.75C5.33579 5.4082 5 5.74399 5 6.1582V12.6582C5 13.0724 5.33579 13.4082 5.75 13.4082H8V17.4082C8 17.9605 8.44772 18.4082 9 18.4082C9.55228 18.4082 10 17.9605 10 17.4082V13.4082H12.25C12.6642 13.4082 13 13.0724 13 12.6582V6.1582C13 5.74399 12.6642 5.4082 12.25 5.4082H10V3.4082C10 2.85592 9.55228 2.4082 9 2.4082Z" fill="#092987"/>
<path d="M19 12.1582C19 11.744 19.3358 11.4082 19.75 11.4082H22V9.4082C22 8.85592 22.4477 8.4082 23 8.4082C23.5523 8.4082 24 8.85592 24 9.4082V11.4082H26.25C26.6642 11.4082 27 11.744 27 12.1582V25.6582C27 26.0724 26.6642 26.4082 26.25 26.4082H24V29.4082C24 29.9605 23.5523 30.4082 23 30.4082C22.4477 30.4082 22 29.9605 22 29.4082V26.4082H19.75C19.3358 26.4082 19 26.0724 19 25.6582V12.1582Z" fill="#092987"/>
</svg>
