<svg width="32" height="33" viewBox="0 0 32 33" fill="none" xmlns="http://www.w3.org/2000/svg">
<path d="M22 3.4082C22 2.85592 22.4477 2.4082 23 2.4082C23.5523 2.4082 24 2.85592 24 3.4082V5.4082H26.25C26.6642 5.4082 27 5.74399 27 6.1582V12.6582C27 13.0724 26.6642 13.4082 26.25 13.4082H24V17.4082C24 17.9605 23.5523 18.4082 23 18.4082C22.4477 18.4082 22 17.9605 22 17.4082V13.4082H19.75C19.3358 13.4082 19 13.0724 19 12.6582V6.1582C19 5.74399 19.3358 5.4082 19.75 5.4082H22V3.4082Z" fill="#092987"/>
<path d="M5 12.1582C5 11.744 5.33579 11.4082 5.75 11.4082H8V9.4082C8 8.85592 8.44772 8.4082 9 8.4082C9.55228 8.4082 10 8.85592 10 9.4082V11.4082H12.25C12.6642 11.4082 13 11.744 13 12.1582V25.6582C13 26.0724 12.6642 26.4082 12.25 26.4082H10V29.4082C10 29.9605 9.55228 30.4082 9 30.4082C8.44772 30.4082 8 29.9605 8 29.4082V26.4082H5.75C5.33579 26.4082 5 26.0724 5 25.6582V12.1582Z" fill="#092987"/>
</svg>
