<svg width="32" height="33" viewBox="0 0 32 33" fill="none" xmlns="http://www.w3.org/2000/svg">
<path fill-rule="evenodd" clip-rule="evenodd" d="M28.8839 5.29209C29.372 4.80393 29.372 4.01248 28.8839 3.52432C28.3957 3.03616 27.6043 3.03616 27.1161 3.52432L3.11612 27.5243C2.62796 28.0125 2.62796 28.8039 3.11612 29.2921C3.60427 29.7802 4.39573 29.7802 4.88388 29.2921L12 22.176V26.6581C12 27.0724 12.3358 27.4081 12.75 27.4081H15V29.4081C15 29.9604 15.4477 30.4081 16 30.4081C16.5523 30.4081 17 29.9604 17 29.4081V27.4081H19.25C19.6642 27.4081 20 27.0724 20 26.6581V14.176L22 12.176V22.6581C22 23.0724 22.3358 23.4081 22.75 23.4081H25V26.4081C25 26.9604 25.4477 27.4081 26 27.4081C26.5523 27.4081 27 26.9604 27 26.4081V23.4081H29.25C29.6642 23.4081 30 23.0724 30 22.6581V6.15815C30 5.74393 29.6642 5.40815 29.25 5.40815H28.7678L28.8839 5.29209ZM24 10.176L26.7678 7.40815H28V21.4081H24V10.176ZM16 9.40815C16.4699 9.40815 16.8642 9.7323 16.9713 10.1692L15 12.1405V10.4081C15 9.85586 15.4477 9.40815 16 9.40815ZM12.75 12.4081H14.7323L12 15.1405V13.1581C12 12.7439 12.3358 12.4081 12.75 12.4081ZM5 19.4081V22.1405L7 20.1405V19.4081H7.73234L10 17.1405V9.15815C10 8.74393 9.66421 8.40815 9.25 8.40815H7V6.40815C7 5.85586 6.55228 5.40815 6 5.40815C5.44772 5.40815 5 5.85586 5 6.40815V8.40815H2.75C2.33579 8.40815 2 8.74393 2 9.15815V18.6581C2 19.0724 2.33579 19.4081 2.75 19.4081H5ZM4 17.4081V10.4081H8V17.4081H4Z" fill="#092987"/>
</svg>
