<svg width="32" height="33" viewBox="0 0 32 33" fill="none" xmlns="http://www.w3.org/2000/svg">
<path d="M1.89258 4.9082C1.89258 4.07978 2.56415 3.4082 3.39258 3.4082H28.6069C29.4353 3.4082 30.1069 4.07978 30.1069 4.9082C30.1069 5.73663 29.4353 6.4082 28.6069 6.4082H3.39258C2.56415 6.4082 1.89258 5.73663 1.89258 4.9082Z" fill="#092987"/>
<path d="M2 16.9082C2 16.425 2.39175 16.0332 2.875 16.0332H11.875C12.3582 16.0332 12.75 16.425 12.75 16.9082C12.75 17.3915 12.3582 17.7832 11.875 17.7832H2.875C2.39175 17.7832 2 17.3915 2 16.9082Z" fill="#092987"/>
<path d="M2.12451 12.4082C2.12451 11.925 2.51626 11.5332 2.99951 11.5332H6.99951C7.48276 11.5332 7.87451 11.925 7.87451 12.4082C7.87451 12.8915 7.48276 13.2832 6.99951 13.2832H2.99951C2.51626 13.2832 2.12451 12.8915 2.12451 12.4082Z" fill="#092987"/>
<path d="M2.12451 21.4082C2.12451 20.925 2.51626 20.5332 2.99951 20.5332H14.9995C15.4828 20.5332 15.8745 20.925 15.8745 21.4082C15.8745 21.8915 15.4828 22.2832 14.9995 22.2832H2.99951C2.51626 22.2832 2.12451 21.8915 2.12451 21.4082Z" fill="#092987"/>
<path d="M2.12451 28.5332C2.12451 28.05 2.51626 27.6582 2.99951 27.6582H28.9995C29.4828 27.6582 29.8745 28.05 29.8745 28.5332C29.8745 29.0165 29.4828 29.4082 28.9995 29.4082H2.99951C2.51626 29.4082 2.12451 29.0165 2.12451 28.5332Z" fill="#092987"/>
<path d="M14.7495 12.4483V11.6253C14.7495 11.0339 14.8778 10.4959 15.1343 10.0114C15.3908 9.52689 15.7684 9.13855 16.2672 8.84641C16.766 8.55427 17.3788 8.4082 18.1056 8.4082C18.8537 8.4082 19.4772 8.55427 19.976 8.84641C20.4819 9.13855 20.8595 9.52689 21.1089 10.0114C21.3654 10.4959 21.4937 11.0339 21.4937 11.6253V12.4483C21.4937 13.0254 21.3654 13.5563 21.1089 14.0408C20.8595 14.5253 20.4854 14.9137 19.9867 15.2058C19.4879 15.4979 18.8715 15.644 18.1376 15.644C17.3966 15.644 16.7731 15.4979 16.2672 15.2058C15.7684 14.9137 15.3908 14.5253 15.1343 14.0408C14.8778 13.5563 14.7495 13.0254 14.7495 12.4483ZM16.7909 11.6253V12.4483C16.7909 12.6977 16.8372 12.9364 16.9299 13.1644C17.0296 13.3853 17.1793 13.567 17.3788 13.7095C17.5854 13.8449 17.8348 13.9125 18.1269 13.9125C18.4333 13.9125 18.6827 13.8449 18.8751 13.7095C19.0675 13.567 19.21 13.3853 19.3026 13.1644C19.3952 12.9364 19.4416 12.6977 19.4416 12.4483V11.6253C19.4416 11.3617 19.3917 11.1194 19.2919 10.8985C19.1993 10.6705 19.0532 10.4888 18.8537 10.3534C18.6613 10.2109 18.4119 10.1397 18.1056 10.1397C17.8205 10.1397 17.5783 10.2109 17.3788 10.3534C17.1793 10.4888 17.0296 10.6705 16.9299 10.8985C16.8372 11.1194 16.7909 11.3617 16.7909 11.6253ZM22.1884 21.2018V20.3788C22.1884 19.7945 22.3166 19.2601 22.5732 18.7756C22.8368 18.2911 23.218 17.9027 23.7168 17.6106C24.2227 17.3185 24.8426 17.1724 25.5765 17.1724C26.3175 17.1724 26.9374 17.3185 27.4362 17.6106C27.935 17.9027 28.3126 18.2911 28.5691 18.7756C28.8257 19.2601 28.9539 19.7945 28.9539 20.3788V21.2018C28.9539 21.7861 28.8257 22.3205 28.5691 22.805C28.3198 23.2895 27.9457 23.6779 27.4469 23.97C26.9481 24.2621 26.3318 24.4082 25.5979 24.4082C24.8568 24.4082 24.2334 24.2621 23.7275 23.97C23.2216 23.6779 22.8368 23.2895 22.5732 22.805C22.3166 22.3205 22.1884 21.7861 22.1884 21.2018ZM24.2405 20.3788V21.2018C24.2405 21.4583 24.2975 21.7006 24.4115 21.9286C24.5255 22.1566 24.6823 22.3383 24.8818 22.4737C25.0884 22.609 25.3271 22.6767 25.5979 22.6767C25.9399 22.6767 26.2071 22.609 26.3995 22.4737C26.5919 22.3383 26.7237 22.1566 26.7949 21.9286C26.8733 21.7006 26.9125 21.4583 26.9125 21.2018V20.3788C26.9125 20.1223 26.8626 19.8836 26.7629 19.6627C26.6631 19.4347 26.5135 19.253 26.314 19.1176C26.1216 18.9751 25.8758 18.9039 25.5765 18.9039C25.2772 18.9039 25.0278 18.9751 24.8283 19.1176C24.636 19.253 24.4899 19.4347 24.3901 19.6627C24.2904 19.8836 24.2405 20.1223 24.2405 20.3788ZM25.8602 10.6046C26.1169 10.7403 26.2044 11.0653 26.0506 11.3116L18.9826 22.6243C18.8437 22.8466 18.5567 22.9239 18.3249 22.8014L17.715 22.479C17.4583 22.3433 17.3708 22.0183 17.5246 21.772L24.5926 10.4593C24.7315 10.237 25.0185 10.1597 25.2503 10.2822L25.8602 10.6046Z" fill="#092987"/>
</svg>
