<svg width="32" height="33" viewBox="0 0 32 33" fill="none" xmlns="http://www.w3.org/2000/svg">
<path d="M26 2.4082C26.5523 2.4082 27 2.85592 27 3.4082V5.4082H29.25C29.6642 5.4082 30 5.74399 30 6.1582V22.6582C30 23.0724 29.6642 23.4082 29.25 23.4082H27V26.4082C27 26.9605 26.5523 27.4082 26 27.4082C25.4477 27.4082 25 26.9605 25 26.4082V23.4082H22.75C22.3358 23.4082 22 23.0724 22 22.6582V6.1582C22 5.74399 22.3358 5.4082 22.75 5.4082H25V3.4082C25 2.85592 25.4477 2.4082 26 2.4082ZM24 21.4082H28V7.4082H24V21.4082Z" fill="#092987"/>
<path d="M5 6.4082C5 5.85592 5.44772 5.4082 6 5.4082C6.55228 5.4082 7 5.85592 7 6.4082V8.4082H9.25C9.66421 8.4082 10 8.74399 10 9.1582V18.6582C10 19.0724 9.66421 19.4082 9.25 19.4082H7V22.4082C7 22.9605 6.55228 23.4082 6 23.4082C5.44772 23.4082 5 22.9605 5 22.4082V19.4082H2.75C2.33579 19.4082 2 19.0724 2 18.6582V9.1582C2 8.74399 2.33579 8.4082 2.75 8.4082H5V6.4082ZM4 10.4082V17.4082H8V10.4082H4Z" fill="#092987"/>
<path d="M15 10.4082C15 9.85592 15.4477 9.4082 16 9.4082C16.5523 9.4082 17 9.85592 17 10.4082V12.4082H19.25C19.6642 12.4082 20 12.744 20 13.1582V26.6582C20 27.0724 19.6642 27.4082 19.25 27.4082H17V29.4082C17 29.9605 16.5523 30.4082 16 30.4082C15.4477 30.4082 15 29.9605 15 29.4082V27.4082H12.75C12.3358 27.4082 12 27.0724 12 26.6582V13.1582C12 12.744 12.3358 12.4082 12.75 12.4082H15V10.4082Z" fill="#092987"/>
</svg>
