<svg width="32" height="33" viewBox="0 0 32 33" fill="none" xmlns="http://www.w3.org/2000/svg">
<path d="M24 3.4082V5.4082H26C26.5523 5.4082 27 5.85592 27 6.4082V12.4082C27 12.9605 26.5523 13.4082 26 13.4082H24V17.4082C24 17.9605 23.5523 18.4082 23 18.4082C22.4477 18.4082 22 17.9605 22 17.4082V13.4082H20C19.4477 13.4082 19 12.9605 19 12.4082V6.4082C19 5.85592 19.4477 5.4082 20 5.4082H22V3.4082C22 2.85592 22.4477 2.4082 23 2.4082C23.5523 2.4082 24 2.85592 24 3.4082ZM21 11.4082H25V7.4082H21V11.4082Z" fill="#092987"/>
<path d="M10 9.4082C10 8.85592 9.55228 8.4082 9 8.4082C8.44772 8.4082 8 8.85592 8 9.4082V11.4082H6C5.44772 11.4082 5 11.8559 5 12.4082V25.4082C5 25.9605 5.44772 26.4082 6 26.4082H8V29.4082C8 29.9605 8.44772 30.4082 9 30.4082C9.55228 30.4082 10 29.9605 10 29.4082V26.4082H12C12.5523 26.4082 13 25.9605 13 25.4082V12.4082C13 11.8559 12.5523 11.4082 12 11.4082H10V9.4082ZM7 24.4082V13.4082H11V24.4082H7Z" fill="#092987"/>
</svg>
