<svg width="32" height="33" viewBox="0 0 32 33" fill="none" xmlns="http://www.w3.org/2000/svg">
<path d="M3.39297 3.4082H28.6073C29.4357 3.4082 30.1073 4.07978 30.1073 4.9082C30.1073 5.73663 29.4357 6.4082 28.6073 6.4082H3.39297C2.56454 6.4082 1.89297 5.73663 1.89297 4.9082C1.89297 4.07978 2.56454 3.4082 3.39297 3.4082Z" fill="#092987"/>
<path d="M2.85049 27.6582H29.1496C29.6328 27.6582 30.0246 28.05 30.0246 28.5332C30.0246 29.0165 29.6328 29.4082 29.1496 29.4082H2.85049C2.36724 29.4082 1.97549 29.0165 1.97549 28.5332C1.97549 28.05 2.36724 27.6582 2.85049 27.6582Z" fill="#092987"/>
<path d="M1.44727 13.2832C1.44727 13.7665 1.83902 14.1582 2.32227 14.1582H8.62484C9.10809 14.1582 9.49984 13.7665 9.49984 13.2832C9.49984 12.8 9.10809 12.4082 8.62484 12.4082H2.32227C1.83902 12.4082 1.44727 12.8 1.44727 13.2832Z" fill="#092987"/>
<path d="M23.3748 12.4082H29.1316C29.6149 12.4082 30.0066 12.8 30.0066 13.2832C30.0066 13.7665 29.6149 14.1582 29.1316 14.1582H23.3748C22.8916 14.1582 22.4998 13.7665 22.4998 13.2832C22.4998 12.8 22.8916 12.4082 23.3748 12.4082Z" fill="#092987"/>
<path d="M1.44727 20.2832C1.44727 19.8 1.83902 19.4082 2.32227 19.4082H8.62484C9.10808 19.4082 9.49984 19.8 9.49984 20.2832C9.49984 20.7665 9.10808 21.1582 8.62484 21.1582H2.32227C1.83902 21.1582 1.44727 20.7665 1.44727 20.2832Z" fill="#092987"/>
<path d="M23.3748 19.4082H29.1316C29.6149 19.4082 30.0066 19.8 30.0066 20.2832C30.0066 20.7665 29.6149 21.1582 29.1316 21.1582H23.3748C22.8916 21.1582 22.4998 20.7665 22.4998 20.2832C22.4998 19.8 22.8916 19.4082 23.3748 19.4082Z" fill="#092987"/>
<path d="M15.9911 15.2875C16.5184 15.2875 16.953 15.1984 17.295 15.0203C17.637 14.835 17.89 14.5785 18.0539 14.2508C18.2249 13.9159 18.3104 13.5275 18.3104 13.0858C18.3104 12.6867 18.232 12.334 18.0753 12.0276C17.9256 11.7141 17.6941 11.4719 17.3805 11.3009C17.067 11.1227 16.6716 11.0337 16.1942 11.0337C15.8165 11.0337 15.4674 11.1085 15.1467 11.2581C14.8261 11.4077 14.5696 11.6179 14.3772 11.8887C14.2733 12.0349 14.1975 12.1977 14.1497 12.3771C14.0786 12.644 13.8648 12.872 13.5886 12.872H11.4998C11.2236 12.872 10.9962 12.6474 11.0271 12.3729C11.0999 11.724 11.3189 11.1457 11.6838 10.6382C12.147 10.004 12.7669 9.50883 13.5435 9.15257C14.3202 8.7963 15.1752 8.61816 16.1087 8.61816C17.1632 8.61816 18.086 8.78917 18.8769 9.13119C19.6678 9.46608 20.2841 9.96129 20.7259 10.6168C21.1677 11.2724 21.3886 12.0847 21.3886 13.0537C21.3886 13.5454 21.2745 14.0228 21.0465 14.4859C20.8185 14.9419 20.4908 15.3552 20.0632 15.7257C19.756 15.9913 19.3994 16.2188 18.9933 16.4082C19.3994 16.5977 19.756 16.8251 20.0632 17.0907C20.4908 17.4612 20.8185 17.8745 21.0465 18.3305C21.2745 18.7937 21.3886 19.2711 21.3886 19.7627C21.3886 20.7318 21.1677 21.544 20.7259 22.1996C20.2841 22.8551 19.6678 23.3503 18.8769 23.6852C18.086 24.0272 17.1632 24.1982 16.1087 24.1982C15.1752 24.1982 14.3202 24.0201 13.5435 23.6638C12.7669 23.3076 12.147 22.8124 11.6838 22.1782C11.3189 21.6707 11.0999 21.0924 11.0271 20.4435C10.9962 20.169 11.2236 19.9444 11.4998 19.9444H13.5886C13.8648 19.9444 14.0786 20.1724 14.1497 20.4393C14.1975 20.6187 14.2733 20.7815 14.3772 20.9277C14.5696 21.1985 14.8261 21.4087 15.1467 21.5583C15.4674 21.7079 15.8165 21.7827 16.1942 21.7827C16.6716 21.7827 17.067 21.6937 17.3805 21.5155C17.6941 21.3445 17.9256 21.1023 18.0753 20.7888C18.232 20.4824 18.3104 20.1297 18.3104 19.7306C18.3104 19.2889 18.2249 18.9005 18.0539 18.5656C17.89 18.2379 17.637 17.9814 17.295 17.7961C16.953 17.618 16.5184 17.5289 15.9911 17.5289H14.8451C14.569 17.5289 14.3451 17.305 14.3451 17.0289V15.7875C14.3451 15.5114 14.569 15.2875 14.8451 15.2875H15.9911Z" fill="#092987"/>
</svg>
