<svg width="32" height="33" viewBox="0 0 32 33" fill="none" xmlns="http://www.w3.org/2000/svg">
<path d="M16 28.9082C22.9036 28.9082 28.5 23.3118 28.5 16.4082C28.5 9.50464 22.9036 3.9082 16 3.9082C9.09644 3.9082 3.5 9.50464 3.5 16.4082C3.5 23.3118 9.09644 28.9082 16 28.9082ZM16 31.4082C7.71573 31.4082 1 24.6925 1 16.4082C1 8.12393 7.71573 1.4082 16 1.4082C24.2843 1.4082 31 8.12393 31 16.4082C31 24.6925 24.2843 31.4082 16 31.4082Z" fill="#092987"/>
<path d="M25.0607 11.3475C25.6464 11.9333 25.6464 12.8831 25.0607 13.4689L15.0607 23.4689C14.4749 24.0546 13.5251 24.0546 12.9393 23.4689L6.93934 17.4689C6.35355 16.8831 6.35355 15.9333 6.93934 15.3475C7.52513 14.7618 8.47487 14.7618 9.06066 15.3475L14 20.2869L22.9393 11.3475C23.5251 10.7618 24.4749 10.7618 25.0607 11.3475Z" fill="#092987"/>
</svg>
