<svg width="32" height="33" viewBox="0 0 32 33" fill="none" xmlns="http://www.w3.org/2000/svg">
<path d="M16 31.4082C7.71573 31.4082 1 24.6925 1 16.4082C1 8.12393 7.71573 1.4082 16 1.4082C24.2843 1.4082 31 8.12393 31 16.4082C31 24.6925 24.2843 31.4082 16 31.4082ZM25.0607 13.4689C25.6464 12.8831 25.6464 11.9333 25.0607 11.3475C24.4749 10.7618 23.5251 10.7618 22.9393 11.3475L14 20.2869L9.06066 15.3475C8.47487 14.7618 7.52513 14.7618 6.93934 15.3475C6.35355 15.9333 6.35355 16.8831 6.93934 17.4689L12.9393 23.4689C13.5251 24.0546 14.4749 24.0546 15.0607 23.4689L25.0607 13.4689Z" fill="#092987"/>
</svg>
