<svg width="32" height="32" viewBox="0 0 32 32" fill="none" xmlns="http://www.w3.org/2000/svg">
<path d="M15.9999 4.50002C12.951 4.50347 10.0279 5.71617 7.87197 7.8721C5.71605 10.028 4.50334 12.9511 4.4999 16C4.49674 17.8385 4.93975 19.6504 5.7909 21.28C6.08019 21.8339 6.15154 22.4761 5.9909 23.08L4.9179 27.08L8.9179 26.007C9.52181 25.8464 10.164 25.9177 10.7179 26.207C12.348 27.0592 14.1605 27.5029 15.9999 27.5C19.0499 27.5 21.975 26.2884 24.1316 24.1318C26.2883 21.9751 27.4999 19.05 27.4999 16C27.4999 12.95 26.2883 10.025 24.1316 7.8683C21.975 5.71163 19.0499 4.50002 15.9999 4.50002ZM15.9999 2.00002C18.1219 1.99603 20.2171 2.47448 22.127 3.3992C24.037 4.32393 25.7117 5.67073 27.0247 7.33781C28.3377 9.00489 29.2545 10.9486 29.7059 13.0221C30.1572 15.0956 30.1313 17.2445 29.6302 19.3065C29.129 21.3685 28.1656 23.2896 26.8129 24.9246C25.4602 26.5596 23.7535 27.8656 21.8218 28.7441C19.8901 29.6225 17.784 30.0504 15.6627 29.9953C13.5414 29.9402 11.4604 29.4036 9.5769 28.426L3.8999 29.947C3.76952 29.9824 3.63499 30.0002 3.4999 30C3.26978 29.9998 3.0428 29.9466 2.83651 29.8447C2.63023 29.7427 2.45018 29.5946 2.31029 29.4119C2.1704 29.2292 2.07443 29.0167 2.02979 28.791C1.98516 28.5652 1.99307 28.3322 2.0529 28.11L3.5739 22.433C2.46627 20.3001 1.92695 17.9177 2.00795 15.5156C2.08895 13.1136 2.78754 10.7729 4.03635 8.71942C5.28515 6.66592 7.04203 4.96885 9.13754 3.79189C11.2331 2.61494 13.5965 1.99781 15.9999 2.00002ZM15.9999 14.5C16.2966 14.5 16.5866 14.588 16.8333 14.7528C17.0799 14.9176 17.2722 15.1519 17.3857 15.426C17.4992 15.7001 17.529 16.0017 17.4711 16.2927C17.4132 16.5836 17.2703 16.8509 17.0606 17.0607C16.8508 17.2705 16.5835 17.4133 16.2925 17.4712C16.0016 17.5291 15.7 17.4994 15.4259 17.3858C15.1518 17.2723 14.9175 17.0801 14.7527 16.8334C14.5879 16.5867 14.4999 16.2967 14.4999 16C14.4999 15.6022 14.6579 15.2207 14.9392 14.9394C15.2205 14.6581 15.6021 14.5 15.9999 14.5ZM21.4999 14.5C21.7966 14.5 22.0866 14.588 22.3333 14.7528C22.5799 14.9176 22.7722 15.1519 22.8857 15.426C22.9992 15.7001 23.029 16.0017 22.9711 16.2927C22.9132 16.5836 22.7703 16.8509 22.5606 17.0607C22.3508 17.2705 22.0835 17.4133 21.7925 17.4712C21.5016 17.5291 21.2 17.4994 20.9259 17.3858C20.6518 17.2723 20.4175 17.0801 20.2527 16.8334C20.0879 16.5867 19.9999 16.2967 19.9999 16C19.9999 15.6022 20.1579 15.2207 20.4392 14.9394C20.7205 14.6581 21.1021 14.5 21.4999 14.5ZM10.4999 14.5C10.7966 14.5 11.0866 14.588 11.3333 14.7528C11.5799 14.9176 11.7722 15.1519 11.8857 15.426C11.9992 15.7001 12.029 16.0017 11.9711 16.2927C11.9132 16.5836 11.7703 16.8509 11.5606 17.0607C11.3508 17.2705 11.0835 17.4133 10.7925 17.4712C10.5016 17.5291 10.2 17.4994 9.92587 17.3858C9.65178 17.2723 9.41751 17.0801 9.25269 16.8334C9.08787 16.5867 8.9999 16.2967 8.9999 16C8.9999 15.6022 9.15793 15.2207 9.43924 14.9394C9.72054 14.6581 10.1021 14.5 10.4999 14.5Z" fill="#092987"/>
</svg>
