<svg width="32" height="33" viewBox="0 0 32 33" fill="none" xmlns="http://www.w3.org/2000/svg">
<path d="M14.75 15.1582C14.0596 15.1582 13.5 15.7178 13.5 16.4082C13.5 17.0986 14.0596 17.6582 14.75 17.6582C14.75 18.3485 15.3096 18.9082 16 18.9082C16.6903 18.9082 17.25 18.3485 17.25 17.6582H24.2506C24.941 17.6582 25.5006 17.0986 25.5006 16.4082C25.5006 15.7178 24.941 15.1582 24.2506 15.1582H17.25L17.25 8.6582C17.25 7.96785 16.6904 7.4082 16 7.4082C15.3097 7.4082 14.75 7.96785 14.75 8.6582L14.75 15.1582Z" fill="#092987"/>
<path d="M16.3217 1.41158C24.3505 1.5805 30.8277 8.05774 30.9966 16.0865C30.9989 16.1101 31 16.134 31 16.1582V16.6582C31 16.6824 30.9989 16.7063 30.9966 16.7299C30.8277 24.7587 24.3505 31.2359 16.3217 31.4048C16.2981 31.4071 16.2742 31.4082 16.25 31.4082H15.75C15.7258 31.4082 15.7019 31.4071 15.6783 31.4048C7.64953 31.2359 1.17229 24.7587 1.00338 16.7299C1.00114 16.7063 1 16.6824 1 16.6582V16.1582C1 16.134 1.00114 16.1101 1.00338 16.0865C1.1723 8.05774 7.64953 1.5805 15.6783 1.41158C15.7019 1.40935 15.7258 1.4082 15.75 1.4082H16.25C16.2742 1.4082 16.2981 1.40935 16.3217 1.41158ZM15 4.6582V3.94762C8.89389 4.43095 4.02274 9.3021 3.53942 15.4082H4.25C4.66421 15.4082 5 15.744 5 16.1582V16.6582C5 17.0724 4.66421 17.4082 4.25 17.4082H3.53942C4.02274 23.5143 8.89389 28.3855 15 28.8688V28.1582C15 27.744 15.3358 27.4082 15.75 27.4082H16.25C16.6642 27.4082 17 27.744 17 28.1582V28.8688C23.1061 28.3855 27.9773 23.5143 28.4606 17.4082H27.75C27.3358 17.4082 27 17.0724 27 16.6582V16.1582C27 15.744 27.3358 15.4082 27.75 15.4082H28.4606C27.9773 9.3021 23.1061 4.43095 17 3.94762V4.6582C17 5.07242 16.6642 5.4082 16.25 5.4082H15.75C15.3358 5.4082 15 5.07242 15 4.6582Z" fill="#092987"/>
</svg>
