<svg width="32" height="32" viewBox="0 0 32 32" fill="none" xmlns="http://www.w3.org/2000/svg">
<path d="M18.8294 16.0003H18.8194L27.4094 24.5903C27.7548 24.9701 27.9409 25.4682 27.9292 25.9815C27.9174 26.4948 27.7088 26.9839 27.3464 27.3475C26.984 27.7112 26.4956 27.9216 25.9824 27.9351C25.4692 27.9487 24.9704 27.7643 24.5894 27.4203L15.9994 18.8303L7.40936 27.4203C7.22709 27.6207 7.00599 27.782 6.75948 27.8944C6.51297 28.0068 6.2462 28.068 5.97534 28.0742C5.70449 28.0803 5.4352 28.0314 5.18382 27.9304C4.93244 27.8294 4.70421 27.6783 4.51297 27.4864C4.32174 27.2945 4.17149 27.0657 4.07134 26.814C3.9712 26.5622 3.92324 26.2928 3.93038 26.0219C3.93753 25.7511 3.99962 25.4846 4.1129 25.2385C4.22618 24.9923 4.38828 24.7718 4.58936 24.5903L13.1694 16.0103L4.57936 7.42025C4.20408 7.04497 3.99325 6.53598 3.99325 6.00525C3.99325 5.47453 4.20408 4.96553 4.57936 4.59025C4.95464 4.21497 5.46363 4.00414 5.99436 4.00414C6.52509 4.00414 7.03408 4.21497 7.40936 4.59025L15.9894 13.1703L24.5794 4.58025C24.7652 4.39443 24.9858 4.24703 25.2286 4.14647C25.4714 4.0459 25.7316 3.99414 25.9944 3.99414C26.2572 3.99414 26.5174 4.0459 26.7602 4.14647C27.0029 4.24703 27.2235 4.39443 27.4094 4.58025C27.5952 4.76607 27.7426 4.98667 27.8431 5.22946C27.9437 5.47225 27.9955 5.73246 27.9955 5.99525C27.9955 6.25804 27.9437 6.51826 27.8431 6.76105C27.7426 7.00383 27.5952 7.22443 27.4094 7.41025L18.8294 16.0003Z" fill="#092987"/>
</svg>
