<svg width="32" height="33" viewBox="0 0 32 33" fill="none" xmlns="http://www.w3.org/2000/svg">
<path d="M24.7312 13.956C26.6143 14.0207 28.1503 14.7433 29.2618 15.8791C30.5082 17.1529 31.1487 18.87 31.2383 20.5576C31.3278 22.2431 30.873 24.0017 29.7941 25.3646C28.6898 26.7595 26.9924 27.6581 24.8101 27.6581H7.01879C6.77707 27.6581 6.5334 27.6074 6.30785 27.5065C1.96663 25.564 0.279433 21.2941 0.861014 17.5045C1.42365 13.8383 4.13697 10.4933 8.6354 10.0586C9.3119 7.68536 10.6792 6.0158 12.4191 5.06798C14.256 4.06728 16.3929 3.93333 18.3377 4.46473C22.0422 5.47701 25.2451 8.97377 24.7312 13.956ZM13.615 7.26334C12.4444 7.90106 11.4128 9.10925 10.9385 11.1343C10.7575 11.907 10.0764 12.483 9.27202 12.5191C5.82203 12.6739 3.76278 15.0772 3.33208 17.8837C2.90541 20.6639 4.10618 23.7049 7.18438 25.1581H24.8101C26.2464 25.1581 27.2149 24.5949 27.8339 23.8128C28.4784 22.9988 28.8043 21.8652 28.7419 20.6901C28.6796 19.517 28.2356 18.4049 27.4749 17.6276C26.7392 16.8757 25.6363 16.3612 24.0605 16.4644C22.8968 16.5406 21.9458 15.493 22.1544 14.333C22.8734 10.3362 20.4825 7.64248 17.6787 6.87632C16.2693 6.49119 14.8096 6.61257 13.615 7.26334Z" fill="#092987"/>
</svg>
