<svg width="32" height="33" viewBox="0 0 32 33" fill="none" xmlns="http://www.w3.org/2000/svg">
<path d="M20.9996 4.4082C17.4307 4.4082 14.4843 7.07994 14.0538 10.5319C13.9855 11.08 13.4858 11.4689 12.9378 11.4005C12.3897 11.3322 12.0009 10.8325 12.0692 10.2845C12.6229 5.84384 16.4093 2.4082 20.9996 2.4082C25.9702 2.4082 29.9996 6.43764 29.9996 11.4082C29.9996 15.9985 26.564 19.7849 22.1234 20.3386C21.5753 20.407 21.0757 20.0181 21.0073 19.47C20.939 18.922 21.3279 18.4223 21.8759 18.354C25.3279 17.9235 27.9996 14.9771 27.9996 11.4082C27.9996 7.54221 24.8656 4.4082 20.9996 4.4082Z" fill="#092987"/>
<path d="M11 30.4082C6.02944 30.4082 2 26.3788 2 21.4082C2 16.4376 6.02944 12.4082 11 12.4082C15.9706 12.4082 20 16.4376 20 21.4082C20 26.3788 15.9706 30.4082 11 30.4082ZM10.8428 28.4082C11.1189 28.4082 11.3428 28.1843 11.3428 27.9082V26.9508C11.8017 26.9031 12.2188 26.7976 12.5941 26.6343C13.1241 26.3987 13.5363 26.0601 13.8307 25.6185C14.1251 25.172 14.2723 24.6322 14.2723 23.9992C14.2723 23.3612 14.1374 22.8362 13.8675 22.424C13.5976 22.0118 13.2222 21.6634 12.7413 21.3788C12.2604 21.0941 11.701 20.8292 11.0631 20.5838C10.6705 20.4219 10.3614 20.2648 10.1356 20.1127C9.90992 19.9557 9.75044 19.7839 9.6572 19.5975C9.56887 19.411 9.52471 19.1926 9.52471 18.9424C9.52471 18.6872 9.56642 18.4615 9.64984 18.2652C9.73817 18.064 9.87802 17.9045 10.0694 17.7868C10.2608 17.669 10.5061 17.6101 10.8055 17.6101C11.0067 17.6101 11.1907 17.6494 11.3575 17.7279C11.5244 17.8015 11.6667 17.9143 11.7844 18.0665C11.9071 18.2186 12.0004 18.4075 12.0641 18.6332C12.0892 18.7219 12.1093 18.8159 12.1246 18.9152C12.1664 19.1881 12.3837 19.4135 12.6598 19.4135H13.7723C14.0485 19.4135 14.2757 19.189 14.2484 18.9142C14.2136 18.5635 14.1406 18.2416 14.0294 17.9487C13.8675 17.5218 13.6344 17.1611 13.3302 16.8667C13.0259 16.5673 12.6628 16.3416 12.2408 16.1895C12.0036 16.1012 11.7509 16.0378 11.4826 15.9991V14.9082C11.4826 14.6321 11.2588 14.4082 10.9826 14.4082H10.8344C10.5582 14.4082 10.3344 14.6321 10.3344 14.9082V15.9767C9.853 16.0225 9.41872 16.1376 9.03155 16.322C8.52121 16.5624 8.12128 16.9059 7.83176 17.3525C7.54224 17.799 7.39748 18.3265 7.39748 18.935C7.39748 19.5729 7.53242 20.1005 7.80231 20.5176C8.0722 20.9298 8.4476 21.2757 8.9285 21.5554C9.4143 21.8302 9.97617 22.0903 10.6141 22.3356C10.9919 22.478 11.2913 22.6252 11.5121 22.7773C11.7378 22.9294 11.8998 23.1036 11.9979 23.2999C12.1009 23.4962 12.1525 23.7342 12.1525 24.0139C12.1525 24.2641 12.0985 24.4899 11.9905 24.6911C11.8875 24.8873 11.7329 25.0419 11.5268 25.1548C11.3256 25.2677 11.068 25.3241 10.7539 25.3241C10.5528 25.3241 10.354 25.2946 10.1577 25.2358C9.96144 25.1769 9.78479 25.0787 9.62776 24.9413C9.47564 24.799 9.35296 24.6101 9.25973 24.3746C9.21364 24.2557 9.17894 24.1224 9.15563 23.9748C9.11258 23.702 8.89602 23.4766 8.61987 23.4766H7.5C7.22386 23.4766 6.9966 23.701 7.02259 23.9759C7.06455 24.4198 7.16497 24.8078 7.32387 25.1401C7.53978 25.5866 7.8293 25.9448 8.19243 26.2147C8.55556 26.4846 8.96039 26.6809 9.40694 26.8036C9.66863 26.8726 9.93116 26.9214 10.1945 26.95V27.9082C10.1945 28.1843 10.4184 28.4082 10.6945 28.4082H10.8428Z" fill="#092987"/>
<path d="M24.5568 7.11434C24.7066 6.78337 24.4646 6.4082 24.1013 6.4082H23.0809C22.8755 6.4082 22.6909 6.5339 22.6157 6.72509L21.1946 10.3358L19.7612 6.72378C19.6856 6.53328 19.5014 6.4082 19.2965 6.4082H18.2759C17.9124 6.4082 17.6704 6.78375 17.8205 7.11476L19.7308 11.3258H18.522C18.2458 11.3258 18.022 11.5496 18.022 11.8258V11.9865C18.022 12.2626 18.2458 12.4865 18.522 12.4865H20.1374V13.3175H18.522C18.2458 13.3175 18.022 13.5414 18.022 13.8175V13.9714C18.022 14.2475 18.2458 14.4714 18.522 14.4714H20.1374V15.9082C20.1374 16.1843 20.3612 16.4082 20.6374 16.4082H21.6909C21.9671 16.4082 22.1909 16.1843 22.1909 15.9082V14.4714H23.6758C23.952 14.4714 24.1758 14.2475 24.1758 13.9714V13.8175C24.1758 13.5414 23.952 13.3175 23.6758 13.3175H22.1909V12.4865H23.6758C23.952 12.4865 24.1758 12.2626 24.1758 11.9865V11.8258C24.1758 11.5496 23.952 11.3258 23.6758 11.3258H22.6511L24.5568 7.11434Z" fill="#092987"/>
<path d="M20.6561 26.8896C20.3146 27.1884 20.3147 27.7196 20.6561 28.0185L23.1818 30.2284C23.5051 30.5113 24.0111 30.2817 24.0111 29.8521L24.0111 28.4541H25.0111C27.7725 28.4541 30.0111 26.2155 30.0111 23.4541C30.0111 22.1867 29.5383 21.0273 28.7608 20.1465C28.3954 19.7324 27.7634 19.693 27.3494 20.0585C26.9353 20.424 26.8959 21.0559 27.2614 21.47C27.7287 21.9994 28.0111 22.6925 28.0111 23.4541C28.0111 25.1109 26.668 26.4541 25.0111 26.4541H24.0111V25.0559C24.0111 24.6263 23.5051 24.3967 23.1818 24.6796L20.6561 26.8896Z" fill="#092987"/>
</svg>
