<svg width="32" height="33" viewBox="0 0 32 33" fill="none" xmlns="http://www.w3.org/2000/svg">
<path d="M20.9996 4.4082C17.4307 4.4082 14.4843 7.07992 14.0538 10.5319C13.9855 11.08 13.4858 11.4689 12.9378 11.4005C12.3897 11.3322 12.0008 10.8325 12.0692 10.2845C12.6229 5.84386 16.4093 2.4082 20.9996 2.4082C25.9702 2.4082 29.9996 6.43764 29.9996 11.4082C29.9996 15.9985 26.564 19.7849 22.1234 20.3386C21.5753 20.407 21.0756 20.0181 21.0073 19.47C20.939 18.922 21.3278 18.4223 21.8759 18.354C25.3279 17.9235 27.9996 14.9771 27.9996 11.4082C27.9996 7.54221 24.8656 4.4082 20.9996 4.4082Z" fill="#092987"/>
<path d="M11 30.4082C6.02944 30.4082 2 26.3788 2 21.4082C2 16.4376 6.02944 12.4082 11 12.4082C15.9706 12.4082 20 16.4376 20 21.4082C20 26.3788 15.9706 30.4082 11 30.4082ZM13.2982 15.4082C13.0928 15.4082 12.9082 15.5339 12.833 15.7251L10.979 20.4355L9.10927 15.7238C9.03367 15.5333 8.84948 15.4082 8.64452 15.4082H7.02586C6.66238 15.4082 6.42036 15.7837 6.57052 16.1148L9.10538 21.7027H7.41812C7.14198 21.7027 6.91812 21.9266 6.91812 22.2027V22.6884C6.91812 22.9646 7.14198 23.1884 7.41812 23.1884H9.62582V24.2521H7.41812C7.14198 24.2521 6.91812 24.476 6.91812 24.7521V25.2291C6.91812 25.5052 7.14198 25.7291 7.41812 25.7291H9.62582V27.7082C9.62582 27.9843 9.84968 28.2082 10.1258 28.2082H11.7544C12.0305 28.2082 12.2544 27.9843 12.2544 27.7082V25.7291H14.295C14.5712 25.7291 14.795 25.5052 14.795 25.2291V24.7521C14.795 24.476 14.5712 24.2521 14.295 24.2521H12.2544V23.1884H14.295C14.5712 23.1884 14.795 22.9646 14.795 22.6884V22.2027C14.795 21.9266 14.5712 21.7027 14.295 21.7027H12.8434L15.3722 16.1143C15.522 15.7834 15.28 15.4082 14.9167 15.4082H13.2982Z" fill="#092987"/>
<path d="M20.7382 16.9161C20.7382 17.1879 20.9585 17.4082 21.2303 17.4082C21.5021 17.4082 21.7224 17.1879 21.7224 16.9161V16.159C22.1158 16.1181 22.4733 16.0277 22.795 15.8877C23.2492 15.6858 23.6025 15.3956 23.8549 15.017C24.1073 14.6343 24.2334 14.1716 24.2334 13.629C24.2334 13.0822 24.1177 12.6322 23.8864 12.2789C23.6551 11.9256 23.3333 11.6269 22.9211 11.383C22.5089 11.139 22.0294 10.9119 21.4826 10.7016C21.1461 10.5628 20.8812 10.4282 20.6877 10.2978C20.4942 10.1632 20.3575 10.016 20.2776 9.85614C20.2019 9.69631 20.164 9.50913 20.164 9.29462C20.164 9.0759 20.1998 8.88242 20.2713 8.71417C20.347 8.54172 20.4669 8.40502 20.6309 8.30408C20.7949 8.20313 21.0052 8.15271 21.2618 8.15271C21.4343 8.15271 21.592 8.18636 21.735 8.25366C21.878 8.31675 22 8.4135 22.1009 8.54388C22.2061 8.67427 22.286 8.83618 22.3407 9.02966C22.3561 9.08439 22.3694 9.14147 22.3805 9.20091C22.4312 9.47237 22.6466 9.69843 22.9227 9.69843H23.7334C24.0096 9.69843 24.2376 9.47372 24.2052 9.19949C24.1729 8.92632 24.1129 8.67413 24.0252 8.44293C23.8864 8.077 23.6866 7.76781 23.4258 7.51544C23.1651 7.25887 22.8538 7.06539 22.4921 6.935C22.2888 6.85934 22.0722 6.80498 21.8423 6.77185V5.90031C21.8423 5.62853 21.6219 5.4082 21.3501 5.4082C21.0784 5.4082 20.858 5.62853 20.858 5.90031V6.75262C20.4454 6.79191 20.0732 6.89055 19.7413 7.04858C19.3039 7.25468 18.9611 7.54913 18.7129 7.93188C18.4648 8.31464 18.3407 8.76677 18.3407 9.28833C18.3407 9.83512 18.4563 10.2873 18.6877 10.6448C18.919 10.9981 19.2408 11.2946 19.653 11.5344C20.0694 11.7699 20.551 11.9929 21.0978 12.2032C21.4216 12.3252 21.6782 12.4513 21.8675 12.5817C22.061 12.7121 22.1998 12.8614 22.2839 13.0297C22.3722 13.1979 22.4164 13.4019 22.4164 13.6417C22.4164 13.8562 22.3701 14.0497 22.2776 14.2221C22.1893 14.3904 22.0568 14.5228 21.8801 14.6196C21.7077 14.7163 21.4868 14.7646 21.2177 14.7646C21.0452 14.7646 20.8748 14.7394 20.7066 14.689C20.5384 14.6385 20.3869 14.5544 20.2523 14.4366C20.122 14.3146 20.0168 14.1527 19.9369 13.9508C19.9048 13.8682 19.8792 13.7774 19.86 13.6785C19.8074 13.4074 19.5932 13.1811 19.317 13.1811H18.5C18.2239 13.1811 17.9958 13.4057 18.0267 13.6801C18.0663 14.0311 18.1499 14.34 18.2776 14.6069C18.4627 14.9897 18.7108 15.2967 19.0221 15.5281C19.3333 15.7594 19.6803 15.9277 20.0631 16.0328C20.2874 16.092 20.5124 16.1338 20.7382 16.1583V16.9161Z" fill="#092987"/>
<path d="M20.6561 26.8896C20.3146 27.1884 20.3147 27.7196 20.6561 28.0185L23.1818 30.2284C23.5051 30.5113 24.0111 30.2817 24.0111 29.8521L24.0111 28.4541H25.0111C27.7725 28.4541 30.0111 26.2155 30.0111 23.4541C30.0111 22.1867 29.5383 21.0273 28.7608 20.1465C28.3954 19.7324 27.7634 19.693 27.3494 20.0585C26.9353 20.424 26.8959 21.0559 27.2614 21.47C27.7287 21.9994 28.0111 22.6925 28.0111 23.4541C28.0111 25.1109 26.668 26.4541 25.0111 26.4541H24.0111V25.0559C24.0111 24.6263 23.5051 24.3967 23.1818 24.6796L20.6561 26.8896Z" fill="#092987"/>
</svg>
