<svg width="32" height="33" viewBox="0 0 32 33" fill="none" xmlns="http://www.w3.org/2000/svg">
<path d="M7.2 29.4082C6.86864 29.4212 6.54568 29.3021 6.3021 29.0771C6.05852 28.852 5.91425 28.5395 5.901 28.2082C5.88774 27.8768 6.00659 27.5538 6.23142 27.31C6.45625 27.0662 6.76866 26.9217 7.1 26.9082H13.7V22.4082H4C3.47005 22.4066 2.96227 22.1954 2.58753 21.8207C2.2128 21.4459 2.00158 20.9381 2 20.4082V5.4082C2.00158 4.87826 2.2128 4.37047 2.58753 3.99574C2.96227 3.62101 3.47005 3.40979 4 3.4082H28C28.5299 3.40979 29.0377 3.62101 29.4125 3.99574C29.7872 4.37047 29.9984 4.87826 30 5.4082V20.4082C29.9984 20.9381 29.7872 21.4459 29.4125 21.8207C29.0377 22.1954 28.5299 22.4066 28 22.4082H18.3V26.9082H24.8C24.9646 26.9133 25.1266 26.9512 25.2764 27.0196C25.4262 27.088 25.5609 27.1855 25.6726 27.3065C25.7843 27.4276 25.8708 27.5696 25.927 27.7244C25.9832 27.8792 26.008 28.0437 26 28.2082C26.0063 28.3675 25.9796 28.5264 25.9216 28.6748C25.8635 28.8233 25.7753 28.9581 25.6626 29.0708C25.5499 29.1835 25.4151 29.2717 25.2666 29.3298C25.1182 29.3878 24.9593 29.4145 24.8 29.4082H7.2ZM4.5 19.9082H27.5V5.9082H4.5V19.9082Z" fill="#092987"/>
</svg>
