<svg width="32" height="33" viewBox="0 0 32 33" fill="none" xmlns="http://www.w3.org/2000/svg">
<path d="M16.1509 22.4082C15.8748 22.4082 15.6509 22.1843 15.6509 21.9082V20.7416C15.3499 20.709 15.0499 20.6532 14.7508 20.5743C14.2405 20.4341 13.7778 20.2098 13.3628 19.9014C12.9478 19.5929 12.6169 19.1835 12.3701 18.6732C12.1801 18.2758 12.0632 17.8086 12.0196 17.2716C11.9972 16.9964 12.2239 16.772 12.5 16.772H13.9227C14.1989 16.772 14.4169 16.997 14.4533 17.2707C14.4795 17.4679 14.5226 17.6437 14.5826 17.7983C14.6891 18.0675 14.8293 18.2834 15.0032 18.4461C15.1826 18.6031 15.3845 18.7152 15.6088 18.7825C15.8332 18.8498 16.0603 18.8835 16.2902 18.8835C16.6492 18.8835 16.9436 18.819 17.1735 18.69C17.4091 18.561 17.5857 18.3844 17.7035 18.16C17.8269 17.9301 17.8886 17.6721 17.8886 17.3861C17.8886 17.0665 17.8297 16.7945 17.7119 16.5701C17.5997 16.3458 17.4147 16.1467 17.1567 15.9729C16.9043 15.799 16.5622 15.6308 16.1304 15.4681C15.4013 15.1877 14.7592 14.8905 14.204 14.5764C13.6544 14.2568 13.2254 13.8614 12.9169 13.3903C12.6085 12.9136 12.4543 12.3108 12.4543 11.5817C12.4543 10.8863 12.6197 10.2834 12.9506 9.77308C13.2815 9.26274 13.7385 8.87017 14.3218 8.59537C14.7643 8.38467 15.2606 8.25313 15.8107 8.20075V6.9082C15.8107 6.63206 16.0346 6.4082 16.3107 6.4082H16.623C16.8992 6.4082 17.123 6.63206 17.123 6.9082V8.22638C17.4296 8.27056 17.7184 8.34308 17.9895 8.44395C18.4718 8.61781 18.8868 8.87578 19.2345 9.21788C19.5822 9.55436 19.8486 9.96656 20.0337 10.4545C20.1681 10.809 20.2538 11.2005 20.2905 11.629C20.3141 11.9042 20.0874 12.1285 19.8113 12.1285H18.397C18.1208 12.1285 17.9023 11.9036 17.8667 11.6297C17.8485 11.49 17.8221 11.359 17.7876 11.2368C17.7147 10.9788 17.6082 10.7629 17.4679 10.5891C17.3334 10.4152 17.1707 10.2862 16.98 10.2021C16.7894 10.1124 16.5791 10.0675 16.3491 10.0675C16.007 10.0675 15.7266 10.1348 15.5079 10.2694C15.2892 10.404 15.1293 10.5863 15.0284 10.8162C14.9331 11.0405 14.8854 11.2985 14.8854 11.5901C14.8854 11.8761 14.9359 12.1257 15.0368 12.3388C15.1434 12.5519 15.3256 12.7482 15.5836 12.9277C15.8416 13.1015 16.1949 13.281 16.6435 13.466C17.3726 13.7464 18.0119 14.0493 18.5615 14.3746C19.1111 14.6998 19.5402 15.098 19.8486 15.5691C20.1571 16.0402 20.3113 16.6402 20.3113 17.3693C20.3113 18.0927 20.143 18.7096 19.8065 19.22C19.4701 19.7247 18.999 20.1117 18.3933 20.3809C17.9644 20.5675 17.4877 20.6881 16.9632 20.7425V21.9082C16.9632 22.1843 16.7394 22.4082 16.4632 22.4082H16.1509Z" fill="#092987"/>
<path d="M15.8703 1.65877C18.9809 1.63137 22.0204 2.58988 24.5543 4.39699C27.0881 6.20407 28.9866 8.76711 29.9789 11.7195C30.6071 13.5887 30.8518 15.5534 30.7118 17.498C30.6622 18.1866 30.0638 18.7046 29.3752 18.655C28.6866 18.6054 28.1686 18.007 28.2182 17.3184C28.3346 15.7021 28.1312 14.0693 27.6092 12.516C26.7846 10.0624 25.2071 7.93319 23.1027 6.43239C20.9983 4.93162 18.4747 4.13593 15.8923 4.15868C13.31 4.18143 10.8006 5.02146 8.72291 6.55909C6.64516 8.09675 5.10529 10.2534 4.32384 12.7212C3.54237 15.189 3.55947 17.8412 4.37267 20.2987C5.18587 22.7561 6.75339 24.8927 8.85077 26.4033C9.92886 27.1798 11.1186 27.7705 12.371 28.1598C13.0303 28.3647 13.3986 29.0653 13.1937 29.7245C12.9888 30.3838 12.2882 30.7521 11.629 30.5471C10.1205 30.0783 8.68777 29.3669 7.38968 28.4319C4.86429 26.613 2.97776 24.0411 1.99924 21.0841C1.02074 18.1271 1.00017 14.9359 1.94048 11.9665C2.88079 8.99705 4.734 6.40097 7.23572 4.54955C9.73748 2.6981 12.7596 1.68618 15.8703 1.65877Z" fill="#092987"/>
<path d="M20.6153 21.4082C20.6153 20.8559 21.063 20.4082 21.6153 20.4082H30C30.5523 20.4082 31 20.8559 31 21.4082V26.3313C31 26.8836 30.5523 27.3313 30 27.3313H27.5386V24.1159C27.5386 23.3427 26.9118 22.7159 26.1386 22.7159H20.6153V21.4082ZM16 24.8697C16 24.3174 16.4477 23.8697 17 23.8697H25.3847C25.937 23.8697 26.3847 24.3174 26.3847 24.8697V25.6006H16V24.8697ZM16 26.7544H26.3847V29.7928C26.3847 30.3451 25.937 30.7928 25.3847 30.7928H17C16.4477 30.7928 16 30.3451 16 29.7928V26.7544Z" fill="#092987"/>
</svg>
