<svg width="32" height="33" viewBox="0 0 32 33" fill="none" xmlns="http://www.w3.org/2000/svg">
<path d="M24.5543 4.39699C27.0881 6.20407 28.9866 8.76711 29.9789 11.7195C30.6071 13.5887 30.8518 15.5534 30.7118 17.498C30.6622 18.1866 30.0638 18.7046 29.3752 18.655C28.6866 18.6054 28.1686 18.007 28.2182 17.3184C28.3346 15.7021 28.1312 14.0693 27.6092 12.516C26.7846 10.0624 25.2071 7.93319 23.1027 6.43239C20.9983 4.93162 18.4747 4.13593 15.8923 4.15868C13.31 4.18143 10.8006 5.02146 8.72291 6.55909C6.64516 8.09675 5.10529 10.2534 4.32384 12.7212C3.54237 15.189 3.55947 17.8412 4.37267 20.2987C5.18587 22.7561 6.75339 24.8927 8.85077 26.4033C9.92886 27.1798 11.1186 27.7705 12.371 28.1598C13.0303 28.3647 13.3986 29.0653 13.1937 29.7245C12.9888 30.3838 12.2882 30.7521 11.629 30.5471C10.1205 30.0783 8.68777 29.3669 7.38968 28.4319C4.86429 26.613 2.97776 24.0411 1.99924 21.0841C1.02074 18.1271 1.00017 14.9359 1.94048 11.9665C2.88079 8.99705 4.734 6.40097 7.23572 4.54955C9.73748 2.6981 12.7596 1.68618 15.8703 1.65877C18.9809 1.63137 22.0204 2.58988 24.5543 4.39699Z" fill="#092987"/>
<path d="M15.1509 22.4082V21.2416C14.8499 21.209 14.5499 21.1532 14.2508 21.0743C13.7404 20.9341 13.2778 20.7098 12.8628 20.4014C12.4478 20.0929 12.1169 19.6835 11.8701 19.1732C11.6801 18.7758 11.5632 18.3086 11.5196 17.7716C11.4972 17.4964 11.7239 17.272 12 17.272H13.4227C13.6989 17.272 13.9169 17.497 13.9533 17.7707C13.9795 17.9679 14.0226 18.1437 14.0825 18.2983C14.1891 18.5675 14.3293 18.7834 14.5032 18.9461C14.6826 19.1031 14.8845 19.2152 15.1088 19.2825C15.3332 19.3498 15.5603 19.3835 15.7902 19.3835C16.1491 19.3835 16.4436 19.319 16.6735 19.19C16.909 19.061 17.0857 18.8844 17.2035 18.66C17.3268 18.4301 17.3885 18.1721 17.3885 17.8861C17.3885 17.5665 17.3297 17.2945 17.2119 17.0701C17.0997 16.8458 16.9147 16.6467 16.6567 16.4729C16.4043 16.299 16.0622 16.1308 15.6304 15.9681C14.9013 15.6877 14.2592 15.3905 13.704 15.0764C13.1544 14.7568 12.7254 14.3614 12.4169 13.8903C12.1085 13.4136 11.9543 12.8108 11.9543 12.0817C11.9543 11.3863 12.1197 10.7834 12.4506 10.2731C12.7815 9.76274 13.2385 9.37017 13.8218 9.09537C14.2643 8.88467 14.7606 8.75313 15.3107 8.70075V7.4082C15.3107 7.13206 15.5346 6.9082 15.8107 6.9082H16.123C16.3992 6.9082 16.623 7.13206 16.623 7.4082V8.72638C16.9296 8.77056 17.2184 8.84308 17.4895 8.94395C17.9718 9.11781 18.3868 9.37578 18.7345 9.71788C19.0822 10.0544 19.3486 10.4666 19.5336 10.9545C19.6681 11.309 19.7537 11.7005 19.7905 12.129C19.8141 12.4042 19.5874 12.6285 19.3113 12.6285H17.897C17.6208 12.6285 17.4023 12.4036 17.3666 12.1298C17.3485 11.99 17.3221 11.859 17.2876 11.7368C17.2147 11.4788 17.1081 11.2629 16.9679 11.0891C16.8333 10.9152 16.6707 10.7862 16.48 10.7021C16.2893 10.6124 16.079 10.5675 15.8491 10.5675C15.507 10.5675 15.2266 10.6348 15.0079 10.7694C14.7892 10.904 14.6293 11.0863 14.5284 11.3162C14.4331 11.5405 14.3854 11.7985 14.3854 12.0901C14.3854 12.3761 14.4359 12.6257 14.5368 12.8388C14.6434 13.0519 14.8256 13.2482 15.0836 13.4277C15.3416 13.6015 15.6949 13.781 16.1435 13.966C16.8726 14.2464 17.5119 14.5493 18.0615 14.8746C18.6111 15.1998 19.0401 15.598 19.3486 16.0691C19.657 16.5402 19.8113 17.1402 19.8113 17.8693C19.8113 18.5927 19.643 19.2096 19.3065 19.72C18.97 20.2247 18.4989 20.6117 17.8933 20.8809C17.4644 21.0675 16.9877 21.1881 16.4632 21.2426V22.4082C16.4632 22.6843 16.2393 22.9082 15.9632 22.9082H15.6509C15.3748 22.9082 15.1509 22.6843 15.1509 22.4082Z" fill="#092987"/>
<path d="M30.8197 22.9274C31.1656 23.232 30.9501 23.8027 30.4892 23.8027L20.75 23.8027C20.3358 23.8027 20 23.4669 20 23.0527V21.5527C20 21.1385 20.3358 20.8027 20.75 20.8027L25 20.8027L25 18.9092C25.0001 18.4788 25.5075 18.2495 25.8305 18.5339L30.8197 22.9274Z" fill="#092987"/>
<path d="M15.1705 26.2835C14.8246 25.9789 15.04 25.4083 15.5009 25.4083L25.2402 25.4083C25.6544 25.4083 25.9902 25.744 25.9902 26.1583V27.6583C25.9902 28.0725 25.6544 28.4083 25.2402 28.4083L20.9902 28.4083L20.9901 30.3018C20.9901 30.7321 20.4827 30.9614 20.1597 30.677L15.1705 26.2835Z" fill="#092987"/>
</svg>
