<svg width="32" height="33" viewBox="0 0 32 33" fill="none" xmlns="http://www.w3.org/2000/svg">
<path d="M15.8703 1.65877C18.9809 1.63137 22.0204 2.58988 24.5543 4.39699C27.0881 6.20407 28.9866 8.76711 29.9789 11.7195C30.8439 14.2932 30.9818 17.0482 30.3893 19.6825C30.2378 20.356 29.569 20.7792 28.8954 20.6277C28.2219 20.4762 27.7987 19.8074 27.9502 19.1339C28.4427 16.9445 28.328 14.6548 27.6092 12.516C26.7846 10.0624 25.2071 7.93319 23.1027 6.43239C20.9983 4.93162 18.4747 4.13593 15.8923 4.15868C13.31 4.18143 10.8006 5.02146 8.72291 6.55909C6.64516 8.09675 5.10529 10.2534 4.32384 12.7212C3.54237 15.189 3.55947 17.8412 4.37267 20.2987C5.18587 22.7561 6.75339 24.8927 8.85077 26.4033C10.4389 27.5471 12.2692 28.2878 14.1855 28.5755C14.8683 28.6779 15.3386 29.3145 15.2362 29.9972C15.1337 30.6799 14.4972 31.1502 13.8145 31.0478C11.5063 30.7013 9.30191 29.8092 7.38968 28.4319C4.86429 26.613 2.97776 24.0411 1.99924 21.0841C1.02074 18.1271 1.00017 14.9359 1.94048 11.9665C2.88079 8.99705 4.734 6.40097 7.23572 4.54955C9.73748 2.6981 12.7596 1.68618 15.8703 1.65877Z" fill="#092987"/>
<path d="M15.6509 23.4082C15.6509 23.6843 15.8748 23.9082 16.1509 23.9082H16.4632C16.7394 23.9082 16.9632 23.6843 16.9632 23.4082V22.2425C17.4877 22.1881 17.9644 22.0675 18.3933 21.8809C18.999 21.6117 19.4701 21.2247 19.8065 20.72C20.143 20.2096 20.3113 19.5927 20.3113 18.8693C20.3113 18.1402 20.1571 17.5402 19.8486 17.0691C19.5402 16.598 19.1111 16.1998 18.5615 15.8746C18.0119 15.5493 17.3726 15.2464 16.6435 14.966C16.1949 14.781 15.8416 14.6015 15.5836 14.4277C15.3256 14.2482 15.1434 14.0519 15.0368 13.8388C14.9359 13.6257 14.8854 13.3761 14.8854 13.0901C14.8854 12.7985 14.9331 12.5405 15.0284 12.3162C15.1293 12.0863 15.2892 11.904 15.5079 11.7694C15.7266 11.6348 16.007 11.5675 16.3491 11.5675C16.5791 11.5675 16.7894 11.6124 16.98 11.7021C17.1707 11.7862 17.3334 11.9152 17.4679 12.0891C17.6082 12.2629 17.7147 12.4788 17.7876 12.7368C17.8221 12.859 17.8485 12.99 17.8667 13.1297C17.9023 13.4036 18.1208 13.6285 18.397 13.6285H19.8113C20.0874 13.6285 20.3141 13.4042 20.2905 13.129C20.2538 12.7005 20.1681 12.309 20.0337 11.9545C19.8486 11.4666 19.5822 11.0544 19.2345 10.7179C18.8868 10.3758 18.4718 10.1178 17.9895 9.94395C17.7184 9.84308 17.4296 9.77056 17.123 9.72638V8.4082C17.123 8.13206 16.8992 7.9082 16.623 7.9082H16.3107C16.0346 7.9082 15.8107 8.13206 15.8107 8.4082V9.70075C15.2606 9.75313 14.7643 9.88467 14.3218 10.0954C13.7385 10.3702 13.2815 10.7627 12.9506 11.2731C12.6197 11.7834 12.4543 12.3863 12.4543 13.0817C12.4543 13.8108 12.6085 14.4136 12.9169 14.8903C13.2254 15.3614 13.6544 15.7568 14.204 16.0764C14.7592 16.3905 15.4013 16.6877 16.1304 16.9681C16.5622 17.1308 16.9043 17.299 17.1567 17.4729C17.4147 17.6467 17.5997 17.8458 17.7119 18.0701C17.8297 18.2945 17.8886 18.5665 17.8886 18.8861C17.8886 19.1721 17.8269 19.4301 17.7035 19.66C17.5857 19.8844 17.4091 20.061 17.1735 20.19C16.9436 20.319 16.6492 20.3835 16.2902 20.3835C16.0603 20.3835 15.8332 20.3498 15.6088 20.2825C15.3845 20.2152 15.1826 20.1031 15.0032 19.9461C14.8293 19.7834 14.6891 19.5675 14.5826 19.2983C14.5488 19.2112 14.5204 19.1174 14.4973 19.0168C14.4047 18.613 14.0869 18.272 13.6727 18.272H12.75C12.3358 18.272 11.9924 18.6094 12.0456 19.0202C12.1019 19.4541 12.21 19.8384 12.3701 20.1732C12.6169 20.6835 12.9478 21.0929 13.3628 21.4014C13.7778 21.7098 14.2405 21.9341 14.7508 22.0743C15.0499 22.1532 15.3499 22.209 15.6509 22.2416V23.4082Z" fill="#092987"/>
<path d="M25 26.4081V24.0101C25 23.5805 24.494 23.3509 24.1707 23.6338L18.0015 29.0319C17.654 29.3359 17.869 29.9082 18.3307 29.9082L30.25 29.9081C30.6642 29.9081 31 29.5723 31 29.1581V27.1581C31 26.7439 30.6642 26.4081 30.25 26.4081H25Z" fill="#092987"/>
</svg>
