<svg width="32" height="33" viewBox="0 0 32 33" fill="none" xmlns="http://www.w3.org/2000/svg">
<path d="M15.0006 4.81433V3.1582C15.0006 2.74399 15.3363 2.4082 15.7506 2.4082H16.619C17.0332 2.4082 17.369 2.74399 17.369 3.1582V4.76949C18.064 4.84168 18.7111 4.99358 19.3103 5.22519C20.1807 5.55116 20.9297 6.03486 21.5572 6.6763C22.1848 7.30721 22.6655 8.08008 22.9995 8.99491C23.2609 9.71084 23.42 10.5073 23.4769 11.3842C23.5037 11.7975 23.1648 12.1337 22.7506 12.1337H19.8933C19.4791 12.1337 19.1487 11.797 19.1091 11.3847C19.0772 11.052 19.0228 10.7443 18.9459 10.4618C18.8143 9.97808 18.622 9.57325 18.369 9.24727C18.1261 8.9213 17.8325 8.67945 17.4884 8.52172C17.1443 8.35348 16.7647 8.26935 16.3497 8.26935C15.7323 8.26935 15.2263 8.39554 14.8315 8.6479C14.4368 8.90027 14.1483 9.24201 13.9661 9.67314C13.7941 10.0937 13.708 10.5775 13.708 11.1242C13.708 11.6605 13.7991 12.1285 13.9813 12.528C14.1736 12.9276 14.5026 13.2956 14.9682 13.6321C15.4337 13.9581 16.0714 14.2946 16.8811 14.6416C18.1969 15.1674 19.3508 15.7352 20.3427 16.3451C21.3346 16.9549 22.1089 17.7015 22.6655 18.5848C23.2222 19.4681 23.5006 20.5932 23.5006 21.9602C23.5006 23.3167 23.1969 24.4733 22.5896 25.4302C21.9823 26.3766 21.1321 27.1022 20.039 27.6069C19.2408 27.9678 18.3507 28.1969 17.369 28.2943V29.6582C17.369 30.0724 17.0332 30.4082 16.619 30.4082H15.7506C15.3363 30.4082 15.0006 30.0724 15.0006 29.6582V28.2729C14.4872 28.2106 13.9754 28.1095 13.4651 27.9697C12.5441 27.7068 11.7091 27.2862 10.9601 26.7078C10.2111 26.1295 9.61391 25.3619 9.16857 24.405C8.80453 23.6142 8.58928 22.6759 8.52282 21.59C8.49751 21.1765 8.83634 20.8403 9.25055 20.8403H12.123C12.5372 20.8403 12.8671 21.177 12.9073 21.5893C12.9507 22.0352 13.0355 22.427 13.1615 22.7646C13.3538 23.2694 13.6068 23.6742 13.9206 23.9791C14.2445 24.2736 14.6089 24.4839 15.0137 24.61C15.4186 24.7362 15.8285 24.7993 16.2435 24.7993C16.8912 24.7993 17.4226 24.6784 17.8376 24.4365C18.2627 24.1947 18.5815 23.8635 18.7941 23.4429C19.0167 23.0117 19.1281 22.528 19.1281 21.9918C19.1281 21.3924 19.0218 20.8824 18.8093 20.4618C18.6068 20.0412 18.2728 19.6679 17.8072 19.3419C17.3518 19.0159 16.7344 18.7005 15.955 18.3955C14.6392 17.8698 13.4803 17.3125 12.4783 16.7236C11.4864 16.1242 10.7121 15.3829 10.1554 14.4996C9.59873 13.6058 9.32039 12.4755 9.32039 11.1085C9.32039 9.80458 9.61897 8.67419 10.2161 7.7173C10.8133 6.76042 11.6382 6.02435 12.6908 5.5091C13.3869 5.16474 14.1568 4.93315 15.0006 4.81433Z" fill="#092987"/>
</svg>
