<svg width="32" height="33" viewBox="0 0 32 33" fill="none" xmlns="http://www.w3.org/2000/svg">
<path fill-rule="evenodd" clip-rule="evenodd" d="M21 17.4082H5V27.4082H21V17.4082ZM5 15.4082C3.89543 15.4082 3 16.3036 3 17.4082V27.4082C3 28.5128 3.89543 29.4082 5 29.4082H21C22.1046 29.4082 23 28.5128 23 27.4082V17.4082C23 16.3036 22.1046 15.4082 21 15.4082H5Z" fill="#092987"/>
<path fill-rule="evenodd" clip-rule="evenodd" d="M5.46352 11.7632C5.16471 12.1047 4.63347 12.1047 4.33466 11.7632L2.12468 9.23748C1.8418 8.91419 2.07139 8.40823 2.50097 8.40823L3.89905 8.4082V7.4082C3.89905 4.64678 6.13762 2.4082 8.89905 2.4082C10.1664 2.4082 11.3258 2.88104 12.2066 3.65846C12.2584 3.70414 12.3042 3.75397 12.3442 3.80702L13.3422 2.80908C13.6459 2.50532 14.166 2.70075 14.1946 3.12937L14.4369 6.76307C14.457 7.06491 14.2066 7.31534 13.9047 7.29522L10.271 7.05297C9.84239 7.0244 9.64696 6.50429 9.95072 6.20053L10.9438 5.20746C10.9231 5.19187 10.9029 5.17537 10.8831 5.15794C10.3537 4.69064 9.66056 4.4082 8.89905 4.4082C7.24219 4.4082 5.89905 5.75135 5.89905 7.4082L5.89905 8.40823L7.29721 8.40823C7.72678 8.40823 7.95637 8.91419 7.67349 9.23748L5.46352 11.7632Z" fill="#092987"/>
<path fill-rule="evenodd" clip-rule="evenodd" d="M11 12.4082H27V22.4082H24V24.4082H27C28.1046 24.4082 29 23.5128 29 22.4082V12.4082C29 11.3036 28.1046 10.4082 27 10.4082H11C9.89543 10.4082 9 11.3036 9 12.4082V13.4082H11V12.4082Z" fill="#092987"/>
<path d="M8.06646 26.4083C7.92839 26.4083 7.81646 26.2964 7.81646 26.1583V25.575C7.66596 25.5587 7.51594 25.5308 7.3664 25.4913C7.11122 25.4212 6.87989 25.3091 6.67238 25.1549C6.46488 25.0006 6.29944 24.7959 6.17606 24.5408C6.08104 24.3421 6.02261 24.1085 6.00076 23.8399C5.98957 23.7023 6.10292 23.5902 6.24099 23.5902H6.95236C7.09043 23.5902 7.19945 23.7027 7.21766 23.8395C7.23077 23.9381 7.25231 24.026 7.28227 24.1033C7.33555 24.2379 7.40566 24.3459 7.49258 24.4272C7.58231 24.5057 7.68326 24.5618 7.79543 24.5954C7.90759 24.6291 8.02116 24.6459 8.13612 24.6459C8.31559 24.6459 8.4628 24.6137 8.57777 24.5492C8.69554 24.4847 8.78387 24.3963 8.84276 24.2842C8.90445 24.1692 8.93529 24.0402 8.93529 23.8972C8.93529 23.7374 8.90585 23.6014 8.84696 23.4892C8.79088 23.3771 8.69835 23.2775 8.56936 23.1906C8.44317 23.1037 8.27212 23.0195 8.05621 22.9382C7.69167 22.798 7.3706 22.6494 7.093 22.4924C6.8182 22.3325 6.60368 22.1348 6.44946 21.8993C6.29523 21.661 6.21812 21.3595 6.21812 20.995C6.21812 20.6473 6.30084 20.3458 6.46628 20.0907C6.63172 19.8355 6.86026 19.6392 7.15188 19.5018C7.37313 19.3964 7.62129 19.3307 7.89637 19.3045V18.6582C7.89637 18.5201 8.0083 18.4082 8.14638 18.4082H8.30253C8.4406 18.4082 8.55253 18.5201 8.55253 18.6582V19.3173C8.7058 19.3394 8.85022 19.3757 8.98577 19.4261C9.22692 19.513 9.43442 19.642 9.60828 19.8131C9.78213 19.9813 9.91533 20.1874 10.0079 20.4314C10.0751 20.6086 10.1179 20.8044 10.1363 21.0187C10.1481 21.1562 10.0347 21.2684 9.89666 21.2684H9.1895C9.05143 21.2684 8.94215 21.1559 8.92435 21.019C8.91526 20.9491 8.90208 20.8836 8.88482 20.8225C8.84837 20.6935 8.79509 20.5856 8.72499 20.4987C8.65769 20.4117 8.57637 20.3472 8.48103 20.3052C8.38569 20.2603 8.28054 20.2379 8.16557 20.2379C7.99452 20.2379 7.85431 20.2715 7.74495 20.3388C7.63559 20.4061 7.55567 20.4973 7.5052 20.6122C7.45753 20.7244 7.4337 20.8534 7.4337 20.9992C7.4337 21.1422 7.45893 21.267 7.50941 21.3735C7.56269 21.4801 7.65382 21.5782 7.78281 21.668C7.9118 21.7549 8.08845 21.8446 8.31278 21.9372C8.67732 22.0774 8.99698 22.2288 9.27179 22.3914C9.54659 22.5541 9.7611 22.7531 9.91533 22.9887C10.0696 23.2242 10.1467 23.5243 10.1467 23.8888C10.1467 24.2505 10.0625 24.559 9.8943 24.8142C9.72605 25.0665 9.49051 25.26 9.18766 25.3946C8.97322 25.4879 8.73487 25.5482 8.47262 25.5754V26.1583C8.47262 26.2964 8.36069 26.4083 8.22261 26.4083H8.06646Z" fill="#092987"/>
<path d="M15 19.9082C15 19.0798 15.6715 18.4082 16.4999 18.4082L18.5001 18.4082C19.3285 18.4082 20 19.0798 20 19.9082C20 20.7366 19.3285 21.4082 18.5001 21.4082L16.4999 21.4082C15.6715 21.4082 15 20.7366 15 19.9082Z" fill="#092987"/>
</svg>
