<svg width="32" height="33" viewBox="0 0 32 33" fill="none" xmlns="http://www.w3.org/2000/svg">
<path d="M16 23.4082C17.1046 23.4082 18 24.3036 18 25.4082C18 26.5128 17.1046 27.4082 16 27.4082C14.8954 27.4082 14 26.5128 14 25.4082C14 24.3036 14.8954 23.4082 16 23.4082Z" fill="#092987"/>
<path d="M16 14.4082C17.1046 14.4082 18 15.3036 18 16.4082C18 17.5128 17.1046 18.4082 16 18.4082C14.8954 18.4082 14 17.5128 14 16.4082C14 15.3036 14.8954 14.4082 16 14.4082Z" fill="#092987"/>
<path d="M18 7.4082C18 8.51277 17.1046 9.4082 16 9.4082C14.8954 9.4082 14 8.51277 14 7.4082C14 6.30363 14.8954 5.4082 16 5.4082C17.1046 5.4082 18 6.30363 18 7.4082Z" fill="#092987"/>
</svg>
