<svg width="32" height="32" viewBox="0 0 32 32" fill="none" xmlns="http://www.w3.org/2000/svg">
<path d="M19.375 5.75L19.375 16.25L23.5 16.25C23.9805 16.25 24.1844 16.8617 23.8 17.15L16.45 23.6625C16.1833 23.8625 15.8167 23.8625 15.55 23.6625L8.19999 17.15C7.81559 16.8617 8.01949 16.25 8.49999 16.25L12.625 16.25L12.625 5.75C12.625 5.33579 12.9608 5 13.375 5H18.625C19.0392 5 19.375 5.33579 19.375 5.75Z" fill="#092987"/>
<path d="M4.5 22V27.5H27.5V22C27.5 21.3096 28.0596 20.75 28.75 20.75C29.4404 20.75 30 21.3096 30 22V28C30 29.1046 29.1046 30 28 30H4C2.89543 30 2 29.1046 2 28V22C2 21.3096 2.55964 20.75 3.25 20.75C3.94036 20.75 4.5 21.3096 4.5 22Z" fill="#092987"/>
</svg>
