<svg width="32" height="33" viewBox="0 0 32 33" fill="none" xmlns="http://www.w3.org/2000/svg">
<path d="M7.10498 9.271H5.14941V7.55713H7.10498C7.5249 7.55713 7.8667 7.48877 8.13037 7.35205C8.39404 7.21045 8.58691 7.01514 8.70898 6.76611C8.83105 6.51709 8.89209 6.23633 8.89209 5.92383C8.89209 5.60645 8.83105 5.31104 8.70898 5.0376C8.58691 4.76416 8.39404 4.54443 8.13037 4.37842C7.8667 4.2124 7.5249 4.12939 7.10498 4.12939H5.14941V13.0723H2.95215V2.4082H7.10498C7.93994 2.4082 8.65527 2.55957 9.25098 2.8623C9.85156 3.16016 10.3105 3.57275 10.6279 4.1001C10.9453 4.62744 11.104 5.23047 11.104 5.90918C11.104 6.59766 10.9453 7.19336 10.6279 7.69629C10.3105 8.19922 9.85156 8.5874 9.25098 8.86084C8.65527 9.13428 7.93994 9.271 7.10498 9.271Z" fill="#092987"/>
<path d="M15.894 13.0723H14.8174V11.4082L15.894 11.3584C16.4702 11.3584 16.9561 11.229 17.3516 10.9702C17.7471 10.7065 18.0449 10.3232 18.2451 9.82031C18.4502 9.31738 18.5527 8.70947 18.5527 7.99658V7.47656C18.5527 6.92969 18.4941 6.44873 18.377 6.03369C18.2646 5.61865 18.0962 5.26953 17.8716 4.98633C17.647 4.70312 17.3711 4.49072 17.0439 4.34912C16.7168 4.20264 16.3408 4.12939 15.916 4.12939H14.8174V2.4082H15.916C16.6289 2.4082 17.2808 2.53027 17.8716 2.77441C18.4673 3.01367 18.9824 3.35791 19.417 3.80713C19.8516 4.25635 20.186 4.79346 20.4204 5.41846C20.6597 6.03857 20.7793 6.72949 20.7793 7.49121V7.99658C20.7793 8.75342 20.6597 9.44434 20.4204 10.0693C20.186 10.6943 19.8516 11.2314 19.417 11.6807C18.9873 12.125 18.4722 12.4692 17.8716 12.7134C17.2759 12.9526 16.6167 13.0723 15.894 13.0723ZM14.8174 2.4082V13.0723H12.6201V2.4082H14.8174Z" fill="#092987"/>
<path d="M24.5732 2.4082V13.0723H22.376V2.4082H24.5732ZM28.8213 6.96387V8.67773H24.5732V6.96387H28.8213ZM29.334 2.4082V4.12939H24.5732V2.4082H29.334Z" fill="#092987"/>
<path d="M18.25 15.4082C18.6642 15.4082 19 15.744 19 16.1582V19.4082H13L13 16.1582C13 15.744 13.3358 15.4082 13.75 15.4082H18.25Z" fill="#092987"/>
<path d="M16.45 26.0707C16.1833 26.2707 15.8167 26.2707 15.55 26.0707L9.2 20.3082C8.81559 20.0199 9.01949 19.4082 9.5 19.4082H22.5C22.9805 19.4082 23.1844 20.0199 22.8 20.3082L16.45 26.0707Z" fill="#092987"/>
<path d="M3.25 21.1582C3.94036 21.1582 4.5 21.7178 4.5 22.4082V27.9082H27.5V22.4082C27.5 21.7178 28.0596 21.1582 28.75 21.1582C29.4404 21.1582 30 21.7178 30 22.4082V28.4082C30 29.5128 29.1046 30.4082 28 30.4082H4C2.89543 30.4082 2 29.5128 2 28.4082V22.4082C2 21.7178 2.55964 21.1582 3.25 21.1582Z" fill="#092987"/>
</svg>
