<svg width="32" height="33" viewBox="0 0 32 33" fill="none" xmlns="http://www.w3.org/2000/svg">
<path d="M3.25 21.1582C3.94036 21.1582 4.5 21.7178 4.5 22.4082V27.9082H27.5V22.4082C27.5 21.7178 28.0596 21.1582 28.75 21.1582C29.4404 21.1582 30 21.7178 30 22.4082V28.4082C30 29.5128 29.1046 30.4082 28 30.4082H4C2.89543 30.4082 2 29.5128 2 28.4082V22.4082C2 21.7178 2.55964 21.1582 3.25 21.1582Z" fill="#092987"/>
<path d="M8.32337 9.48639H10.4525C10.4098 10.1842 10.2175 10.8038 9.87572 11.3449C9.53867 11.8861 9.06632 12.3086 8.45866 12.6125C7.85576 12.9163 7.12943 13.0682 6.27967 13.0682C5.61505 13.0682 5.01927 12.9543 4.49232 12.7264C3.96537 12.4938 3.51438 12.1615 3.13935 11.7295C2.76906 11.2975 2.4866 10.7753 2.29196 10.1629C2.09732 9.55047 2 8.86449 2 8.10493V7.38572C2 6.62615 2.09969 5.94017 2.29908 5.32778C2.50321 4.71063 2.79279 4.18606 3.16783 3.75405C3.54761 3.32205 4.00098 2.98974 4.52792 2.75713C5.05487 2.52451 5.64353 2.4082 6.29391 2.4082C7.15791 2.4082 7.88662 2.56486 8.48003 2.87818C9.07818 3.1915 9.54104 3.6235 9.8686 4.17419C10.2009 4.72487 10.4003 5.35151 10.4668 6.05411H8.33049C8.30675 5.63635 8.22367 5.28268 8.08126 4.99309C7.93884 4.69876 7.72284 4.47801 7.43325 4.33085C7.14842 4.17894 6.76864 4.10298 6.29391 4.10298C5.93786 4.10298 5.62692 4.16944 5.36107 4.30236C5.09522 4.43529 4.8721 4.63705 4.6917 4.90764C4.51131 5.17824 4.37601 5.52004 4.28581 5.93305C4.20036 6.34132 4.15764 6.82079 4.15764 7.37148V8.10493C4.15764 8.64137 4.19799 9.11372 4.27869 9.52199C4.35939 9.92551 4.48282 10.2673 4.64898 10.5474C4.81988 10.8227 5.03825 11.0316 5.3041 11.174C5.5747 11.3117 5.89988 11.3805 6.27967 11.3805C6.72591 11.3805 7.09382 11.3093 7.38341 11.1669C7.67299 11.0245 7.89374 10.8132 8.04565 10.5332C8.20231 10.2531 8.29488 9.90415 8.32337 9.48639Z" fill="#092987"/>
<path d="M17.253 10.2127C17.253 10.0276 17.2245 9.86142 17.1675 9.71425C17.1153 9.56234 17.0156 9.42467 16.8685 9.30124C16.7213 9.17307 16.5148 9.04726 16.2489 8.92383C15.9831 8.80041 15.6389 8.67223 15.2164 8.53931C14.7464 8.38739 14.3002 8.21649 13.8777 8.0266C13.4599 7.83671 13.0896 7.61596 12.7668 7.36436C12.4487 7.108 12.1971 6.8113 12.012 6.47424C11.8316 6.13719 11.7414 5.74554 11.7414 5.29929C11.7414 4.86729 11.8363 4.47564 12.0262 4.12434C12.2161 3.7683 12.482 3.46447 12.8238 3.21287C13.1656 2.95651 13.5691 2.7595 14.0343 2.62183C14.5043 2.48416 15.0194 2.41532 15.5796 2.41532C16.3439 2.41532 17.0109 2.55299 17.5805 2.82834C18.1502 3.10368 18.5917 3.48109 18.905 3.96056C19.2231 4.44004 19.3821 4.98835 19.3821 5.60549H17.2601C17.2601 5.30167 17.196 5.03582 17.0678 4.80795C16.9444 4.57533 16.7545 4.39256 16.4982 4.25964C16.2466 4.12672 15.9285 4.06025 15.544 4.06025C15.1737 4.06025 14.8651 4.11722 14.6182 4.23116C14.3714 4.34034 14.1862 4.48988 14.0628 4.67977C13.9394 4.86492 13.8777 5.0738 13.8777 5.30641C13.8777 5.48206 13.9204 5.6411 14.0059 5.78351C14.0961 5.92593 14.229 6.05886 14.4046 6.18228C14.5803 6.30571 14.7963 6.42202 15.0526 6.53121C15.309 6.6404 15.6057 6.74721 15.9427 6.85165C16.5077 7.02255 17.0038 7.21482 17.431 7.42844C17.863 7.64207 18.2238 7.88181 18.5134 8.14766C18.803 8.4135 19.0213 8.71495 19.1685 9.05201C19.3157 9.38907 19.3893 9.77122 19.3893 10.1985C19.3893 10.6495 19.3014 11.053 19.1258 11.409C18.9501 11.7651 18.6962 12.0665 18.3638 12.3134C18.0315 12.5602 17.6351 12.7478 17.1747 12.8759C16.7142 13.0041 16.1991 13.0682 15.6294 13.0682C15.1167 13.0682 14.6111 13.0017 14.1127 12.8688C13.6142 12.7311 13.1608 12.5246 12.7526 12.2493C12.3491 11.974 12.0262 11.6227 11.7841 11.1954C11.542 10.7681 11.421 10.2626 11.421 9.67865H13.5644C13.5644 10.0015 13.6142 10.2744 13.7139 10.4976C13.8136 10.7207 13.9536 10.9011 14.134 11.0387C14.3192 11.1764 14.5375 11.2761 14.7892 11.3378C15.0455 11.3995 15.3256 11.4304 15.6294 11.4304C15.9997 11.4304 16.3035 11.3782 16.5409 11.2737C16.783 11.1693 16.961 11.0245 17.075 10.8394C17.1936 10.6542 17.253 10.4453 17.253 10.2127Z" fill="#092987"/>
<path d="M24.6814 10.4776L27.0229 2.55774H29.4013L25.791 12.9258H24.6814V10.4776ZM22.3302 2.55774L24.6814 10.4776V12.9258H23.555L19.9661 2.55774H22.3302Z" fill="#092987"/>
<path d="M18.25 15.4082C18.6642 15.4082 19 15.744 19 16.1582V19.4082H13L13 16.1582C13 15.744 13.3358 15.4082 13.75 15.4082H18.25Z" fill="#092987"/>
<path d="M16.45 26.0707C16.1833 26.2707 15.8167 26.2707 15.55 26.0707L9.2 20.3082C8.81559 20.0199 9.01949 19.4082 9.5 19.4082H22.5C22.9805 19.4082 23.1844 20.0199 22.8 20.3082L16.45 26.0707Z" fill="#092987"/>
</svg>
