<svg width="32" height="33" viewBox="0 0 32 33" fill="none" xmlns="http://www.w3.org/2000/svg">
<path d="M26.107 10.3938L13.1056 23.3952C13.011 23.4898 12.8825 23.5425 12.7488 23.5417L9.34897 23.5202C9.07612 23.5184 8.85504 23.2983 8.85217 23.0254L8.8163 19.6181C8.81488 19.4837 8.86766 19.3544 8.96272 19.2593L21.9719 6.25012L26.107 10.3938Z" fill="#092987"/>
<path d="M24.6708 3.55106C24.7628 3.45957 24.8872 3.4082 25.0169 3.4082C25.1466 3.4082 25.271 3.45957 25.3629 3.55106L28.8059 6.99407C28.8974 7.08599 28.9488 7.21041 28.9488 7.3401C28.9488 7.46979 28.8974 7.59421 28.8059 7.68613L27.0844 9.40763L22.9493 5.27257L24.6708 3.55106Z" fill="#092987"/>
<path d="M27.0972 29.4082H4.91216C4.39621 29.3982 3.90527 29.1841 3.54691 28.8127C3.18855 28.4414 2.99201 27.9432 3.00034 27.4272V5.38923C2.99553 5.13355 3.04119 4.87943 3.13471 4.64142C3.22824 4.40341 3.36778 4.18619 3.54536 4.00218C3.72294 3.81817 3.93507 3.67099 4.16961 3.56907C4.40414 3.46715 4.65648 3.41248 4.91216 3.4082H16.3097C16.4699 3.4082 16.6285 3.43975 16.7765 3.50105C16.9245 3.56235 17.059 3.6522 17.1722 3.76546C17.2855 3.87873 17.3753 4.01319 17.4366 4.16118C17.4979 4.30917 17.5295 4.46778 17.5295 4.62796C17.5295 4.78814 17.4979 4.94675 17.4366 5.09474C17.3753 5.24273 17.2855 5.37719 17.1722 5.49046C17.059 5.60372 16.9245 5.69357 16.7765 5.75487C16.6285 5.81617 16.4699 5.84772 16.3097 5.84772H5.43986V26.96H26.5609V16.7089C26.5609 16.3854 26.6894 16.0751 26.9181 15.8464C27.1469 15.6176 27.4571 15.4891 27.7806 15.4891C28.1041 15.4891 28.4144 15.6176 28.6431 15.8464C28.8719 16.0751 29.0004 16.3854 29.0004 16.7089V27.4185C29.0052 27.6742 28.9596 27.9283 28.866 28.1663C28.7725 28.4043 28.633 28.6216 28.4554 28.8056C28.2778 28.9896 28.0657 29.1368 27.8311 29.2387C27.5966 29.3406 27.3443 29.3953 27.0886 29.3995L27.0972 29.4082Z" fill="#092987"/>
</svg>
