<svg width="32" height="33" viewBox="0 0 32 33" fill="none" xmlns="http://www.w3.org/2000/svg">
<path d="M9 16.4082C9 17.5128 8.10457 18.4082 7 18.4082C5.89543 18.4082 5 17.5128 5 16.4082C5 15.3036 5.89543 14.4082 7 14.4082C8.10457 14.4082 9 15.3036 9 16.4082Z" fill="#092987"/>
<path d="M18 16.4082C18 17.5128 17.1046 18.4082 16 18.4082C14.8954 18.4082 14 17.5128 14 16.4082C14 15.3036 14.8954 14.4082 16 14.4082C17.1046 14.4082 18 15.3036 18 16.4082Z" fill="#092987"/>
<path d="M25 18.4082C23.8954 18.4082 23 17.5128 23 16.4082C23 15.3036 23.8954 14.4082 25 14.4082C26.1046 14.4082 27 15.3036 27 16.4082C27 17.5128 26.1046 18.4082 25 18.4082Z" fill="#092987"/>
</svg>
