<svg width="32" height="33" viewBox="0 0 32 33" fill="none" xmlns="http://www.w3.org/2000/svg">
<path d="M29.4624 13.4087C29.9466 13.4087 30.1481 12.7891 29.7565 12.5043L20.7941 5.98617C20.4636 5.74582 20 5.9819 20 6.39054V9.90865H2.75C2.33579 9.90865 2 10.2444 2 10.6587V12.6587C2 13.0729 2.33579 13.4087 2.75 13.4087L29.4624 13.4087Z" fill="#092987"/>
<path d="M2.50097 19.4087L29.2134 19.4087C29.6276 19.4087 29.9634 19.7444 29.9634 20.1587V22.1587C29.9634 22.5729 29.6276 22.9087 29.2134 22.9087L11.9634 22.9087V26.4268C11.9634 26.8354 11.4998 27.0715 11.1693 26.8311L2.20689 20.313C1.81526 20.0282 2.01673 19.4087 2.50097 19.4087Z" fill="#092987"/>
</svg>
