<svg width="32" height="33" viewBox="0 0 32 33" fill="none" xmlns="http://www.w3.org/2000/svg">
<path d="M20.5858 19.4087L24.0858 22.9087H20.9142L17.4142 19.4087H20.5858ZM26.9142 22.9087L23.4142 19.4087H29.2134C29.6276 19.4087 29.9634 19.7444 29.9634 20.1587V22.1587C29.9634 22.5729 29.6276 22.9087 29.2134 22.9087H26.9142ZM14.5858 19.4087L18.0858 22.9087H11.9634V26.4268C11.9634 26.8354 11.4998 27.0715 11.1693 26.8311L2.20687 20.313C1.81525 20.0282 2.01672 19.4087 2.50096 19.4087L14.5858 19.4087Z" fill="#092987"/>
<path d="M11.0858 9.90865L14.5858 13.4087H11.4142L7.91421 9.90865H11.0858ZM17.4142 13.4087L13.9142 9.90865H20V6.39054C20 5.9819 20.4636 5.74582 20.7941 5.98617L29.7565 12.5043C30.1481 12.7891 29.9466 13.4087 29.4624 13.4087L17.4142 13.4087ZM8.58579 13.4087H2.75C2.33579 13.4087 2 13.0729 2 12.6587V10.6587C2 10.2444 2.33579 9.90865 2.75 9.90865H5.08579L8.58579 13.4087Z" fill="#092987"/>
</svg>
