<svg width="32" height="33" viewBox="0 0 32 33" fill="none" xmlns="http://www.w3.org/2000/svg">
<path fill-rule="evenodd" clip-rule="evenodd" d="M18.9165 3.01075C18.1131 2.20735 16.8105 2.20735 16.0071 3.01075L5.82428 13.1936C5.16717 13.8507 5.04752 14.8417 5.46532 15.6204L2.97914 18.1066C1.67362 19.4121 1.67362 21.5288 2.97915 22.8343L9.30008 29.2082H28.0501C28.7404 29.2082 29.3001 28.6485 29.3001 27.9582C29.3001 27.2678 28.7404 26.7082 28.0501 26.7082H14.7734L15.7078 25.7866C16.4607 26.1153 17.3703 25.9717 17.9863 25.3556L28.1691 15.1728C28.9725 14.3694 28.9725 13.0668 28.1691 12.2634L18.9165 3.01075ZM17.4618 5.19278L8.00631 14.6482L16.5316 23.1736L25.9871 13.7181L17.4618 5.19278ZM11.1692 26.7082L13.7994 24.078L7.22191 17.5006L4.7975 19.925C4.49623 20.2262 4.49623 20.7147 4.79751 21.016L10.4897 26.7082H11.1692Z" fill="#092987"/>
</svg>
