<svg width="32" height="33" viewBox="0 0 32 33" fill="none" xmlns="http://www.w3.org/2000/svg">
<path fill-rule="evenodd" clip-rule="evenodd" d="M15.3006 1.91626C15.978 1.23885 17.0763 1.23885 17.7537 1.91626L25.5553 9.71786C26.2327 10.3953 26.2327 11.4936 25.5553 12.171L16.9695 20.7568C16.45 21.2763 15.6831 21.3974 15.0482 21.1202L14.2604 21.8973H25.4549C26.037 21.8973 26.5089 22.3692 26.5089 22.9512C26.5089 23.5333 26.037 24.0052 25.4549 24.0052H9.64545L4.31582 18.631C3.21504 17.5302 3.21504 15.7454 4.31582 14.6447L6.41209 12.5484C6.05981 11.8918 6.1607 11.0562 6.71476 10.5021L15.3006 1.91626ZM8.55459 11.7287L16.5272 3.75608L23.7155 10.9444L15.7429 18.917L8.55459 11.7287ZM13.4391 19.6796L11.2215 21.8973H10.6485L5.84901 17.0978C5.59498 16.8437 5.59499 16.4319 5.84901 16.1778L7.8932 14.1337L13.4391 19.6796Z" fill="#092987"/>
<path fill-rule="evenodd" clip-rule="evenodd" d="M11.3828 25.4082H10.5598C10.3501 25.4082 10.1627 25.539 10.0904 25.7358L8.0006 31.4233C7.88068 31.7496 8.12223 32.0957 8.46992 32.0957H9.11617C9.3355 32.0957 9.52923 31.9528 9.59392 31.7432L9.87076 30.8464H12.0793L12.357 31.7436C12.4218 31.9529 12.6154 32.0957 12.8346 32.0957H13.4844C13.8325 32.0957 14.074 31.7489 13.9534 31.4224L11.8518 25.7349C11.7793 25.5386 11.5921 25.4082 11.3828 25.4082ZM11.6939 29.6017H10.255L10.9735 27.2743L11.6939 29.6017Z" fill="#092987"/>
<path d="M18.6122 30.8556C18.8883 30.8556 19.1122 31.0794 19.1122 31.3556V31.5957C19.1122 31.8718 18.8883 32.0957 18.6122 32.0957H15.1936C14.9175 32.0957 14.6936 31.8718 14.6936 31.5957V25.9082C14.6936 25.6321 14.9175 25.4082 15.1936 25.4082H15.8058C16.0819 25.4082 16.3058 25.6321 16.3058 25.9082V30.8556H18.6122Z" fill="#092987"/>
<path d="M24.2105 31.3556C24.2105 31.0794 23.9866 30.8556 23.7105 30.8556H21.4041V25.9082C21.4041 25.6321 21.1802 25.4082 20.9041 25.4082H20.2919C20.0158 25.4082 19.7919 25.6321 19.7919 25.9082V31.5957C19.7919 31.8718 20.0158 32.0957 20.2919 32.0957H23.7105C23.9866 32.0957 24.2105 31.8718 24.2105 31.5957V31.3556Z" fill="#092987"/>
</svg>
