<svg width="32" height="32" viewBox="0 0 32 32" fill="none" xmlns="http://www.w3.org/2000/svg">
<path d="M19.6808 4.875L30.0731 22.875C31.7089 25.7083 29.6642 29.25 26.3925 29.25H5.6079C2.33624 29.25 0.291472 25.7083 1.9273 22.875L12.3196 4.875C13.9554 2.04166 18.045 2.04167 19.6808 4.875ZM17.5002 10C17.5002 9.17157 16.8287 8.5 16.0002 8.5C15.1718 8.5 14.5002 9.17157 14.5002 10V18C14.5002 18.8284 15.1718 19.5 16.0002 19.5C16.8287 19.5 17.5002 18.8284 17.5002 18V10ZM16.0002 25C16.9667 25 17.7502 24.2165 17.7502 23.25C17.7502 22.2835 16.9667 21.5 16.0002 21.5C15.0337 21.5 14.2502 22.2835 14.2502 23.25C14.2502 24.2165 15.0337 25 16.0002 25Z" fill="#092987"/>
</svg>
