<svg width="32" height="32" viewBox="0 0 32 32" fill="none" xmlns="http://www.w3.org/2000/svg">
<path d="M12.3196 4.875C13.9554 2.04166 18.045 2.04167 19.6808 4.875L30.0731 22.875C31.7089 25.7083 29.6642 29.25 26.3925 29.25H5.6079C2.33624 29.25 0.291472 25.7083 1.9273 22.875L12.3196 4.875ZM17.5158 6.125C16.8422 4.95833 15.1582 4.95833 14.4847 6.125L4.09236 24.125C3.41878 25.2917 4.26075 26.75 5.6079 26.75H26.3925C27.7397 26.75 28.5816 25.2917 27.9081 24.125L17.5158 6.125Z" fill="#092987"/>
<path d="M16.0001 8.5C16.8285 8.5 17.5001 9.17157 17.5001 10V18C17.5001 18.8284 16.8285 19.5 16.0001 19.5C15.1717 19.5 14.5001 18.8284 14.5001 18V10C14.5001 9.17157 15.1717 8.5 16.0001 8.5Z" fill="#092987"/>
<path d="M17.7501 23.25C17.7501 24.2165 16.9666 25 16.0001 25C15.0336 25 14.2501 24.2165 14.2501 23.25C14.2501 22.2835 15.0336 21.5 16.0001 21.5C16.9666 21.5 17.7501 22.2835 17.7501 23.25Z" fill="#092987"/>
</svg>
