<svg width="32" height="33" viewBox="0 0 32 33" fill="none" xmlns="http://www.w3.org/2000/svg">
<path d="M4.33466 11.7633C4.63347 12.1048 5.16471 12.1048 5.46352 11.7633L7.67349 9.23761C7.95637 8.91431 7.72678 8.40835 7.29721 8.40835L5.89905 8.40835L5.89905 7.40832C5.89905 5.75147 7.24219 4.40832 8.89905 4.40832C9.66056 4.40832 10.3537 4.69076 10.8831 5.15807C11.2972 5.52353 11.9291 5.48413 12.2946 5.07006C12.6601 4.65599 12.6207 4.02405 12.2066 3.65859C11.3258 2.88117 10.1664 2.40832 8.89905 2.40832C6.13762 2.40832 3.89905 4.6469 3.89905 7.40832V8.40832L2.50097 8.40835C2.07139 8.40835 1.8418 8.91431 2.12468 9.2376L4.33466 11.7633Z" fill="#092987"/>
<path d="M26.4356 21.0534C26.7344 20.7119 27.2656 20.7119 27.5644 21.0534L29.7744 23.579C30.0573 23.9023 29.8277 24.4083 29.3981 24.4083L28 24.4083V25.4083C28 28.1698 25.7615 30.4083 23 30.4083C21.7327 30.4083 20.5733 29.9355 19.6925 29.1581C19.2784 28.7926 19.239 28.1607 19.6045 27.7466C19.9699 27.3325 20.6019 27.2931 21.016 27.6586C21.5454 28.1259 22.2385 28.4083 23 28.4083C24.6569 28.4083 26 27.0652 26 25.4083V24.4083H24.6019C24.1723 24.4083 23.9427 23.9023 24.2256 23.579L26.4356 21.0534Z" fill="#092987"/>
<path d="M14.934 17.3969C15.1534 16.9336 14.7989 16.4083 14.2667 16.4083H12.772C12.4711 16.4083 12.2007 16.5843 12.0905 16.852L10.0088 21.907L7.90914 16.8501C7.7984 16.5834 7.52858 16.4083 7.22835 16.4083H5.73329C5.20085 16.4083 4.84633 16.9341 5.06629 17.3975L7.86453 23.2929H6.09383C5.68932 23.2929 5.3614 23.6063 5.3614 23.9929V24.2179C5.3614 24.6045 5.68932 24.9179 6.09383 24.9179H8.46014V26.0814H6.09383C5.68932 26.0814 5.3614 26.3948 5.3614 26.7814V26.9968C5.3614 27.3834 5.68932 27.6968 6.09383 27.6968H8.46014V29.7083C8.46014 30.0949 8.78806 30.4083 9.19256 30.4083H10.7359C11.1404 30.4083 11.4683 30.0949 11.4683 29.7083V27.6968H13.6435C14.048 27.6968 14.3759 27.3834 14.3759 26.9968V26.7814C14.3759 26.3948 14.048 26.0814 13.6435 26.0814H11.4683V24.9179H13.6435C14.048 24.9179 14.3759 24.6045 14.3759 24.2179V23.9929C14.3759 23.6063 14.048 23.2929 13.6435 23.2929H12.1424L14.934 17.3969Z" fill="#092987"/>
<path d="M22.6442 19.3953C22.25 19.3953 21.9304 19.0758 21.9304 18.6816V17.5824C21.603 17.5469 21.2766 17.4862 20.9512 17.4004C20.3961 17.2479 19.8928 17.0039 19.4413 16.6684C18.9899 16.3328 18.6299 15.8875 18.3615 15.3323C18.1843 14.9619 18.0656 14.5356 18.0054 14.0535C17.9512 13.6199 18.3131 13.2642 18.75 13.2642H19.8032C20.2401 13.2642 20.5765 13.6234 20.6701 14.0502C20.6961 14.1688 20.7288 14.279 20.7682 14.3806C20.8841 14.6735 21.0366 14.9083 21.2258 15.0852C21.421 15.2561 21.6406 15.3781 21.8846 15.4513C22.1287 15.5245 22.3757 15.5611 22.6259 15.5611C23.0163 15.5611 23.3366 15.4909 23.5867 15.3506C23.8429 15.2103 24.0351 15.0181 24.1632 14.7741C24.2974 14.524 24.3645 14.2434 24.3645 13.9322C24.3645 13.5845 24.3005 13.2886 24.1724 13.0446C24.0504 12.8006 23.849 12.584 23.5684 12.3949C23.2939 12.2057 22.9217 12.0227 22.452 11.8458C21.6589 11.5408 20.9604 11.2174 20.3564 10.8758C19.7586 10.5281 19.2919 10.098 18.9563 9.58553C18.6208 9.06697 18.453 8.41115 18.453 7.61807C18.453 6.86159 18.633 6.20577 18.9929 5.65062C19.3529 5.09546 19.8501 4.66841 20.4845 4.36948C20.9659 4.14027 21.5058 3.99718 22.1043 3.9402V2.70401C22.1043 2.3098 22.4238 1.99023 22.818 1.99023C23.2122 1.99023 23.5318 2.3098 23.5318 2.70401V3.96809C23.8653 4.01614 24.1795 4.09503 24.4744 4.20477C24.999 4.39388 25.4505 4.67451 25.8287 5.04665C26.2069 5.41269 26.4967 5.86109 26.698 6.39184C26.8182 6.70866 26.9025 7.05264 26.951 7.4238C27.0075 7.85706 26.6458 8.21288 26.2089 8.21288H25.1648C24.7279 8.21288 24.3893 7.85425 24.2997 7.42659C24.2865 7.36344 24.2715 7.30221 24.2547 7.24288C24.1754 6.96225 24.0595 6.72738 23.907 6.53826C23.7606 6.34914 23.5837 6.20882 23.3762 6.11731C23.1688 6.0197 22.94 5.9709 22.6899 5.9709C22.3178 5.9709 22.0128 6.04411 21.7748 6.19052C21.5369 6.33694 21.363 6.53521 21.2532 6.78533C21.1495 7.02936 21.0977 7.30999 21.0977 7.62722C21.0977 7.93835 21.1526 8.20983 21.2624 8.44166C21.3783 8.67348 21.5766 8.887 21.8572 9.08222C22.1378 9.27134 22.5222 9.46656 23.0102 9.66788C23.8033 9.97292 24.4988 10.3023 25.0966 10.6562C25.6945 11.01 26.1612 11.4432 26.4967 11.9556C26.8323 12.4681 27 13.1208 27 13.9139C27 14.7009 26.817 15.372 26.451 15.9271C26.0849 16.4762 25.5725 16.8971 24.9136 17.19C24.4471 17.393 23.9285 17.5242 23.3579 17.5834V18.6816C23.3579 19.0758 23.0384 19.3953 22.6442 19.3953Z" fill="#092987"/>
</svg>
