<svg width="32" height="33" viewBox="0 0 32 33" fill="none" xmlns="http://www.w3.org/2000/svg">
<path d="M29 19.1582V27.4082C29 27.9386 28.7893 28.4473 28.4142 28.8224C28.0391 29.1975 27.5304 29.4082 27 29.4082H5C4.46957 29.4082 3.96086 29.1975 3.58579 28.8224C3.21071 28.4473 3 27.9386 3 27.4082V5.4082C3 4.87777 3.21071 4.36906 3.58579 3.99399C3.96086 3.61892 4.46957 3.4082 5 3.4082H13.25C13.5815 3.4082 13.8995 3.5399 14.1339 3.77432C14.3683 4.00874 14.5 4.32668 14.5 4.6582C14.5 4.98972 14.3683 5.30767 14.1339 5.54209C13.8995 5.77651 13.5815 5.9082 13.25 5.9082H5.5V26.9082H26.5V19.1582C26.5 18.8267 26.6317 18.5087 26.8661 18.2743C27.1005 18.0399 27.4185 17.9082 27.75 17.9082C28.0815 17.9082 28.3995 18.0399 28.6339 18.2743C28.8683 18.5087 29 18.8267 29 19.1582ZM27 3.4082C27.5304 3.4082 28.0391 3.61892 28.4142 3.99399C28.7893 4.36906 29 4.87777 29 5.4082V13.6582C29 13.9897 28.8683 14.3077 28.6339 14.5421C28.3995 14.7765 28.0815 14.9082 27.75 14.9082C27.4185 14.9082 27.1005 14.7765 26.8661 14.5421C26.6317 14.3077 26.5 13.9897 26.5 13.6582V7.6762L16.134 18.0422C15.8995 18.2767 15.5816 18.4084 15.25 18.4084C14.9184 18.4084 14.6005 18.2767 14.366 18.0422C14.1315 17.8078 13.9998 17.4898 13.9998 17.1582C13.9998 16.8266 14.1315 16.5087 14.366 16.2742L24.733 5.9082H18.75C18.4185 5.9082 18.1005 5.77651 17.8661 5.54209C17.6317 5.30767 17.5 4.98972 17.5 4.6582C17.5 4.32668 17.6317 4.00874 17.8661 3.77432C18.1005 3.5399 18.4185 3.4082 18.75 3.4082H27Z" fill="#092987"/>
</svg>
