<svg width="32" height="32" viewBox="0 0 32 32" fill="none" xmlns="http://www.w3.org/2000/svg">
<path d="M4.88388 29.1339C4.39573 29.622 3.60427 29.622 3.11612 29.1339C2.62796 28.6457 2.62796 27.8543 3.11612 27.3661L27.1161 3.36612C27.6043 2.87796 28.3957 2.87796 28.8839 3.36612C29.372 3.85427 29.372 4.64573 28.8839 5.13388L25.4563 8.56146C25.6084 8.65805 25.7576 8.75702 25.9039 8.8583C28.4856 10.6456 30.25 13.2386 30.25 16.25C30.25 19.2614 28.4856 21.8544 25.9039 23.6417C23.3173 25.4324 19.8119 26.5 16 26.5C13.422 26.5 10.9843 26.0117 8.87607 25.1417L4.88388 29.1339ZM10.8208 23.197C12.3747 23.7079 14.1298 24 16 24C19.3678 24 22.3624 23.0529 24.4809 21.5862C26.6043 20.1162 27.75 18.2091 27.75 16.25C27.75 14.2909 26.6043 12.3838 24.4809 10.9138C24.2127 10.7281 23.9304 10.5508 23.6352 10.3826L21.2145 12.8033C21.8689 13.7913 22.25 14.9761 22.25 16.25C22.25 19.7018 19.4518 22.5 16 22.5C14.7261 22.5 13.5413 22.1189 12.5533 21.4645L10.8208 23.197ZM14.3832 19.6345C14.8728 19.8688 15.4211 20 16 20C18.0711 20 19.75 18.3211 19.75 16.25C19.75 15.6711 19.6188 15.1228 19.3845 14.6332L14.3832 19.6345Z" fill="#092987"/>
<path d="M20.184 6.44464C18.8562 6.15454 17.4503 6 16 6C12.1881 6 8.68266 7.0676 6.0961 8.8583C3.51443 10.6456 1.75 13.2386 1.75 16.25C1.75 18.5424 2.7725 20.5924 4.39963 22.229L6.1663 20.4624C4.91344 19.2015 4.25 17.7408 4.25 16.25C4.25 14.2909 5.39572 12.3838 7.51912 10.9138C9.63764 9.44712 12.6322 8.5 16 8.5C16.6882 8.5 17.3609 8.53955 18.0137 8.61501L20.184 6.44464Z" fill="#092987"/>
<path d="M16.6002 10.0285C16.4027 10.0096 16.2025 10 16 10C12.5482 10 9.75 12.7982 9.75 16.25C9.75 16.4525 9.75963 16.6527 9.77845 16.8502L16.6002 10.0285Z" fill="#092987"/>
</svg>
