<svg width="32" height="32" viewBox="0 0 32 32" fill="none" xmlns="http://www.w3.org/2000/svg">
<path d="M16 10C19.4518 10 22.25 12.7982 22.25 16.25C22.25 19.7018 19.4518 22.5 16 22.5C12.5482 22.5 9.75 19.7018 9.75 16.25C9.75 12.7982 12.5482 10 16 10ZM12.25 16.25C12.25 18.3211 13.9289 20 16 20C18.0711 20 19.75 18.3211 19.75 16.25C19.75 14.1789 18.0711 12.5 16 12.5C13.9289 12.5 12.25 14.1789 12.25 16.25Z" fill="#092987"/>
<path d="M16 6C19.8119 6 23.3173 7.0676 25.9039 8.8583C28.4856 10.6456 30.25 13.2386 30.25 16.25C30.25 19.2614 28.4856 21.8544 25.9039 23.6417C23.3173 25.4324 19.8119 26.5 16 26.5C12.1881 26.5 8.68266 25.4324 6.0961 23.6417C3.51443 21.8544 1.75 19.2614 1.75 16.25C1.75 13.2386 3.51443 10.6456 6.0961 8.8583C8.68266 7.0676 12.1881 6 16 6ZM4.25 16.25C4.25 18.2091 5.39572 20.1162 7.51912 21.5862C9.63764 23.0529 12.6322 24 16 24C19.3678 24 22.3624 23.0529 24.4809 21.5862C26.6043 20.1162 27.75 18.2091 27.75 16.25C27.75 14.2909 26.6043 12.3838 24.4809 10.9138C22.3624 9.44712 19.3678 8.5 16 8.5C12.6322 8.5 9.63764 9.44712 7.51912 10.9138C5.39572 12.3838 4.25 14.2909 4.25 16.25Z" fill="#092987"/>
</svg>
