<svg width="32" height="32" viewBox="0 0 32 32" fill="none" xmlns="http://www.w3.org/2000/svg">
<path d="M15.9862 4.50002C12.9373 4.50347 10.0142 5.71617 7.8583 7.8721C5.70237 10.028 4.48967 12.9511 4.48622 16C4.48307 17.8385 4.92608 19.6504 5.77722 21.28C6.06652 21.8339 6.13787 22.4761 5.97722 23.08L4.90422 27.08L8.90422 26.007C9.50813 25.8464 10.1503 25.9177 10.7042 26.207C12.3343 27.0592 14.1469 27.5029 15.9862 27.5C19.0362 27.5 21.9613 26.2884 24.118 24.1318C26.2746 21.9751 27.4862 19.05 27.4862 16C27.4862 12.95 26.2746 10.025 24.118 7.8683C21.9613 5.71163 19.0362 4.50002 15.9862 4.50002ZM15.9862 2.00002C18.1083 1.99603 20.2034 2.47448 22.1134 3.3992C24.0233 4.32393 25.6981 5.67073 27.011 7.33781C28.324 9.00489 29.2408 10.9486 29.6922 13.0221C30.1436 15.0956 30.1177 17.2445 29.6165 19.3065C29.1153 21.3685 28.1519 23.2896 26.7992 24.9246C25.4465 26.5596 23.7398 27.8656 21.8081 28.7441C19.8764 29.6225 17.7704 30.0504 15.649 29.9953C13.5277 29.9402 11.4467 29.4036 9.56322 28.426L3.88622 29.947C3.75584 29.9824 3.62132 30.0002 3.48622 30C3.25611 29.9998 3.02913 29.9466 2.82284 29.8447C2.61656 29.7427 2.43651 29.5946 2.29662 29.4119C2.15673 29.2292 2.06076 29.0167 2.01612 28.791C1.97149 28.5652 1.97939 28.3322 2.03922 28.11L3.56022 22.433C2.4526 20.3001 1.91327 17.9177 1.99428 15.5156C2.07528 13.1136 2.77387 10.7729 4.02267 8.71942C5.27148 6.66592 7.02836 4.96885 9.12387 3.79189C11.2194 2.61494 13.5828 1.99781 15.9862 2.00002ZM11.1442 12.562C11.1605 11.8781 11.371 11.2128 11.7512 10.644C12.1928 9.96399 12.8034 9.41025 13.5232 9.03702C14.3608 8.5982 15.2959 8.37903 16.2412 8.40002C17.1204 8.38228 17.9922 8.56382 18.7912 8.93102C19.4832 9.24882 20.0742 9.75123 20.4992 10.383C20.8927 10.9723 21.1016 11.6655 21.0992 12.374C21.1101 12.8895 20.9922 13.3996 20.7562 13.858C20.5399 14.2629 20.265 14.6336 19.9402 14.958C19.6229 15.2647 19.0562 15.7857 18.2402 16.521C18.0499 16.6921 17.8686 16.873 17.6972 17.063C17.5812 17.1945 17.4805 17.3387 17.3972 17.493C17.3323 17.616 17.2804 17.7453 17.2422 17.879C17.2062 18.011 17.1502 18.238 17.0792 18.563C17.0607 18.8565 16.9264 19.1305 16.7059 19.325C16.4854 19.5194 16.1967 19.6184 15.9032 19.6H15.8942C15.7343 19.6044 15.575 19.577 15.4257 19.5195C15.2764 19.462 15.1399 19.3755 15.0242 19.265C14.8998 19.1315 14.8041 18.9739 14.7432 18.8018C14.6823 18.6298 14.6575 18.4471 14.6702 18.265C14.6392 17.3314 14.9794 16.4235 15.6162 15.74C15.9824 15.3541 16.3679 14.987 16.7712 14.64C17.1952 14.268 17.5012 13.987 17.6932 13.799C17.8798 13.61 18.0405 13.3972 18.1712 13.166C18.299 12.9343 18.3654 12.6737 18.3642 12.409C18.3676 12.1563 18.3164 11.9057 18.2143 11.6745C18.1121 11.4433 17.9613 11.2368 17.7722 11.069C17.3525 10.6951 16.8039 10.4989 16.2422 10.522C15.9493 10.4976 15.6546 10.5347 15.3768 10.6307C15.0991 10.7268 14.8444 10.8799 14.6292 11.08C14.2244 11.5538 13.9254 12.1085 13.7522 12.707C13.5292 13.458 13.0992 13.833 12.4682 13.833C12.2924 13.8359 12.1178 13.8024 11.9555 13.7346C11.7932 13.6668 11.6467 13.5662 11.5252 13.439C11.4083 13.3299 11.3143 13.1985 11.2489 13.0525C11.1835 12.9065 11.1479 12.7489 11.1442 12.589V12.562ZM15.9862 20.6C16.384 20.6 16.7656 20.7581 17.0469 21.0394C17.3282 21.3207 17.4862 21.7022 17.4862 22.1C17.4862 22.3967 17.3983 22.6867 17.2334 22.9334C17.0686 23.1801 16.8343 23.3723 16.5602 23.4858C16.2862 23.5994 15.9846 23.6291 15.6936 23.5712C15.4026 23.5133 15.1353 23.3705 14.9256 23.1607C14.7158 22.9509 14.5729 22.6836 14.515 22.3927C14.4572 22.1017 14.4869 21.8001 14.6004 21.526C14.7139 21.2519 14.9062 21.0176 15.1529 20.8528C15.3995 20.688 15.6896 20.6 15.9862 20.6Z" fill="#092987"/>
</svg>
