<svg width="32" height="33" viewBox="0 0 32 33" fill="none" xmlns="http://www.w3.org/2000/svg">
<path d="M7 22.4082C7 21.8559 7.44772 21.4082 8 21.4082H20C20.5523 21.4082 21 21.8559 21 22.4082C21 22.9605 20.5523 23.4082 20 23.4082H8C7.44772 23.4082 7 22.9605 7 22.4082Z" fill="#092987"/>
<path d="M18.6359 18.4082H8C7.44772 18.4082 7 17.9605 7 17.4082C7 16.8559 7.44772 16.4082 8 16.4082H15.8586C16.6584 17.2241 17.5969 17.9034 18.6359 18.4082Z" fill="#092987"/>
<path d="M13.2 11.4082C13.3412 12.1038 13.5546 12.7732 13.8321 13.4082H8C7.44772 13.4082 7 12.9605 7 12.4082C7 11.8559 7.44772 11.4082 8 11.4082H13.2Z" fill="#092987"/>
<path d="M31 9.4082C31 13.8265 27.4183 17.4082 23 17.4082C18.5817 17.4082 15 13.8265 15 9.4082C15 4.98992 18.5817 1.4082 23 1.4082C27.4183 1.4082 31 4.98992 31 9.4082ZM24.5 3.4082L21.5 3.4082C21.0858 3.4082 20.75 3.74399 20.75 4.1582V10.9082H18.5C18.0195 10.9082 17.8156 11.5199 18.2 11.8082L22.55 15.0707C22.8167 15.2707 23.1833 15.2707 23.45 15.0707L27.8 11.8082C28.1844 11.5199 27.9805 10.9082 27.5 10.9082H25.25L25.25 4.1582C25.25 3.74399 24.9142 3.4082 24.5 3.4082Z" fill="#092987"/>
<path d="M3 5.4082C3 4.30363 3.89543 3.4082 5 3.4082H11.5C12.1904 3.4082 12.75 3.96785 12.75 4.6582C12.75 5.34856 12.1904 5.9082 11.5 5.9082H5.5V26.9082H22.5V21.9082C22.5 21.2178 23.0596 20.6582 23.75 20.6582C24.4404 20.6582 25 21.2178 25 21.9082V27.4082C25 28.5128 24.1046 29.4082 23 29.4082H5C3.89543 29.4082 3 28.5128 3 27.4082V5.4082Z" fill="#092987"/>
</svg>
