<svg width="32" height="33" viewBox="0 0 32 33" fill="none" xmlns="http://www.w3.org/2000/svg">
<path d="M7.75 7.4082C7.75 6.99399 8.08579 6.6582 8.5 6.6582H23.5C23.9142 6.6582 24.25 6.99399 24.25 7.4082C24.25 7.82242 23.9142 8.1582 23.5 8.1582H8.5C8.08579 8.1582 7.75 7.82242 7.75 7.4082Z" fill="#092987"/>
<path d="M8.5 11.1582C8.08579 11.1582 7.75 10.8224 7.75 10.4082C7.75 9.99399 8.08579 9.6582 8.5 9.6582H17.5C17.9142 9.6582 18.25 9.99399 18.25 10.4082C18.25 10.8224 17.9142 11.1582 17.5 11.1582H8.5Z" fill="#092987"/>
<path d="M22.9697 14.6279C23.2626 14.335 23.7374 14.335 24.0303 14.6279C24.3232 14.9208 24.3232 15.3956 24.0303 15.6885L22.3335 17.3853L20.7274 18.9914H22.3335L22.3331 20.6582L20.6667 20.6583L20.6669 19.052L19.0605 20.6583H20.6667V22.3248L18.9998 22.3249L19 20.7189L17.5303 22.1885C17.4741 22.2448 17.4111 22.2902 17.344 22.3249H18.9998V23.9916H17.3331L17.3335 22.3302C17.1204 22.436 16.8675 22.4342 16.6558 22.3248H15.6669L15.6667 21.3856L15 20.7189L13.9999 21.719L13.9998 22.3248H13.3941L12.3331 23.3857V23.9914L11.7273 23.9915L10.6669 25.052V25.4082H12.3335L12.3331 23.9914H13.9998L14 25.4082H15.6667V23.9916H17.3331V25.4082H18.9998V23.9916H20.6669V25.4082H22.3335V23.9916L23.9998 23.9914V22.3248H22.3335L22.3331 20.6582L23.9998 20.6583V18.9916L22.3335 18.9914V17.3853L24 17.377L24 26.4082C24 26.6844 23.7761 26.9082 23.5 26.9082H8.25C7.97385 26.9082 7.75 26.6844 7.75 26.4082L7.75016 16.1582C7.75016 15.8821 7.97402 15.6582 8.25016 15.6582L8.75016 15.6582C9.02631 15.6582 9.25016 15.8821 9.25016 16.1582L9.25003 24.3475L14.4697 19.1279C14.7626 18.835 15.2374 18.835 15.5303 19.1279L17 20.5975L22.9697 14.6279Z" fill="#092987"/>
<path d="M22.3335 22.3248V23.9916H20.6669L20.6667 22.3248H22.3335Z" fill="#092987"/>
<path d="M15.6667 23.9916L15.6669 22.3248H13.9998V23.9914L15.6667 23.9916Z" fill="#092987"/>
<path d="M6 2.4082H26C27.1046 2.4082 28 3.30363 28 4.4082V28.4082C28 29.5128 27.1046 30.4082 26 30.4082H6C4.89543 30.4082 4 29.5128 4 28.4082V4.4082C4 3.30363 4.89543 2.4082 6 2.4082ZM26 4.4082H6L6 28.4082H26V4.4082Z" fill="#092987"/>
</svg>
