<svg width="32" height="33" viewBox="0 0 32 33" fill="none" xmlns="http://www.w3.org/2000/svg">
<path d="M6.5 4.9082V27.9082H25.5V4.9082H6.5ZM6 2.4082H26C27.1046 2.4082 28 3.30363 28 4.4082V28.4082C28 29.5128 27.1046 30.4082 26 30.4082H6C4.89543 30.4082 4 29.5128 4 28.4082V4.4082C4 3.30363 4.89543 2.4082 6 2.4082Z" fill="#092987"/>
<path d="M8 9.4082C8 8.85592 8.44772 8.4082 9 8.4082H23C23.5523 8.4082 24 8.85592 24 9.4082C24 9.96049 23.5523 10.4082 23 10.4082H9C8.44772 10.4082 8 9.96049 8 9.4082Z" fill="#092987"/>
<path d="M8 14.4082C8 13.8559 8.44772 13.4082 9 13.4082H17C17.5523 13.4082 18 13.8559 18 14.4082C18 14.9605 17.5523 15.4082 17 15.4082H9C8.44772 15.4082 8 14.9605 8 14.4082Z" fill="#092987"/>
<path d="M8 19.4082C8 18.8559 8.44772 18.4082 9 18.4082H20C20.5523 18.4082 21 18.8559 21 19.4082C21 19.9605 20.5523 20.4082 20 20.4082H9C8.44772 20.4082 8 19.9605 8 19.4082Z" fill="#092987"/>
</svg>
