<svg width="32" height="33" viewBox="0 0 32 33" fill="none" xmlns="http://www.w3.org/2000/svg">
<path d="M3 5.4082C3 4.30363 3.89543 3.4082 5 3.4082H11.75C12.4404 3.4082 13 3.96785 13 4.6582C13 5.34856 12.4404 5.9082 11.75 5.9082H5.5V26.9082H22.5V21.6582C22.5 20.9678 23.0596 20.4082 23.75 20.4082C24.4404 20.4082 25 20.9678 25 21.6582V27.4082C25 28.5128 24.1046 29.4082 23 29.4082H5C3.89543 29.4082 3 28.5128 3 27.4082V5.4082Z" fill="#092987"/>
<path d="M7 22.4082C7 21.8559 7.44772 21.4082 8 21.4082H20C20.5523 21.4082 21 21.8559 21 22.4082C21 22.9605 20.5523 23.4082 20 23.4082H8C7.44772 23.4082 7 22.9605 7 22.4082Z" fill="#092987"/>
<path d="M18.6359 18.4082H8C7.44772 18.4082 7 17.9605 7 17.4082C7 16.8559 7.44772 16.4082 8 16.4082H15.8586C16.6584 17.2241 17.5969 17.9034 18.6359 18.4082Z" fill="#092987"/>
<path d="M13.2 11.4082C13.3412 12.1038 13.5546 12.7732 13.8321 13.4082H8C7.44772 13.4082 7 12.9605 7 12.4082C7 11.8559 7.44772 11.4082 8 11.4082H13.2Z" fill="#092987"/>
<path d="M23 17.4082C18.5817 17.4082 15 13.8265 15 9.4082C15 4.98993 18.5817 1.4082 23 1.4082C27.4183 1.4082 31 4.98993 31 9.4082C31 13.8265 27.4183 17.4082 23 17.4082ZM26.0938 10.9888C26.3699 10.9888 26.5938 10.765 26.5938 10.4888V10.1685C26.5938 9.89238 26.3699 9.66853 26.0938 9.66853H24.8594L27.0711 4.78091C27.2209 4.44994 26.9788 4.07478 26.6156 4.07478H25.3015C25.096 4.07478 24.9115 4.20047 24.8362 4.39166L23.2026 8.54245L21.5549 4.39035C21.4793 4.19985 21.2951 4.07478 21.0902 4.07478H19.7759C19.4124 4.07478 19.1704 4.45032 19.3205 4.78133L21.5375 9.66853H20.0938C19.8176 9.66853 19.5938 9.89238 19.5938 10.1685V10.4888C19.5938 10.765 19.8176 10.9888 20.0938 10.9888H22V11.9342H20.0938C19.8176 11.9342 19.5938 12.158 19.5938 12.4342V12.7467C19.5938 13.0228 19.8176 13.2467 20.0938 13.2467H22V14.9498C22 15.2259 22.2239 15.4498 22.5 15.4498H23.8359C24.1121 15.4498 24.3359 15.2259 24.3359 14.9498V13.2467H26.0938C26.3699 13.2467 26.5938 13.0228 26.5938 12.7467V12.4342C26.5938 12.158 26.3699 11.9342 26.0938 11.9342H24.3359V10.9888H26.0938Z" fill="#092987"/>
</svg>
