<svg width="32" height="33" viewBox="0 0 32 33" fill="none" xmlns="http://www.w3.org/2000/svg">
<path d="M16.5035 4.53801V6.4082H18.9068C19.183 6.4082 19.4068 6.63206 19.4068 6.9082V7.0332C19.4068 7.30935 19.183 7.5332 18.9068 7.5332H16.5035V9.9082C16.5035 10.1843 16.2797 10.4082 16.0035 10.4082H15.5C15.2239 10.4082 15 10.1843 15 9.9082V3.9082C15 3.63206 15.2239 3.4082 15.5 3.4082H19.2577C19.5338 3.4082 19.7577 3.63206 19.7577 3.9082V4.03801C19.7577 4.31415 19.5338 4.53801 19.2577 4.53801H16.5035Z" fill="#092987"/>
<path d="M24.0057 4.08857C24.2986 3.79567 24.7735 3.79567 25.0664 4.08857L27.136 6.15816H28C28.6904 6.15816 29.25 6.7178 29.25 7.40816C29.25 8.09851 28.6904 8.65816 28 8.65816H27.2143L25.0664 10.8061C24.7735 11.099 24.2986 11.099 24.0057 10.8061L21.8578 8.65816H21C20.3096 8.65816 19.75 8.09851 19.75 7.40816C19.75 6.7178 20.3096 6.15816 21 6.15816H21.9361L24.0057 4.08857Z" fill="#092987"/>
<path d="M12.2138 17.6582L10.066 19.806C9.77314 20.0989 9.29827 20.0989 9.00537 19.806L6.85757 17.6582H4C3.30964 17.6582 2.75 17.0985 2.75 16.4082C2.75 15.7178 3.30964 15.1582 4 15.1582H6.93566L9.00537 13.0884C9.29827 12.7956 9.77314 12.7956 10.066 13.0884L12.1357 15.1582L28 15.1582C28.6904 15.1582 29.25 15.7178 29.25 16.4082C29.25 17.0985 28.6904 17.6582 28 17.6582L12.2138 17.6582Z" fill="#092987"/>
<path d="M28 26.6582H22.2138L20.066 28.806C19.7731 29.0989 19.2983 29.0989 19.0054 28.806L16.8576 26.6582L4 26.6582C3.30964 26.6582 2.75 26.0985 2.75 25.4082C2.75 24.7178 3.30964 24.1582 4 24.1582L16.9357 24.1582L19.0054 22.0884C19.2983 21.7956 19.7731 21.7956 20.066 22.0884L22.1357 24.1582H28C28.6904 24.1582 29.25 24.7178 29.25 25.4082C29.25 26.0985 28.6904 26.6582 28 26.6582Z" fill="#092987"/>
<path d="M14.3817 3.9082V4.03801C14.3817 4.31415 14.1579 4.53801 13.8817 4.53801H12.1365V9.90816C12.1365 10.1843 11.9126 10.4082 11.6365 10.4082H11.1379C10.8618 10.4082 10.6379 10.1843 10.6379 9.90816V4.53801H8.92773C8.65159 4.53801 8.42773 4.31415 8.42773 4.03801V3.9082C8.42773 3.63206 8.65159 3.4082 8.92773 3.4082H13.8817C14.1579 3.4082 14.3817 3.63206 14.3817 3.9082Z" fill="#092987"/>
<path d="M4.5 9.2832V7.50436H6.89033C7.16647 7.50436 7.39033 7.2805 7.39033 7.00436V6.9082C7.39033 6.63206 7.16647 6.4082 6.89033 6.4082H4.5V4.53801H7.39151C7.66765 4.53801 7.89151 4.31415 7.89151 4.03801V3.9082C7.89151 3.63206 7.66765 3.4082 7.39151 3.4082H3.5C3.22386 3.4082 3 3.63206 3 3.9082V9.9082C3 10.1843 3.22386 10.4082 3.5 10.4082H7.39298C7.66913 10.4082 7.89298 10.1843 7.89298 9.9082V9.7832C7.89298 9.50706 7.66913 9.2832 7.39298 9.2832H4.5Z" fill="#092987"/>
</svg>
