<svg width="32" height="33" viewBox="0 0 32 33" fill="none" xmlns="http://www.w3.org/2000/svg">
<path d="M7.75 3.6582C7.75 2.96785 8.30964 2.4082 9 2.4082H29C29.4898 2.4082 29.9344 2.69424 30.1375 3.13993C30.3406 3.58562 30.2646 4.10884 29.9433 4.47843L24.9342 10.2388L20.25 15.3915V24.1813C20.25 24.686 20.0322 25.166 19.6524 25.4983L14.6524 29.8733C13.5209 30.8634 11.75 30.0598 11.75 28.5563V15.426L3.11612 6.79209C2.62796 6.30393 2.62796 5.51248 3.11612 5.02432C3.60427 4.53616 4.39573 4.53616 4.88388 5.02432L14.25 14.3904V26.9035L17.75 23.841V14.4249L23.0658 8.57757L26.2565 4.9082H9C8.30964 4.9082 7.75 4.34856 7.75 3.6582Z" fill="#092987"/>
</svg>
