<svg width="32" height="33" viewBox="0 0 32 33" fill="none" xmlns="http://www.w3.org/2000/svg">
<path d="M23.9947 4.08881L26.0644 6.15845L28 6.15845C28.6904 6.15845 29.25 6.71809 29.25 7.40845C29.25 8.09881 28.6904 8.65845 28 8.65845H26.1426L23.9947 10.8063C23.7019 11.0992 23.227 11.0992 22.9341 10.8063L20.7862 8.65845L4 8.65845C3.30964 8.65845 2.75 8.0988 2.75 7.40845C2.75 6.71809 3.30964 6.15845 4 6.15845L20.8644 6.15845L22.9341 4.08881C23.227 3.79592 23.7019 3.79592 23.9947 4.08881Z" fill="#092987"/>
<path d="M28 17.6584C28.6904 17.6584 29.25 17.0988 29.25 16.4084C29.25 15.7181 28.6904 15.1584 28 15.1584L12.1357 15.1585L10.066 13.0888C9.77314 12.7959 9.29827 12.7959 9.00537 13.0888L6.93573 15.1585H4C3.30964 15.1585 2.75 15.7181 2.75 16.4085C2.75 17.0988 3.30964 17.6585 4 17.6585H6.8575L9.00537 19.8063C9.29827 20.0992 9.77314 20.0992 10.066 19.8063L12.2139 17.6585L28 17.6584Z" fill="#092987"/>
<path d="M22.2139 26.6585L20.066 28.8063C19.7731 29.0992 19.2983 29.0992 19.0054 28.8063L16.8575 26.6585H4C3.30964 26.6585 2.75 26.0988 2.75 25.4085C2.75 24.7181 3.30964 24.1585 4 24.1585H16.9357L19.0054 22.0888C19.2983 21.7959 19.7731 21.7959 20.066 22.0888L22.1357 24.1585H28C28.6904 24.1585 29.25 24.7181 29.25 25.4085C29.25 26.0988 28.6904 26.6585 28 26.6585H22.2139Z" fill="#092987"/>
</svg>
