<svg width="32" height="33" viewBox="0 0 32 33" fill="none" xmlns="http://www.w3.org/2000/svg">
<path d="M15.7971 31.4039C14.0677 31.4522 12.3513 31.0917 10.7874 30.3518C9.22349 29.6118 7.85638 28.513 6.79691 27.1452C5.97117 26.0816 4.99973 23.4082 5.3328 19.5353C5.64811 15.869 6.56384 13.2684 6.41933 10.184C6.40947 9.9734 6.64366 9.83906 6.8096 9.96904C7.52773 10.5315 8.14663 11.2123 8.639 11.9831C9.18803 12.8426 9.56917 13.7974 9.76306 14.7974C9.78632 14.9173 9.88645 14.9781 9.99088 14.9147C10.4928 14.6098 11.7972 13.3827 11.5522 9.01376C11.4638 7.4737 11.8162 5.93994 12.568 4.59296C13.2492 3.3725 14.2327 2.35103 15.421 1.62453C15.5854 1.52404 15.7908 1.64946 15.7923 1.8421C15.8132 4.46064 16.7346 6.99755 18.4089 9.02247C20.4109 10.9516 20.8943 14.546 20.9776 16.3624C20.9898 16.6285 21.5117 16.8265 21.662 16.6066C22.0029 16.1081 22.2775 15.5656 22.4778 14.9927C22.6951 14.3712 22.8296 13.7315 22.8679 13.0826C22.883 12.8262 23.232 12.7116 23.3664 12.9304C24.4938 14.7668 26.9099 19.2166 26.4997 22.9082C25.9997 27.4082 23.3468 31.4039 15.7971 31.4039ZM12.26 21.2946C12.1872 21.0615 11.8339 21.0071 11.7333 21.2297C11.2523 22.2934 10.9732 23.4397 10.9126 24.6101C10.9557 25.2037 11.1158 25.7826 11.3839 26.314C11.652 26.8454 12.0227 27.3182 12.4746 27.7056C12.9264 28.093 13.4504 28.3879 14.0165 28.5717C14.5826 28.7555 15.1794 28.8254 15.7726 28.7773H15.8662C16.7557 28.7424 17.6174 28.4569 18.3524 27.9548C19.0874 27.4527 19.6661 26.7533 20.0222 25.9375C20.382 25.1374 20.4949 24.2484 20.3464 23.3838C20.198 22.5192 19.7948 21.7189 19.1887 21.0847C17.1593 18.7883 16.9956 16.8779 17.0834 15.9313C17.1046 15.7027 16.8224 15.4721 16.6234 15.5865C16.0247 15.9308 15.4871 16.3744 15.0344 16.9C14.4387 17.5917 14.0051 18.4078 13.7649 19.2883C13.4104 20.3525 13.2072 21.4612 13.161 22.5819C13.161 22.6056 13.1354 22.6203 13.1154 22.6076C12.667 22.3225 12.4064 21.7626 12.26 21.2946Z" fill="#CC2929"/>
</svg>
