<svg width="32" height="33" viewBox="0 0 32 33" fill="none" xmlns="http://www.w3.org/2000/svg">
<path d="M10.5823 17.1774L11.823 28.7578C11.9175 29.6394 11.2267 30.4082 10.3401 30.4082C9.57785 30.4082 8.93829 29.8335 8.85709 29.0756L6.23698 4.62127C6.22873 4.54432 6.22495 4.46801 6.22541 4.39258L6.09473 3.24291C6.04417 2.79801 6.39217 2.4082 6.83994 2.4082H16.3423C16.6925 2.4082 16.9961 2.65061 17.0737 2.99216L17.088 3.05501C17.1655 3.39656 17.4691 3.63897 17.8193 3.63897H24.6044C25.1132 3.63897 25.4743 4.13482 25.3182 4.61907L23.5576 10.081C23.5014 10.2553 23.511 10.4442 23.5845 10.612L26.5395 17.3572C26.7566 17.8528 26.3936 18.4082 25.8526 18.4082H18.1508C17.8174 18.4082 17.5241 18.1881 17.4308 17.8681L17.3869 17.7175C17.2936 17.3975 17.0002 17.1774 16.6669 17.1774H10.5823ZM16.6669 14.6774C17.6814 14.6774 18.6105 15.1478 19.2137 15.9082H23.1753L21.2946 11.6152C20.9761 10.8881 20.9347 10.0695 21.1782 9.31396L22.2016 6.13897H17.8193C16.8012 6.13897 15.874 5.66624 15.2725 4.9082H9.26772L10.3144 14.6774H16.6669Z" fill="#092987"/>
</svg>
