<svg width="32" height="33" viewBox="0 0 32 33" fill="none" xmlns="http://www.w3.org/2000/svg">
<path d="M17.4308 17.8681C17.5241 18.1881 17.8174 18.4082 18.1508 18.4082H25.8526C26.3936 18.4082 26.7566 17.8528 26.5395 17.3572L23.5845 10.612C23.511 10.4442 23.5014 10.2553 23.5576 10.081L25.3182 4.61907C25.4743 4.13482 25.1132 3.63897 24.6044 3.63897H17.8193C17.4691 3.63897 17.1655 3.39656 17.088 3.05501L17.0737 2.99216C16.9961 2.65061 16.6925 2.4082 16.3423 2.4082H6.83994C6.39217 2.4082 6.04417 2.79801 6.09473 3.24291L6.22541 4.39258C6.22495 4.46801 6.22873 4.54432 6.23698 4.62127L8.85709 29.0756C8.93829 29.8335 9.57785 30.4082 10.3401 30.4082C11.2267 30.4082 11.9175 29.6394 11.823 28.7578L10.5823 17.1774H16.6669C17.0002 17.1774 17.2936 17.3975 17.3869 17.7175L17.4308 17.8681Z" fill="#092987"/>
</svg>
