<svg width="32" height="32" viewBox="0 0 32 32" fill="none" xmlns="http://www.w3.org/2000/svg">
<path d="M3 21.7807C3.01533 21.4056 3.10101 21.0371 3.25241 20.695L9.47454 4.94533C9.65404 4.34968 10.0265 3.83382 10.5309 3.48219C11.0353 3.13057 11.6418 2.96401 12.2511 3.00978C12.865 2.95694 13.4783 3.11935 13.9895 3.47015C14.5007 3.82096 14.8792 4.33916 15.0626 4.93913L21.2969 20.7012C21.4496 21.0428 21.5353 21.4117 21.5493 21.7869C21.5372 22.0263 21.477 22.2606 21.3724 22.4752C21.2678 22.6899 21.121 22.8803 20.9412 23.0346C20.7613 23.189 20.5523 23.3039 20.3271 23.3723C20.1018 23.4408 19.8652 23.4612 19.6319 23.4324C19.1804 23.472 18.7305 23.3399 18.3687 23.0616C18.0069 22.7834 17.7587 22.3785 17.6719 21.9249L16.2608 18.1081H8.25809L6.84702 21.897C6.76617 22.3472 6.52681 22.7517 6.17396 23.0345C5.82111 23.3173 5.3791 23.4588 4.93111 23.4324C3.75876 23.4324 2.99848 22.7965 3 21.7807ZM15.315 15.2885L12.2739 6.77078H12.1766L9.16283 15.2885H15.315Z" fill="#092987"/>
<path d="M27.4303 21.7285C26.5514 21.7285 26.079 21.3188 25.7962 20.3169L25.0055 17.8966H21.824L20.8417 15.4127H24.2875L22.2955 9.15749H22.2272L20.5299 14.613L18.9366 10.5812L19.9307 7.82164C20.0515 7.28515 20.3548 6.80759 20.7861 6.47669C21.2173 6.14579 21.7492 5.98282 22.288 6.01323C22.8315 5.97947 23.369 6.13895 23.8079 6.4676C24.2468 6.79626 24.5595 7.27357 24.6907 7.81255L28.7957 19.2052C28.9223 19.528 28.9899 19.8723 28.994 20.22C28.9952 20.4258 28.9544 20.6274 28.8752 20.8167C28.7959 21.006 28.6794 21.1781 28.5329 21.3196C28.3863 21.461 28.2132 21.5704 28.0236 21.6406C27.8339 21.7109 27.6317 21.741 27.4303 21.7285Z" fill="#092987"/>
<path d="M28.6429 26.5857C29.0182 26.2854 29.0182 25.7146 28.6429 25.4143L25.8123 23.1499C25.485 22.888 25 23.1211 25 23.5403V25H10V23.6019C10 23.1723 9.49404 22.9427 9.17075 23.2256L6.64507 25.4356C6.30357 25.7344 6.30357 26.2656 6.64506 26.5644L9.17075 28.7744C9.49404 29.0573 10 28.8277 10 28.3981V27H25V28.4597C25 28.8789 25.485 29.112 25.8123 28.8501L28.6429 26.5857Z" fill="#092987"/>
</svg>
