<svg width="32" height="33" viewBox="0 0 32 33" fill="none" xmlns="http://www.w3.org/2000/svg">
<path d="M3 5.4082C3 4.30363 3.89543 3.4082 5 3.4082H12.5C13.6046 3.4082 14.5 4.30363 14.5 5.4082V12.9082C14.5 14.0128 13.6046 14.9082 12.5 14.9082H5C3.89543 14.9082 3 14.0128 3 12.9082V5.4082ZM5.5 5.9082V12.4082H12V5.9082H5.5Z" fill="#092987"/>
<path d="M3 19.9082C3 18.8036 3.89543 17.9082 5 17.9082H12.5C13.6046 17.9082 14.5 18.8036 14.5 19.9082V27.4082C14.5 28.5128 13.6046 29.4082 12.5 29.4082H5C3.89543 29.4082 3 28.5128 3 27.4082V19.9082ZM5.5 20.4082V26.9082H12V20.4082H5.5Z" fill="#092987"/>
<path d="M17.5 5.4082C17.5 4.30363 18.3954 3.4082 19.5 3.4082H27C28.1046 3.4082 29 4.30363 29 5.4082V12.9082C29 14.0128 28.1046 14.9082 27 14.9082H19.5C18.3954 14.9082 17.5 14.0128 17.5 12.9082V5.4082ZM20 5.9082V12.4082H26.5V5.9082H20Z" fill="#092987"/>
<path d="M17.5 19.9082C17.5 18.8036 18.3954 17.9082 19.5 17.9082H27C28.1046 17.9082 29 18.8036 29 19.9082V27.4082C29 28.5128 28.1046 29.4082 27 29.4082H19.5C18.3954 29.4082 17.5 28.5128 17.5 27.4082V19.9082ZM20 20.4082V26.9082H26.5V20.4082H20Z" fill="#092987"/>
</svg>
