<svg width="32" height="33" viewBox="0 0 32 33" fill="none" xmlns="http://www.w3.org/2000/svg">
<path d="M17.8206 30.6582H14.1056C13.446 30.6574 12.8136 30.395 12.3472 29.9286C11.8808 29.4622 11.6184 28.8298 11.6176 28.1702V26.6462C10.8035 26.2955 10.0346 25.8479 9.32762 25.3132L7.99662 26.0812C7.71356 26.2449 7.40101 26.3511 7.07686 26.3938C6.7527 26.4365 6.4233 26.4149 6.10751 26.3302C5.79171 26.2455 5.49572 26.0994 5.23646 25.9002C4.97721 25.7009 4.75978 25.4525 4.59662 25.1692L2.74362 21.9542C2.41392 21.3823 2.32478 20.703 2.49579 20.0654C2.66681 19.4279 3.08398 18.8843 3.65562 18.5542L4.96262 17.8002C4.84662 16.8758 4.84662 15.9406 4.96262 15.0162L3.65462 14.2612C3.08295 13.9311 2.66581 13.3875 2.49497 12.7499C2.32412 12.1123 2.41357 11.4329 2.74362 10.8612L4.59662 7.6462C4.76004 7.36313 4.97764 7.11503 5.23698 6.91608C5.49632 6.71713 5.79232 6.57123 6.10807 6.48673C6.42381 6.40222 6.75312 6.38075 7.07717 6.42356C7.40121 6.46637 7.71365 6.5726 7.99662 6.7362L9.32862 7.5082C10.0549 6.95835 10.8462 6.50022 11.6846 6.1442V4.6442C11.6859 3.98494 11.9486 3.35308 12.4149 2.88709C12.8813 2.4211 13.5133 2.159 14.1726 2.1582H17.8876C18.5472 2.159 19.1796 2.42138 19.646 2.8878C20.1124 3.35422 20.3748 3.98659 20.3756 4.6462V6.1382C21.2029 6.48933 21.9844 6.93998 22.7026 7.4802L23.9966 6.7352C24.2797 6.57155 24.5922 6.46532 24.9164 6.42259C25.2405 6.37986 25.5699 6.40147 25.8857 6.48618C26.2015 6.57089 26.4975 6.71703 26.7568 6.91625C27.016 7.11548 27.2335 7.36386 27.3966 7.6472L29.2536 10.8622C29.5833 11.4341 29.6725 12.1134 29.5014 12.751C29.3304 13.3886 28.9133 13.9321 28.3416 14.2622L27.0956 14.9812C27.2196 15.9285 27.2196 16.8879 27.0956 17.8352L28.3426 18.5552C28.9143 18.8853 29.3314 19.4289 29.5023 20.0665C29.6731 20.7042 29.5837 21.3835 29.2536 21.9552L27.3966 25.1702C27.2332 25.4533 27.0156 25.7014 26.7563 25.9003C26.4969 26.0993 26.2009 26.2452 25.8852 26.3297C25.5694 26.4142 25.2401 26.4357 24.9161 26.3928C24.592 26.35 24.2796 26.2438 23.9966 26.0802L22.7086 25.3362C21.9692 25.8921 21.1629 26.3531 20.3086 26.7082V28.1702C20.3078 28.8298 20.0454 29.4622 19.579 29.9286C19.1126 30.395 18.4802 30.6574 17.8206 30.6582ZM9.45162 22.5492C9.75807 22.5487 10.0539 22.6612 10.2826 22.8652C11.149 23.6427 12.1647 24.2358 13.2676 24.6082C13.5153 24.6922 13.7305 24.8516 13.883 25.0642C14.0354 25.2767 14.1175 25.5316 14.1176 25.7932V28.1752L17.8176 28.1632L17.8056 25.8422C17.8054 25.5773 17.8894 25.3192 18.0454 25.1052C18.2014 24.8911 18.4214 24.7321 18.6736 24.6512C19.8106 24.2855 20.8586 23.6864 21.7506 22.8922C21.9464 22.7176 22.1922 22.6093 22.4531 22.5828C22.7141 22.5562 22.9767 22.6127 23.2036 22.7442L25.2406 23.9202L27.0746 20.7202L25.0856 19.5702C24.8563 19.4388 24.6746 19.2379 24.5667 18.9965C24.4589 18.7551 24.4305 18.4858 24.4856 18.2272C24.7443 17.0324 24.7443 15.796 24.4856 14.6012C24.4305 14.3427 24.4589 14.0733 24.5667 13.8319C24.6746 13.5905 24.8563 13.3897 25.0856 13.2582L27.0856 12.1022L25.2236 8.9022L23.2066 10.0772C22.9796 10.2083 22.717 10.2645 22.4562 10.2379C22.1954 10.2114 21.9496 10.1034 21.7536 9.9292C20.8768 9.14943 19.8493 8.5579 18.7346 8.1912C18.4854 8.10913 18.2683 7.9507 18.1141 7.73838C17.96 7.52605 17.8765 7.2706 17.8756 7.0082V4.6462L14.1756 4.6582L14.1846 7.0082C14.1847 7.27132 14.1017 7.52774 13.9475 7.7409C13.7932 7.95405 13.5756 8.11305 13.3256 8.1952C12.2009 8.56609 11.165 9.16527 10.2826 9.9552C10.0868 10.1305 9.84075 10.2397 9.57936 10.2672C9.31798 10.2946 9.05458 10.239 8.82662 10.1082L6.74962 8.9082L4.90962 12.1082L6.96262 13.2812C7.19103 13.4124 7.37208 13.6125 7.47985 13.8528C7.58763 14.0931 7.6166 14.3614 7.56262 14.6192C7.31584 15.7964 7.31584 17.012 7.56262 18.1892C7.6166 18.447 7.58763 18.7153 7.47985 18.9556C7.37208 19.196 7.19103 19.396 6.96262 19.5272L4.90462 20.7202L6.76662 23.9202L8.82662 22.7202C9.01609 22.6088 9.2318 22.5498 9.45162 22.5492Z" fill="#092987"/>
<path d="M15.9102 18.9082C17.2909 18.9082 18.4102 17.7889 18.4102 16.4082C18.4102 15.0275 17.2909 13.9082 15.9102 13.9082C14.5294 13.9082 13.4102 15.0275 13.4102 16.4082C13.4102 17.7889 14.5294 18.9082 15.9102 18.9082ZM15.9102 21.4082C13.1487 21.4082 10.9102 19.1696 10.9102 16.4082C10.9102 13.6468 13.1487 11.4082 15.9102 11.4082C18.6716 11.4082 20.9102 13.6468 20.9102 16.4082C20.9102 19.1696 18.6716 21.4082 15.9102 21.4082Z" fill="#092987"/>
</svg>
