<svg width="32" height="33" viewBox="0 0 32 33" fill="none" xmlns="http://www.w3.org/2000/svg">
<path d="M5 5.4082C5 4.30363 5.89543 3.4082 7 3.4082H25C26.1046 3.4082 27 4.30363 27 5.4082V27.4082C27 28.5128 26.1046 29.4082 25 29.4082H7C5.89543 29.4082 5 28.5128 5 27.4082V5.4082ZM25 16.1582V5.4082H7V16.1582H10.8363C10.1645 15.754 9.67347 15.3197 9.11755 14.828C9.05207 14.7701 8.98568 14.7113 8.918 14.6518C8.38641 14.1315 8.06189 13.4255 8.0078 12.6717C7.9537 11.9179 8.17391 11.1703 8.62545 10.575C9.07698 9.97958 9.72743 9.5791 10.4498 9.4517C11.1722 9.32429 11.9148 9.4791 12.5325 9.8859C13.661 10.5753 14.5961 11.5559 15.2454 12.7314C15.5803 13.3377 15.8333 13.985 15.9997 14.6554C16.1661 13.985 16.4191 13.3377 16.754 12.7314C17.4033 11.5559 18.3383 10.5753 19.4669 9.8859C20.0846 9.4791 20.8271 9.32429 21.5495 9.4517C22.2719 9.5791 22.9223 9.97958 23.3738 10.575C23.8254 11.1703 24.0456 11.9179 23.9915 12.6717C23.9374 13.4255 23.6129 14.1315 23.0813 14.6518C23.0136 14.7113 22.9472 14.7701 22.8817 14.828C22.3258 15.3197 21.8348 15.754 21.163 16.1582H25ZM25 18.6582H19.3102L21.1254 20.3936C21.8877 21.1223 21.3719 22.4082 20.3174 22.4082C20.0271 22.4082 19.7473 22.3003 19.5322 22.1054L16.0037 18.9082L15.9997 18.8726L15.9957 18.9082L12.3662 22.1969C12.2161 22.3329 12.0208 22.4082 11.8183 22.4082C10.7144 22.4082 10.1745 21.0622 10.9724 20.2994L12.6891 18.6582H7V27.4082H25V18.6582ZM10.7583 13.6831C11.8065 14.5928 13.0633 15.21 14.4087 15.4758C14.215 14.5668 13.7757 13.733 13.1416 13.0708C12.5075 12.4087 11.6485 11.7342 10.8257 11.7342C10.6788 11.7342 10.6157 11.7548 10.5238 11.8082C9.80338 12.2885 10.3734 13.3081 10.7583 13.6831ZM21.241 13.6831C21.6259 13.3081 22.1959 12.2885 21.4755 11.8082C21.3836 11.7548 21.3205 11.7342 21.1736 11.7342C20.3508 11.7342 19.4919 12.4087 18.8578 13.0708C18.2237 13.733 17.7844 14.5668 17.5907 15.4758C18.9361 15.21 20.1929 14.5928 21.241 13.6831Z" fill="#092987"/>
</svg>
