<svg width="32" height="32" viewBox="0 0 32 32" fill="none" xmlns="http://www.w3.org/2000/svg">
<path d="M20.502 22.6233C18.5628 24.1139 16.1349 25 13.5 25C7.14873 25 2 19.8513 2 13.5C2 7.14873 7.14873 2 13.5 2C19.8513 2 25 7.14873 25 13.5C25 16.1349 24.1139 18.5628 22.6233 20.502L28.5607 26.4393C29.1464 27.0251 29.1464 27.9749 28.5607 28.5607C27.9749 29.1464 27.0251 29.1464 26.4393 28.5607L20.502 22.6233ZM4.5 13.5C4.5 18.4706 8.52944 22.5 13.5 22.5C18.4706 22.5 22.5 18.4706 22.5 13.5C22.5 8.52944 18.4706 4.5 13.5 4.5C8.52944 4.5 4.5 8.52944 4.5 13.5Z" fill="#092987"/>
</svg>
