<svg width="32" height="32" viewBox="0 0 32 32" fill="none" xmlns="http://www.w3.org/2000/svg">
<path fill-rule="evenodd" clip-rule="evenodd" d="M13.5 22.5C18.4706 22.5 22.5 18.4706 22.5 13.5C22.5 8.52944 18.4706 4.5 13.5 4.5C8.52944 4.5 4.5 8.52944 4.5 13.5C4.5 18.4706 8.52944 22.5 13.5 22.5ZM13.5 25C19.8513 25 25 19.8513 25 13.5C25 7.14873 19.8513 2 13.5 2C7.14873 2 2 7.14873 2 13.5C2 19.8513 7.14873 25 13.5 25Z" fill="#092987"/>
<path fill-rule="evenodd" clip-rule="evenodd" d="M20.4393 20.4393C21.0251 19.8536 21.9749 19.8536 22.5607 20.4393L28.5607 26.4393C29.1464 27.0251 29.1464 27.9749 28.5607 28.5607C27.9749 29.1464 27.0251 29.1464 26.4393 28.5607L20.4393 22.5607C19.8536 21.9749 19.8536 21.0251 20.4393 20.4393Z" fill="#092987"/>
<path fill-rule="evenodd" clip-rule="evenodd" d="M14.75 8C14.75 7.30964 14.1904 6.75 13.5 6.75C12.8096 6.75 12.25 7.30964 12.25 8V12.25H8C7.30964 12.25 6.75 12.8096 6.75 13.5C6.75 14.1904 7.30964 14.75 8 14.75H12.25V19C12.25 19.6904 12.8096 20.25 13.5 20.25C14.1904 20.25 14.75 19.6904 14.75 19V14.75H19C19.6904 14.75 20.25 14.1904 20.25 13.5C20.25 12.8096 19.6904 12.25 19 12.25H14.75V8Z" fill="#092987"/>
</svg>
