<svg width="32" height="33" viewBox="0 0 32 33" fill="none" xmlns="http://www.w3.org/2000/svg">
<path d="M11.5883 4.71264C10.7016 5.04709 9.85139 5.48296 9.05532 6.01488C6.99969 7.3884 5.39754 9.34061 4.45145 11.6247C3.94119 12.8565 3.63415 14.1551 3.53521 15.4705H8.41075C8.55916 10.9763 9.76912 7.10773 11.5883 4.71264ZM3.74021 18.8469C4.22254 21.2717 5.413 23.4989 7.16113 25.2471C8.42273 26.5087 9.93387 27.4798 11.5887 28.104C9.76933 25.7089 8.55918 21.8401 8.41075 17.3455H3.5352C3.57298 17.8479 3.64123 18.3492 3.74021 18.8469ZM15.0608 28.6172V17.3455H10.2863C10.4954 23.4277 12.7206 27.6957 15.0608 28.6172ZM16.9358 28.6188C19.2779 27.7008 21.507 23.4314 21.7163 17.3455H16.9358V28.6188ZM16.9358 15.4705H21.7163C21.5071 9.38418 19.279 5.11459 16.9358 4.19696V15.4705ZM15.0608 4.19882C12.7206 5.12034 10.4953 9.38828 10.2863 15.4705H15.0608V4.19882ZM20.4132 28.1033C20.5373 28.0565 20.6607 28.0076 20.7835 27.9568C23.0676 27.0107 25.0198 25.4085 26.3933 23.3529C27.5927 21.558 28.3037 19.4877 28.4648 17.3455H23.5919C23.4434 21.8396 22.2328 25.7082 20.4132 28.1033ZM23.5919 15.4705H28.4648C28.2413 12.4983 26.961 9.69155 24.8388 7.56936C23.5712 6.3017 22.0593 5.33443 20.4137 4.71337C22.233 7.10851 23.4434 10.9768 23.5919 15.4705ZM16 1.4082C19.9782 1.4082 23.7936 2.98855 26.6066 5.80159C29.4197 8.61464 31 12.43 31 16.4082C31 19.3749 30.1202 22.2751 28.472 24.7418C26.8238 27.2086 24.4811 29.1311 21.7402 30.2665C18.9993 31.4018 15.9833 31.6987 13.0736 31.12C10.1639 30.5412 7.49115 29.1126 5.39336 27.0148C3.29557 24.9171 1.86703 22.2443 1.28825 19.3346C0.709471 16.4249 1.00644 13.4089 2.14175 10.668C3.27707 7.92708 5.19965 5.58443 7.66639 3.93621C10.1331 2.28798 13.0333 1.4082 16 1.4082Z" fill="#092987"/>
</svg>
