<svg width="32" height="32" viewBox="0 0 32 32" fill="none" xmlns="http://www.w3.org/2000/svg">
<path d="M27.206 10.046C26.4146 7.7012 24.9077 5.66372 22.8974 4.22049C20.8871 2.77726 18.4747 2.00098 16 2.00098C13.5253 2.00098 11.1129 2.77726 9.1026 4.22049C7.0923 5.66372 5.58536 7.7012 4.794 10.046C3.75422 10.1548 2.79145 10.6445 2.09101 11.4206C1.39057 12.1967 1.00197 13.2045 1 14.25V17.75C1 18.8772 1.44777 19.9582 2.2448 20.7552C3.04183 21.5522 4.12283 22 5.25 22C6.37717 22 7.45817 21.5522 8.2552 20.7552C9.05223 19.9582 9.5 18.8772 9.5 17.75V14.25C9.4987 13.4448 9.26817 12.6566 8.83536 11.9777C8.40256 11.2987 7.78537 10.757 7.056 10.416C7.74656 8.60324 8.97163 7.04312 10.5689 5.94236C12.1661 4.8416 14.0602 4.25217 16 4.25217C17.9398 4.25217 19.8339 4.8416 21.4311 5.94236C23.0284 7.04312 24.2534 8.60324 24.944 10.416C24.2146 10.757 23.5974 11.2987 23.1646 11.9777C22.7318 12.6566 22.5013 13.4448 22.5 14.25V17.75C22.502 18.8195 22.9098 19.8484 23.641 20.629C22.6179 22.5427 21.1152 24.1578 19.28 25.316C19 24.5551 18.4633 23.9157 17.7624 23.5082C17.0615 23.1007 16.2403 22.9505 15.4405 23.0836C14.6407 23.2167 13.9125 23.6248 13.3814 24.2374C12.8502 24.85 12.5495 25.6287 12.5311 26.4393C12.5127 27.2498 12.7777 28.0414 13.2804 28.6775C13.7832 29.3136 14.4922 29.7543 15.2851 29.9236C16.078 30.0929 16.9051 29.9802 17.6238 29.605C18.3425 29.2297 18.9077 28.6154 19.222 27.868C21.9496 26.6035 24.1865 24.4783 25.589 21.819C25.9656 21.9334 26.3564 21.9943 26.75 22C27.3081 22 27.8608 21.8901 28.3764 21.6765C28.892 21.4629 29.3606 21.1498 29.7552 20.7552C30.1499 20.3605 30.4629 19.892 30.6765 19.3764C30.8901 18.8608 31 18.3081 31 17.75V14.25C30.998 13.2045 30.6094 12.1967 29.909 11.4206C29.2085 10.6445 28.2458 10.1548 27.206 10.046Z" fill="#092987"/>
</svg>
