<svg width="32" height="32" viewBox="0 0 32 32" fill="none" xmlns="http://www.w3.org/2000/svg">
<path d="M16 3.5C12.6848 3.5 9.50538 4.81696 7.16117 7.16117C4.81697 9.50537 3.50001 12.6848 3.50001 16C3.50001 18.4723 4.23312 20.889 5.60664 22.9446C6.98015 25.0002 8.93239 26.6024 11.2165 27.5485C13.5005 28.4946 16.0139 28.7421 18.4386 28.2598C20.8634 27.7775 23.0907 26.587 24.8388 24.8388C26.587 23.0907 27.7775 20.8634 28.2598 18.4386C28.7421 16.0139 28.4946 13.5005 27.5485 11.2165C26.6024 8.93238 25.0002 6.98015 22.9446 5.60663C20.889 4.23311 18.4723 3.5 16 3.5ZM16 1C19.9783 1 23.7936 2.58035 26.6066 5.3934C29.4197 8.20644 31 12.0218 31 16C31 18.9667 30.1203 21.8668 28.4721 24.3336C26.8238 26.8003 24.4812 28.7229 21.7403 29.8582C18.9994 30.9935 15.9834 31.2906 13.0737 30.7118C10.1639 30.133 7.49119 28.7044 5.3934 26.6066C3.29562 24.5088 1.86701 21.8361 1.28823 18.9264C0.709449 16.0166 1.0065 13.0006 2.14181 10.2597C3.27713 7.51886 5.19972 5.17618 7.66645 3.52796C10.1332 1.87973 13.0333 1 16 1Z" fill="#092987"/>
<path d="M16 25.1973C14.8954 25.1973 14 24.3018 14 23.1973C14 22.0927 14.8954 21.1973 16 21.1973C17.1046 21.1973 18 22.0927 18 23.1973C18 24.3018 17.1046 25.1973 16 25.1973Z" fill="#092987"/>
<path d="M17.6084 18.6069C17.5812 19 17.2543 19.305 16.8602 19.305H15.106C14.7021 19.305 14.3667 18.9845 14.3914 18.5813C14.4335 17.8914 14.5707 17.2095 14.8 16.555C15.1533 15.7771 15.6777 15.089 16.334 14.542C16.9089 14.0754 17.4141 13.5288 17.834 12.919C18.078 12.5223 18.2071 12.0657 18.207 11.6C18.2077 10.2 17.5647 9.5 16.278 9.5C16.0085 9.48702 15.7391 9.52998 15.487 9.62619C15.2349 9.72239 15.0054 9.86976 14.813 10.059C14.6021 10.2912 14.4449 10.563 14.3482 10.8555C14.2157 11.2566 13.888 11.615 13.4655 11.615H11.3728C10.9706 11.615 10.6336 11.2961 10.6777 10.8963C10.7268 10.4508 10.8386 10.0133 11.0106 9.59686C11.2746 8.958 11.6743 8.38414 12.182 7.915C13.1722 7 14.7914 6.58909 16.2552 6.57637C17.7189 6.56365 19.357 6.92759 20.351 7.844C20.8425 8.29711 21.2273 8.85358 21.4779 9.47331C21.7285 10.0931 21.8385 10.7606 21.8 11.428C21.8012 12.1172 21.6398 12.7969 21.329 13.412C20.8969 14.1878 20.3413 14.888 19.684 15.485L18.684 16.441C18.0836 16.9935 17.703 17.7442 17.612 18.555L17.6084 18.6069Z" fill="#092987"/>
</svg>
