<svg width="32" height="33" viewBox="0 0 32 33" fill="none" xmlns="http://www.w3.org/2000/svg">
<path fill-rule="evenodd" clip-rule="evenodd" d="M28.2754 14.4271C28.8379 14.8273 29.6184 14.6958 30.0186 14.1333C30.4188 13.5708 30.2873 12.7904 29.7248 12.3901L17.1596 3.44952C16.4655 2.95563 15.5347 2.95563 14.8406 3.44952L2.27541 12.3901C1.71291 12.7904 1.58137 13.5708 1.98161 14.1333C2.38185 14.6958 3.1623 14.8273 3.72479 14.4271L5.00012 13.5197V27.4089C5.00012 28.5139 5.89605 29.4086 7.00012 29.4086H12.5001C13.6047 29.4086 14.5001 28.5132 14.5001 27.4086V21.9086H17.5001V27.4086C17.5001 28.5132 18.3956 29.4086 19.5001 29.4086H25.0001C26.1047 29.4086 27.0001 28.5132 27.0001 27.4086V13.5197L28.2754 14.4271ZM24.5001 11.7408L16.0001 5.69276L7.50012 11.7408V26.9086H12.0001V21.4086C12.0001 20.3041 12.8956 19.4086 14.0001 19.4086H18.0001C19.1047 19.4086 20.0001 20.3041 20.0001 21.4086V26.9086H24.5001V11.7408Z" fill="#092987"/>
</svg>
