<svg width="32" height="33" viewBox="0 0 32 33" fill="none" xmlns="http://www.w3.org/2000/svg">
<path d="M4.375 1.4082C3.61561 1.4082 3 2.02381 3 2.7832V30.0332C3 30.7926 3.61561 31.4082 4.375 31.4082C5.13439 31.4082 5.75 30.7926 5.75 30.0332V29.4082H23.25C23.6642 29.4082 24 29.0727 24 28.6585V26.6579C24 26.2437 23.6642 25.9082 23.25 25.9082H5.75V21.9082H28.25C28.6642 21.9082 29 21.5727 29 21.1585V19.1579C29 18.7437 28.6642 18.4082 28.25 18.4082H5.75V14.4082H18.25C18.6642 14.4082 19 14.0727 19 13.6585V11.6579C19 11.2437 18.6642 10.9082 18.25 10.9082H5.75V6.9082H11.25C11.6642 6.9082 12 6.57268 12 6.15847V4.15794C12 3.74373 11.6642 3.4082 11.25 3.4082H5.75V2.7832C5.75 2.02381 5.13439 1.4082 4.375 1.4082Z" fill="#092987"/>
</svg>
