<svg width="32" height="32" viewBox="0 0 32 32" fill="none" xmlns="http://www.w3.org/2000/svg">
<path d="M18.2223 9.33331C18.2223 10.5606 17.2274 11.5555 16.0001 11.5555C14.7728 11.5555 13.7778 10.5606 13.7778 9.33331C13.7778 8.10601 14.7728 7.11108 16.0001 7.11108C17.2274 7.11108 18.2223 8.10601 18.2223 9.33331Z" fill="#092987"/>
<path d="M14.5 15.7222C14.5 14.8938 15.1716 14.2222 16 14.2222C16.8284 14.2222 17.5 14.8938 17.5 15.7222V23.7222C17.5 24.5507 16.8284 25.2222 16 25.2222C15.1716 25.2222 14.5 24.5507 14.5 23.7222V15.7222Z" fill="#092987"/>
<path d="M16 31C12.0218 31 8.20644 29.4197 5.3934 26.6066C2.58035 23.7936 1 19.9783 1 16C1 13.0333 1.87973 10.1332 3.52796 7.66645C5.17618 5.19972 7.51886 3.27713 10.2597 2.14181C13.0006 1.0065 16.0166 0.709449 18.9264 1.28823C21.8361 1.86701 24.5088 3.29562 26.6066 5.3934C28.7044 7.49119 30.133 10.1639 30.7118 13.0737C31.2906 15.9834 30.9935 18.9994 29.8582 21.7403C28.7229 24.4812 26.8003 26.8238 24.3336 28.4721C21.8668 30.1203 18.9667 31 16 31ZM16 28.5C17.6415 28.5 19.267 28.1767 20.7835 27.5485C22.3001 26.9203 23.6781 25.9996 24.8388 24.8388C25.9996 23.6781 26.9203 22.3001 27.5485 20.7836C28.1767 19.267 28.5 17.6415 28.5 16C28.5 13.5277 27.7669 11.111 26.3934 9.05538C25.0199 6.99977 23.0676 5.39761 20.7835 4.45151C18.4995 3.50542 15.9861 3.25788 13.5614 3.74019C11.1366 4.22251 8.90932 5.41302 7.16117 7.16117C5.41301 8.90933 4.2225 11.1366 3.74018 13.5614C3.25787 15.9861 3.50541 18.4995 4.45151 20.7836C5.3976 23.0676 6.99976 25.0199 9.05537 26.3934C11.111 27.7669 13.5277 28.5 16 28.5Z" fill="#092987"/>
</svg>
