<svg width="32" height="33" viewBox="0 0 32 33" fill="none" xmlns="http://www.w3.org/2000/svg">
<path d="M5.5 10.9082V26.9082H21.5V10.9082H5.5ZM5 8.4082H22C23.1046 8.4082 24 9.30363 24 10.4082V27.4082C24 28.5128 23.1046 29.4082 22 29.4082H5C3.89543 29.4082 3 28.5128 3 27.4082V10.4082C3 9.30363 3.89543 8.4082 5 8.4082Z" fill="#092987"/>
<path d="M8.75 5.4082C8.75 4.30363 9.64543 3.4082 10.75 3.4082H27C28.1046 3.4082 29 4.30363 29 5.4082V21.6582C29 22.7628 28.1046 23.6582 27 23.6582H25V21.1582H26.5V5.9082H11.25V7.4082H8.75V5.4082Z" fill="#092987"/>
<path d="M14.75 14.062V17.6582H18.3462C18.9834 17.6582 19.5 18.2178 19.5 18.9082C19.5 19.5986 18.9834 20.1582 18.3462 20.1582H14.75V23.7544C14.75 24.3916 14.1904 24.9082 13.5 24.9082C12.8096 24.9082 12.25 24.3916 12.25 23.7544V20.1582H8.65385C8.01659 20.1582 7.5 19.5986 7.5 18.9082C7.5 18.2178 8.01659 17.6582 8.65385 17.6582H12.25V14.062C12.25 13.4248 12.8096 12.9082 13.5 12.9082C14.1904 12.9082 14.75 13.4248 14.75 14.062Z" fill="#092987"/>
</svg>
