<svg width="32" height="33" viewBox="0 0 32 33" fill="none" xmlns="http://www.w3.org/2000/svg">
<path d="M3 4.1582C3 3.74399 3.33579 3.4082 3.75 3.4082H8.25C8.66421 3.4082 9 3.74399 9 4.1582V8.6582C9 9.07242 8.66421 9.4082 8.25 9.4082H3.75C3.33579 9.4082 3 9.07242 3 8.6582V4.1582Z" fill="#092987"/>
<path d="M3 14.1582C3 13.744 3.33579 13.4082 3.75 13.4082H8.25C8.66421 13.4082 9 13.744 9 14.1582V18.6582C9 19.0724 8.66421 19.4082 8.25 19.4082H3.75C3.33579 19.4082 3 19.0724 3 18.6582V14.1582Z" fill="#092987"/>
<path d="M3 24.1582C3 23.744 3.33579 23.4082 3.75 23.4082H8.25C8.66421 23.4082 9 23.744 9 24.1582V28.6582C9 29.0724 8.66421 29.4082 8.25 29.4082H3.75C3.33579 29.4082 3 29.0724 3 28.6582V24.1582Z" fill="#092987"/>
<path d="M13 4.1582C13 3.74399 13.3358 3.4082 13.75 3.4082H18.25C18.6642 3.4082 19 3.74399 19 4.1582V8.6582C19 9.07242 18.6642 9.4082 18.25 9.4082H13.75C13.3358 9.4082 13 9.07242 13 8.6582V4.1582Z" fill="#092987"/>
<path d="M13 14.1582C13 13.744 13.3358 13.4082 13.75 13.4082H18.25C18.6642 13.4082 19 13.744 19 14.1582V18.6582C19 19.0724 18.6642 19.4082 18.25 19.4082H13.75C13.3358 19.4082 13 19.0724 13 18.6582V14.1582Z" fill="#092987"/>
<path d="M13 24.1582C13 23.744 13.3358 23.4082 13.75 23.4082H18.25C18.6642 23.4082 19 23.744 19 24.1582V28.6582C19 29.0724 18.6642 29.4082 18.25 29.4082H13.75C13.3358 29.4082 13 29.0724 13 28.6582V24.1582Z" fill="#092987"/>
<path d="M23 4.1582C23 3.74399 23.3358 3.4082 23.75 3.4082H28.25C28.6642 3.4082 29 3.74399 29 4.1582V8.6582C29 9.07242 28.6642 9.4082 28.25 9.4082H23.75C23.3358 9.4082 23 9.07242 23 8.6582V4.1582Z" fill="#092987"/>
<path d="M23 14.1582C23 13.744 23.3358 13.4082 23.75 13.4082H28.25C28.6642 13.4082 29 13.744 29 14.1582V18.6582C29 19.0724 28.6642 19.4082 28.25 19.4082H23.75C23.3358 19.4082 23 19.0724 23 18.6582V14.1582Z" fill="#092987"/>
<path d="M23 24.1582C23 23.744 23.3358 23.4082 23.75 23.4082H28.25C28.6642 23.4082 29 23.744 29 24.1582V28.6582C29 29.0724 28.6642 29.4082 28.25 29.4082H23.75C23.3358 29.4082 23 29.0724 23 28.6582V24.1582Z" fill="#092987"/>
</svg>
