<svg width="32" height="33" viewBox="0 0 32 33" fill="none" xmlns="http://www.w3.org/2000/svg">
<path d="M26 9.4082C27.6569 9.4082 29 8.06506 29 6.4082C29 4.75135 27.6569 3.4082 26 3.4082C24.3431 3.4082 23 4.75135 23 6.4082C23 6.77577 23.0661 7.12791 23.1871 7.45336L7.04516 23.5953C6.7197 23.4743 6.36757 23.4082 6 23.4082C4.34315 23.4082 3 24.7513 3 26.4082C3 28.0651 4.34315 29.4082 6 29.4082C7.65685 29.4082 9 28.0651 9 26.4082C9 26.0406 8.93389 25.6885 8.81292 25.363L24.9548 9.22113C25.2803 9.3421 25.6324 9.4082 26 9.4082Z" fill="#092987"/>
</svg>
