<svg width="32" height="33" viewBox="0 0 32 33" fill="none" xmlns="http://www.w3.org/2000/svg">
<path d="M23 4.4082C23 6.06506 21.6569 7.4082 20 7.4082C19.6324 7.4082 19.2803 7.3421 18.9548 7.22113L6.81292 19.363C6.93389 19.6885 7 20.0406 7 20.4082C7 22.0651 5.65685 23.4082 4 23.4082C2.34315 23.4082 1 22.0651 1 20.4082C1 18.7513 2.34315 17.4082 4 17.4082C4.36757 17.4082 4.7197 17.4743 5.04516 17.5953L17.1871 5.45336C17.0661 5.12791 17 4.77577 17 4.4082C17 2.75135 18.3431 1.4082 20 1.4082C21.6569 1.4082 23 2.75135 23 4.4082Z" fill="#092987"/>
<path d="M28 15.4082C29.6569 15.4082 31 14.0651 31 12.4082C31 10.7513 29.6569 9.4082 28 9.4082C26.3431 9.4082 25 10.7513 25 12.4082C25 12.7758 25.0661 13.1279 25.1871 13.4534L13.0452 25.5953C12.7197 25.4743 12.3676 25.4082 12 25.4082C10.3431 25.4082 9 26.7513 9 28.4082C9 30.0651 10.3431 31.4082 12 31.4082C13.6569 31.4082 15 30.0651 15 28.4082C15 28.0406 14.9339 27.6885 14.8129 27.363L26.9548 15.2211C27.2803 15.3421 27.6324 15.4082 28 15.4082Z" fill="#092987"/>
</svg>
