<svg width="32" height="33" viewBox="0 0 32 33" fill="none" xmlns="http://www.w3.org/2000/svg">
<path d="M10 24.6582C10 23.6917 10.7835 22.9082 11.75 22.9082H28.25C29.2165 22.9082 30 23.6917 30 24.6582C30 25.6247 29.2165 26.4082 28.25 26.4082H11.75C10.7835 26.4082 10 25.6247 10 24.6582Z" fill="#092987"/>
<path d="M10 16.4082C10 15.4417 10.7835 14.6582 11.75 14.6582H28.25C29.2165 14.6582 30 15.4417 30 16.4082C30 17.3747 29.2165 18.1582 28.25 18.1582H11.75C10.7835 18.1582 10 17.3747 10 16.4082Z" fill="#092987"/>
<path d="M10 8.1582C10 7.1917 10.7835 6.4082 11.75 6.4082H28.25C29.2165 6.4082 30 7.1917 30 8.1582C30 9.1247 29.2165 9.9082 28.25 9.9082H11.75C10.7835 9.9082 10 9.1247 10 8.1582Z" fill="#092987"/>
<path d="M2 24.6582C2 23.5536 2.89543 22.6582 4 22.6582C5.10457 22.6582 6 23.5536 6 24.6582C6 25.7628 5.10457 26.6582 4 26.6582C2.89543 26.6582 2 25.7628 2 24.6582Z" fill="#092987"/>
<path d="M2 16.4082C2 15.3036 2.89543 14.4082 4 14.4082C5.10457 14.4082 6 15.3036 6 16.4082C6 17.5128 5.10457 18.4082 4 18.4082C2.89543 18.4082 2 17.5128 2 16.4082Z" fill="#092987"/>
<path d="M2 8.1582C2 7.05363 2.89543 6.1582 4 6.1582C5.10457 6.1582 6 7.05363 6 8.1582C6 9.26277 5.10457 10.1582 4 10.1582C2.89543 10.1582 2 9.26277 2 8.1582Z" fill="#092987"/>
</svg>
