<svg width="32" height="32" viewBox="0 0 32 32" fill="none" xmlns="http://www.w3.org/2000/svg">
<path d="M29 3V29C29 29.5304 28.7893 30.0391 28.4142 30.4142C28.0391 30.7893 27.5304 31 27 31H11C10.4696 31 9.96086 30.7893 9.58579 30.4142C9.21071 30.0391 9 29.5304 9 29V22.25C9 21.9185 9.1317 21.6005 9.36612 21.3661C9.60054 21.1317 9.91848 21 10.25 21C10.5815 21 10.8995 21.1317 11.1339 21.3661C11.3683 21.6005 11.5 21.9185 11.5 22.25V28.5H26.5V3.5H11.5V9.75C11.5 10.0815 11.3683 10.3995 11.1339 10.6339C10.8995 10.8683 10.5815 11 10.25 11C9.91848 11 9.60054 10.8683 9.36612 10.6339C9.1317 10.3995 9 10.0815 9 9.75V3C9 2.46957 9.21071 1.96086 9.58579 1.58579C9.96086 1.21071 10.4696 1 11 1H27C27.5304 1 28.0391 1.21071 28.4142 1.58579C28.7893 1.96086 29 2.46957 29 3ZM13.586 19.338V17.25H4.25C3.91848 17.25 3.60054 17.1183 3.36612 16.8839C3.1317 16.6495 3 16.3315 3 16C3 15.6685 3.1317 15.3505 3.36612 15.1161C3.60054 14.8817 3.91848 14.75 4.25 14.75H13.586V12.662C13.5859 12.5701 13.6112 12.4799 13.6591 12.4014C13.7069 12.3229 13.7755 12.2591 13.8572 12.217C13.939 12.1749 14.0308 12.1562 14.1225 12.1629C14.2142 12.1696 14.3022 12.2015 14.377 12.255L19.041 15.593C19.1058 15.6393 19.1586 15.7003 19.1951 15.7711C19.2316 15.8419 19.2506 15.9204 19.2506 16C19.2506 16.0796 19.2316 16.1581 19.1951 16.2289C19.1586 16.2997 19.1058 16.3607 19.041 16.407L14.377 19.745C14.3022 19.7985 14.2142 19.8304 14.1225 19.8371C14.0308 19.8438 13.939 19.8251 13.8572 19.783C13.7755 19.7409 13.7069 19.6771 13.6591 19.5986C13.6112 19.5201 13.5859 19.4299 13.586 19.338Z" fill="#092987"/>
</svg>
