<svg width="32" height="33" viewBox="0 0 32 33" fill="none" xmlns="http://www.w3.org/2000/svg">
<path d="M9.95442 28.0389C6.16819 28.0389 3.59375 24.6712 3.59375 19.0634C3.59375 13.4556 6.16819 10.2729 9.95442 10.2729C13.7406 10.2729 16.3151 13.4478 16.3151 19.0634C16.3151 24.6789 13.7406 28.0389 9.95442 28.0389ZM9.95442 24.4954V24.5001C11.7822 24.5001 12.9209 22.3798 12.9209 19.0649C12.9209 15.7501 11.7837 13.7947 9.95442 13.7947C8.12508 13.7947 7.00664 15.7283 7.00664 19.0649C7.00664 22.4016 8.12664 24.4954 9.95442 24.4954ZM18.4563 27.7169C18.1801 27.7169 17.9562 27.493 17.9563 27.2169L17.9592 11.0964C17.9593 10.8203 18.1831 10.5965 18.4592 10.5965H22.8282C25.8864 10.5965 28.4049 11.9312 28.4049 16.1654C28.4049 20.2378 25.8506 22.0329 22.9215 22.0329H21.2991V27.2169C21.2991 27.4931 21.0752 27.7169 20.7991 27.7169H18.4563ZM21.2944 18.7881H22.7489C24.3775 18.7881 25.1553 17.8438 25.1553 16.1638C25.1553 14.4387 24.2593 13.8398 22.6555 13.8398H21.2944V18.7881Z" fill="#092987"/>
<path d="M2 13.7184C5.15654 10.0844 9.14413 7.26742 13.6241 5.50691C16.6361 4.19346 19.8758 3.48186 23.161 3.41283C24.2354 3.37891 25.3077 3.5316 26.3299 3.86401C28.4594 4.65578 29.6717 5.74951 29.9392 7.11373C30.3763 9.37085 28.0436 11.6435 27.776 11.8955C28.1407 11.1663 28.2738 10.343 28.1558 9.53631C28.0379 8.72967 27.6749 7.97834 27.1168 7.38413C25.2781 6.20054 23.1187 5.61544 20.934 5.70895C20.4094 5.70714 19.8856 5.74364 19.3663 5.81794C16.6828 6.18783 14.057 6.9084 11.5612 7.96139C8.13936 9.46087 4.92626 11.3958 2 13.7184Z" fill="#092987"/>
</svg>
