<svg width="32" height="32" viewBox="0 0 32 32" fill="none" xmlns="http://www.w3.org/2000/svg">
<path d="M23 22.25V29C23 29.5304 22.7893 30.0391 22.4142 30.4142C22.0391 30.7893 21.5304 31 21 31H5C4.46957 31 3.96086 30.7893 3.58579 30.4142C3.21071 30.0391 3 29.5304 3 29V3C3 2.46957 3.21071 1.96086 3.58579 1.58579C3.96086 1.21071 4.46957 1 5 1H21C21.5304 1 22.0391 1.21071 22.4142 1.58579C22.7893 1.96086 23 2.46957 23 3V9.75C23 10.0815 22.8683 10.3995 22.6339 10.6339C22.3995 10.8683 22.0815 11 21.75 11C21.4185 11 21.1005 10.8683 20.8661 10.6339C20.6317 10.3995 20.5 10.0815 20.5 9.75V3.5H5.5V28.5H20.5V22.25C20.5 21.9185 20.6317 21.6005 20.8661 21.3661C21.1005 21.1317 21.4185 21 21.75 21C22.0815 21 22.3995 21.1317 22.6339 21.3661C22.8683 21.6005 23 21.9185 23 22.25ZM30.791 15.593C30.8558 15.6393 30.9086 15.7003 30.9451 15.7711C30.9816 15.8419 31.0006 15.9204 31.0006 16C31.0006 16.0796 30.9816 16.1581 30.9451 16.2289C30.9086 16.2997 30.8558 16.3607 30.791 16.407L26.127 19.745C26.0522 19.7985 25.9642 19.8304 25.8725 19.8371C25.7808 19.8438 25.689 19.8251 25.6072 19.783C25.5255 19.7409 25.4569 19.6771 25.4091 19.5986C25.3612 19.5201 25.3359 19.4299 25.336 19.338V17.25H16C15.6685 17.25 15.3505 17.1183 15.1161 16.8839C14.8817 16.6495 14.75 16.3315 14.75 16C14.75 15.6685 14.8817 15.3505 15.1161 15.1161C15.3505 14.8817 15.6685 14.75 16 14.75H25.336V12.662C25.3359 12.5701 25.3612 12.4799 25.4091 12.4014C25.4569 12.3229 25.5255 12.2591 25.6072 12.217C25.689 12.1749 25.7808 12.1562 25.8725 12.1629C25.9642 12.1696 26.0522 12.2015 26.127 12.255L30.791 15.593Z" fill="#092987"/>
</svg>
