<svg width="32" height="33" viewBox="0 0 32 33" fill="none" xmlns="http://www.w3.org/2000/svg">
<path d="M21.1879 25.763C20.5797 25.763 20.4895 25.6728 20.4895 24.8842V20.0417H25.7528C26.029 20.0417 26.2528 19.8179 26.2528 19.5417V17.3886C26.2528 17.1125 26.029 16.8886 25.7528 16.8886H17.7844V13.7137H23.8862C24.1623 13.7137 24.3862 13.4899 24.3862 13.2137V11.0839C24.3862 10.8078 24.1623 10.5839 23.8862 10.5839H17.7875V8.28394C17.7875 8.00779 17.5636 7.78394 17.2875 7.78394H14.9539C14.6778 7.78394 14.4539 8.00779 14.4539 8.28394V10.5839H12.1564C12.3031 10.11 12.4383 9.6361 12.5704 9.17109C12.6504 8.88927 12.4725 8.59887 12.185 8.54252L9.8854 8.09182C9.611 8.03804 9.34651 8.21991 9.29006 8.49377C8.8396 10.6792 7.99777 12.7649 6.80555 14.6503C6.63301 14.9231 6.74788 15.2894 7.04511 15.4154C7.71142 15.6978 8.35976 16.021 8.98643 16.3831C9.21336 16.5142 9.50511 16.4567 9.65117 16.2391C10.1848 15.444 10.6395 14.5982 11.0084 13.7137H14.4539V16.8886H6.46372C6.18758 16.8886 5.96372 17.1125 5.96372 17.3886V19.5417C5.96372 19.8179 6.18758 20.0417 6.46372 20.0417H11.0084C10.6918 22.4489 10.0181 24.6797 6.35003 26.1179C6.00227 26.2542 5.89339 26.7079 6.13644 26.9916C6.63286 27.5709 7.06375 28.2038 7.42101 28.8787C7.54454 29.1121 7.82349 29.2232 8.06597 29.1187C12.8995 27.0344 14.0223 23.7458 14.4757 20.0417H17.1777V24.9059C17.1777 27.8335 17.8311 28.8477 20.6684 28.8477H22.9659C25.15 28.8477 26.0256 27.9123 26.3713 24.5674C26.3966 24.3227 26.2352 24.0985 25.9991 24.0292C25.376 23.8463 24.7729 23.6022 24.1985 23.3007C23.8551 23.1203 23.4216 23.3497 23.4015 23.7371C23.3114 25.4735 23.1603 25.763 22.6502 25.763H21.1879Z" fill="#092987"/>
<path d="M2 13.7229C3.92849 11.4798 6.18833 9.54516 8.70226 7.98608C8.57781 8.49941 8.43113 9.01891 8.2678 9.52758C6.0736 10.7631 3.97887 12.1657 2 13.7229ZM27.773 11.8905C28.1466 11.1638 28.2826 10.3389 28.1649 9.53024C28.0473 8.7216 27.682 7.96969 27.1168 7.37958C25.2781 6.19598 23.1187 5.61088 20.934 5.70439C20.4094 5.70258 19.8857 5.7387 19.3663 5.81301C17.7695 6.00326 16.194 6.34732 14.6632 6.83992H14.1972C14.0754 6.83992 13.9766 6.93871 13.9766 7.06057C13.3932 7.25345 12.8009 7.4665 12.2114 7.69517L9.94488 7.24742C11.1281 6.58195 12.3579 6.00233 13.6241 5.51299C16.6349 4.19489 19.8751 3.48122 23.161 3.41283C24.2354 3.37891 25.3077 3.5316 26.3299 3.86401C28.4594 4.65734 29.6749 5.75069 29.9332 7.11335C30.3718 9.37047 28.0406 11.6401 27.773 11.8905Z" fill="#092987"/>
</svg>
