<svg width="32" height="33" viewBox="0 0 32 33" fill="none" xmlns="http://www.w3.org/2000/svg">
<path d="M19.5 15.4082C19.5 13.4752 17.933 11.9082 16 11.9082C14.067 11.9082 12.5 13.4752 12.5 15.4082L12.5001 28.6582C12.5001 29.0724 12.1643 29.4082 11.7501 29.4082H4.25C3.83579 29.4082 3.5 29.0724 3.5 28.6582V15.4082C3.5 8.50464 9.09644 2.9082 16 2.9082C22.9036 2.9082 28.5 8.50464 28.5 15.4082L28.5001 28.6582C28.5001 29.0724 28.1643 29.4082 27.7501 29.4082H20.25C19.8358 29.4082 19.5 29.0724 19.5 28.6582V15.4082ZM16 5.4082C11.3404 5.4082 7.42515 8.59513 6.31504 12.9082C6.10938 13.7073 6 14.545 6 15.4082H10C10 12.0945 12.6863 9.4082 16 9.4082C19.3137 9.4082 22 12.0945 22 15.4082H26C26 14.545 25.8906 13.7073 25.685 12.9082C24.5748 8.59513 20.6596 5.4082 16 5.4082Z" fill="#092987"/>
</svg>
