<svg width="32" height="32" viewBox="0 0 32 32" fill="none" xmlns="http://www.w3.org/2000/svg">
<path d="M19 26C19 26.3315 18.8683 26.6495 18.6339 26.8839C18.3995 27.1183 18.0815 27.25 17.75 27.25H3C2.46957 27.25 1.96086 27.0393 1.58579 26.6642C1.21071 26.2891 1 25.7804 1 25.25V8C1 7.46957 1.21071 6.96086 1.58579 6.58579C1.96086 6.21071 2.46957 6 3 6H29C29.5304 6 30.0391 6.21071 30.4142 6.58579C30.7893 6.96086 31 7.46957 31 8V17.75C31 18.0815 30.8683 18.3995 30.6339 18.6339C30.3995 18.8683 30.0815 19 29.75 19C29.4185 19 29.1005 18.8683 28.8661 18.6339C28.6317 18.3995 28.5 18.0815 28.5 17.75V8.5H3.5V24.75H17.75C18.0815 24.75 18.3995 24.8817 18.6339 25.1161C18.8683 25.3505 19 25.6685 19 26ZM29.75 24.75C30.0815 24.75 30.3995 24.8817 30.6339 25.1161C30.8683 25.3505 31 25.6685 31 26C31 26.3315 30.8683 26.6495 30.6339 26.8839C30.3995 27.1183 30.0815 27.25 29.75 27.25H27.25V29.75C27.25 30.0815 27.1183 30.3995 26.8839 30.6339C26.6495 30.8683 26.3315 31 26 31C25.6685 31 25.3505 30.8683 25.1161 30.6339C24.8817 30.3995 24.75 30.0815 24.75 29.75V27.25H22.25C21.9185 27.25 21.6005 27.1183 21.3661 26.8839C21.1317 26.6495 21 26.3315 21 26C21 25.6685 21.1317 25.3505 21.3661 25.1161C21.6005 24.8817 21.9185 24.75 22.25 24.75H24.75V22.25C24.75 21.9185 24.8817 21.6005 25.1161 21.3661C25.3505 21.1317 25.6685 21 26 21C26.3315 21 26.6495 21.1317 26.8839 21.3661C27.1183 21.6005 27.25 21.9185 27.25 22.25V24.75H29.75ZM16.6 17.85H16.595C16.4121 17.9485 16.2077 18 16 18C15.7923 18 15.5879 17.9485 15.405 17.85L6.155 12.85C5.8719 12.6876 5.66347 12.421 5.57419 12.1071C5.48491 11.7931 5.52186 11.4567 5.67714 11.1697C5.83241 10.8826 6.09373 10.6676 6.40533 10.5705C6.71694 10.4734 7.05414 10.5019 7.345 10.65L16 15.329L24.66 10.65C24.9509 10.5019 25.2881 10.4734 25.5997 10.5705C25.9113 10.6676 26.1726 10.8826 26.3279 11.1697C26.4831 11.4567 26.5201 11.7931 26.4308 12.1071C26.3415 12.421 26.1331 12.6876 25.85 12.85L16.6 17.85Z" fill="#092987"/>
</svg>
