<svg width="32" height="33" viewBox="0 0 32 33" fill="none" xmlns="http://www.w3.org/2000/svg">
<path d="M11.05 15.4082C10.4977 15.4082 10.05 15.856 10.05 16.4082C10.05 16.9604 10.4977 17.4082 11.05 17.4082H11.95C12.5023 17.4082 12.95 16.9604 12.95 16.4082C12.95 15.856 12.5023 15.4082 11.95 15.4082H11.05Z" fill="#092987"/>
<path d="M15.55 15.4082C14.9977 15.4082 14.55 15.856 14.55 16.4082C14.55 16.9604 14.9977 17.4082 15.55 17.4082H16.45C17.0023 17.4082 17.45 16.9604 17.45 16.4082C17.45 15.856 17.0023 15.4082 16.45 15.4082H15.55Z" fill="#092987"/>
<path d="M20.05 15.4082C19.4977 15.4082 19.05 15.856 19.05 16.4082C19.05 16.9604 19.4977 17.4082 20.05 17.4082H20.95C21.5023 17.4082 21.95 16.9604 21.95 16.4082C21.95 15.856 21.5023 15.4082 20.95 15.4082H20.05Z" fill="#092987"/>
<path fill-rule="evenodd" clip-rule="evenodd" d="M6 29.4082C6 30.5128 6.89545 31.4082 8 31.4082H24C25.1046 31.4082 26 30.5128 26 29.4082V3.4082C26 2.30359 25.1046 1.4082 24 1.4082H8C6.89545 1.4082 6 2.30359 6 3.4082V29.4082ZM8.5 6.4082V27.4082H23.5V6.4082H8.5ZM14 3.9082C14 3.63208 14.2239 3.4082 14.5 3.4082H17.5C17.7761 3.4082 18 3.63208 18 3.9082C18 4.18433 17.7761 4.4082 17.5 4.4082H14.5C14.2239 4.4082 14 4.18433 14 3.9082Z" fill="#092987"/>
</svg>
