<svg width="32" height="33" viewBox="0 0 32 33" fill="none" xmlns="http://www.w3.org/2000/svg">
<path d="M13.9995 26.9082C19.7984 26.9082 24.4995 22.2072 24.4995 16.4082C24.4995 10.6092 19.7984 5.9082 13.9995 5.9082C13.3339 5.9082 12.6834 5.96987 12.0532 6.08781C15.3417 8.33916 17.4995 12.1204 17.4995 16.4082C17.4995 20.6961 15.3417 24.4772 12.0532 26.7286C12.6834 26.8465 13.3339 26.9082 13.9995 26.9082ZM8.79008 28.3224C8.65609 28.2637 8.52326 28.2029 8.39167 28.1398C7.96082 27.9335 7.54311 27.7042 7.14013 27.4534C6.97778 27.3523 6.81783 27.2478 6.66037 27.1399C6.28824 26.885 6.46077 26.3125 6.90371 26.2271C7.05454 26.198 7.20417 26.1656 7.35251 26.1298C7.80475 26.0207 8.24502 25.8809 8.67096 25.7127C8.75792 25.6783 8.84428 25.6428 8.93003 25.6061C12.4989 24.0791 14.9995 20.5357 14.9995 16.4082C14.9995 12.2808 12.4989 8.73734 8.93003 7.21027C8.84429 7.17359 8.75793 7.13806 8.67097 7.10372C8.24502 6.9355 7.80476 6.79569 7.35251 6.68662C7.20417 6.65084 7.05455 6.61837 6.90371 6.58929C6.46077 6.5039 6.28825 5.93144 6.66037 5.67647C6.81783 5.56858 6.97779 5.46407 7.14013 5.36303C7.54311 5.11224 7.96083 4.88289 8.39168 4.67657C8.52327 4.61355 8.65609 4.55269 8.79009 4.49401C10.385 3.79568 12.147 3.4082 13.9995 3.4082C21.1792 3.4082 26.9995 9.2285 26.9995 16.4082C26.9995 23.5879 21.1792 29.4082 13.9995 29.4082C12.147 29.4082 10.385 29.0207 8.79008 28.3224Z" fill="#092987"/>
</svg>
