<svg width="32" height="33" viewBox="0 0 32 33" fill="none" xmlns="http://www.w3.org/2000/svg">
<path d="M24.5 5.9082V21.9082H12.5V5.9082H24.5ZM25 3.4082H12C11.4696 3.4082 10.9609 3.61892 10.5858 3.99399C10.2107 4.36906 10 4.87777 10 5.4082V22.4082C10 22.9386 10.2107 23.4473 10.5858 23.8224C10.9609 24.1975 11.4696 24.4082 12 24.4082H25C25.5304 24.4082 26.0391 24.1975 26.4142 23.8224C26.7893 23.4473 27 22.9386 27 22.4082V5.4082C27 4.87777 26.7893 4.36906 26.4142 3.99399C26.0391 3.61892 25.5304 3.4082 25 3.4082ZM21.5 10.9082C21.5 10.5767 21.3683 10.2587 21.1339 10.0243C20.8995 9.7899 20.5815 9.6582 20.25 9.6582H16.75C16.4185 9.6582 16.1005 9.7899 15.8661 10.0243C15.6317 10.2587 15.5 10.5767 15.5 10.9082C15.5 11.2397 15.6317 11.5577 15.8661 11.7921C16.1005 12.0265 16.4185 12.1582 16.75 12.1582H20.25C20.5815 12.1582 20.8995 12.0265 21.1339 11.7921C21.3683 11.5577 21.5 11.2397 21.5 10.9082ZM21.5 16.9082C21.5 16.5767 21.3683 16.2587 21.1339 16.0243C20.8995 15.7899 20.5815 15.6582 20.25 15.6582H16.75C16.4185 15.6582 16.1005 15.7899 15.8661 16.0243C15.6317 16.2587 15.5 16.5767 15.5 16.9082C15.5 17.2397 15.6317 17.5577 15.8661 17.7921C16.1005 18.0265 16.4185 18.1582 16.75 18.1582H20.25C20.5815 18.1582 20.8995 18.0265 21.1339 17.7921C21.3683 17.5577 21.5 17.2397 21.5 16.9082ZM19 28.1582C19 27.8267 18.8683 27.5087 18.6339 27.2743C18.3995 27.0399 18.0815 26.9082 17.75 26.9082H7.5V15.6582C7.5 15.3267 7.3683 15.0087 7.13388 14.7743C6.89946 14.5399 6.58152 14.4082 6.25 14.4082C5.91848 14.4082 5.60054 14.5399 5.36612 14.7743C5.1317 15.0087 5 15.3267 5 15.6582V27.4082C5 27.9386 5.21071 28.4473 5.58579 28.8224C5.96086 29.1975 6.46957 29.4082 7 29.4082H17.75C18.0815 29.4082 18.3995 29.2765 18.6339 29.0421C18.8683 28.8077 19 28.4897 19 28.1582Z" fill="#092987"/>
</svg>
