<svg width="32" height="33" viewBox="0 0 32 33" fill="none" xmlns="http://www.w3.org/2000/svg">
<path d="M29 28.4082C29.5523 28.4082 30 28.8559 30 29.4082C30 29.9604 29.5523 30.4082 29 30.4082H3C2.44771 30.4082 2 29.9604 2 29.4082C2 28.8559 2.44772 28.4082 3 28.4082H29Z" fill="#092987"/>
<path d="M17.9998 6.40806L22.9496 11.3578L9.8297 24.4777L5.41058 24.4431C5.1375 24.441 4.91664 24.2201 4.91451 23.9471L4.87995 19.5279L17.9998 6.40806Z" fill="#092987"/>
<path d="M21.5853 2.82211C22.3663 2.04107 23.6327 2.04107 24.4137 2.82211L26.535 4.94343C27.3161 5.72448 27.3161 6.99081 26.535 7.77186L24.4137 9.89318L19.464 4.94343L21.5853 2.82211Z" fill="#092987"/>
</svg>
