<svg width="32" height="33" viewBox="0 0 32 33" fill="none" xmlns="http://www.w3.org/2000/svg">
<path d="M30.982 16.0432C30.984 16.1662 31 16.2852 31 16.4082C31 19.3749 30.1203 22.275 28.4721 24.7418C26.8238 27.2085 24.4812 29.1311 21.7403 30.2664C18.9994 31.4017 15.9834 31.6988 13.0737 31.12C10.1639 30.5412 7.49119 29.1126 5.3934 27.0148C3.29562 24.917 1.86701 22.2443 1.28823 19.3346C0.709449 16.4248 1.0065 13.4088 2.14181 10.668C3.27713 7.92706 5.19972 5.58438 7.66645 3.93616C10.1332 2.28794 13.0333 1.4082 16 1.4082C16.5211 1.4102 17.0418 1.4389 17.56 1.4942H17.588C18.0893 1.54694 18.5876 1.62504 19.081 1.7282C19.8718 1.89803 20.6473 2.13215 21.4 2.4282C21.811 2.5862 22.209 2.7622 22.6 2.9542L22.629 2.9712C23.021 3.1652 23.401 3.3742 23.773 3.6002C24.4091 3.98145 25.0161 4.40928 25.589 4.8802C25.898 5.1372 26.186 5.4012 26.481 5.6902C26.776 5.9792 27.055 6.2832 27.325 6.5952C27.7967 7.13851 28.2289 7.715 28.618 8.3202C28.851 8.6822 29.074 9.0522 29.274 9.4352C29.3 9.4832 29.32 9.5352 29.345 9.5832C29.524 9.9292 29.696 10.2712 29.845 10.6292C30.1499 11.3702 30.3944 12.1347 30.576 12.9152C30.6971 13.4202 30.7916 13.9313 30.859 14.4462V14.4572C30.9279 14.9833 30.969 15.5127 30.982 16.0432ZM25.673 24.3132C26.9901 22.7059 27.8829 20.7945 28.272 18.7532L24.192 22.8322L25.673 24.3132ZM28.425 15.0642H28.43C28.3395 14.2192 28.1619 13.3857 27.9 12.5772L20.917 19.5552L22.425 21.0642L28.425 15.0642ZM26.8 10.1402C26.437 9.51372 26.0205 8.91983 25.555 8.3652L17.64 16.2802L19.151 17.7892L26.8 10.1402ZM23.759 6.6262C23.1922 6.17178 22.5869 5.76759 21.95 5.4182L17.25 10.1182V13.1352L23.759 6.6262ZM17.25 6.5832L19.434 4.3992C18.7203 4.19143 17.9894 4.04818 17.25 3.9712V6.5832ZM3.50001 16.4082C3.49909 18.7731 4.16952 21.0896 5.43336 23.0885C6.6972 25.0873 8.5025 26.6863 10.6393 27.6996C12.7762 28.7128 15.1567 29.0986 17.5042 28.8121C19.8517 28.5256 22.0696 27.5786 23.9 26.0812L15.116 17.2922C14.8818 17.0576 14.7502 16.7397 14.75 16.4082V3.9712C11.6683 4.28475 8.81225 5.72988 6.73426 8.02713C4.65626 10.3244 3.50389 13.3106 3.50001 16.4082Z" fill="#092987"/>
</svg>
