<svg width="32" height="32" viewBox="0 0 32 32" fill="none" xmlns="http://www.w3.org/2000/svg">
<path d="M29.8268 6.20215C30.0197 6.205 30.2076 6.26356 30.3679 6.37077C30.5282 6.47799 30.6541 6.62927 30.7304 6.8064C30.8067 6.98353 30.8302 7.17895 30.798 7.36911C30.7657 7.55926 30.6792 7.73604 30.5488 7.87815L22.7348 16.4041C22.6041 16.5468 22.5176 16.7243 22.4858 16.9151L20.5778 28.3221C20.5388 28.5568 20.4174 28.7699 20.2354 28.9232C20.0534 29.0764 19.8227 29.1597 19.5848 29.1581C19.4368 29.1584 19.2906 29.1252 19.1573 29.0609C19.0239 28.9967 18.9069 28.9031 18.8148 28.7871L1.41481 7.33215C1.29586 7.18552 1.22085 7.00821 1.19846 6.82073C1.17607 6.63326 1.20722 6.44327 1.28829 6.27275C1.36936 6.10223 1.49706 5.95815 1.6566 5.85718C1.81614 5.7562 2.001 5.70245 2.18981 5.70215H2.20881L29.8268 6.20215ZM18.6578 24.6301L19.9768 16.7451L7.24781 10.5591L18.6578 24.6301ZM21.0838 14.5021L26.4518 8.64415L8.35181 8.31615L21.0838 14.5021Z" fill="#092987"/>
</svg>
