<svg width="32" height="33" viewBox="0 0 32 33" fill="none" xmlns="http://www.w3.org/2000/svg">
<path d="M23.064 15.7842C23.5093 16.0811 23.5093 16.7354 23.064 17.0323L13.1661 23.6309C12.6676 23.9632 12 23.6059 12 23.0068L12 9.80961C12 9.21059 12.6676 8.8533 13.1661 9.18557L23.064 15.7842Z" fill="#092987"/>
<path d="M16 28.9082C22.9036 28.9082 28.5 23.3118 28.5 16.4082C28.5 9.50464 22.9036 3.9082 16 3.9082C9.09644 3.9082 3.5 9.50464 3.5 16.4082C3.5 23.3118 9.09644 28.9082 16 28.9082ZM16 31.4082C7.71573 31.4082 1 24.6925 1 16.4082C1 8.12393 7.71573 1.4082 16 1.4082C24.2843 1.4082 31 8.12393 31 16.4082C31 24.6925 24.2843 31.4082 16 31.4082Z" fill="#092987"/>
</svg>
