<svg width="32" height="32" viewBox="0 0 32 32" fill="none" xmlns="http://www.w3.org/2000/svg">
<path d="M29 14C29.5304 14 30.0391 14.2107 30.4142 14.5858C30.7893 14.9609 31 15.4696 31 16C31 16.5304 30.7893 17.0391 30.4142 17.4142C30.0391 17.7893 29.5304 18 29 18H18V29C18 29.5304 17.7893 30.0391 17.4142 30.4142C17.0391 30.7893 16.5304 31 16 31C15.4696 31 14.9609 30.7893 14.5858 30.4142C14.2107 30.0391 14 29.5304 14 29V18H3C2.46957 18 1.96086 17.7893 1.58579 17.4142C1.21071 17.0391 1 16.5304 1 16C1 15.4696 1.21071 14.9609 1.58579 14.5858C1.96086 14.2107 2.46957 14 3 14H14V3C14 2.46957 14.2107 1.96086 14.5858 1.58579C14.9609 1.21071 15.4696 1 16 1C16.5304 1 17.0391 1.21071 17.4142 1.58579C17.7893 1.96086 18 2.46957 18 3V14H29Z" fill="#092987"/>
</svg>
