<svg width="32" height="33" viewBox="0 0 32 33" fill="none" xmlns="http://www.w3.org/2000/svg">
<path d="M3 6.4082C3 5.57978 3.67157 4.9082 4.5 4.9082H7.5C8.32843 4.9082 9 5.57978 9 6.4082C9 7.23663 8.32843 7.9082 7.5 7.9082H4.5C3.67157 7.9082 3 7.23663 3 6.4082Z" fill="#092987"/>
<path d="M23 16.4082C23 15.5798 23.6716 14.9082 24.5 14.9082H27.5C28.3284 14.9082 29 15.5798 29 16.4082C29 17.2366 28.3284 17.9082 27.5 17.9082H24.5C23.6716 17.9082 23 17.2366 23 16.4082Z" fill="#092987"/>
<path d="M3 11.4082C3 10.5798 3.67157 9.9082 4.5 9.9082H7.5C8.32843 9.9082 9 10.5798 9 11.4082C9 12.2366 8.32843 12.9082 7.5 12.9082H4.5C3.67157 12.9082 3 12.2366 3 11.4082Z" fill="#092987"/>
<path d="M11 11.4082C11 10.5798 11.6716 9.9082 12.5 9.9082H19.5C20.3284 9.9082 21 10.5798 21 11.4082C21 12.2366 20.3284 12.9082 19.5 12.9082H12.5C11.6716 12.9082 11 12.2366 11 11.4082Z" fill="#092987"/>
<path d="M3 16.4082C3 15.5798 3.67157 14.9082 4.5 14.9082H7.5C8.32843 14.9082 9 15.5798 9 16.4082C9 17.2366 8.32843 17.9082 7.5 17.9082H4.5C3.67157 17.9082 3 17.2366 3 16.4082Z" fill="#092987"/>
<path d="M23 21.4082C23 20.5798 23.6716 19.9082 24.5 19.9082H27.5C28.3284 19.9082 29 20.5798 29 21.4082C29 22.2366 28.3284 22.9082 27.5 22.9082H24.5C23.6716 22.9082 23 22.2366 23 21.4082Z" fill="#092987"/>
<path d="M11 16.4082C11 15.5798 11.6716 14.9082 12.5 14.9082H19.5C20.3284 14.9082 21 15.5798 21 16.4082C21 17.2366 20.3284 17.9082 19.5 17.9082H12.5C11.6716 17.9082 11 17.2366 11 16.4082Z" fill="#092987"/>
<path d="M23 26.4082C23 25.5798 23.6716 24.9082 24.5 24.9082H27.5C28.3284 24.9082 29 25.5798 29 26.4082C29 27.2366 28.3284 27.9082 27.5 27.9082H24.5C23.6716 27.9082 23 27.2366 23 26.4082Z" fill="#092987"/>
<path d="M11 21.4082C11 20.5798 11.6716 19.9082 12.5 19.9082H19.5C20.3284 19.9082 21 20.5798 21 21.4082C21 22.2366 20.3284 22.9082 19.5 22.9082H12.5C11.6716 22.9082 11 22.2366 11 21.4082Z" fill="#092987"/>
</svg>
