<svg width="32" height="33" viewBox="0 0 32 33" fill="none" xmlns="http://www.w3.org/2000/svg">
<path d="M29 9.6582C29.5304 9.6582 30.0391 9.86892 30.4142 10.244C30.7893 10.6191 31 11.1278 31 11.6582V22.1582C31 22.6886 30.7893 23.1973 30.4142 23.5724C30.0391 23.9475 29.5304 24.1582 29 24.1582H25V28.4082C25 28.9386 24.7893 29.4473 24.4142 29.8224C24.0391 30.1975 23.5304 30.4082 23 30.4082H9C8.46957 30.4082 7.96086 30.1975 7.58579 29.8224C7.21071 29.4473 7 28.9386 7 28.4082V24.1582H3C2.46957 24.1582 1.96086 23.9475 1.58579 23.5724C1.21071 23.1973 1 22.6886 1 22.1582V11.6582C1 11.1278 1.21071 10.6191 1.58579 10.244C1.96086 9.86892 2.46957 9.6582 3 9.6582H7V4.4082C7 3.87777 7.21071 3.36906 7.58579 2.99399C7.96086 2.61892 8.46957 2.4082 9 2.4082H23C23.5304 2.4082 24.0391 2.61892 24.4142 2.99399C24.7893 3.36906 25 3.87777 25 4.4082V9.6582H29ZM9.5 4.9082V9.6582H22.5V4.9082H9.5ZM22.5 27.9082V19.9082H9.5V27.9082H22.5ZM28.5 21.6582V12.1582H3.5V21.6582H7V19.4082C7 18.8778 7.21071 18.3691 7.58579 17.994C7.96086 17.6189 8.46957 17.4082 9 17.4082H23C23.5304 17.4082 24.0391 17.6189 24.4142 17.994C24.7893 18.3691 25 18.8778 25 19.4082V21.6582H28.5ZM25.5 13.4082C25.7967 13.4082 26.0867 13.4962 26.3334 13.661C26.58 13.8258 26.7723 14.0601 26.8858 14.3342C26.9993 14.6083 27.0291 14.9099 26.9712 15.2008C26.9133 15.4918 26.7704 15.7591 26.5607 15.9689C26.3509 16.1786 26.0836 16.3215 25.7926 16.3794C25.5017 16.4373 25.2001 16.4076 24.926 16.294C24.6519 16.1805 24.4176 15.9882 24.2528 15.7416C24.088 15.4949 24 15.2049 24 14.9082C24 14.5104 24.158 14.1288 24.4393 13.8475C24.7206 13.5662 25.1022 13.4082 25.5 13.4082Z" fill="#092987"/>
</svg>
