<svg width="32" height="32" viewBox="0 0 32 32" fill="none" xmlns="http://www.w3.org/2000/svg">
<path d="M5.50124 15.9988H5.54082C4.14965 15.1224 3.08097 13.8175 2.49599 12.2806C1.91101 10.7438 1.84158 9.05843 2.2978 7.47858C2.75403 5.89872 3.71128 4.51001 5.02542 3.52182C6.33956 2.53363 7.9393 1.99952 9.58341 2H11.9161C13.9267 2 15.855 2.79889 17.2768 4.22092C18.6985 5.64295 19.4973 7.57165 19.4973 9.5827C19.4973 10.0726 19.4499 10.5577 19.3576 11.0317C17.6491 11.178 16.0093 11.8277 14.6311 12.9133C13.2481 14.0027 12.1945 15.4792 11.5868 17.1654H9.58341C9.18068 17.1654 8.77858 17.1335 8.38092 17.0697L5.49404 18.8027C5.09601 19.0417 4.61557 18.6564 4.76235 18.2159L5.50124 15.9988ZM12.5681 13.5671C12.7581 13.7197 13.0304 13.7132 13.2128 13.5516L13.427 13.3619C13.6605 13.155 13.6496 12.7872 13.4043 12.5944L12.6356 11.9905C13.0454 11.6626 13.3663 11.237 13.5688 10.7528C13.8058 10.1768 13.921 9.55795 13.9071 8.93526V8.60278C13.9201 7.93585 13.7845 7.27438 13.5104 6.66628C13.27 6.13792 12.88 5.69173 12.3885 5.38305C11.8855 5.08884 11.3131 4.93379 10.7304 4.93379C10.1477 4.93379 9.57559 5.08884 9.07257 5.38305C8.58049 5.6914 8.19003 6.13765 7.94952 6.66628C7.67521 7.27556 7.53965 7.93821 7.55286 8.60628V8.97609C7.54358 9.63338 7.68179 10.2844 7.95749 10.8811C8.20083 11.4069 8.593 11.8498 9.08539 12.155C9.58463 12.4552 10.1579 12.6096 10.7404 12.6006C10.9291 12.6006 11.1177 12.585 11.3039 12.554L11.3084 12.5551L12.5681 13.5671ZM10.0561 11.1869C9.84384 11.0761 9.66427 10.9115 9.53558 10.7096C9.22572 10.1721 9.07929 9.55587 9.11443 8.93642V8.57245C9.07785 7.9545 9.22603 7.33965 9.54013 6.80627C9.67859 6.6186 9.85946 6.4662 10.0678 6.36139C10.2761 6.25658 10.506 6.20232 10.7392 6.203C10.9724 6.20369 11.2021 6.25929 11.4098 6.36531C11.6175 6.47134 11.7975 6.6248 11.9349 6.81327C12.2481 7.35364 12.3941 7.97474 12.3546 8.59812V8.96092C12.3905 9.57954 12.2447 10.1951 11.9349 10.7318C11.8062 10.9264 11.6296 11.0847 11.422 11.1913C11.2145 11.298 10.9829 11.3494 10.7497 11.3407H10.7452C10.506 11.3507 10.2684 11.2976 10.0561 11.1869Z" fill="#092987"/>
<path d="M27.2354 28.7176C27.3822 29.158 26.9018 29.5433 26.5038 29.3044L23.618 27.5724C23.2206 27.6351 22.8189 27.6667 22.4166 27.6669H20.0839C18.0733 27.6669 16.145 26.868 14.7232 25.4459C13.3015 24.0239 12.5027 22.0952 12.5027 20.0842C12.5027 18.0731 13.3015 16.1444 14.7232 14.7224C16.145 13.3003 18.0733 12.5015 20.0839 12.5015H22.4166C24.0607 12.501 25.6604 13.0351 26.9746 14.0233C28.2887 15.0115 29.246 16.4002 29.7022 17.98C30.1584 19.5599 30.089 21.2453 29.504 22.7821C28.919 24.3189 27.8504 25.6239 26.4592 26.5003H26.4965L27.2354 28.7176ZM22.5951 22.044L22.9984 23.2412C23.0669 23.4446 23.2576 23.5815 23.4723 23.5815H24.0249C24.3739 23.5815 24.6155 23.2331 24.4932 22.9063L22.074 16.4403C22.0009 16.2449 21.8142 16.1155 21.6057 16.1155H20.8748C20.6659 16.1155 20.479 16.2454 20.4061 16.4412L18.0009 22.9072C17.8794 23.2339 18.121 23.5815 18.4696 23.5815H19.0227C19.2378 23.5815 19.4288 23.4439 19.4969 23.2399L19.8963 22.044H22.5951ZM22.1811 20.7993H20.3149L21.248 18.0053L22.1811 20.7993Z" fill="#092987"/>
</svg>
