<svg width="32" height="33" viewBox="0 0 32 33" fill="none" xmlns="http://www.w3.org/2000/svg">
<path d="M27.75 27.908C28.0815 27.908 28.3995 28.0397 28.6339 28.2741C28.8683 28.5085 29 28.8265 29 29.158C29 29.4895 28.8683 29.8075 28.6339 30.0419C28.3995 30.2763 28.0815 30.408 27.75 30.408H4.25C3.91848 30.408 3.60054 30.2763 3.36612 30.0419C3.1317 29.8075 3 29.4895 3 29.158C3 28.8265 3.1317 28.5085 3.36612 28.2741C3.60054 28.0397 3.91848 27.908 4.25 27.908H5V21.408C5 20.8776 5.21071 20.3689 5.58579 19.9938C5.96086 19.6187 6.46957 19.408 7 19.408H10V15.408C10 14.8776 10.2107 14.3689 10.5858 13.9938C10.9609 13.6187 11.4696 13.408 12 13.408H20C20.5304 13.408 21.0391 13.6187 21.4142 13.9938C21.7893 14.3689 22 14.8776 22 15.408V22.408H25C25.5304 22.408 26.0391 22.6187 26.4142 22.9938C26.7893 23.3689 27 23.8776 27 24.408V27.908H27.75ZM7.5 27.908H10V21.908H7.5V27.908ZM12.5 27.908H19.5V15.908H12.5V27.908ZM22 27.908H24.5V24.908H22V27.908ZM16.2909 18.3793C16.6147 18.2714 16.949 18.5124 16.949 18.8536V23.434C16.949 23.4626 16.9376 23.4901 16.9174 23.5104C16.8971 23.5306 16.8696 23.542 16.841 23.542H15.808C15.7937 23.5421 15.7796 23.5394 15.7664 23.5341C15.7531 23.5287 15.7411 23.5208 15.731 23.5107C15.7209 23.5007 15.7128 23.4887 15.7073 23.4756C15.7018 23.4624 15.699 23.4483 15.699 23.434V19.708C15.6984 19.6916 15.6941 19.6755 15.6864 19.661C15.6787 19.6465 15.6677 19.6339 15.6544 19.6243C15.6411 19.6146 15.6258 19.6081 15.6096 19.6053C15.5934 19.6025 15.5768 19.6034 15.561 19.608L14.611 19.886C14.5952 19.8905 14.5785 19.8914 14.5623 19.8886C14.546 19.8858 14.5306 19.8793 14.5172 19.8697C14.5039 19.8601 14.4928 19.8476 14.485 19.833C14.4772 19.8185 14.4727 19.8025 14.472 19.786V19.061C14.4724 19.0388 14.4797 19.0174 14.4927 18.9995C14.5058 18.9816 14.524 18.9682 14.545 18.961L16.2909 18.3793ZM12.646 8.88299L12.246 11.114C12.2095 11.3157 12.23 11.5235 12.3053 11.7141C12.3806 11.9047 12.5077 12.0705 12.6722 12.1928C12.8366 12.3151 13.032 12.389 13.2362 12.4061C13.4404 12.4233 13.6454 12.3831 13.828 12.29L16 11.208L18.175 12.294C18.3576 12.3871 18.5625 12.4273 18.7668 12.4101C18.971 12.393 19.1664 12.3191 19.3308 12.1968C19.4953 12.0745 19.6224 11.9087 19.6977 11.7181C19.773 11.5275 19.7935 11.3197 19.757 11.118L19.357 8.88599L21.076 7.29299C21.2272 7.15098 21.3351 6.96913 21.3874 6.76841C21.4396 6.56769 21.4341 6.35629 21.3713 6.1586C21.3086 5.9609 21.1913 5.78497 21.0328 5.6511C20.8744 5.51723 20.6814 5.43087 20.476 5.40199L18.057 5.06799L16.981 3.00799C16.8784 2.84 16.7343 2.7012 16.5626 2.60489C16.3909 2.50859 16.1974 2.45801 16.0005 2.45801C15.8036 2.45801 15.6101 2.50859 15.4384 2.60489C15.2667 2.7012 15.1226 2.84 15.02 3.00799L13.947 5.06499L11.53 5.39899C11.3244 5.42772 11.1311 5.51404 10.9725 5.64798C10.8139 5.78192 10.6965 5.95801 10.6337 6.15589C10.5709 6.35377 10.5655 6.56537 10.6179 6.76624C10.6703 6.9671 10.7785 7.14903 10.93 7.29099L12.646 8.88299ZM14.631 6.98999C14.8204 6.96412 15.0009 6.89335 15.1575 6.7836C15.314 6.67384 15.4421 6.52826 15.531 6.35899L16 5.45299L16.471 6.35299C16.5598 6.52245 16.6878 6.66822 16.8443 6.77816C17.0009 6.8881 17.1815 6.95901 17.371 6.98499L18.315 7.11499L17.668 7.71499C17.522 7.84916 17.4124 8.0181 17.3492 8.20606C17.2861 8.39402 17.2716 8.5949 17.307 8.78999L17.471 9.69899L16.54 9.23499C16.373 9.15186 16.189 9.10859 16.0025 9.10859C15.816 9.10859 15.632 9.15186 15.465 9.23499L14.533 9.69899L14.697 8.78899C14.7323 8.59405 14.7178 8.39335 14.6546 8.20556C14.5915 8.01777 14.4819 7.84901 14.336 7.71499L13.689 7.11499L14.631 6.98999Z" fill="#092987"/>
</svg>
