<svg width="32" height="33" viewBox="0 0 32 33" fill="none" xmlns="http://www.w3.org/2000/svg">
<path d="M22.814 24.4648C23.9129 22.8206 24.4997 20.8876 24.5 18.91L22.814 24.4648ZM22.814 24.4648C21.7151 26.1091 20.1533 27.3906 18.3261 28.1473M22.814 24.4648L18.3261 28.1473M18.3261 28.1473C16.4989 28.904 14.4884 29.1019 12.5487 28.716M18.3261 28.1473L12.5487 28.716M12.5487 28.716C10.609 28.3301 8.82732 27.3777 7.42888 25.9792M12.5487 28.716L7.42888 25.9792M7.42888 25.9792C6.03047 24.5808 5.07816 22.7992 4.69225 20.8595M7.42888 25.9792L4.69225 20.8595M4.69225 20.8595C4.30634 18.9198 4.50418 16.9093 5.26086 15.0821M4.69225 20.8595L5.26086 15.0821M5.26086 15.0821C6.01754 13.255 7.29907 11.6931 8.94333 10.5942M5.26086 15.0821L8.94333 10.5942M8.94333 10.5942C10.5875 9.49528 12.5207 8.90855 14.4983 8.9082L8.94333 10.5942ZM14.4985 8.9082C17.1511 8.90826 19.6949 9.96199 21.5706 11.8376C23.4462 13.7133 24.4999 16.2572 24.5 18.9098L14.4985 8.9082Z" stroke="#092987" stroke-width="3"/>
<path fill-rule="evenodd" clip-rule="evenodd" d="M28.0008 18.91C28.0007 19.5218 28.816 19.7948 29.0459 19.2278C29.6214 17.8082 30.0006 16.2718 30.0008 14.91C30.0008 11.8596 28.789 8.93396 26.632 6.77697C24.475 4.61997 21.5495 3.4082 18.499 3.4082C17.1372 3.40841 15.6007 3.78761 14.181 4.36317C13.614 4.59302 13.887 5.4083 14.4987 5.4082C18.0796 5.4082 21.5141 6.83069 24.0462 9.36275C26.5783 11.8948 28.0008 15.3291 28.0008 18.91Z" fill="#092987"/>
<circle cx="26" cy="26.4082" r="5" fill="white"/>
<path fill-rule="evenodd" clip-rule="evenodd" d="M26 32.4082C29.3137 32.4082 32 29.7219 32 26.4082C32 23.0945 29.3137 20.4082 26 20.4082C22.6863 20.4082 20 23.0945 20 26.4082C20 29.7219 22.6863 32.4082 26 32.4082ZM25.4366 22.4082C25.1956 22.4082 25.0002 22.6036 25.0002 22.8446V23.579C24.6494 23.703 24.3286 23.8904 24.0515 24.1275L23.4138 23.7593C23.2051 23.6388 22.9382 23.7103 22.8177 23.919L22.2541 24.8953C22.1336 25.104 22.2051 25.3708 22.4138 25.4913L23.0505 25.859C23.0176 26.037 23.0003 26.2207 23.0003 26.4083C23.0003 26.5958 23.0175 26.7793 23.0505 26.9573L22.4138 27.3249C22.2051 27.4454 22.1336 27.7122 22.2541 27.921L22.8177 28.8972C22.9382 29.1059 23.2051 29.1774 23.4138 29.0569L24.0512 28.6889C24.3284 28.926 24.6493 29.1135 25.0002 29.2375V29.9718C25.0002 30.2128 25.1956 30.4082 25.4366 30.4082H26.5638C26.8048 30.4082 27.0002 30.2128 27.0002 29.9718V29.2376C27.3517 29.1134 27.673 28.9256 27.9505 28.688L28.5862 29.055C28.7949 29.1755 29.0618 29.104 29.1823 28.8953L29.7459 27.919C29.8664 27.7103 29.7949 27.4434 29.5862 27.3229L28.9505 26.9559C28.9832 26.7783 29.0003 26.5953 29.0003 26.4083C29.0003 26.2211 28.9832 26.038 28.9504 25.8604L29.5862 25.4933C29.7949 25.3728 29.8664 25.1059 29.7459 24.8972L29.1823 23.921C29.0618 23.7123 28.7949 23.6407 28.5862 23.7612L27.9503 24.1284C27.6728 23.8909 27.3515 23.7031 27.0002 23.579V22.8446C27.0002 22.6036 26.8048 22.4082 26.5638 22.4082H25.4366ZM27.0002 26.4081C27.0002 26.9604 26.5525 27.4081 26.0002 27.4081C25.4479 27.4081 25.0002 26.9604 25.0002 26.4081C25.0002 25.8558 25.4479 25.4081 26.0002 25.4081C26.5525 25.4081 27.0002 25.8558 27.0002 26.4081Z" fill="#092987"/>
</svg>
