<svg width="32" height="32" viewBox="0 0 32 32" fill="none" xmlns="http://www.w3.org/2000/svg">
<path d="M28.7497 14.7504C29.0812 14.7504 29.3992 14.8821 29.6336 15.1166C29.868 15.351 29.9997 15.6689 29.9997 16.0004C30.0013 19.1342 28.9509 22.1778 27.0169 24.6436C25.0829 27.1094 22.3771 28.8545 19.3332 29.5995C16.2892 30.3445 13.0833 30.0461 10.2291 28.7522C7.37496 27.4583 5.03772 25.2438 3.59192 22.4635C2.14612 19.6831 1.67546 16.498 2.25535 13.4183C2.83524 10.3387 4.43211 7.54281 6.79009 5.47873C9.14808 3.41464 12.1307 2.20182 15.26 2.03459C18.3893 1.86737 21.4842 2.75541 24.0487 4.55644L25.9997 2.61044C26.0619 2.54977 26.1388 2.50634 26.2228 2.48443C26.3069 2.46251 26.3952 2.46288 26.4791 2.48549C26.5629 2.5081 26.6395 2.55217 26.7011 2.61336C26.7628 2.67455 26.8074 2.75074 26.8307 2.83444L28.7947 10.1614C28.8176 10.2463 28.8177 10.3357 28.795 10.4207C28.7724 10.5056 28.7277 10.5831 28.6655 10.6453C28.6033 10.7074 28.5259 10.7521 28.4409 10.7748C28.356 10.7975 28.2666 10.7973 28.1817 10.7744L20.8547 8.81144C20.7698 8.78875 20.6924 8.74411 20.6303 8.68201C20.5682 8.6199 20.5235 8.54253 20.5008 8.45767C20.4781 8.37282 20.4782 8.28347 20.501 8.19864C20.5238 8.11381 20.5685 8.03648 20.6307 7.97444L22.2477 6.35744C20.0968 4.96176 17.5419 4.32311 14.9873 4.54254C12.4327 4.76197 10.0242 5.82695 8.1428 7.56899C6.26143 9.31102 5.01463 11.6306 4.59967 14.1609C4.1847 16.6911 4.62526 19.2875 5.85165 21.5392C7.07803 23.7909 9.02021 25.5694 11.3709 26.5933C13.7216 27.6172 16.3466 27.8281 18.8307 27.1926C21.3147 26.557 23.5159 25.1114 25.086 23.0843C26.6561 21.0572 27.5054 18.5645 27.4997 16.0004C27.4997 15.6689 27.6314 15.351 27.8658 15.1166C28.1002 14.8821 28.4182 14.7504 28.7497 14.7504Z" fill="#092987"/>
</svg>
