<svg width="32" height="32" viewBox="0 0 32 32" fill="none" xmlns="http://www.w3.org/2000/svg">
<path d="M2.12499 7.9162C1.82813 7.71829 1.82813 7.28206 2.12499 7.08415L8.22361 3.01841C8.55588 2.79689 9.00096 3.03509 9.00096 3.43443V5.75018H20.0011C25.4936 5.75018 30.0011 10.3791 30.0011 16.0002C30.0011 21.6898 25.4252 26.0002 20.0011 26.0002H10.001C9.03448 26.0002 8.25098 25.2167 8.25098 24.2502C8.25098 23.2837 9.03448 22.5002 10.001 22.5002H20.0011C23.5501 22.5002 26.5011 19.6994 26.5011 16.0002C26.5011 12.2324 23.4818 9.25018 20.0011 9.25018H9.00096V11.5659C9.00096 11.9653 8.55588 12.2035 8.22361 11.9819L2.12499 7.9162Z" fill="#092987"/>
</svg>
