<svg width="32" height="33" viewBox="0 0 32 33" fill="none" xmlns="http://www.w3.org/2000/svg">
<path d="M29 27.86C29 28.1916 28.8683 28.5095 28.6339 28.7439C28.3995 28.9783 28.0815 29.11 27.75 29.11H4.25C3.91848 29.11 3.60051 28.9783 3.36609 28.7439C3.13167 28.5095 3 28.1916 3 27.86C3 27.5285 3.13167 27.2106 3.36609 26.9762C3.60051 26.7417 3.91848 26.61 4.25 26.61H5.75L5.73198 20.6115C5.73114 20.3348 5.95517 20.11 6.2319 20.11C6.50991 20.11 6.83243 20.11 7 20.11C7.1659 20.11 7.47879 20.11 7.75001 20.11C8.02615 20.11 8.25 20.3339 8.25 20.61C8.25 20.8812 8.25 21.1941 8.25 21.36V26.61H11.75V16.36C11.75 16.1941 11.75 15.8812 11.75 15.61C11.75 15.3339 11.9739 15.11 12.25 15.11C12.5212 15.11 12.8341 15.11 13 15.11C13.1659 15.11 13.4788 15.11 13.75 15.11C14.0261 15.11 14.25 15.3339 14.25 15.61C14.25 15.8812 14.25 16.1941 14.25 16.36V26.61H17.75V19.36C17.75 19.1941 17.75 18.8812 17.75 18.61C17.75 18.3339 17.9739 18.11 18.25 18.11C18.5212 18.11 18.8341 18.11 19 18.11C19.1659 18.11 19.4788 18.11 19.75 18.11C20.0261 18.11 20.25 18.3339 20.25 18.61C20.25 18.8812 20.25 19.1941 20.25 19.36V26.61H23.75V15.36C23.75 15.1941 23.75 14.8812 23.75 14.61C23.75 14.3339 23.9739 14.11 24.25 14.11C24.5212 14.11 24.8341 14.11 25 14.11C25.1659 14.11 25.4788 14.11 25.75 14.11C26.0261 14.11 26.25 14.3339 26.25 14.61C26.25 14.8812 26.25 15.1941 26.25 15.36V26.61H27.75C28.0815 26.61 28.3995 26.7417 28.6339 26.9762C28.8683 27.2106 29 27.5285 29 27.86ZM4.5 14.86C4.74058 14.8603 4.97605 14.7908 5.17798 14.66L12.99 9.60504L17.682 12.733C18.0886 13.0018 18.5712 13.1319 19.0577 13.104C19.5443 13.076 20.0089 12.8916 20.382 12.578L25.3 8.41004L26.849 9.95904C26.9151 10.0253 26.9984 10.0717 27.0895 10.0929C27.1807 10.1141 27.2759 10.1094 27.3644 10.0791C27.453 10.0489 27.5313 9.99449 27.5905 9.92199C27.6496 9.84949 27.6872 9.76185 27.699 9.66904L28.391 4.26904C28.4006 4.19334 28.3928 4.11645 28.3681 4.04425C28.3434 3.97205 28.3025 3.90646 28.2485 3.8525C28.1946 3.79855 28.129 3.75765 28.0568 3.73296C27.9846 3.70827 27.9077 3.70043 27.832 3.71004L22.432 4.40204C22.3395 4.41415 22.2522 4.45191 22.18 4.51105C22.1078 4.57019 22.0536 4.64835 22.0236 4.73669C21.9935 4.82503 21.9887 4.92002 22.0098 5.01092C22.0309 5.10182 22.0771 5.18499 22.143 5.25104L23.53 6.64004L18.91 10.548L14.24 7.43404C13.8748 7.1904 13.4463 7.05905 13.0074 7.0562C12.5684 7.05336 12.1383 7.17915 11.77 7.41804L3.82098 12.561C3.5942 12.7075 3.42097 12.9235 3.32715 13.1767C3.23333 13.4298 3.22399 13.7065 3.30054 13.9654C3.37708 14.2243 3.53537 14.4515 3.75177 14.6129C3.96817 14.7744 4.231 14.8614 4.50098 14.861L4.5 14.86Z" fill="#092987"/>
</svg>
