<svg width="32" height="32" viewBox="0 0 32 32" fill="none" xmlns="http://www.w3.org/2000/svg">
<path d="M26.5 18.0002L5.5 18.0002L5.5 26.5002L26.5 26.5002V18.0002ZM29 17.5002V27.0002C29 28.1048 28.1046 29.0002 27 29.0002L5 29.0002C3.89543 29.0002 3 28.1048 3 27.0002L3 17.5002C3 16.3957 3.89543 15.5002 5 15.5002L27 15.5002C28.1046 15.5002 29 16.3957 29 17.5002Z" fill="#092987"/>
<path d="M21 3.00023C21.7879 3.00023 22.5681 3.15542 23.2961 3.45695C24.0241 3.75848 24.6855 4.20043 25.2426 4.75759C25.7998 5.31474 26.2417 5.97617 26.5433 6.70413C26.8448 7.43208 27 8.21229 27 9.00023C27 9.08655 26.9891 9.17032 26.9685 9.25023H28.3215C28.7575 9.25023 28.9846 9.76926 28.6888 10.0895L26.3673 12.6026C26.1693 12.8169 25.8307 12.8169 25.6327 12.6026L23.3112 10.0895C23.0154 9.76926 23.2425 9.25023 23.6785 9.25023H25.0315C25.0109 9.17032 25 9.08655 25 9.00023C25 8.47494 24.8965 7.95479 24.6955 7.46949C24.4945 6.98419 24.1999 6.54323 23.8284 6.1718C23.457 5.80036 23.016 5.50573 22.5307 5.30471C22.0454 5.10369 21.5253 5.00023 21 5.00023C20.4477 5.00023 20 4.55251 20 4.00023C20 3.44794 20.4477 3.00023 21 3.00023Z" fill="#092987"/>
<path d="M4.99999 3.00009L14.5 3C15.6046 2.99999 16.5 3.89542 16.5 5L16.5 7.00023H14V5.49996H5.5V7.00023H3L3.00001 5.00008C3.00001 3.89552 3.89543 3.0001 4.99999 3.00009ZM16.5 8.00023V10.0002H14V8.00023H16.5ZM16.5 11.0002L16.5 11.7541C16.5 12.4445 15.9404 13.0041 15.25 13.0041C14.5596 13.0041 14 12.4445 14 11.7541V11.0002H16.5ZM5.5 8.00023V10.0002H3V8.00023H5.5ZM5.5 11.0002V11.75C5.5 12.4403 4.94036 13 4.25 13C3.55965 13 3 12.4403 3 11.75V11.0002H5.5Z" fill="#092987"/>
</svg>
