<svg width="32" height="32" viewBox="0 0 32 32" fill="none" xmlns="http://www.w3.org/2000/svg">
<path d="M26.9999 29L24.5 29V26.5H26.5V19H24.5V16.5H27C28.1046 16.5 29 17.3954 29 18.5L28.9999 27C28.9999 28.1046 28.1045 29 26.9999 29Z" fill="#092987"/>
<path d="M23.5 29H21.5V26.5H23.5V29Z" fill="#092987"/>
<path d="M20.25 26.5H20.5V29H20.25C19.5597 29 19 28.4404 19 27.75C19 27.0596 19.5597 26.5 20.25 26.5Z" fill="#092987"/>
<path d="M23.5 19H21.5V16.5H23.5V19Z" fill="#092987"/>
<path d="M20.2458 16.5H20.5V19H20.2458C19.5555 19 18.9959 18.4404 18.9959 17.75C18.9959 17.0596 19.5555 16.5 20.2458 16.5Z" fill="#092987"/>
<path d="M14 5.5H5.5V26.5H14V5.5ZM14.5 3C15.6046 3 16.5 3.89543 16.5 5V27C16.5 28.1046 15.6046 29 14.5 29H5C3.89543 29 3 28.1046 3 27V5C3 3.89543 3.89543 3 5 3H14.5Z" fill="#092987"/>
<path d="M19.3976 5.63272L21.9107 3.31119C22.231 3.01536 22.75 3.2425 22.75 3.67846V5.0315C22.8299 5.01094 22.9137 5 23 5C23.7879 5 24.5681 5.15519 25.2961 5.45672C26.0241 5.75825 26.6855 6.20021 27.2426 6.75736C27.7998 7.31451 28.2417 7.97595 28.5433 8.7039C28.8448 9.43185 29 10.2121 29 11C29 11.5523 28.5523 12 28 12C27.4477 12 27 11.5523 27 11C27 10.4747 26.8965 9.95457 26.6955 9.46927C26.4945 8.98396 26.1999 8.54301 25.8284 8.17157C25.457 7.80014 25.016 7.5055 24.5307 7.30448C24.0454 7.10346 23.5253 7 23 7C22.9137 7 22.8299 6.98906 22.75 6.9685V8.32154C22.75 8.7575 22.231 8.98464 21.9107 8.68881L19.3976 6.36728C19.1833 6.16931 19.1833 5.83068 19.3976 5.63272Z" fill="#092987"/>
</svg>
