<svg width="32" height="32" viewBox="0 0 32 32" fill="none" xmlns="http://www.w3.org/2000/svg">
<path d="M27.913 8.414C28.2881 8.78899 28.4989 9.29761 28.499 9.828V27C28.499 27.5304 28.2883 28.0391 27.9133 28.4142C27.5382 28.7893 27.0295 29 26.499 29H10.499C9.96861 29 9.4599 28.7893 9.08483 28.4142C8.70976 28.0391 8.49904 27.5304 8.49904 27V20.91C7.10155 20.675 5.83256 19.9523 4.91737 18.8704C4.00217 17.7884 3.5 16.4171 3.5 15C3.5 13.5829 4.00217 12.2116 4.91737 11.1296C5.83256 10.0477 7.10155 9.32503 8.49904 9.09V5C8.49904 4.46957 8.70976 3.96086 9.08483 3.58579C9.4599 3.21071 9.96861 3 10.499 3H21.671C22.2014 3.00011 22.7101 3.2109 23.085 3.586L27.913 8.414ZM5.99904 15C5.99904 15.9283 6.36779 16.8185 7.02417 17.4749C7.68055 18.1313 8.57079 18.5 9.49904 18.5C9.958 18.5017 10.4127 18.4121 10.8367 18.2365C11.2608 18.0608 11.6457 17.8027 11.969 17.477C12.459 16.9879 12.7928 16.3645 12.9285 15.6857C13.0641 15.0069 12.9954 14.303 12.731 13.6633C12.4666 13.0235 12.0184 12.4765 11.4431 12.0914C10.8678 11.7064 10.1913 11.5005 9.49904 11.5C8.57079 11.5 7.68055 11.8687 7.02417 12.5251C6.36779 13.1815 5.99904 14.0717 5.99904 15ZM25.999 26.5V10.036L21.463 5.5H10.999V9.2C11.9194 9.43643 12.7702 9.88848 13.4812 10.5188C14.1923 11.1491 14.7431 11.9396 15.0882 12.8249C15.4333 13.7102 15.5628 14.665 15.4659 15.6102C15.369 16.5555 15.0486 17.4641 14.531 18.261L17.131 20.861C17.3655 21.0955 17.4972 21.4134 17.4972 21.745C17.4972 22.0766 17.3655 22.3945 17.131 22.629C16.8966 22.8635 16.5786 22.9952 16.247 22.9952C15.9155 22.9952 15.5975 22.8635 15.363 22.629L12.763 20.029C12.2206 20.3797 11.6249 20.6401 10.999 20.8V26.5H25.999Z" fill="#092987"/>
</svg>
