<svg width="32" height="33" viewBox="0 0 32 33" fill="none" xmlns="http://www.w3.org/2000/svg">
<path d="M31.089 23.56V23.557C31.2856 24.9249 31.0712 26.3203 30.473 27.566C30.3907 27.7389 30.2611 27.8849 30.0991 27.9871C29.9371 28.0892 29.7495 28.1433 29.558 28.143C29.4278 28.1426 29.299 28.1166 29.1788 28.0663C29.0587 28.016 28.9497 27.9425 28.858 27.85L25.927 24.918L24.866 25.272L24.512 26.333L27.444 29.264C27.5576 29.3784 27.6421 29.5183 27.6903 29.672C27.7386 29.8258 27.7493 29.9889 27.7214 30.1476C27.6936 30.3063 27.6281 30.456 27.5304 30.5842C27.4327 30.7123 27.3057 30.8152 27.16 30.884C26.3293 31.2821 25.4276 31.5107 24.5076 31.5566C23.5875 31.6024 22.6675 31.4646 21.8014 31.151C20.9352 30.8375 20.1401 30.3546 19.4625 29.7305C18.785 29.1064 18.2385 28.3536 17.855 27.516C17.125 26.0407 16.9654 24.3478 17.407 22.762L14.237 19.591L12.367 21.461L14.135 23.229C14.3853 23.4777 14.5393 23.807 14.5696 24.1584C14.6 24.5099 14.5048 24.8607 14.3009 25.1486C14.097 25.4365 13.7976 25.6427 13.456 25.7307C13.1144 25.8186 12.7526 25.7826 12.435 25.629L7.82803 30.236C7.45811 30.6143 7.01683 30.9154 6.52975 31.1219C6.04266 31.3284 5.51945 31.4362 4.9904 31.4391C4.46136 31.4421 3.93699 31.34 3.44766 31.1388C2.95833 30.9377 2.51376 30.6415 2.1397 30.2674C1.76563 29.8932 1.4695 29.4486 1.26845 28.9593C1.06741 28.4699 0.965432 27.9455 0.968439 27.4165C0.971446 26.8874 1.07937 26.3642 1.28597 25.8772C1.49257 25.3901 1.79374 24.9489 2.17203 24.579L6.78203 19.979C6.62844 19.6615 6.59243 19.2997 6.6804 18.9581C6.76836 18.6165 6.97461 18.3171 7.26248 18.1132C7.55034 17.9093 7.90118 17.8141 8.25264 17.8444C8.60409 17.8748 8.9334 18.0288 9.18203 18.279L10.949 20.051L12.818 18.181L9.64503 15.008C9.05803 15.166 8.45292 15.2467 7.84503 15.248C6.82266 15.2434 5.81468 15.0068 4.89703 14.556C3.85095 14.0651 2.94112 13.3253 2.24712 12.4014C1.55312 11.4774 1.09609 10.3975 0.91603 9.25605C0.7176 7.88879 0.929918 6.49341 1.52603 5.24705C1.60834 5.07416 1.738 4.92817 1.89997 4.82604C2.06193 4.7239 2.24955 4.66981 2.44103 4.67005C2.57124 4.67045 2.7001 4.69654 2.82022 4.74682C2.94033 4.79709 3.04935 4.87057 3.14103 4.96305L6.07203 7.89505L7.13303 7.54105L7.48703 6.48005L4.55603 3.54905C4.44247 3.43472 4.35801 3.29481 4.30974 3.14107C4.26147 2.98732 4.25079 2.82424 4.27862 2.66552C4.30644 2.5068 4.37195 2.35708 4.46964 2.22892C4.56733 2.10077 4.69435 1.99793 4.84003 1.92905C5.77637 1.48012 6.80164 1.24739 7.84003 1.24805C8.17728 1.24812 8.5141 1.27184 8.84803 1.31905C9.99018 1.4985 11.0709 1.95524 11.9956 2.64928C12.9203 3.34331 13.6607 4.25347 14.152 5.30005C14.8821 6.77537 15.0416 8.46832 14.6 10.054L17.769 13.227L22.849 8.14705C22.4741 7.77199 22.2635 7.26338 22.2635 6.73305C22.2635 6.20272 22.4741 5.6941 22.849 5.31905L25.678 2.49005C26.0531 2.11511 26.5617 1.90448 27.092 1.90448C27.6224 1.90448 28.131 2.11511 28.506 2.49005L29.92 3.90505C30.295 4.2801 30.5056 4.78872 30.5056 5.31905C30.5056 5.84938 30.295 6.35799 29.92 6.73305L27.092 9.56205C26.9063 9.74785 26.6858 9.89524 26.4431 9.9958C26.2004 10.0964 25.9402 10.1481 25.6775 10.1481C25.4148 10.1481 25.1547 10.0964 24.912 9.9958C24.6693 9.89524 24.4488 9.74785 24.263 9.56205L19.183 14.642L22.354 17.812C22.9428 17.6522 23.55 17.5702 24.16 17.568C25.1824 17.5727 26.1904 17.8093 27.108 18.26C28.1541 18.751 29.0639 19.4908 29.7579 20.4147C30.4519 21.3387 30.909 22.4186 31.089 23.56ZM27.09 3.90805L24.263 6.73305L25.678 8.14705L28.5 5.32205L27.09 3.90805ZM6.41403 28.825L10.95 24.289L8.12103 21.461L3.58603 25.997C3.39501 26.1815 3.24265 26.4022 3.13783 26.6462C3.03301 26.8902 2.97784 27.1527 2.97553 27.4182C2.97322 27.6838 3.02382 27.9472 3.12439 28.193C3.22495 28.4387 3.37345 28.6621 3.56124 28.8498C3.74903 29.0376 3.97233 29.1861 4.21812 29.2867C4.46391 29.3873 4.72727 29.4379 4.99283 29.4355C5.25839 29.4332 5.52083 29.3781 5.76484 29.2733C6.00885 29.1684 6.22954 29.0161 6.41403 28.825ZM29.114 25.274L29.106 25.275C29.2617 24.213 29.0661 23.1292 28.5489 22.1887C28.0317 21.2481 27.2213 20.5024 26.241 20.065C25.5937 19.7414 24.8808 19.5703 24.157 19.565C23.7209 19.5674 23.2869 19.6266 22.866 19.741L21.752 20.041L12.364 10.653L12.664 9.53905C12.9801 8.41333 12.866 7.21031 12.344 6.16405C11.9952 5.41563 11.4691 4.7636 10.8112 4.26452C10.1534 3.76545 9.38375 3.43438 8.56903 3.30005C8.32752 3.26589 8.08394 3.24852 7.84003 3.24805C7.60348 3.24803 7.36722 3.26474 7.13303 3.29805L8.90003 5.06605L9.77503 5.93505L9.38403 7.10805L9.03003 8.17305L8.71403 9.12205L7.76603 9.43805L6.70003 9.79205L5.53203 10.183L2.89203 7.54205C2.82453 8.018 2.82453 8.5011 2.89203 8.97705C3.02732 9.79239 3.35967 10.5624 3.86018 11.2201C4.36069 11.8778 5.01424 12.4033 5.76403 12.751C6.41138 13.0747 7.12429 13.2458 7.84803 13.251C8.28418 13.2487 8.71816 13.1895 9.13903 13.075L10.253 12.775L11.069 13.59L19.641 22.163L19.341 23.277C19.025 24.4028 19.1391 25.6058 19.661 26.652C20.01 27.4004 20.5362 28.0523 21.194 28.5514C21.8518 29.0504 22.6214 29.3815 23.436 29.516C23.6775 29.5502 23.9211 29.5676 24.165 29.568C24.4016 29.5681 24.6378 29.5514 24.872 29.518L22.23 26.876L22.621 25.703L22.975 24.643L23.291 23.694L24.239 23.378L25.3 23.024L26.473 22.633L29.114 25.274Z" fill="#092987"/>
</svg>
