<svg width="32" height="33" viewBox="0 0 32 33" fill="none" xmlns="http://www.w3.org/2000/svg">
<path d="M27 4.9082H5C4.72386 4.9082 4.5 5.13206 4.5 5.4082V9.4082C4.5 9.68435 4.72386 9.9082 5 9.9082H27C27.2761 9.9082 27.5 9.68435 27.5 9.4082V5.4082C27.5 5.13206 27.2761 4.9082 27 4.9082ZM5 3.4082H27C28.1046 3.4082 29 4.30363 29 5.4082V9.4082C29 10.5128 28.1046 11.4082 27 11.4082H5C3.89543 11.4082 3 10.5128 3 9.4082V5.4082C3 4.30363 3.89543 3.4082 5 3.4082Z" fill="#092987"/>
<path d="M4.5 20.6582C4.5 20.244 4.83579 19.9082 5.25 19.9082H9.75C10.1642 19.9082 10.5 20.244 10.5 20.6582V22.6582C10.5 23.0724 10.1642 23.4082 9.75 23.4082H5.25C4.83579 23.4082 4.5 23.0724 4.5 22.6582V20.6582Z" fill="#092987"/>
<path d="M4.5 15.1582C4.5 14.744 4.83579 14.4082 5.25 14.4082H9.75C10.1642 14.4082 10.5 14.744 10.5 15.1582V17.1582C10.5 17.5724 10.1642 17.9082 9.75 17.9082H5.25C4.83579 17.9082 4.5 17.5724 4.5 17.1582V15.1582Z" fill="#092987"/>
<path d="M13 20.6582C13 20.244 13.3358 19.9082 13.75 19.9082H18.25C18.6642 19.9082 19 20.244 19 20.6582V22.6582C19 23.0724 18.6642 23.4082 18.25 23.4082H13.75C13.3358 23.4082 13 23.0724 13 22.6582V20.6582Z" fill="#092987"/>
<path d="M13 26.1582C13 25.744 13.3358 25.4082 13.75 25.4082H18.25C18.6642 25.4082 19 25.744 19 26.1582V28.1582C19 28.5724 18.6642 28.9082 18.25 28.9082H13.75C13.3358 28.9082 13 28.5724 13 28.1582V26.1582Z" fill="#092987"/>
<path d="M4.5 26.1582C4.5 25.744 4.83579 25.4082 5.25 25.4082H9.75C10.1642 25.4082 10.5 25.744 10.5 26.1582V28.1582C10.5 28.5724 10.1642 28.9082 9.75 28.9082H5.25C4.83579 28.9082 4.5 28.5724 4.5 28.1582V26.1582Z" fill="#092987"/>
<path d="M21.5 15.1582C21.5 14.744 21.8358 14.4082 22.25 14.4082H26.75C27.1642 14.4082 27.5 14.744 27.5 15.1582V17.1582C27.5 17.5724 27.1642 17.9082 26.75 17.9082H22.25C21.8358 17.9082 21.5 17.5724 21.5 17.1582V15.1582Z" fill="#092987"/>
<path d="M13 15.1582C13 14.744 13.3358 14.4082 13.75 14.4082H18.25C18.6642 14.4082 19 14.744 19 15.1582V17.1582C19 17.5724 18.6642 17.9082 18.25 17.9082H13.75C13.3358 17.9082 13 17.5724 13 17.1582V15.1582Z" fill="#092987"/>
<path d="M21.5 20.6582C21.5 20.244 21.8358 19.9082 22.25 19.9082H26.75C27.1642 19.9082 27.5 20.244 27.5 20.6582V22.6582C27.5 23.0724 27.1642 23.4082 26.75 23.4082H22.25C21.8358 23.4082 21.5 23.0724 21.5 22.6582V20.6582Z" fill="#092987"/>
<path d="M21.5 26.1582C21.5 25.744 21.8358 25.4082 22.25 25.4082H26.75C27.1642 25.4082 27.5 25.744 27.5 26.1582V28.1582C27.5 28.5724 27.1642 28.9082 26.75 28.9082H22.25C21.8358 28.9082 21.5 28.5724 21.5 28.1582V26.1582Z" fill="#092987"/>
</svg>
