<svg width="32" height="33" viewBox="0 0 32 33" fill="none" xmlns="http://www.w3.org/2000/svg">
<path d="M5 13.4082V5.4082L18 5.4082V6.4082C18 6.96049 18.4478 7.4082 19 7.4082C19.5523 7.4082 20 6.96049 20 6.4082V5.4082H23V6.4082C23 6.96049 23.4478 7.4082 24 7.4082C24.5523 7.4082 25 6.96049 25 6.4082V5.4082L28 5.4082C28.5523 5.4082 29 4.96049 29 4.4082C29 3.85592 28.5523 3.4082 28 3.4082H4.75C3.7835 3.4082 3 4.1917 3 5.1582V28.4082C3 28.9605 3.44772 29.4082 4 29.4082C4.55228 29.4082 5 28.9605 5 28.4082V20.4082H6.00045C6.55273 20.4082 7.00045 19.9605 7.00045 19.4082C7.00045 18.8559 6.55273 18.4082 6.00045 18.4082H5V15.4082H6.00045C6.55273 15.4082 7.00045 14.9605 7.00045 14.4082C7.00045 13.8559 6.55273 13.4082 6.00045 13.4082H5Z" fill="#092987"/>
<path d="M23 10.4082V11.4082C23 11.9605 23.4478 12.4082 24 12.4082C24.5523 12.4082 25 11.9605 25 11.4082V10.4082C25 9.85592 24.5523 9.4082 24 9.4082C23.4478 9.4082 23 9.85592 23 10.4082Z" fill="#092987"/>
<path d="M20 10.4082C20 9.85592 19.5523 9.4082 19 9.4082C18.4478 9.4082 18 9.85592 18 10.4082V11.4082C18 11.9605 18.4478 12.4082 19 12.4082C19.5523 12.4082 20 11.9605 20 11.4082V10.4082Z" fill="#092987"/>
<path d="M8.91702 14.4082C8.91702 13.8559 9.36474 13.4082 9.91702 13.4082H11.0004C11.5526 13.4082 12.0003 13.8559 12.0003 14.4082C12.0003 14.9605 11.5526 15.4082 11.0004 15.4082H9.91702C9.36474 15.4082 8.91702 14.9605 8.91702 14.4082Z" fill="#092987"/>
<path d="M13.9167 14.4082C13.9167 13.8559 14.3644 13.4082 14.9167 13.4082H16C16.5523 13.4082 17 13.8559 17 14.4082C17 14.9605 16.5523 15.4082 16 15.4082H14.9167C14.3644 15.4082 13.9167 14.9605 13.9167 14.4082Z" fill="#092987"/>
<path d="M8.91702 19.4082C8.91702 18.8559 9.36474 18.4082 9.91702 18.4082H11.0004C11.5526 18.4082 12.0003 18.8559 12.0003 19.4082C12.0003 19.9605 11.5526 20.4082 11.0004 20.4082H9.91702C9.36474 20.4082 8.91702 19.9605 8.91702 19.4082Z" fill="#092987"/>
<path d="M13.9167 19.4082C13.9167 18.8559 14.3644 18.4082 14.9167 18.4082H16C16.5523 18.4082 17 18.8559 17 19.4082C17 19.9605 16.5523 20.4082 16 20.4082H14.9167C14.3644 20.4082 13.9167 19.9605 13.9167 19.4082Z" fill="#092987"/>
<path d="M18 14.1582C18 13.744 18.3358 13.4082 18.75 13.4082H24.25C24.6642 13.4082 25 13.744 25 14.1582V19.6582C25 20.0724 24.6642 20.4082 24.25 20.4082H18.75C18.3358 20.4082 18 20.0724 18 19.6582V14.1582Z" fill="#092987"/>
<path d="M29 19.4082C29 19.9605 28.5523 20.4082 28 20.4082H27C26.4478 20.4082 26 19.9605 26 19.4082C26 18.8559 26.4478 18.4082 27 18.4082H28C28.5523 18.4082 29 18.8559 29 19.4082Z" fill="#092987"/>
<path d="M29 14.4082C29 14.9605 28.5523 15.4082 28 15.4082H27C26.4478 15.4082 26 14.9605 26 14.4082C26 13.8559 26.4478 13.4082 27 13.4082H28C28.5523 13.4082 29 13.8559 29 14.4082Z" fill="#092987"/>
<path d="M18 23.4082C18 23.9605 18.4478 24.4082 19 24.4082C19.5523 24.4082 20 23.9605 20 23.4082V22.4082C20 21.8559 19.5523 21.4082 19 21.4082C18.4478 21.4082 18 21.8559 18 22.4082V23.4082Z" fill="#092987"/>
<path d="M18 28.4082C18 28.9605 18.4478 29.4082 19 29.4082C19.5523 29.4082 20 28.9605 20 28.4082V27.4082C20 26.8559 19.5523 26.4082 19 26.4082C18.4478 26.4082 18 26.8559 18 27.4082V28.4082Z" fill="#092987"/>
<path d="M23 28.4082C23 28.9605 23.4478 29.4082 24 29.4082C24.5523 29.4082 25 28.9605 25 28.4082V27.4082C25 26.8559 24.5523 26.4082 24 26.4082C23.4478 26.4082 23 26.8559 23 27.4082V28.4082Z" fill="#092987"/>
<path d="M23 23.4082C23 23.9605 23.4478 24.4082 24 24.4082C24.5523 24.4082 25 23.9605 25 23.4082V22.4082C25 21.8559 24.5523 21.4082 24 21.4082C23.4478 21.4082 23 21.8559 23 22.4082V23.4082Z" fill="#092987"/>
</svg>
