<svg width="32" height="33" viewBox="0 0 32 33" fill="none" xmlns="http://www.w3.org/2000/svg">
<path d="M2 16.4082C2 15.8559 2.44772 15.4082 3 15.4082H3.52C4.07228 15.4082 4.52 15.8559 4.52 16.4082C4.52 16.9605 4.07228 17.4082 3.52 17.4082H3C2.44772 17.4082 2 16.9605 2 16.4082ZM6.68 16.4082C6.68 15.8559 7.12772 15.4082 7.68 15.4082H8.72C9.27228 15.4082 9.72 15.8559 9.72 16.4082C9.72 16.9605 9.27228 17.4082 8.72 17.4082H7.68C7.12772 17.4082 6.68 16.9605 6.68 16.4082ZM11.88 16.4082C11.88 15.8559 12.3277 15.4082 12.88 15.4082H13.92C14.4723 15.4082 14.92 15.8559 14.92 16.4082C14.92 16.9605 14.4723 17.4082 13.92 17.4082H12.88C12.3277 17.4082 11.88 16.9605 11.88 16.4082ZM17.08 16.4082C17.08 15.8559 17.5277 15.4082 18.08 15.4082H19.12C19.6723 15.4082 20.12 15.8559 20.12 16.4082C20.12 16.9605 19.6723 17.4082 19.12 17.4082H18.08C17.5277 17.4082 17.08 16.9605 17.08 16.4082ZM22.28 16.4082C22.28 15.8559 22.7277 15.4082 23.28 15.4082H24.32C24.8723 15.4082 25.32 15.8559 25.32 16.4082C25.32 16.9605 24.8723 17.4082 24.32 17.4082H23.28C22.7277 17.4082 22.28 16.9605 22.28 16.4082ZM27.48 16.4082C27.48 15.8559 27.9277 15.4082 28.48 15.4082H29C29.5523 15.4082 30 15.8559 30 16.4082C30 16.9605 29.5523 17.4082 29 17.4082H28.48C27.9277 17.4082 27.48 16.9605 27.48 16.4082Z" fill="#092987"/>
<path d="M28.5 5.09116V13.4082H25V5.09116C25 4.88331 25 4.50409 25 4.15818C25 3.74396 25.3357 3.40821 25.7499 3.40822C26.1174 3.40822 26.5279 3.40823 26.75 3.40823C26.9722 3.40823 27.3826 3.40822 27.7501 3.40822C28.1643 3.40822 28.5 3.74397 28.5 4.15818C28.5 4.5041 28.5 4.88331 28.5 5.09116Z" fill="#092987"/>
<path d="M19.5 19.4082V23.7298C19.5 23.9367 19.5 24.3138 19.5 24.6583C19.5 25.0725 19.1643 25.4082 18.7501 25.4082C18.3826 25.4082 17.9722 25.4082 17.75 25.4082C17.5278 25.4082 17.1174 25.4082 16.7499 25.4082C16.3357 25.4082 16 25.0725 16 24.6583C16 24.3138 16 23.9367 16 23.7298V19.4082H19.5Z" fill="#092987"/>
<path d="M14.5 19.4082V27.7301C14.5 27.9369 14.5 28.3139 14.5 28.6583C14.5 29.0725 14.1643 29.4082 13.7501 29.4082C13.3826 29.4082 12.9722 29.4082 12.75 29.4082C12.5278 29.4082 12.1174 29.4082 11.7499 29.4082C11.3357 29.4082 11 29.0725 11 28.6583C11 28.3139 11 27.9369 11 27.7301V19.4082H14.5Z" fill="#092987"/>
<path d="M6.5 19.4082V21.7298C6.5 21.9367 6.5 22.3138 6.5 22.6583C6.5 23.0725 6.16434 23.4082 5.75013 23.4082C5.38257 23.4082 4.97215 23.4082 4.75 23.4082C4.52785 23.4082 4.11743 23.4082 3.74987 23.4082C3.33566 23.4082 3 23.0725 3 22.6583C3 22.3138 3 21.9367 3 21.7298V19.4082H6.5Z" fill="#092987"/>
<path d="M20 13.4082V8.15823C20 7.74401 20.3357 7.40823 20.7499 7.40823C21.1174 7.40823 21.5278 7.40823 21.75 7.40823C21.9722 7.40823 22.3826 7.40823 22.7501 7.40823C23.1643 7.40823 23.5 7.74401 23.5 8.15823V13.4082H20Z" fill="#092987"/>
<path d="M9.75012 5.40823C10.1643 5.40823 10.5 5.74401 10.5 6.15823V13.4082H7V6.15823C7 5.74401 7.33566 5.40823 7.74988 5.40823C8.11744 5.40823 8.52785 5.40823 8.75 5.40823C8.97215 5.40823 9.38256 5.40823 9.75012 5.40823Z" fill="#092987"/>
</svg>
