<svg width="32" height="33" viewBox="0 0 32 33" fill="none" xmlns="http://www.w3.org/2000/svg">
<path d="M29.8104 22.4692L23.3104 28.9692C23.1698 29.1089 23.003 29.2194 22.8194 29.2942L22.7964 29.3022C22.4455 29.4436 22.0534 29.4436 21.7024 29.3022L21.6794 29.2942C21.4959 29.2194 21.329 29.1089 21.1884 28.9692L14.6884 22.4692C14.5491 22.3299 14.4386 22.1645 14.3632 21.9824C14.2878 21.8004 14.249 21.6053 14.249 21.4082C14.249 21.2112 14.2878 21.0161 14.3632 20.834C14.4386 20.652 14.5491 20.4866 14.6884 20.3472C14.8278 20.2079 14.9932 20.0974 15.1752 20.022C15.3573 19.9466 15.5524 19.9078 15.7494 19.9078C15.9465 19.9078 16.1416 19.9466 16.3236 20.022C16.5057 20.0974 16.6711 20.2079 16.8104 20.3472L20.7494 24.2872V4.90823C20.7494 4.51041 20.9075 4.12888 21.1888 3.84757C21.4701 3.56627 21.8516 3.40823 22.2494 3.40823C22.6473 3.40823 23.0288 3.56627 23.3101 3.84757C23.5914 4.12888 23.7494 4.51041 23.7494 4.90823V24.2872L27.6884 20.3472C27.9698 20.0658 28.3515 19.9078 28.7494 19.9078C29.1474 19.9078 29.529 20.0658 29.8104 20.3472C30.0918 20.6286 30.2499 21.0103 30.2499 21.4082C30.2499 21.8062 30.0918 22.1878 29.8104 22.4692ZM15.1884 12.4692L11.2494 8.52923V27.9082C11.2494 28.3061 11.0914 28.6876 10.8101 28.9689C10.5288 29.2502 10.1473 29.4082 9.74943 29.4082C9.35161 29.4082 8.97008 29.2502 8.68877 28.9689C8.40747 28.6876 8.24943 28.3061 8.24943 27.9082V8.52923L4.31343 12.4692C4.03204 12.7506 3.65039 12.9087 3.25243 12.9087C2.85448 12.9087 2.47283 12.7506 2.19143 12.4692C1.91004 12.1878 1.75195 11.8062 1.75195 11.4082C1.75195 11.0103 1.91004 10.6286 2.19143 10.3472L8.69143 3.84723C8.83202 3.70752 8.9989 3.59706 9.18243 3.52223L9.20543 3.51423C9.5564 3.37286 9.94847 3.37286 10.2994 3.51423L10.3194 3.52223C10.503 3.59706 10.6698 3.70752 10.8104 3.84723L17.3104 10.3472C17.4498 10.4866 17.5603 10.652 17.6357 10.834C17.7111 11.0161 17.7499 11.2112 17.7499 11.4082C17.7499 11.6053 17.7111 11.8004 17.6357 11.9824C17.5603 12.1645 17.4498 12.3299 17.3104 12.4692C17.1711 12.6086 17.0057 12.7191 16.8236 12.7945C16.6416 12.8699 16.4465 12.9087 16.2494 12.9087C16.0524 12.9087 15.8573 12.8699 15.6752 12.7945C15.4932 12.7191 15.3278 12.6086 15.1884 12.4692Z" fill="#092987"/>
</svg>
