<svg width="32" height="32" viewBox="0 0 32 32" fill="none" xmlns="http://www.w3.org/2000/svg">
<path d="M17.7929 10.3432C18.1834 9.95266 18.8166 9.95266 19.2071 10.3432C19.95 11.0861 20.5393 11.968 20.9413 12.9386C21.3433 13.9092 21.5503 14.9495 21.5503 16C21.5503 17.0506 21.3433 18.0909 20.9413 19.0615C20.5393 20.0321 19.95 20.914 19.2071 21.6569C18.8166 22.0474 18.1834 22.0474 17.7929 21.6569C17.4024 21.2664 17.4024 20.6332 17.7929 20.2427C18.35 19.6855 18.792 19.0241 19.0935 18.2961C19.3951 17.5682 19.5503 16.788 19.5503 16C19.5503 15.2121 19.3951 14.4319 19.0935 13.7039C18.792 12.976 18.35 12.3146 17.7929 11.7574C17.4024 11.3669 17.4024 10.7337 17.7929 10.3432Z" fill="#092987"/>
<path d="M20.9142 8.22185C21.3048 7.83132 21.9379 7.83132 22.3285 8.22185C23.3499 9.24329 24.1601 10.4559 24.7129 11.7905C25.2658 13.1251 25.5503 14.5555 25.5503 16C25.5503 17.4446 25.2658 18.875 24.7129 20.2095C24.1601 21.5441 23.3499 22.7568 22.3284 23.7782C21.9379 24.1687 21.3048 24.1687 20.9142 23.7782C20.5237 23.3877 20.5237 22.7545 20.9142 22.364C21.75 21.5283 22.4129 20.5361 22.8652 19.4442C23.3175 18.3522 23.5503 17.1819 23.5503 16C23.5503 14.8181 23.3175 13.6478 22.8652 12.5559C22.4129 11.4639 21.75 10.4718 20.9142 9.63606C20.5237 9.24554 20.5237 8.61237 20.9142 8.22185Z" fill="#092987"/>
<path d="M24.0356 6.10051C24.4261 5.70999 25.0593 5.70999 25.4498 6.10051C26.7498 7.40053 27.781 8.94388 28.4846 10.6424C29.1882 12.341 29.5503 14.1615 29.5503 16C29.5503 17.8385 29.1882 19.659 28.4846 21.3576C27.781 23.0561 26.7498 24.5995 25.4498 25.8995C25.0593 26.29 24.4261 26.29 24.0356 25.8995C23.645 25.509 23.645 24.8758 24.0356 24.4853C25.1499 23.371 26.0338 22.0481 26.6368 20.5922C27.2399 19.1363 27.5503 17.5759 27.5503 16C27.5503 14.4241 27.2399 12.8637 26.6368 11.4078C26.0338 9.9519 25.1499 8.62903 24.0356 7.51472C23.6451 7.1242 23.6451 6.49103 24.0356 6.10051Z" fill="#092987"/>
<path d="M13 7.18306L9.25944 11.2114C8.6445 11.8736 7.78158 12.2499 6.87786 12.2499H4.25C3.83579 12.2499 3.5 12.5857 3.5 12.9999V18.9999C3.5 19.4141 3.83579 19.7499 4.25 19.7499H6.87786C7.78158 19.7499 8.6445 20.1262 9.25944 20.7884L13 24.8167V7.18306ZM12.0344 4.54889C13.2713 3.21686 15.5 4.09206 15.5 5.90979V26.09C15.5 27.9077 13.2713 28.7829 12.0344 27.4509L7.42746 22.4895C7.28555 22.3367 7.08641 22.2499 6.87786 22.2499H4.25C2.45507 22.2499 1 20.7948 1 18.9999V12.9999C1 11.205 2.45507 9.74989 4.25 9.74989H6.87786C7.08641 9.74989 7.28555 9.66305 7.42746 9.51022L12.0344 4.54889Z" fill="#092987"/>
</svg>
