<svg width="32" height="32" viewBox="0 0 32 32" fill="none" xmlns="http://www.w3.org/2000/svg">
<path d="M17.7929 10.3429C18.1834 9.95242 18.8166 9.95242 19.2071 10.3429C19.95 11.0858 20.5393 11.9677 20.9413 12.9383C21.3433 13.9089 21.5503 14.9492 21.5503 15.9998C21.5503 17.0504 21.3433 18.0907 20.9413 19.0613C20.5393 20.0319 19.95 20.9138 19.2071 21.6567C18.8166 22.0472 18.1834 22.0472 17.7929 21.6567C17.4024 21.2661 17.4024 20.633 17.7929 20.2424C18.35 19.6853 18.792 19.0239 19.0935 18.2959C19.3951 17.5679 19.5503 16.7877 19.5503 15.9998C19.5503 15.2119 19.3951 14.4317 19.0935 13.7037C18.792 12.9757 18.35 12.3143 17.7929 11.7572C17.4024 11.3666 17.4024 10.7335 17.7929 10.3429Z" fill="#092987"/>
<path d="M13 7.18306L9.25944 11.2114C8.6445 11.8736 7.78158 12.2499 6.87786 12.2499H4.25C3.83579 12.2499 3.5 12.5857 3.5 12.9999V18.9999C3.5 19.4141 3.83579 19.7499 4.25 19.7499H6.87786C7.78158 19.7499 8.6445 20.1262 9.25944 20.7884L13 24.8167V7.18306ZM12.0344 4.54889C13.2713 3.21686 15.5 4.09206 15.5 5.90979V26.09C15.5 27.9077 13.2713 28.7829 12.0344 27.4509L7.42746 22.4895C7.28555 22.3367 7.08641 22.2499 6.87786 22.2499H4.25C2.45507 22.2499 1 20.7948 1 18.9999V12.9999C1 11.205 2.45507 9.74989 4.25 9.74989H6.87786C7.08641 9.74989 7.28555 9.66305 7.42746 9.51022L12.0344 4.54889Z" fill="#092987"/>
</svg>
