<svg width="32" height="32" viewBox="0 0 32 32" fill="none" xmlns="http://www.w3.org/2000/svg">
<path d="M15.5 5.90979V26.09C15.5 27.9077 13.2713 28.7829 12.0344 27.4509L7.42746 22.4895C7.28555 22.3367 7.08641 22.2499 6.87786 22.2499H4.25C2.45507 22.2499 1 20.7948 1 18.9999V12.9999C1 11.205 2.45507 9.74989 4.25 9.74989H6.87786C7.08641 9.74989 7.28555 9.66305 7.42746 9.51022L12.0344 4.54889C13.2713 3.21686 15.5 4.09206 15.5 5.90979ZM9.25944 11.2114C8.6445 11.8736 7.78158 12.2499 6.87786 12.2499H4.25C3.83579 12.2499 3.5 12.5857 3.5 12.9999V18.9999C3.5 19.4141 3.83579 19.7499 4.25 19.7499H6.87786C7.78158 19.7499 8.6445 20.1262 9.25944 20.7884L13 24.8167V7.18306L9.25944 11.2114Z" fill="#092987"/>
<path d="M18.6161 10.1161C19.1042 9.62796 19.8957 9.62796 20.3838 10.1161L24.5 14.2323L28.6161 10.1162C29.1043 9.62802 29.8957 9.62802 30.3839 10.1162C30.872 10.6043 30.872 11.3958 30.3839 11.8839L26.2678 16.0001L30.3838 20.1161C30.872 20.6043 30.872 21.3957 30.3838 21.8839C29.8957 22.372 29.1042 22.372 28.6161 21.8839L24.5 17.7678L20.3839 21.8839C19.8957 22.3721 19.1043 22.3721 18.6161 21.8839C18.128 21.3958 18.128 20.6043 18.6161 20.1162L22.7322 16.0001L18.6161 11.8839C18.1279 11.3957 18.1279 10.6043 18.6161 10.1161Z" fill="#092987"/>
</svg>
