<svg width="32" height="32" viewBox="0 0 32 32" fill="none" xmlns="http://www.w3.org/2000/svg">
<path d="M15.9999 6.07464L13.2519 11.6396L12.6699 12.8186L11.3699 13.0076L5.22493 13.8996L9.66693 18.2326L10.6079 19.1496L10.3859 20.4496L9.33693 26.5696L14.8369 23.6806L15.9999 23.0686L17.1589 23.6856L22.6589 26.5746L21.6099 20.4546L21.3879 19.1546L22.3289 18.2376L26.7749 13.9026L20.6299 13.0106L19.3299 12.8216L18.7479 11.6426L15.9999 6.07464ZM15.9999 1.68464C16.1874 1.68244 16.3715 1.73366 16.5309 1.8323C16.6903 1.93094 16.8183 2.07292 16.8999 2.24164L20.9929 10.5416L30.1459 11.8716C30.3294 11.8993 30.5016 11.9774 30.6432 12.0974C30.7848 12.2173 30.8902 12.3742 30.9477 12.5506C31.0052 12.727 31.0125 12.916 30.9687 13.0963C30.9249 13.2766 30.8319 13.4412 30.6999 13.5716L24.0739 20.0236L25.6369 29.1396C25.6683 29.3234 25.6477 29.5123 25.5774 29.685C25.5071 29.8576 25.39 30.0072 25.2392 30.1168C25.0884 30.2264 24.9099 30.2917 24.724 30.3053C24.5381 30.3189 24.352 30.2802 24.1869 30.1936L15.9999 25.8936L7.81293 30.1996C7.64765 30.2864 7.4614 30.3251 7.27524 30.3115C7.08909 30.2978 6.91047 30.2324 6.75958 30.1225C6.6087 30.0126 6.49159 29.8627 6.42149 29.6897C6.35139 29.5167 6.3311 29.3276 6.36293 29.1436L7.92193 20.0276L1.29893 13.5716C1.16697 13.4412 1.07391 13.2766 1.03016 13.0963C0.9864 12.916 0.993675 12.727 1.05117 12.5506C1.10866 12.3742 1.2141 12.2173 1.35569 12.0974C1.49729 11.9774 1.66945 11.8993 1.85293 11.8716L11.0059 10.5416L15.0999 2.24164C15.1816 2.07292 15.3096 1.93094 15.469 1.8323C15.6283 1.73366 15.8125 1.68244 15.9999 1.68464Z" fill="#092987"/>
</svg>
