<svg width="32" height="32" viewBox="0 0 32 32" fill="none" xmlns="http://www.w3.org/2000/svg">
<path d="M23.7864 17.5C25.7036 17.5011 27.542 18.2632 28.8976 19.6188C30.2533 20.9745 31.0153 22.8128 31.0164 24.73C31.0164 26.16 30.5924 27.5578 29.7979 28.7468C29.0035 29.9358 27.8743 30.8625 26.5532 31.4097C25.2321 31.9569 23.7784 32.1001 22.3759 31.8211C20.9734 31.5421 19.6852 30.8535 18.674 29.8424C17.6629 28.8313 16.9743 27.543 16.6953 26.1405C16.4164 24.7381 16.5595 23.2843 17.1068 21.9632C17.654 20.6421 18.5807 19.5129 19.7696 18.7185C20.9586 17.9241 22.3564 17.5 23.7864 17.5ZM28.4364 23.61V23.6C28.5623 23.4961 28.6662 23.3681 28.742 23.2236C28.8179 23.079 28.8641 22.9208 28.878 22.7581C28.8919 22.5955 28.8732 22.4317 28.823 22.2763C28.7728 22.121 28.6921 21.9773 28.5856 21.8535C28.4792 21.7298 28.3491 21.6285 28.203 21.5556C28.0569 21.4828 27.8978 21.4398 27.7348 21.4292C27.5719 21.4187 27.4086 21.4407 27.2543 21.4941C27.1 21.5475 26.958 21.6311 26.8364 21.74L22.4364 25.53L20.6364 23.52C20.4203 23.2774 20.1166 23.1305 19.7921 23.1117C19.6315 23.1025 19.4706 23.1249 19.3186 23.1778C19.1666 23.2307 19.0266 23.313 18.9064 23.42C18.7862 23.5271 18.6883 23.6567 18.6183 23.8016C18.5482 23.9464 18.5074 24.1037 18.4981 24.2643C18.4888 24.425 18.5113 24.5859 18.5642 24.7378C18.6171 24.8898 18.6994 25.0299 18.8064 25.15L21.4064 28.06C21.511 28.1796 21.6381 28.2773 21.7806 28.3477C21.923 28.418 22.0779 28.4596 22.2364 28.47C22.3967 28.4845 22.5582 28.4662 22.7112 28.4164C22.8642 28.3665 23.0054 28.2861 23.1264 28.18L28.4364 23.61Z" fill="#092987"/>
<path d="M29.1364 11.69V11.7C29.3054 11.7238 29.4653 11.7907 29.6009 11.8943C29.7365 11.9979 29.8431 12.1347 29.9104 12.2915C29.9778 12.4482 30.0036 12.6197 29.9853 12.7894C29.9671 12.959 29.9055 13.1211 29.8064 13.26L27.1164 15.88C27.0225 15.9706 26.8969 16.0208 26.7664 16.02H24.6164C24.5259 16.0198 24.4373 15.9945 24.3604 15.9469C24.2835 15.8993 24.2214 15.8312 24.1809 15.7503C24.1405 15.6694 24.1233 15.5788 24.1313 15.4887C24.1394 15.3986 24.1723 15.3125 24.2264 15.24L25.7664 13.73H25.7364L18.3264 12.65L17.7464 11.47L14.9964 5.90003L12.2464 11.47L11.6664 12.65L10.3664 12.84L4.2264 13.73L8.6764 18.06L9.6164 18.98L9.3964 20.28L8.3464 26.4L14.4664 23.22C14.7864 23.07 15.1164 23.16 15.1164 23.55V25.47C15.1164 25.67 14.9764 25.72 14.8564 25.79C14.2364 26.13 14.1664 26.17 14.1664 26.17L10.7064 27.99L6.8164 30.03C6.67116 30.1059 6.51025 30.147 6.3464 30.15C6.20115 30.1492 6.05782 30.1168 5.92637 30.055C5.79492 29.9932 5.67851 29.9035 5.58524 29.7922C5.49197 29.6808 5.42408 29.5505 5.38628 29.4102C5.34849 29.27 5.34171 29.1232 5.3664 28.98L6.9264 19.86L0.306404 13.4C0.171599 13.2702 0.0759199 13.1052 0.0302446 12.9237C-0.0154306 12.7423 -0.00926886 12.5516 0.0480294 12.3735C0.105328 12.1953 0.211463 12.0368 0.354367 11.916C0.497271 11.7952 0.67121 11.7169 0.856404 11.69L9.9964 10.35L14.0864 2.06003C14.1689 1.89173 14.297 1.74999 14.4561 1.65097C14.6152 1.55196 14.799 1.49965 14.9864 1.50003C15.174 1.49859 15.3582 1.55045 15.5176 1.64958C15.6769 1.74872 15.8048 1.89105 15.8864 2.06003L19.9764 10.36L27.9864 11.52L29.1364 11.69Z" fill="#092987"/>
</svg>
