<svg width="32" height="32" viewBox="0 0 32 32" fill="none" xmlns="http://www.w3.org/2000/svg">
<path d="M19.0009 26.7684C19.001 26.8546 18.9788 26.9393 18.9365 27.0144C18.8942 27.0895 18.8333 27.1524 18.7595 27.1969C18.6858 27.2415 18.6017 27.2663 18.5156 27.2688C18.4295 27.2713 18.3441 27.2516 18.2679 27.2114L16.0009 26.0194L7.81388 30.3194C7.64877 30.406 7.46274 30.4446 7.27681 30.431C7.09088 30.4175 6.91244 30.3522 6.76165 30.2426C6.61085 30.133 6.4937 29.9834 6.42341 29.8107C6.35312 29.638 6.33251 29.4492 6.36388 29.2654L7.92688 20.1494L1.30088 13.7004C1.16893 13.57 1.07587 13.4054 1.03211 13.2251C0.988354 13.0447 0.995628 12.8558 1.05312 12.6794C1.11061 12.503 1.21605 12.346 1.35765 12.2261C1.49924 12.1062 1.67141 12.028 1.85488 12.0004L11.0079 10.6704L15.1009 2.3704C15.1836 2.20346 15.3113 2.06296 15.4697 1.96473C15.628 1.8665 15.8106 1.81445 15.9969 1.81445C16.1832 1.81445 16.3658 1.8665 16.5241 1.96473C16.6824 2.06296 16.8102 2.20346 16.8929 2.3704L20.9869 10.6704L30.1409 12.0004C30.3244 12.028 30.4965 12.1062 30.6381 12.2261C30.7797 12.346 30.8852 12.503 30.9426 12.6794C31.0001 12.8558 31.0074 13.0447 30.9637 13.2251C30.9199 13.4054 30.8268 13.57 30.6949 13.7004L25.4009 18.8584C25.3075 18.9494 25.1823 19.0004 25.0519 19.0004H22.9009C22.8015 19.0004 22.7043 18.9707 22.6218 18.9152C22.5393 18.8597 22.4752 18.7809 22.4378 18.6888C22.4003 18.5967 22.3912 18.4955 22.4115 18.3982C22.4318 18.3009 22.4807 18.2118 22.5519 18.1424L26.7719 14.0294L20.6269 13.1364L19.3269 12.9474L18.7449 11.7684L16.0009 6.2004L13.2529 11.7684L12.6709 12.9474L11.3709 13.1364L5.22588 14.0294L9.67188 18.3634L10.6129 19.2804L10.3909 20.5804L9.34188 26.7004L14.8419 23.8114L16.0009 23.1944L17.1639 23.8064L18.7339 24.6314C18.8145 24.6739 18.8821 24.7376 18.9291 24.8157C18.9762 24.8938 19.001 24.9832 19.0009 25.0744V26.7684ZM29.7509 24.7504C30.0824 24.7504 30.4003 24.8821 30.6348 25.1165C30.8692 25.3509 31.0009 25.6689 31.0009 26.0004C31.0009 26.3319 30.8692 26.6499 30.6348 26.8843C30.4003 27.1187 30.0824 27.2504 29.7509 27.2504H27.2509V29.7504C27.2509 30.0819 27.1192 30.3999 26.8848 30.6343C26.6503 30.8687 26.3324 31.0004 26.0009 31.0004C25.6694 31.0004 25.3514 30.8687 25.117 30.6343C24.8826 30.3999 24.7509 30.0819 24.7509 29.7504V27.2504H22.2509C21.9194 27.2504 21.6014 27.1187 21.367 26.8843C21.1326 26.6499 21.0009 26.3319 21.0009 26.0004C21.0009 25.6689 21.1326 25.3509 21.367 25.1165C21.6014 24.8821 21.9194 24.7504 22.2509 24.7504H24.7509V22.2504C24.7509 21.9189 24.8826 21.6009 25.117 21.3665C25.3514 21.1321 25.6694 21.0004 26.0009 21.0004C26.3324 21.0004 26.6503 21.1321 26.8848 21.3665C27.1192 21.6009 27.2509 21.9189 27.2509 22.2504V24.7504H29.7509Z" fill="#092987"/>
</svg>
