<svg width="32" height="32" viewBox="0 0 32 32" fill="none" xmlns="http://www.w3.org/2000/svg">
<path d="M16.9009 2.24184L20.9949 10.5418L30.1479 11.8718C30.3314 11.8995 30.5035 11.9776 30.6451 12.0976C30.7867 12.2175 30.8922 12.3744 30.9496 12.5508C31.0071 12.7273 31.0144 12.9162 30.9707 13.0965C30.9269 13.2768 30.8338 13.4414 30.7019 13.5718L24.0789 20.0278L25.6419 29.1438C25.6733 29.3276 25.6526 29.5165 25.5824 29.6892C25.5121 29.8618 25.3949 30.0114 25.2441 30.121C25.0933 30.2306 24.9149 30.2959 24.729 30.3095C24.543 30.3231 24.357 30.2844 24.1919 30.1978L16.0009 25.8938L7.81388 30.1998C7.64877 30.2864 7.46274 30.3251 7.27681 30.3115C7.09088 30.2979 6.91244 30.2326 6.76165 30.123C6.61085 30.0134 6.4937 29.8638 6.42341 29.6912C6.35312 29.5185 6.33251 29.3296 6.36388 29.1458L7.92688 20.0298L1.30088 13.5718C1.16893 13.4414 1.07587 13.2768 1.03211 13.0965C0.988354 12.9162 0.995628 12.7273 1.05312 12.5508C1.11061 12.3744 1.21605 12.2175 1.35765 12.0976C1.49924 11.9776 1.67141 11.8995 1.85488 11.8718L11.0079 10.5418L15.1019 2.24184C15.1838 2.07277 15.3116 1.93019 15.4708 1.83042C15.63 1.73065 15.814 1.67773 16.0019 1.67773C16.1897 1.67773 16.3738 1.73065 16.533 1.83042C16.6921 1.93019 16.819 2.07277 16.9009 2.24184Z" fill="#092987"/>
</svg>
