<svg width="32" height="32" viewBox="0 0 32 32" fill="none" xmlns="http://www.w3.org/2000/svg">
<path d="M18.9991 25.8754V27.1404C18.9991 27.1748 18.9902 27.2087 18.9733 27.2386C18.9564 27.2686 18.932 27.2937 18.9026 27.3115C18.8731 27.3293 18.8395 27.3392 18.8051 27.3403C18.7707 27.3413 18.7366 27.3334 18.7061 27.3174L15.9991 25.8944L7.36915 30.4314C7.24478 30.4966 7.10465 30.5258 6.96458 30.5156C6.82451 30.5054 6.69009 30.4562 6.5765 30.3736C6.46291 30.291 6.37468 30.1783 6.32179 30.0482C6.26889 29.9181 6.25342 29.7758 6.27715 29.6374L7.92515 20.0284L0.944147 13.2224C0.843569 13.1245 0.772417 13.0003 0.738746 12.864C0.705075 12.7277 0.710228 12.5847 0.753623 12.4512C0.797018 12.3177 0.876922 12.199 0.98429 12.1085C1.09166 12.0181 1.2222 11.9595 1.36115 11.9394L11.0091 10.5394L15.3241 1.8004C15.3861 1.67423 15.4822 1.56794 15.6015 1.49361C15.7208 1.41928 15.8586 1.37988 15.9991 1.37988C16.1397 1.37988 16.2775 1.41928 16.3968 1.49361C16.5161 1.56794 16.6122 1.67423 16.6741 1.8004L20.9891 10.5434L30.6371 11.9434C30.7761 11.9635 30.9066 12.0221 31.014 12.1125C31.1214 12.203 31.2013 12.3217 31.2447 12.4552C31.2881 12.5887 31.2932 12.7317 31.2595 12.868C31.2259 13.0043 31.1547 13.1285 31.0541 13.2264L24.0731 20.0324L24.5611 22.8794H21.9991C21.2042 22.8794 20.4417 23.1949 19.8792 23.7567C19.3167 24.3184 19.0002 25.0804 18.9991 25.8754ZM30.9991 26.0004C30.9991 25.6689 30.8675 25.3509 30.633 25.1165C30.3986 24.8821 30.0807 24.7504 29.7491 24.7504H22.2491C21.9176 24.7504 21.5997 24.8821 21.3653 25.1165C21.1308 25.3509 20.9991 25.6689 20.9991 26.0004C20.9991 26.3319 21.1308 26.6499 21.3653 26.8843C21.5997 27.1187 21.9176 27.2504 22.2491 27.2504H29.7491C30.0807 27.2504 30.3986 27.1187 30.633 26.8843C30.8675 26.6499 30.9991 26.3319 30.9991 26.0004Z" fill="#092987"/>
</svg>
