<svg width="32" height="33" viewBox="0 0 32 33" fill="none" xmlns="http://www.w3.org/2000/svg">
<path d="M20.6968 10.2872C20.6006 10.0707 20.4952 9.84192 20.3875 9.61438V15.1152C20.3875 15.3914 20.1636 15.6152 19.8875 15.6152H19.3665C19.0904 15.6152 18.8665 15.3914 18.8665 15.1152V10.5497C18.7649 10.8589 18.658 11.1597 18.5462 11.4475C18.4163 11.782 18.2801 12.0989 18.1392 12.3909C17.959 12.7642 17.4287 12.7152 17.2464 12.343C17.1873 12.2227 17.127 12.1051 17.0674 11.9955C16.9663 11.8091 16.9803 11.5796 17.1001 11.4048C17.8191 10.3566 18.437 8.70007 18.773 7.26929H17.6763C17.4002 7.26929 17.1763 7.04541 17.1763 6.76929V6.33923C17.1763 6.06311 17.4002 5.83923 17.6763 5.83923H18.8665V3.9082C18.8665 3.63208 19.0904 3.4082 19.3665 3.4082H19.8875C19.969 3.4082 20.0462 3.42773 20.1143 3.4624C20.2041 3.5083 20.2784 3.58057 20.3267 3.66907C20.3655 3.74011 20.3875 3.82153 20.3875 3.9082V5.83923H21.3694C21.482 5.83923 21.586 5.87646 21.6697 5.93933C21.7229 5.97949 21.7679 6.03003 21.8015 6.08789C21.8189 6.11755 21.8333 6.14917 21.8443 6.18225C21.8606 6.23169 21.8694 6.28442 21.8694 6.33923V6.76929C21.8694 7.04541 21.6455 7.26929 21.3694 7.26929H20.3875V7.65417C20.48 7.78003 20.6101 7.97009 20.7569 8.18994C21.0852 8.6825 21.4949 9.32434 21.742 9.72583C21.7984 9.81775 21.8201 9.92249 21.8096 10.0242C21.7996 10.1204 21.7605 10.2139 21.6944 10.2916L21.5796 10.4264C21.3313 10.7178 20.8523 10.637 20.6968 10.2872Z" fill="#092987"/>
<path d="M24.8333 15.1152V11.7484C24.219 12.9091 23.4497 13.9419 22.5769 14.6946C22.3567 14.8846 22.0223 14.8201 21.8406 14.5929C21.7693 14.5039 21.6936 14.4143 21.6167 14.3278C21.388 14.0703 21.4202 13.6421 21.6892 13.4272C22.6719 12.6425 23.5445 11.4867 24.1233 10.2722H22.4732C22.1971 10.2722 21.9732 10.0483 21.9732 9.77222V9.35522C21.9732 9.0791 22.1971 8.85522 22.4732 8.85522H24.8333V7.07422H23.6114C23.4681 7.4751 23.3086 7.84802 23.1355 8.18054C22.9986 8.4436 22.6534 8.50134 22.4053 8.3385C22.3675 8.3136 22.3289 8.2887 22.2898 8.26379C22.2393 8.23157 22.188 8.19958 22.137 8.16833C21.8736 8.00696 21.7842 7.64941 21.9268 7.37537C22.3316 6.59753 22.6097 5.59192 22.7898 4.55444C22.8382 4.27649 23.1004 4.08521 23.3782 4.13367L23.8077 4.2085C24.0745 4.25513 24.2566 4.50598 24.2093 4.77283C24.1822 4.92542 24.1529 5.07715 24.1216 5.22791C24.1028 5.3186 24.0833 5.40881 24.0633 5.49854L24.0266 5.65723H24.8333V3.9082C24.8333 3.63208 25.0572 3.4082 25.3333 3.4082H25.8543C26.1304 3.4082 26.3543 3.63208 26.3543 3.9082V5.65723H28.3113C28.5874 5.65723 28.8113 5.8811 28.8113 6.15723V6.57422C28.8113 6.85034 28.5874 7.07422 28.3113 7.07422H26.3543V8.85522H28.6363C28.9124 8.85522 29.1363 9.0791 29.1363 9.35522V9.77222C29.1363 10.0483 28.9124 10.2722 28.6363 10.2722H27.0906C27.5701 11.3916 28.283 12.5016 29.0508 13.295C29.2718 13.5236 29.2669 13.9053 29.0432 14.1312C28.9463 14.2291 28.8492 14.333 28.7574 14.4379C28.544 14.681 28.1553 14.7133 27.9556 14.4587C27.3538 13.6912 26.8025 12.6875 26.3543 11.6271V15.1152C26.3543 15.3914 26.1304 15.6152 25.8543 15.6152H25.3333C25.0572 15.6152 24.8333 15.3914 24.8333 15.1152Z" fill="#092987"/>
<path d="M28.4398 22.4081C28.9262 22.4081 29.1262 21.7839 28.7304 21.5012L23.7906 17.9728C23.4597 17.7364 23 17.973 23 18.3797V20.4081H3.75C3.33579 20.4081 3 20.7439 3 21.1581V21.6581C3 22.0723 3.33579 22.4081 3.75 22.4081H28.4398Z" fill="#092987"/>
<path d="M29 25.6581C29 26.0723 28.6642 26.4081 28.25 26.4081L9.00004 26.4081L9.00005 28.4365C9.00005 28.8432 8.54036 29.0797 8.20943 28.8433L3.26966 25.3149C2.87384 25.0322 3.07386 24.4081 3.56028 24.4081H8.74704L8.75 24.4081L28.25 24.4081C28.6642 24.4081 29 24.7439 29 25.1581V25.6581Z" fill="#092987"/>
<path d="M3.3073 5.58131C4.33408 5.0511 5.32493 4.34729 6.01906 3.58748C6.16525 3.42745 6.39293 3.36382 6.59557 3.44075L7.01949 3.60168C7.33613 3.72189 7.44306 4.1148 7.2126 4.36299C7.00295 4.58877 6.77771 4.81056 6.54157 5.02591V7.2967C6.54157 7.57284 6.31771 7.7967 6.04157 7.7967H5.54657C5.27043 7.7967 5.04657 7.57284 5.04657 7.2967V6.21056C4.69801 6.45125 4.34658 6.67172 4.00348 6.86611C3.80146 6.98057 3.54858 6.93124 3.39111 6.76061C3.31778 6.68115 3.23862 6.59702 3.15752 6.51292C2.89498 6.24067 2.97124 5.75484 3.3073 5.58131Z" fill="#092987"/>
<path d="M11.3888 4.34402C11.0558 4.23724 10.9312 3.81425 11.1695 3.5583C11.275 3.44502 11.4307 3.39185 11.582 3.42434C12.0433 3.52335 12.5641 3.68057 13.0022 3.84598C13.31 3.96218 13.3835 4.34427 13.1626 4.58805L13.1411 4.61169L13.9996 4.56137C14.2644 4.54584 14.4953 4.73986 14.5256 5.00342L14.5414 5.14115C14.5741 5.42574 14.3615 5.67957 14.0756 5.69729L11.0514 5.88467C11.657 6.45947 12.4004 6.7956 13.1065 6.7956C13.2061 6.79177 13.2853 6.77101 13.349 6.72634C13.3802 6.70443 13.4122 6.68142 13.4448 6.65797C13.7319 6.45166 14.0698 6.20886 14.3821 6.33155C14.5975 6.41614 14.7369 6.6302 14.6886 6.85647C14.4623 7.91744 13.9978 8.1476 13.0415 8.1476C12.9988 8.14735 12.9561 8.14644 12.9135 8.14487C13.1159 8.2089 13.2625 8.39815 13.2625 8.62165V12.9257C13.2625 13.2018 13.0387 13.4257 12.7625 13.4257H11.0036C11.0187 13.4296 11.0336 13.4343 11.0484 13.4397C11.9302 13.7633 12.8918 14.1423 13.6935 14.4869C14.0937 14.659 14.0737 15.2135 13.6672 15.3702L13.1409 15.5732C12.9963 15.629 12.8345 15.614 12.6996 15.5376C12.1521 15.2272 11.3656 14.8504 10.5209 14.4957C10.1304 14.3318 10.0889 13.784 10.4568 13.5743L10.631 13.475C10.6694 13.4531 10.7102 13.4366 10.7521 13.4257H6.87894L7.23239 13.5831C7.5951 13.7447 7.6275 14.2346 7.2736 14.4146C6.36547 14.8767 5.26015 15.2938 4.29711 15.5855C4.11209 15.6416 3.91284 15.5815 3.78213 15.4391C3.7454 15.399 3.70702 15.3576 3.66743 15.3155C3.36892 14.9974 3.53073 14.3913 3.95389 14.2854C4.87776 14.0543 5.77936 13.7571 6.42419 13.4379C6.43291 13.4336 6.44173 13.4295 6.45062 13.4257H5.02651C4.75037 13.4257 4.52651 13.2018 4.52651 12.9257V8.62165C4.52651 8.34551 4.75037 8.12165 5.02651 8.12165H12.6029C11.2951 7.97436 10.0701 7.20832 9.2684 5.99515L7.52857 6.10296C7.26051 6.11957 7.02721 5.92143 7.00019 5.65422L6.98405 5.49462C6.95543 5.21164 7.16831 4.96182 7.45225 4.94518L8.70105 4.87197C8.5949 4.58535 8.50902 4.28316 8.44602 3.96672C8.38791 3.67484 8.62138 3.4156 8.91899 3.4156H9.36596C9.61689 3.4156 9.8258 3.60284 9.88415 3.84689C9.9638 4.18001 10.0817 4.49336 10.2297 4.78236L12.2668 4.66294C11.999 4.55244 11.6941 4.44192 11.3888 4.34402ZM11.6896 9.05769H6.03457V9.60369H11.6896V9.05769ZM6.03457 10.4877V11.0467H11.6896V10.4877H6.03457ZM6.03457 11.9307V12.5027H11.6896V11.9307H6.03457Z" fill="#092987"/>
</svg>
