<svg width="32" height="33" viewBox="0 0 32 33" fill="none" xmlns="http://www.w3.org/2000/svg">
<path d="M13.0834 28.4781L21.5238 6.9082H28C28.8284 6.9082 29.5 6.23663 29.5 5.4082C29.5 4.57978 28.8284 3.9082 28 3.9082H21.0119C20.0857 3.9082 19.2541 4.47578 18.9166 5.33831L14.9756 15.4097C14.9572 15.4087 14.9387 15.4082 14.92 15.4082H13.88C13.3277 15.4082 12.88 15.8559 12.88 16.4082C12.88 16.9605 13.3277 17.4082 13.88 17.4082H14.1936L10.4762 26.9082H5C4.17157 26.9082 3.5 27.5798 3.5 28.4082C3.5 29.2366 4.17157 29.9082 5 29.9082H10.9881C11.9143 29.9082 12.7459 29.3406 13.0834 28.4781Z" fill="#092987"/>
<path d="M4 15.4082C3.44772 15.4082 3 15.8559 3 16.4082C3 16.9605 3.44772 17.4082 4 17.4082H4.52C5.07228 17.4082 5.52 16.9605 5.52 16.4082C5.52 15.8559 5.07228 15.4082 4.52 15.4082H4Z" fill="#092987"/>
<path d="M8.68 15.4082C8.12772 15.4082 7.68 15.8559 7.68 16.4082C7.68 16.9605 8.12772 17.4082 8.68 17.4082H9.72C10.2723 17.4082 10.72 16.9605 10.72 16.4082C10.72 15.8559 10.2723 15.4082 9.72 15.4082H8.68Z" fill="#092987"/>
<path d="M19.08 15.4082C18.5277 15.4082 18.08 15.8559 18.08 16.4082C18.08 16.9605 18.5277 17.4082 19.08 17.4082H20.12C20.6723 17.4082 21.12 16.9605 21.12 16.4082C21.12 15.8559 20.6723 15.4082 20.12 15.4082H19.08Z" fill="#092987"/>
<path d="M24.28 15.4082C23.7277 15.4082 23.28 15.8559 23.28 16.4082C23.28 16.9605 23.7277 17.4082 24.28 17.4082H25.32C25.8723 17.4082 26.32 16.9605 26.32 16.4082C26.32 15.8559 25.8723 15.4082 25.32 15.4082H24.28Z" fill="#092987"/>
<path d="M29.48 15.4082C28.9277 15.4082 28.48 15.8559 28.48 16.4082C28.48 16.9605 28.9277 17.4082 29.48 17.4082H30C30.5523 17.4082 31 16.9605 31 16.4082C31 15.8559 30.5523 15.4082 30 15.4082H29.48Z" fill="#092987"/>
</svg>
