<svg width="32" height="33" viewBox="0 0 32 33" fill="none" xmlns="http://www.w3.org/2000/svg">
<path d="M14.7501 2.6582C14.7501 1.96785 15.3097 1.4082 16.0001 1.4082C16.6904 1.4082 17.2501 1.96785 17.2501 2.6582V6.1582C17.2501 6.84856 16.6904 7.4082 16.0001 7.4082C15.3097 7.4082 14.7501 6.84856 14.7501 6.1582V2.6582Z" fill="#092987"/>
<path d="M14.7501 26.6582C14.7501 25.9678 15.3097 25.4082 16.0001 25.4082C16.6904 25.4082 17.2501 25.9678 17.2501 26.6582V30.1582C17.2501 30.8486 16.6904 31.4082 16.0001 31.4082C15.3097 31.4082 14.7501 30.8486 14.7501 30.1582V26.6582Z" fill="#092987"/>
<path d="M26.6067 5.80161C26.1185 5.31345 25.3271 5.31345 24.8389 5.80161L22.364 8.27648C21.8759 8.76464 21.8759 9.55609 22.364 10.0442C22.8522 10.5324 23.6436 10.5324 24.1318 10.0442L26.6067 7.56938C27.0948 7.08122 27.0948 6.28976 26.6067 5.80161Z" fill="#092987"/>
<path d="M7.86833 22.7722C8.35649 22.284 9.14794 22.284 9.6361 22.7722C10.1243 23.2603 10.1243 24.0518 9.6361 24.5399L7.16123 27.0148C6.67307 27.503 5.88161 27.503 5.39346 27.0148C4.9053 26.5267 4.9053 25.7352 5.39346 25.247L7.86833 22.7722Z" fill="#092987"/>
<path d="M31 16.4082C31 15.7178 30.4404 15.1582 29.75 15.1582H26.25C25.5596 15.1582 25 15.7178 25 16.4082C25 17.0986 25.5596 17.6582 26.25 17.6582H29.75C30.4404 17.6582 31 17.0986 31 16.4082Z" fill="#092987"/>
<path d="M5.75 15.1582C6.44036 15.1582 7 15.7178 7 16.4082C7 17.0986 6.44036 17.6582 5.75 17.6582H2.25C1.55964 17.6582 1 17.0986 1 16.4082C1 15.7178 1.55964 15.1582 2.25 15.1582H5.75Z" fill="#092987"/>
<path d="M26.6064 27.0147C27.0946 26.5266 27.0946 25.7351 26.6064 25.247L24.1315 22.7721C23.6434 22.2839 22.8519 22.2839 22.3638 22.7721C21.8756 23.2603 21.8756 24.0517 22.3638 24.5399L24.8386 27.0147C25.3268 27.5029 26.1183 27.5029 26.6064 27.0147Z" fill="#092987"/>
<path d="M9.63585 8.27641C10.124 8.76457 10.124 9.55603 9.63585 10.0442C9.14769 10.5323 8.35624 10.5323 7.86808 10.0442L5.39321 7.56931C4.90505 7.08115 4.90505 6.2897 5.39321 5.80154C5.88136 5.31338 6.67282 5.31338 7.16098 5.80154L9.63585 8.27641Z" fill="#092987"/>
<path d="M24.0001 16.4082C24.0001 20.8265 20.4183 24.4082 16.0001 24.4082C11.5818 24.4082 8.00006 20.8265 8.00006 16.4082C8.00006 11.9899 11.5818 8.4082 16.0001 8.4082C20.4183 8.4082 24.0001 11.9899 24.0001 16.4082ZM10.5001 16.4082C10.5001 19.4458 12.9625 21.9082 16.0001 21.9082C19.0376 21.9082 21.5001 19.4458 21.5001 16.4082C21.5001 13.3706 19.0376 10.9082 16.0001 10.9082C12.9625 10.9082 10.5001 13.3706 10.5001 16.4082Z" fill="#092987"/>
</svg>
