<svg width="32" height="32" viewBox="0 0 32 32" fill="none" xmlns="http://www.w3.org/2000/svg">
<path fill-rule="evenodd" clip-rule="evenodd" d="M5.46352 11.355C5.16471 11.6965 4.63347 11.6965 4.33466 11.355L2.12468 8.82928C1.8418 8.50599 2.07139 8.00003 2.50097 8.00003L3.89905 8V7C3.89905 4.23858 6.13762 2 8.89905 2C10.1664 2 11.3258 2.47284 12.2066 3.25026C12.6207 3.61573 12.6601 4.24766 12.2946 4.66173C11.9291 5.0758 11.2972 5.11521 10.8831 4.74974C10.3537 4.28243 9.66056 4 8.89905 4C7.24219 4 5.89905 5.34314 5.89905 7L5.89905 8.00003L7.29721 8.00003C7.72678 8.00003 7.95637 8.50599 7.67349 8.82928L5.46352 11.355ZM27.5644 20.645C27.2656 20.3035 26.7344 20.3035 26.4356 20.645L24.2256 23.1707C23.9427 23.494 24.1723 24 24.6019 24H26V25C26 26.6569 24.6569 28 23 28C22.2385 28 21.5454 27.7176 21.016 27.2503C20.6019 26.8848 19.9699 26.9242 19.6045 27.3383C19.239 27.7523 19.2784 28.3843 19.6925 28.7497C20.5733 29.5272 21.7327 30 23 30C25.7615 30 28 27.7614 28 25V24L29.3981 24C29.8277 24 30.0573 23.494 29.7744 23.1707L27.5644 20.645ZM17.0272 15.4813C16.9079 15.8661 17.1955 16.2564 17.5984 16.2564H19.8028C20.0772 16.2564 20.3164 16.0697 20.3829 15.8034L21.0877 12.9841H25.3073L26.0121 15.8034C26.0786 16.0697 26.3178 16.2564 26.5922 16.2564H28.9114C29.3143 16.2564 29.6019 15.8661 29.4826 15.4813L25.433 2.4209C25.3554 2.17061 25.1239 2 24.8618 2H21.648C21.386 2 21.1544 2.17061 21.0768 2.4209L17.0272 15.4813ZM24.6471 10.3433L24.3457 9.13777C24.1438 8.39085 23.9473 7.56406 23.7504 6.73605L23.7504 6.7358C23.574 5.99409 23.3975 5.2514 23.2166 4.56424H23.1401L23.1018 4.73024L23.1018 4.73037L23.1016 4.73092C22.7673 6.17995 22.3994 7.77419 22.0493 9.13777L21.7479 10.3433H24.6471ZM9.15304 27.0494C10.6888 28.3152 12.5543 29.2764 14.8548 29.9272C15.1076 29.9987 15.3745 29.8799 15.5099 29.6547C15.7209 29.3036 15.9914 28.9006 16.2675 28.5345C16.5387 28.1748 16.363 27.6034 15.9287 27.4834C14.0499 26.964 12.4493 26.1987 11.1074 25.221C12.4739 23.6921 13.5589 21.8488 14.3692 19.6511H16.037C16.3491 19.6511 16.602 19.3982 16.602 19.0861V17.9697C16.602 17.6576 16.3491 17.4047 16.037 17.4047H10.448V15.565C10.448 15.253 10.195 15 9.88298 15H8.63996C8.32792 15 8.07495 15.253 8.07495 15.565V17.4047H2.56501C2.25296 17.4047 2 17.6576 2 17.9697V19.0861C2 19.3982 2.25296 19.6511 2.56501 19.6511H4.23617C5.06248 21.854 6.07758 23.7418 7.39686 25.3082C6.03015 26.3022 4.40725 27.0588 2.51886 27.6113C2.11969 27.728 1.95142 28.2232 2.18792 28.5654C2.43527 28.9231 2.68657 29.3175 2.87829 29.6545C3.0183 29.9006 3.31009 30.031 3.57899 29.9424C5.71479 29.2382 7.57066 28.2864 9.15304 27.0494ZM11.6541 19.6511H6.80756C7.4128 21.1303 8.23326 22.4569 9.28678 23.6005C10.2728 22.4932 11.0597 21.1846 11.6541 19.6511Z" fill="#092987"/>
</svg>
