<svg width="32" height="33" viewBox="0 0 32 33" fill="none" xmlns="http://www.w3.org/2000/svg">
<path d="M4.5 17.1582V8.9082H27.5V17.1582H24.25C23.5596 17.1582 23 17.7178 23 18.4082C23 19.0986 23.5596 19.6582 24.25 19.6582H28C29.1046 19.6582 30 18.7628 30 17.6582V8.4082C30 7.30363 29.1046 6.4082 28 6.4082H4C2.89543 6.4082 2 7.30363 2 8.4082V17.6582C2 18.7628 2.89543 19.6582 4 19.6582H7.75C8.44036 19.6582 9 19.0986 9 18.4082C9 17.7178 8.44036 17.1582 7.75 17.1582H4.5Z" fill="#092987"/>
<path d="M18.25 13.4082C18.6642 13.4082 19 13.744 19 14.1582V23.4082L22.5 23.4082C22.9805 23.4082 23.1844 24.0199 22.8 24.3082L16.45 29.0707C16.1833 29.2707 15.8167 29.2707 15.55 29.0707L9.19999 24.3082C8.81559 24.0199 9.01949 23.4082 9.49999 23.4082H13L13 14.1582C13 13.744 13.3358 13.4082 13.75 13.4082H18.25Z" fill="#092987"/>
</svg>
