<svg width="32" height="33" viewBox="0 0 32 33" fill="none" xmlns="http://www.w3.org/2000/svg">
<path d="M14.75 3.4082H17.25C17.6642 3.4082 18 3.74399 18 4.1582V5.4082H27.75C28.4404 5.4082 29 5.96785 29 6.6582C29 7.34856 28.4404 7.9082 27.75 7.9082H4.25C3.55964 7.9082 3 7.34856 3 6.6582C3 5.96785 3.55964 5.4082 4.25 5.4082H14V4.1582C14 3.74399 14.3358 3.4082 14.75 3.4082Z" fill="#092987"/>
<path d="M8.25 11.4082V26.1582C8.25 26.5724 8.58579 26.9082 9 26.9082H23C23.4142 26.9082 23.75 26.5724 23.75 26.1582V11.4082C23.75 10.7178 24.3096 10.1582 25 10.1582C25.6904 10.1582 26.25 10.7178 26.25 11.4082V26.1582C26.25 27.9531 24.7949 29.4082 23 29.4082H9C7.20507 29.4082 5.75 27.9531 5.75 26.1582V11.4082C5.75 10.7178 6.30964 10.1582 7 10.1582C7.69036 10.1582 8.25 10.7178 8.25 11.4082Z" fill="#092987"/>
<path d="M13 10.1582C13.6904 10.1582 14.25 10.7178 14.25 11.4082V23.4082C14.25 24.0986 13.6904 24.6582 13 24.6582C12.3096 24.6582 11.75 24.0986 11.75 23.4082V11.4082C11.75 10.7178 12.3096 10.1582 13 10.1582Z" fill="#092987"/>
<path d="M20.25 11.4082V23.4082C20.25 24.0986 19.6904 24.6582 19 24.6582C18.3096 24.6582 17.75 24.0986 17.75 23.4082V11.4082C17.75 10.7178 18.3096 10.1582 19 10.1582C19.6904 10.1582 20.25 10.7178 20.25 11.4082Z" fill="#092987"/>
</svg>
