<svg width="32" height="33" viewBox="0 0 32 33" fill="none" xmlns="http://www.w3.org/2000/svg">
<path d="M1.75 16.4082C1.75 15.7178 2.30964 15.1582 3 15.1582H29C29.6904 15.1582 30.25 15.7178 30.25 16.4082C30.25 17.0986 29.6904 17.6582 29 17.6582H3C2.30964 17.6582 1.75 17.0986 1.75 16.4082Z" fill="#092987"/>
<path d="M16 8.58939L13.678 5.9082L18.322 5.9082L16 8.58939ZM15.2441 11.5353C15.6428 11.9958 16.3572 11.9958 16.7559 11.5353L22.3613 5.06286C22.9221 4.41521 22.4621 3.4082 21.6053 3.4082L10.3947 3.4082C9.53792 3.4082 9.07787 4.41521 9.63874 5.06286L15.2441 11.5353Z" fill="#092987"/>
<path d="M16 24.227L13.678 26.9082H18.322L16 24.227ZM15.2441 21.2811C15.6428 20.8206 16.3572 20.8206 16.7559 21.2811L22.3613 27.7535C22.9221 28.4012 22.4621 29.4082 21.6053 29.4082H10.3947C9.53792 29.4082 9.07787 28.4012 9.63874 27.7535L15.2441 21.2811Z" fill="#092987"/>
</svg>
