<svg width="32" height="33" viewBox="0 0 32 33" fill="none" xmlns="http://www.w3.org/2000/svg">
<path d="M14.5003 3.6582C14.5003 2.96785 15.06 2.4082 15.7503 2.4082C16.4407 2.4082 17.0003 2.96785 17.0003 3.6582V4.45106C20.4409 4.74204 24.1069 6.50409 26.4984 9.4082C28.4605 11.7906 29.4447 14.2374 29.8168 17.2036C29.8544 17.5034 29.8857 17.8084 29.9112 18.1193C29.9523 18.6212 29.9782 19.1383 29.9903 19.6723C29.9921 19.7504 29.9935 19.8289 29.9947 19.9077C29.9989 20.1838 29.7746 20.4082 29.4984 20.4082H29.0004C28.7315 20.4082 28.5183 20.194 28.4682 19.9307C28.4669 19.9237 28.4657 19.9166 28.4646 19.9096C28.3787 19.3574 28.1456 19.0083 27.84 18.7876C27.7165 18.6984 27.5813 18.6302 27.4391 18.5781C26.9762 18.4082 26.44 18.4082 26.0004 18.4082C25.3952 18.4082 24.4237 18.4082 23.751 18.8516C23.7338 18.8629 23.7168 18.8745 23.7 18.8864C23.4701 19.0496 23.2788 19.2685 23.1547 19.562C23.1098 19.6682 23.0737 19.7842 23.0478 19.9108C22.9923 20.1814 22.7766 20.4082 22.5004 20.4082H22.0004C21.7243 20.4082 21.5086 20.1814 21.4531 19.9108C21.4271 19.7842 21.391 19.6682 21.3461 19.562C21.2221 19.2685 21.0308 19.0496 20.8009 18.8864C20.7906 18.8791 20.7801 18.8719 20.7696 18.8648L20.7499 18.8516C20.0771 18.4082 19.1056 18.4082 18.5004 18.4082C18.3646 18.4082 18.2194 18.4082 18.0701 18.4132C17.7149 18.4252 17.3358 18.4655 17.0004 18.6018V27.1582C17.0004 29.3673 15.2095 31.1582 13.0004 31.1582C10.7912 31.1582 9.00037 29.3673 9.00037 27.1582V26.9082C9.00037 26.2178 9.56001 25.6582 10.2504 25.6582C10.9407 25.6582 11.5004 26.2178 11.5004 26.9082V27.1582C11.5004 27.9866 12.1719 28.6582 13.0004 28.6582C13.8288 28.6582 14.5004 27.9866 14.5004 27.1582V18.5391C14.2917 18.4877 14.0777 18.4565 13.8704 18.4375C13.5499 18.4082 13.2452 18.4082 13.0004 18.4082C12.4453 18.4082 11.7361 18.4082 11.2149 18.7504C11.1918 18.7655 11.1691 18.7814 11.1468 18.7979C10.9156 18.9691 10.7273 19.2155 10.6147 19.5702C10.5818 19.6738 10.5554 19.7867 10.5363 19.9096C10.4939 20.1824 10.2766 20.4082 10.0004 20.4082H9.50044C9.22429 20.4082 9.00856 20.1814 8.9531 19.9108C8.93431 19.8192 8.9102 19.7331 8.88128 19.6522C8.75936 19.3113 8.55204 19.0639 8.29772 18.8842C8.27392 18.8674 8.24972 18.8512 8.22514 18.8355C7.5535 18.4082 6.59827 18.4082 6.00044 18.4082C5.55953 18.4082 5.02141 18.4082 4.5575 18.5796C4.41581 18.632 4.28105 18.7003 4.15809 18.7895C3.85379 19.0104 3.62182 19.359 3.5362 19.9096C3.5351 19.9167 3.53388 19.9237 3.53254 19.9308C3.48243 20.194 3.26928 20.4082 3.00031 20.4082H2.4983C2.22216 20.4082 1.99785 20.1838 2.00201 19.9077C2.0032 19.8287 2.00468 19.75 2.00646 19.6717C2.01855 19.1386 2.04432 18.6225 2.08535 18.1214C2.11073 17.8115 2.14195 17.5073 2.17938 17.2084C2.55105 14.24 3.53531 11.7919 5.49842 9.4082C7.77531 6.64329 11.2074 4.91359 14.5003 4.50301V3.6582ZM27.0601 15.952C26.6251 14.0984 25.8372 12.5379 24.5686 10.9975C22.432 8.40296 18.9867 6.9082 15.9984 6.9082C13.0101 6.9082 9.56481 8.40296 7.42822 10.9975C6.1595 12.538 5.37153 14.0987 4.93658 15.9525C5.36052 15.9053 5.71841 15.907 5.92785 15.908L6.00044 15.9082L6.0621 15.9081C6.49782 15.9072 7.49725 15.9051 8.46522 16.2153C8.85178 16.3392 9.26512 16.5252 9.65857 16.7891C9.96595 16.5615 10.2859 16.3939 10.5935 16.2719C11.5278 15.9014 12.5155 15.906 12.9278 15.908L13.0004 15.9082L13.0719 15.908C13.5446 15.9064 14.7176 15.9025 15.8039 16.337C15.8274 16.3464 15.8509 16.356 15.8746 16.3659C16.8941 15.8971 17.9913 15.9048 18.4204 15.9078C18.4504 15.908 18.4772 15.9082 18.5004 15.9082L18.5621 15.9081C18.9978 15.9072 19.9972 15.9051 20.9652 16.2153C21.382 16.3489 21.8299 16.5546 22.2504 16.8524C22.671 16.5546 23.1189 16.3489 23.5357 16.2153C24.5036 15.9051 25.5031 15.9072 25.9388 15.9081L26.0004 15.9082L26.073 15.908C26.2818 15.907 26.638 15.9053 27.0601 15.952Z" fill="#092987"/>
</svg>
