<svg width="32" height="33" viewBox="0 0 32 33" fill="none" xmlns="http://www.w3.org/2000/svg">
<path d="M14.5003 3.6582C14.5003 2.96785 15.06 2.4082 15.7503 2.4082C16.4407 2.4082 17.0003 2.96785 17.0003 3.6582V4.45106C20.4409 4.74204 24.1069 6.50409 26.4984 9.4082C29.0258 12.4771 29.9306 15.6527 29.9947 19.9077C29.9989 20.1838 29.7746 20.4082 29.4984 20.4082H29.0004C28.7243 20.4082 28.507 20.1824 28.4646 19.9096C28.2311 18.4082 26.9093 18.4082 26.0004 18.4082C25.0913 18.4082 23.3558 18.4082 23.0478 19.9108C22.9923 20.1814 22.7766 20.4082 22.5004 20.4082H22.0004C21.7243 20.4082 21.5086 20.1814 21.4531 19.9108C21.1451 18.4082 19.4095 18.4082 18.5004 18.4082C18.0413 18.4082 17.4767 18.4082 17.0004 18.6018V27.1582C17.0004 29.3673 15.2095 31.1582 13.0004 31.1582C10.7912 31.1582 9.00037 29.3673 9.00037 27.1582V26.9082C9.00037 26.2178 9.56001 25.6582 10.2504 25.6582C10.9407 25.6582 11.5004 26.2178 11.5004 26.9082V27.1582C11.5004 27.9866 12.1719 28.6582 13.0004 28.6582C13.8288 28.6582 14.5004 27.9866 14.5004 27.1582V18.5391C13.9689 18.4082 13.4035 18.4082 13.0004 18.4082C12.0916 18.4082 10.7698 18.4082 10.5363 19.9096C10.4939 20.1824 10.2766 20.4082 10.0004 20.4082H9.50044C9.22429 20.4082 9.00856 20.1814 8.9531 19.9108C8.64507 18.4082 6.90953 18.4082 6.00044 18.4082C5.0916 18.4082 3.76967 18.4082 3.5362 19.9096C3.49377 20.1824 3.27646 20.4082 3.00031 20.4082H2.4983C2.22216 20.4082 1.99785 20.1838 2.00201 19.9077C2.06612 15.6527 2.97105 12.477 5.49842 9.4082C7.77531 6.64329 11.2074 4.91359 14.5003 4.50301V3.6582Z" fill="#092987"/>
</svg>
