<svg width="32" height="32" viewBox="0 0 32 32" fill="none" xmlns="http://www.w3.org/2000/svg">
<path d="M14 20C14 18.8954 14.8954 18 16 18C17.1046 18 18 18.8954 18 20C18 20.7403 17.5978 21.3866 17 21.7324V23.5C17 24.0523 16.5523 24.5 16 24.5C15.4477 24.5 15 24.0523 15 23.5V21.7324C14.4022 21.3866 14 20.7403 14 20Z" fill="#092987"/>
<path d="M16 2C17.9228 2 19.7669 2.76384 21.1265 4.12348C22.0045 5.00147 22.634 6.08148 22.9699 7.25411C23.1599 7.91779 22.776 8.60988 22.1123 8.79995C21.4487 8.99002 20.7566 8.60608 20.5665 7.9424C20.3464 7.17396 19.934 6.46644 19.3588 5.89124C18.468 5.00045 17.2598 4.5 16 4.5C14.7402 4.5 13.532 5.00044 12.6412 5.89124C11.7504 6.78204 11.25 7.99022 11.25 9.25V13H24C25.1046 13 26 13.8954 26 15V28C26 29.1046 25.1046 30 24 30H8C6.89543 30 6 29.1046 6 28V15C6 13.8954 6.89543 13 8 13H8.75V9.25C8.75 7.32718 9.51384 5.48311 10.8735 4.12348C12.2331 2.76384 14.0772 2 16 2ZM8.5 27.5H23.5V15.5H8.5V27.5Z" fill="#092987"/>
</svg>
