<svg width="32" height="32" viewBox="0 0 32 32" fill="none" xmlns="http://www.w3.org/2000/svg">
<path d="M16.45 4.15L23.8 10.6625C24.1844 10.9508 23.9805 11.5625 23.5 11.5625L19.375 11.5625V22.0625C19.375 22.4767 19.0392 22.8125 18.625 22.8125L13.375 22.8125C12.9608 22.8125 12.625 22.4767 12.625 22.0625L12.625 11.5625L8.49999 11.5625C8.01949 11.5625 7.81559 10.9508 8.19999 10.6625L15.55 4.15C15.8167 3.95 16.1833 3.95 16.45 4.15Z" fill="#092987"/>
<path d="M4.5 22V27.5H27.5V22C27.5 21.3096 28.0596 20.75 28.75 20.75C29.4404 20.75 30 21.3096 30 22V28C30 29.1046 29.1046 30 28 30H4C2.89543 30 2 29.1046 2 28V22C2 21.3096 2.55964 20.75 3.25 20.75C3.94036 20.75 4.5 21.3096 4.5 22Z" fill="#092987"/>
</svg>
