<svg width="32" height="33" viewBox="0 0 32 33" fill="none" xmlns="http://www.w3.org/2000/svg">
<path d="M16 1.4082C13.0333 1.4082 10.1332 2.28794 7.66645 3.93616C5.19972 5.58438 3.27713 7.92706 2.14181 10.668C1.0065 13.4088 0.709449 16.4248 1.28823 19.3346C1.86701 22.2443 3.29562 24.917 5.3934 27.0148C7.49119 29.1126 10.1639 30.5412 13.0737 31.12C15.9834 31.6988 18.9994 31.4017 21.7403 30.2664C24.4812 29.1311 26.8238 27.2085 28.4721 24.7418C30.1203 22.275 31 19.3749 31 16.4082C31 12.43 29.4197 8.61465 26.6066 5.8016C23.7936 2.98856 19.9783 1.4082 16 1.4082ZM8.22401 26.1772C8.8445 24.6219 9.91713 23.2884 11.3033 22.349C12.6895 21.4096 14.3255 20.9075 16 20.9075C17.6745 20.9075 19.3105 21.4096 20.6967 22.349C22.0829 23.2884 23.1555 24.6219 23.776 26.1772C21.5698 27.9449 18.8271 28.9082 16 28.9082C13.1729 28.9082 10.4302 27.9449 8.22401 26.1772ZM25.669 24.3192C24.7573 22.5396 23.3722 21.0462 21.6662 20.0033C19.9602 18.9605 17.9995 18.4087 16 18.4087C14.0005 18.4087 12.0398 18.9605 10.3338 20.0033C8.62779 21.0462 7.24268 22.5396 6.33101 24.3192C4.83087 22.4883 3.88142 20.2691 3.59309 17.9197C3.30476 15.5703 3.68941 13.1874 4.70229 11.0481C5.71517 8.90875 7.31464 7.10097 9.31466 5.83504C11.3147 4.56911 13.633 3.89705 16 3.89705C18.367 3.89705 20.6853 4.56911 22.6854 5.83504C24.6854 7.10097 26.2848 8.90875 27.2977 11.0481C28.3106 13.1874 28.6952 15.5703 28.4069 17.9197C28.1186 20.2691 27.1691 22.4883 25.669 24.3192ZM16 5.9082C14.9122 5.9082 13.8488 6.23077 12.9444 6.83512C12.0399 7.43947 11.335 8.29845 10.9187 9.30344C10.5024 10.3084 10.3935 11.4143 10.6057 12.4812C10.8179 13.5481 11.3417 14.5281 12.1109 15.2973C12.8801 16.0665 13.8601 16.5903 14.927 16.8025C15.9939 17.0147 17.0998 16.9058 18.1048 16.4895C19.1098 16.0733 19.9687 15.3683 20.5731 14.4638C21.1774 13.5594 21.5 12.496 21.5 11.4082C21.5 9.94951 20.9205 8.55057 19.8891 7.51912C18.8576 6.48767 17.4587 5.9082 16 5.9082ZM16 14.4082C15.4067 14.4082 14.8266 14.2323 14.3333 13.9026C13.8399 13.573 13.4554 13.1044 13.2284 12.5563C13.0013 12.0081 12.9419 11.4049 13.0577 10.8229C13.1734 10.241 13.4591 9.70644 13.8787 9.28688C14.2982 8.86732 14.8328 8.5816 15.4147 8.46585C15.9967 8.35009 16.5999 8.4095 17.1481 8.63656C17.6962 8.86363 18.1648 9.24814 18.4944 9.74149C18.8241 10.2348 19 10.8149 19 11.4082C19 12.2039 18.6839 12.9669 18.1213 13.5295C17.5587 14.0921 16.7957 14.4082 16 14.4082Z" fill="#092987"/>
</svg>
