<svg width="32" height="33" viewBox="0 0 32 33" fill="none" xmlns="http://www.w3.org/2000/svg">
<path d="M15.9992 16.9084C17.087 16.9084 18.1504 16.5858 19.0548 15.9815C19.9593 15.3772 20.6643 14.5182 21.0805 13.5132C21.4968 12.5082 21.6057 11.4023 21.3935 10.3354C21.1813 9.26852 20.6575 8.28852 19.8883 7.51933C19.1191 6.75014 18.1391 6.22632 17.0722 6.0141C16.0053 5.80188 14.8994 5.9108 13.8944 6.32708C12.8895 6.74336 12.0305 7.44831 11.4261 8.35278C10.8218 9.25725 10.4992 10.3206 10.4992 11.4084C10.4992 12.8671 11.0787 14.2661 12.1101 15.2975C13.1416 16.329 14.5405 16.9084 15.9992 16.9084ZM15.9992 8.40842C16.5925 8.40842 17.1726 8.58436 17.6659 8.91401C18.1593 9.24365 18.5438 9.71219 18.7708 10.2604C18.9979 10.8085 19.0573 11.4117 18.9416 11.9937C18.8258 12.5756 18.5401 13.1102 18.1205 13.5297C17.701 13.9493 17.1664 14.235 16.5845 14.3508C16.0025 14.4665 15.3993 14.4071 14.8512 14.1801C14.303 13.953 13.8344 13.5685 13.5048 13.0751C13.1752 12.5818 12.9992 12.0018 12.9992 11.4084C12.9992 10.6128 13.3153 9.84971 13.8779 9.2871C14.4405 8.72449 15.2036 8.40842 15.9992 8.40842ZM30.9992 16.4084C31.0046 13.1911 29.977 10.057 28.0678 7.46732C26.1585 4.87768 23.4685 2.96929 20.3934 2.02299C17.3184 1.07669 14.0208 1.14247 10.9859 2.21063C7.95104 3.2788 5.3392 5.29294 3.53475 7.95666C1.7303 10.6204 0.828544 13.793 0.962193 17.0075C1.09584 20.2221 2.25784 23.3089 4.27717 25.8136C6.2965 28.3184 9.06652 30.1088 12.1796 30.9213C15.2926 31.7339 18.5843 31.5257 21.5702 30.3274C22.7247 31.1342 24.1264 31.5087 25.5295 31.3853C26.9325 31.2618 28.2473 30.6484 29.2432 29.6524C30.2391 28.6565 30.8526 27.3417 30.976 25.9387C31.0995 24.5356 30.725 23.1339 29.9182 21.9794C30.6313 20.2086 30.9982 18.3174 30.9992 16.4084ZM6.3302 24.3184C4.95835 22.6432 4.04517 20.6404 3.68012 18.5061C3.31507 16.3719 3.51066 14.1794 4.24774 12.1435C4.98482 10.1076 6.23811 8.29803 7.88483 6.89212C9.53155 5.48621 11.5152 4.53216 13.6415 4.12343C15.7679 3.71469 17.9639 3.86529 20.0145 4.56047C22.0651 5.25565 23.9 6.47157 25.3393 8.08912C26.7787 9.70667 27.7732 11.6704 28.2255 13.7879C28.6777 15.9053 28.5722 18.104 27.9192 20.1684C27.0119 19.6612 25.9881 19.3993 24.9487 19.4086C23.9093 19.4179 22.8903 19.6981 21.9922 20.2214C20.7189 19.3755 19.2812 18.8082 17.7734 18.5569C16.2655 18.3055 14.7215 18.3757 13.2427 18.7628C11.7639 19.1499 10.3836 19.8452 9.19229 20.8032C8.00101 21.7612 7.02566 22.9601 6.3302 24.3214V24.3184ZM19.7592 28.3284C17.8075 28.9459 15.7337 29.0726 13.7214 28.6974C11.709 28.3223 9.82024 27.4567 8.2222 26.1774C8.66197 25.0703 9.33342 24.07 10.1915 23.2436C11.0496 22.4172 12.0745 21.7839 13.1974 21.3862C14.3203 20.9884 15.5153 20.8354 16.7023 20.9374C17.8892 21.0393 19.0406 21.3939 20.0792 21.9774C19.435 22.8988 19.0633 23.9831 19.0068 25.1059C18.9502 26.2288 19.2109 27.3449 19.7592 28.3264V28.3284ZM28.0592 25.4084C28.0591 25.6232 28.0363 25.8374 27.9912 26.0474L28.6062 26.4034C28.6923 26.4552 28.7545 26.5388 28.7794 26.6361C28.8043 26.7334 28.7899 26.8367 28.7392 26.9234L28.1672 27.9154C28.1156 28.002 28.0318 28.0646 27.9342 28.0895C27.8365 28.1144 27.733 28.0997 27.6462 28.0484L27.0202 27.6864C26.7059 27.9669 26.3363 28.1785 25.9352 28.3074V29.0244C25.9355 29.1253 25.8957 29.2222 25.8247 29.2938C25.7536 29.3654 25.6571 29.4059 25.5562 29.4064H24.4122C24.3111 29.4062 24.2142 29.3658 24.1427 29.2942C24.0713 29.2226 24.0312 29.1256 24.0312 29.0244V28.2914C23.643 28.1602 23.2855 27.9517 22.9802 27.6784L22.3412 28.0484C22.2544 28.0997 22.1509 28.1144 22.0532 28.0895C21.9556 28.0646 21.8718 28.002 21.8202 27.9154L21.2482 26.9234C21.1971 26.8367 21.1825 26.7332 21.2076 26.6357C21.2327 26.5382 21.2955 26.4547 21.3822 26.4034L22.0152 26.0384C21.9282 25.6239 21.9282 25.1959 22.0152 24.7814L21.3822 24.4164C21.2955 24.365 21.2327 24.2813 21.2075 24.1836C21.1824 24.0859 21.197 23.9823 21.2482 23.8954L21.8202 22.9044C21.8718 22.8179 21.9556 22.7553 22.0532 22.7303C22.1509 22.7054 22.2544 22.7202 22.3412 22.7714L22.9802 23.1404C23.2895 22.8627 23.6527 22.6516 24.0472 22.5204V21.7944C24.0456 21.694 24.0838 21.597 24.1535 21.5246C24.2232 21.4523 24.3188 21.4105 24.4192 21.4084H25.5822C25.6835 21.4084 25.7807 21.4487 25.8523 21.5203C25.924 21.5919 25.9642 21.6891 25.9642 21.7904V22.5154C26.358 22.6453 26.721 22.8543 27.0312 23.1294L27.6582 22.7674C27.745 22.7166 27.8484 22.7021 27.9458 22.7272C28.0432 22.7523 28.1268 22.815 28.1782 22.9014L28.7502 23.8924C28.8014 23.979 28.8161 24.0824 28.7912 24.1799C28.7663 24.2774 28.7037 24.361 28.6172 24.4124L27.9992 24.7684C28.0421 24.979 28.0629 25.1935 28.0612 25.4084H28.0592ZM26.2492 25.4084C26.2492 25.6556 26.1759 25.8973 26.0385 26.1029C25.9012 26.3084 25.706 26.4687 25.4776 26.5633C25.2491 26.6579 24.9978 26.6826 24.7553 26.6344C24.5129 26.5862 24.2901 26.4671 24.1153 26.2923C23.9405 26.1175 23.8215 25.8948 23.7732 25.6523C23.725 25.4098 23.7497 25.1585 23.8444 24.9301C23.939 24.7017 24.0992 24.5064 24.3047 24.3691C24.5103 24.2317 24.752 24.1584 24.9992 24.1584C25.3307 24.1584 25.6487 24.2901 25.8831 24.5245C26.1175 24.759 26.2492 25.0769 26.2492 25.4084Z" fill="#092987"/>
</svg>
