<svg width="32" height="33" viewBox="0 0 32 33" fill="none" xmlns="http://www.w3.org/2000/svg">
<path d="M8.5 11.1582C8.5 11.8486 7.94036 12.4082 7.25 12.4082C6.55964 12.4082 6 11.8486 6 11.1582C6 10.4678 6.55964 9.9082 7.25 9.9082C7.94036 9.9082 8.5 10.4678 8.5 11.1582Z" fill="#092987"/>
<path d="M11.25 12.4082C11.9404 12.4082 12.5 11.8486 12.5 11.1582C12.5 10.4678 11.9404 9.9082 11.25 9.9082C10.5596 9.9082 10 10.4678 10 11.1582C10 11.8486 10.5596 12.4082 11.25 12.4082Z" fill="#092987"/>
<path d="M5 6.1582H27C28.7949 6.1582 30.25 7.61328 30.25 9.4082V23.4082C30.25 25.2031 28.7949 26.6582 27 26.6582H5C3.20507 26.6582 1.75 25.2031 1.75 23.4082V9.4082C1.75 7.61328 3.20507 6.1582 5 6.1582ZM4.25 9.4082V13.4082H27.75V9.4082C27.75 8.99399 27.4142 8.6582 27 8.6582H5C4.58579 8.6582 4.25 8.99399 4.25 9.4082ZM4.25 15.4082V23.4082C4.25 23.8224 4.58579 24.1582 5 24.1582H27C27.4142 24.1582 27.75 23.8224 27.75 23.4082V15.4082H4.25Z" fill="#092987"/>
</svg>
