<svg width="32" height="33" viewBox="0 0 32 33" fill="none" xmlns="http://www.w3.org/2000/svg">
<path d="M24.5543 4.39699C22.0204 2.58988 18.9809 1.63137 15.8703 1.65877C12.7596 1.68618 9.73748 2.6981 7.23572 4.54955C4.734 6.40097 2.88079 8.99705 1.94048 11.9665C1.00017 14.9359 1.02074 18.1271 1.99924 21.0841C2.97776 24.0411 4.86429 26.613 7.38968 28.4319C9.30191 29.8092 11.5063 30.7013 13.8145 31.0478C14.4972 31.1502 15.1337 30.6799 15.2362 29.9972C15.3386 29.3145 14.8683 28.6779 14.1855 28.5755C12.2692 28.2878 10.4389 27.5471 8.85077 26.4033C6.75339 24.8927 5.18587 22.7561 4.37267 20.2987C3.55947 17.8412 3.54237 15.189 4.32384 12.7212C5.10529 10.2534 6.64516 8.09675 8.72291 6.55909C10.8006 5.02146 13.31 4.18143 15.8923 4.15868C18.4747 4.13593 20.9983 4.93162 23.1027 6.43239C25.2071 7.93319 26.7846 10.0624 27.6092 12.516C28.328 14.6548 28.4427 16.9445 27.9502 19.1339C27.7987 19.8074 28.2219 20.4762 28.8954 20.6277C29.569 20.7792 30.2378 20.356 30.3893 19.6825C30.9818 17.0482 30.8439 14.2932 29.9789 11.7195C28.9866 8.76711 27.0881 6.20407 24.5543 4.39699Z" fill="#092987"/>
<path d="M19.9643 9.40814C20.3276 9.40814 20.5696 9.78331 20.4198 10.1143L17.8917 15.7011H19.3429C19.619 15.7011 19.8429 15.925 19.8429 16.2011V16.6865C19.8429 16.9626 19.619 17.1865 19.3429 17.1865H17.3029V18.2499H19.3429C19.619 18.2499 19.8429 18.4738 19.8429 18.7499V19.2265C19.8429 19.5026 19.619 19.7265 19.3429 19.7265H17.3029V21.705C17.3029 21.9812 17.079 22.205 16.8029 22.205H15.1749C14.8988 22.205 14.6749 21.9812 14.6749 21.705V19.7265H12.4679C12.1917 19.7265 11.9679 19.5026 11.9679 19.2265V18.7499C11.9679 18.4738 12.1917 18.2499 12.4679 18.2499H14.6749V17.1865H12.4679C12.1917 17.1865 11.9679 16.9626 11.9679 16.6865V16.2011C11.9679 15.925 12.1917 15.7011 12.4679 15.7011H14.1546L11.6204 10.1147C11.4703 9.78369 11.7123 9.40814 12.0758 9.40814H13.6938C13.8988 9.40814 14.083 9.53322 14.1585 9.72372L16.0278 14.4343L17.8813 9.72503C17.9565 9.53384 18.1411 9.40814 18.3465 9.40814H19.9643Z" fill="#092987"/>
<path d="M23.5799 23.2602V25.6583H18.3299C17.9157 25.6583 17.5799 25.994 17.5799 26.4083V28.4083C17.5799 28.8225 17.9157 29.1583 18.3299 29.1583L30.2492 29.1583C30.7109 29.1583 30.9259 28.5861 30.5784 28.282L24.4092 22.8839C24.0859 22.601 23.5799 22.8306 23.5799 23.2602Z" fill="#092987"/>
</svg>
