<svg width="32" height="33" viewBox="0 0 32 33" fill="none" xmlns="http://www.w3.org/2000/svg">
<path d="M15.6203 1.40877C18.7309 1.38137 21.7704 2.33988 24.3043 4.14699C26.8381 5.95407 28.7366 8.51711 29.7289 11.4695C30.5939 14.0432 30.7318 16.7982 30.1393 19.4325C29.9878 20.106 29.319 20.5292 28.6454 20.3777C27.9719 20.2262 27.5487 19.5574 27.7002 18.8839C28.1927 16.6945 28.078 14.4048 27.3592 12.266C26.5346 9.81239 24.9571 7.68319 22.8527 6.18239C20.7483 4.68162 18.2247 3.88593 15.6423 3.90868C13.06 3.93143 10.5506 4.77146 8.47291 6.30909C6.39516 7.84675 4.85529 10.0034 4.07384 12.4712C3.29237 14.939 3.30947 17.5912 4.12267 20.0487C4.93587 22.5061 6.50339 24.6427 8.60077 26.1533C10.1889 27.2971 12.0192 28.0378 13.9355 28.3255C14.6183 28.4279 15.0886 29.0645 14.9862 29.7472C14.8837 30.4299 14.2472 30.9002 13.5645 30.7978C11.2563 30.4513 9.05191 29.5592 7.13968 28.1819C4.61429 26.363 2.72776 23.7911 1.74924 20.8341C0.770739 17.8771 0.750173 14.6859 1.69048 11.7165C2.63079 8.74705 4.484 6.15097 6.98572 4.29955C9.48748 2.4481 12.5096 1.43618 15.6203 1.40877Z" fill="#092987"/>
<path d="M24.75 25.6581V23.2601C24.75 22.8305 24.244 22.6009 23.9207 22.8838L17.7515 28.2819C17.404 28.5859 17.619 29.1582 18.0807 29.1582L30 29.1581C30.4142 29.1581 30.75 28.8223 30.75 28.4081V26.4081C30.75 25.9939 30.4142 25.6581 30 25.6581H24.75Z" fill="#092987"/>
<path d="M20.1697 9.86434C20.3195 9.53337 20.0775 9.1582 19.7142 9.1582H18.0964C17.8909 9.1582 17.7064 9.2839 17.6311 9.47509L15.7777 14.1843L13.9084 9.47378C13.8328 9.28328 13.6486 9.1582 13.4437 9.1582H11.8257C11.4622 9.1582 11.2202 9.53375 11.3703 9.86476L13.9045 15.4512H12.2178C11.9416 15.4512 11.7178 15.675 11.7178 15.9512V16.4365C11.7178 16.7127 11.9416 16.9365 12.2178 16.9365H14.4248V18H12.2178C11.9416 18 11.7178 18.2239 11.7178 18.5V18.9766C11.7178 19.2527 11.9416 19.4766 12.2178 19.4766H14.4248V21.4551C14.4248 21.7312 14.6487 21.9551 14.9248 21.9551H16.5527C16.8289 21.9551 17.0527 21.7312 17.0527 21.4551V19.4766H19.0928C19.3689 19.4766 19.5928 19.2527 19.5928 18.9766V18.5C19.5928 18.2239 19.3689 18 19.0928 18H17.0527V16.9365H19.0928C19.3689 16.9365 19.5928 16.7127 19.5928 16.4365V15.9512C19.5928 15.675 19.3689 15.4512 19.0928 15.4512H17.6416L20.1697 9.86434Z" fill="#092987"/>
</svg>
