<svg width="32" height="33" viewBox="0 0 32 33" fill="none" xmlns="http://www.w3.org/2000/svg">
<path d="M19.9642 8.4082C20.3275 8.4082 20.5695 8.78337 20.4197 9.11434L17.8916 14.7012H19.3428C19.6189 14.7012 19.8428 14.925 19.8428 15.2012V15.6865C19.8428 15.9627 19.6189 16.1865 19.3428 16.1865H17.3027V17.25H19.3428C19.6189 17.25 19.8428 17.4739 19.8428 17.75V18.2266C19.8428 18.5027 19.6189 18.7266 19.3428 18.7266H17.3027V20.7051C17.3027 20.9812 17.0789 21.2051 16.8027 21.2051H15.1748C14.8987 21.2051 14.6748 20.9812 14.6748 20.7051V18.7266H12.4678C12.1916 18.7266 11.9678 18.5027 11.9678 18.2266V17.75C11.9678 17.4739 12.1916 17.25 12.4678 17.25H14.6748V16.1865H12.4678C12.1916 16.1865 11.9678 15.9627 11.9678 15.6865V15.2012C11.9678 14.925 12.1916 14.7012 12.4678 14.7012H14.1545L11.6203 9.11476C11.4702 8.78375 11.7122 8.4082 12.0757 8.4082H13.6937C13.8986 8.4082 14.0828 8.53328 14.1584 8.72378L16.0277 13.4343L17.8811 8.72509C17.9564 8.5339 18.1409 8.4082 18.3464 8.4082H19.9642Z" fill="#092987"/>
<path d="M15.8703 1.65877C18.9809 1.63137 22.0204 2.58988 24.5543 4.39699C27.0881 6.20407 28.9866 8.76711 29.9789 11.7195C30.6071 13.5887 30.8518 15.5534 30.7118 17.498C30.6622 18.1866 30.0638 18.7046 29.3752 18.655C28.6866 18.6054 28.1686 18.007 28.2182 17.3184C28.3346 15.7021 28.1312 14.0693 27.6092 12.516C26.7846 10.0624 25.2071 7.93319 23.1027 6.43239C20.9983 4.93162 18.4747 4.13593 15.8923 4.15868C13.31 4.18143 10.8006 5.02146 8.72291 6.55909C6.64516 8.09675 5.10529 10.2534 4.32384 12.7212C3.54237 15.189 3.55947 17.8412 4.37267 20.2987C5.18587 22.7561 6.75339 24.8927 8.85077 26.4033C9.92886 27.1798 11.1186 27.7705 12.371 28.1598C13.0303 28.3647 13.3986 29.0653 13.1937 29.7245C12.9888 30.3838 12.2882 30.7521 11.629 30.5471C10.1205 30.0783 8.68777 29.3669 7.38968 28.4319C4.86429 26.613 2.97776 24.0411 1.99924 21.0841C1.02074 18.1271 1.00017 14.9359 1.94048 11.9665C2.88079 8.99705 4.734 6.40097 7.23572 4.54955C9.73748 2.6981 12.7596 1.68618 15.8703 1.65877Z" fill="#092987"/>
<path d="M20.6153 21.4082C20.6153 20.8559 21.063 20.4082 21.6153 20.4082H30C30.5523 20.4082 31 20.8559 31 21.4082V26.3313C31 26.8836 30.5523 27.3313 30 27.3313H27.5386V24.1159C27.5386 23.3427 26.9118 22.7159 26.1386 22.7159H20.6153V21.4082ZM16 24.8697C16 24.3174 16.4477 23.8697 17 23.8697H25.3847C25.937 23.8697 26.3847 24.3174 26.3847 24.8697V25.6006H16V24.8697ZM16 26.7544H26.3847V29.7928C26.3847 30.3451 25.937 30.7928 25.3847 30.7928H17C16.4477 30.7928 16 30.3451 16 29.7928V26.7544Z" fill="#092987"/>
</svg>
