<svg width="32" height="33" viewBox="0 0 32 33" fill="none" xmlns="http://www.w3.org/2000/svg">
<path d="M24.5543 4.14699C27.0881 5.95407 28.9866 8.51711 29.9789 11.4695C30.6071 13.3387 30.8518 15.3034 30.7118 17.248C30.6622 17.9366 30.0638 18.4546 29.3752 18.405C28.6866 18.3554 28.1686 17.757 28.2182 17.0684C28.3346 15.4521 28.1312 13.8193 27.6092 12.266C26.7846 9.81239 25.2071 7.68319 23.1027 6.18239C20.9983 4.68162 18.4747 3.88593 15.8923 3.90868C13.31 3.93143 10.8006 4.77146 8.72291 6.30909C6.64516 7.84675 5.10529 10.0034 4.32384 12.4712C3.54237 14.939 3.55947 17.5912 4.37267 20.0487C5.18587 22.5061 6.75339 24.6427 8.85077 26.1533C9.92886 26.9298 11.1186 27.5205 12.371 27.9098C13.0303 28.1147 13.3986 28.8153 13.1937 29.4745C12.9888 30.1338 12.2882 30.5021 11.629 30.2971C10.1205 29.8283 8.68777 29.1169 7.38968 28.1819C4.86429 26.363 2.97776 23.7911 1.99924 20.8341C1.02074 17.8771 1.00017 14.6859 1.94048 11.7165C2.88079 8.74705 4.734 6.15097 7.23572 4.29955C9.73748 2.4481 12.7596 1.43618 15.8703 1.40877C18.9809 1.38137 22.0204 2.33988 24.5543 4.14699Z" fill="#092987"/>
<path d="M20.3722 9.86434L17.8434 15.4527H19.2951C19.5712 15.4527 19.7951 15.6766 19.7951 15.9527V16.4384C19.7951 16.7146 19.5712 16.9384 19.2951 16.9384H17.2544V18.0022H19.2951C19.5712 18.0022 19.7951 18.226 19.7951 18.5022V18.9791C19.7951 19.2552 19.5712 19.4791 19.2951 19.4791H17.2544V21.4582C17.2544 21.7343 17.0305 21.9582 16.7544 21.9582H15.1258C14.8497 21.9582 14.6258 21.7343 14.6258 21.4582V19.4791H12.4181C12.142 19.4791 11.9181 19.2552 11.9181 18.9791V18.5022C11.9181 18.226 12.142 18.0022 12.4181 18.0022H14.6258V16.9384H12.4181C12.142 16.9384 11.9181 16.7146 11.9181 16.4384V15.9527C11.9181 15.6766 12.142 15.4527 12.4181 15.4527H14.1054L11.5705 9.86476C11.4204 9.53374 11.6624 9.1582 12.0259 9.1582H13.6446C13.8495 9.1582 14.0337 9.28328 14.1093 9.47378L15.9791 14.1856L17.833 9.47509C17.9082 9.2839 18.0928 9.1582 18.2982 9.1582H19.9167C20.28 9.1582 20.522 9.53337 20.3722 9.86434Z" fill="#092987"/>
<path d="M30.8197 22.9274C31.1656 23.232 30.9501 23.8027 30.4892 23.8027L20.75 23.8027C20.3358 23.8027 20 23.4669 20 23.0527V21.5527C20 21.1385 20.3358 20.8027 20.75 20.8027L25 20.8027L25 18.9092C25.0001 18.4788 25.5075 18.2495 25.8305 18.5339L30.8197 22.9274Z" fill="#092987"/>
<path d="M15.1705 26.2835C14.8246 25.9789 15.04 25.4083 15.5009 25.4083L25.2402 25.4083C25.6544 25.4083 25.9902 25.744 25.9902 26.1583V27.6583C25.9902 28.0725 25.6544 28.4083 25.2402 28.4083L20.9902 28.4083L20.9901 30.3018C20.9901 30.7321 20.4827 30.9614 20.1597 30.677L15.1705 26.2835Z" fill="#092987"/>
</svg>
