<svg width="32" height="33" viewBox="0 0 32 33" fill="none" xmlns="http://www.w3.org/2000/svg">
<path d="M24.8168 3.4082C25.3669 3.4082 25.7298 3.98078 25.495 4.47828L19.9665 16.1939H23.3506C23.7648 16.1939 24.1006 16.5297 24.1006 16.9439V18.4618C24.1006 18.876 23.7648 19.2118 23.3506 19.2118H18.7188V21.3725H23.3506C23.7648 21.3725 24.1006 21.7083 24.1006 22.1225V23.6225C24.1006 24.0367 23.7648 24.3725 23.3506 24.3725H18.7188V28.6582C18.7188 29.0724 18.383 29.4082 17.9688 29.4082H13.9008C13.4866 29.4082 13.1508 29.0724 13.1508 28.6582V24.3725H8.16527C7.75106 24.3725 7.41527 24.0367 7.41527 23.6225V22.1225C7.41527 21.7083 7.75106 21.3725 8.16527 21.3725H13.1508V19.2118H8.16527C7.75106 19.2118 7.41527 18.876 7.41527 18.4618V16.9439C7.41527 16.5297 7.75106 16.1939 8.16527 16.1939H12.0484L6.50651 4.47892C6.27114 3.98137 6.63406 3.4082 7.18448 3.4082H11.2901C11.5936 3.4082 11.8671 3.59104 11.9831 3.87142L16.0173 13.62L20.0176 3.87343C20.1331 3.59199 20.4072 3.4082 20.7115 3.4082H24.8168Z" fill="#092987"/>
</svg>
